<?xml version="1.0" encoding="UTF-8"?>
<!DOCTYPE svg PUBLIC "-//W3C//DTD SVG 1.1//EN" "http://www.w3.org/Graphics/SVG/1.1/DTD/svg11.dtd">
<!-- Creator: CorelDRAW X6 -->
<svg xmlns="http://www.w3.org/2000/svg" xml:space="preserve" width="315.383mm" height="313.267mm" version="1.1" style="shape-rendering:geometricPrecision; text-rendering:geometricPrecision; image-rendering:optimizeQuality; fill-rule:evenodd; clip-rule:evenodd"
viewBox="0 0 14957 14856"
 xmlns:xlink="http://www.w3.org/1999/xlink">
 <defs>
  <style type="text/css">
   <![CDATA[
    .fil0 {fill:none}
    .fil3 {fill:url(#id0)}
    .fil4 {fill:url(#id1)}
    .fil8 {fill:url(#id2)}
    .fil1 {fill:url(#id3)}
    .fil9 {fill:url(#id4)}
    .fil2 {fill:url(#id5)}
    .fil5 {fill:url(#id6)}
    .fil6 {fill:url(#id7)}
    .fil7 {fill:url(#id8)}
   ]]>
  </style>
  <linearGradient id="id0" gradientUnits="userSpaceOnUse" x1="8767.69" y1="370.66" x2="9430.2" y2="8781.3">
   <stop offset="0" style="stop-color:#1FFED6"/>
   <stop offset="1" style="stop-color:#FFF164"/>
  </linearGradient>
  <linearGradient id="id1" gradientUnits="userSpaceOnUse" x1="652.168" y1="6265.27" x2="10092.1" y2="7088.34">
   <stop offset="0" style="stop-color:#E646B6"/>
   <stop offset="1" style="stop-color:#FFF164"/>
  </linearGradient>
  <linearGradient id="id2" gradientUnits="userSpaceOnUse" x1="7216.68" y1="7273.29" x2="7204.62" y2="7033.82">
   <stop offset="0" style="stop-color:#FFF164"/>
   <stop offset="0.411765" style="stop-color:#1FFED6"/>
   <stop offset="1" style="stop-color:#9933FF"/>
  </linearGradient>
  <linearGradient id="id3" gradientUnits="userSpaceOnUse" x1="5570.37" y1="14040.1" x2="6807.62" y2="6765.69">
   <stop offset="0" style="stop-color:#FFF164"/>
   <stop offset="1" style="stop-color:#9933FF"/>
  </linearGradient>
  <linearGradient id="id4" gradientUnits="userSpaceOnUse" xlink:href="#id2" x1="7752.59" y1="7263.53" x2="7740.48" y2="7023">
  </linearGradient>
  <linearGradient id="id5" gradientUnits="userSpaceOnUse" x1="14119" y1="9920.11" x2="6323.07" y2="7847.45">
   <stop offset="0" style="stop-color:#9933FF"/>
   <stop offset="1" style="stop-color:#1FFED6"/>
  </linearGradient>
  <linearGradient id="id6" gradientUnits="userSpaceOnUse" x1="7481.38" y1="7713.81" x2="7490.9" y2="7063.36">
   <stop offset="0" style="stop-color:#9933FF"/>
   <stop offset="1" style="stop-color:#FFF164"/>
  </linearGradient>
  <linearGradient id="id7" gradientUnits="userSpaceOnUse" xlink:href="#id2" x1="7210.87" y1="7752.6" x2="7198.4" y2="7504.97">
  </linearGradient>
  <linearGradient id="id8" gradientUnits="userSpaceOnUse" xlink:href="#id2" x1="7758.58" y1="7748.34" x2="7746.53" y2="7509.23">
  </linearGradient>
 </defs>
 <g id="Layer_x0020_1">
  <metadata id="CorelCorpID_0Corel-Layer"/>
  <rect class="fil0" width="14957" height="14856"/>
  <path class="fil1" d="M7257 6874c246,-94 602,-5 719,247 2306,1725 -2265,5812 -7962,3911l0 3824 11038 -13c1258,-2469 1312,-4744 274,-6683 -1080,-2013 -3509,-2210 -4069,-1286z"/>
  <path class="fil2" d="M6955 7571l-1 1c-1469,-1829 723,-3744 2880,-4259 1634,-402 3246,-97 5123,941l0 10602 -3920 0c710,-1344 1080,-2725 987,-4155 -327,-4519 -4063,-4922 -4767,-3827 -196,87 -332,284 -332,514 0,64 10,126 30,183z"/>
  <path class="fil3" d="M14957 4251c-2289,-1224 -4008,-1403 -6285,-462 -1912,934 -2760,2441 -1737,3709 79,309 461,482 738,365 -1192,1289 -3366,27 -4054,-2860 -378,-1700 -107,-3366 701,-5003l10637 0 0 4251z"/>
  <path class="fil4" d="M7673 7863c-900,884 -2075,475 -3031,-640 -1487,-2210 -1541,-4625 -319,-7223l-4314 0 0 11032c5002,2322 10726,-1998 7966,-3922 34,72 52,152 52,236 0,236 -147,438 -354,517z"/>
 <ellipse xmlns="http://www.w3.org/2000/svg" class="fil5" cx="7486" cy="7389" rx="564" ry="567"/>
  </g>
</svg>
