<?xml version="1.0" encoding="UTF-8"?>
<!DOCTYPE svg PUBLIC "-//W3C//DTD SVG 1.1//EN" "http://www.w3.org/Graphics/SVG/1.1/DTD/svg11.dtd">
<!-- Creator: CorelDRAW X6 -->
<svg xmlns="http://www.w3.org/2000/svg" xml:space="preserve" width="406.047mm" height="231.069mm" version="1.1" style="shape-rendering:geometricPrecision; text-rendering:geometricPrecision; image-rendering:optimizeQuality; fill-rule:evenodd; clip-rule:evenodd"
viewBox="0 0 40322 22946"
 xmlns:xlink="http://www.w3.org/1999/xlink">
 <defs>
  <style type="text/css">
   <![CDATA[
    .fil2 {fill:#FEFEFE}
    .fil0 {fill:#9933FF}
    .fil4 {fill:#FFF164}
    .fil3 {fill:url(#id64)}
    .fil7 {fill:url(#id65)}
    .fil6 {fill:url(#id66)}
    .fil5 {fill:url(#id67)}
    .fil1 {fill:url(#id68)}
   ]]>
  </style>
     <clipPath id="id0">
      <path d="M12865 6751l2170 0 0 2169 -2170 0 0 -2169z"/>
     </clipPath>
    <clipPath id="id1">
     <path d="M17305 9026l4725 0 0 4724 -4725 0 0 -4724z"/>
    </clipPath>
    <clipPath id="id2">
     <path d="M17305 9026l4725 0 0 4724 -4725 0 0 -4724z"/>
    </clipPath>
    <clipPath id="id3">
     <path d="M17699 9419l3937 0 0 3938 -3937 0 0 -3938z"/>
    </clipPath>
    <clipPath id="id4">
     <path d="M17699 9419l3937 0 0 3938 -3937 0 0 -3938z"/>
    </clipPath>
    <clipPath id="id5">
     <path d="M18092 9813l3150 0 0 3150 -3150 0 0 -3150z"/>
    </clipPath>
     <clipPath id="id6">
      <path d="M16282 19855l2789 0 0 2790 -2789 0 0 -2790z"/>
     </clipPath>
    <mask id="id7">
  <linearGradient id="id8" gradientUnits="userSpaceOnUse" x1="29804.6" y1="5374" x2="35155.4" y2="5374">
   <stop offset="0" style="stop-opacity:1; stop-color:white"/>
   <stop offset="1" style="stop-opacity:0; stop-color:white"/>
  </linearGradient>
     <rect style="fill:url(#id8)" x="29795" y="3125" width="5371" height="4497"/>
    </mask>
    <mask id="id9">
  <linearGradient id="id10" gradientUnits="userSpaceOnUse" x1="11329.2" y1="7386.16" x2="14875.2" y2="7386.16">
   <stop offset="0" style="stop-opacity:1; stop-color:white"/>
   <stop offset="1" style="stop-opacity:0; stop-color:white"/>
  </linearGradient>
     <rect style="fill:url(#id10)" x="11319" y="5249" width="3566" height="4274"/>
    </mask>
    <mask id="id11">
  <linearGradient id="id12" gradientUnits="userSpaceOnUse" x1="14815.1" y1="5568.67" x2="15173.9" y2="5568.67">
   <stop offset="0" style="stop-opacity:1; stop-color:white"/>
   <stop offset="1" style="stop-opacity:0; stop-color:white"/>
  </linearGradient>
     <rect style="fill:url(#id12)" x="14805" y="5379" width="379" height="379"/>
    </mask>
    <mask id="id13">
  <linearGradient id="id14" gradientUnits="userSpaceOnUse" x1="15657.4" y1="10556.6" x2="17958.3" y2="10556.6">
   <stop offset="0" style="stop-opacity:1; stop-color:white"/>
   <stop offset="1" style="stop-opacity:0; stop-color:white"/>
  </linearGradient>
     <rect style="fill:url(#id14)" x="15648" y="7978" width="2321" height="5156"/>
    </mask>
    <mask id="id15">
  <linearGradient id="id16" gradientUnits="userSpaceOnUse" x1="17850.6" y1="7915.23" x2="18351" y2="7915.23">
   <stop offset="0" style="stop-opacity:1; stop-color:white"/>
   <stop offset="1" style="stop-opacity:0; stop-color:white"/>
  </linearGradient>
     <rect style="fill:url(#id16)" x="17841" y="7656" width="520" height="518"/>
    </mask>
    <mask id="id17">
  <linearGradient id="id18" gradientUnits="userSpaceOnUse" x1="19699.1" y1="14274.9" x2="25181.6" y2="14274.9">
   <stop offset="0" style="stop-opacity:1; stop-color:white"/>
   <stop offset="1" style="stop-opacity:0; stop-color:white"/>
  </linearGradient>
     <rect style="fill:url(#id18)" x="19689" y="11730" width="5502" height="5090"/>
    </mask>
    <mask id="id19">
  <linearGradient id="id20" gradientUnits="userSpaceOnUse" x1="24144" y1="9898.32" x2="26655.7" y2="9898.32">
   <stop offset="0" style="stop-opacity:1; stop-color:white"/>
   <stop offset="1" style="stop-opacity:0; stop-color:white"/>
  </linearGradient>
     <rect style="fill:url(#id20)" x="24134" y="6180" width="2532" height="7437"/>
    </mask>
    <mask id="id21">
  <linearGradient id="id22" gradientUnits="userSpaceOnUse" x1="12633.9" y1="12998" x2="16009.1" y2="12998">
   <stop offset="0" style="stop-opacity:1; stop-color:white"/>
   <stop offset="1" style="stop-opacity:0; stop-color:white"/>
  </linearGradient>
     <rect style="fill:url(#id22)" x="12624" y="8582" width="3395" height="8832"/>
    </mask>
    <mask id="id23">
  <linearGradient id="id24" gradientUnits="userSpaceOnUse" x1="18823.2" y1="19749.4" x2="27321" y2="19749.4">
   <stop offset="0" style="stop-opacity:1; stop-color:white"/>
   <stop offset="1" style="stop-opacity:0; stop-color:white"/>
  </linearGradient>
     <rect style="fill:url(#id24)" x="18813" y="17911" width="8518" height="3676"/>
    </mask>
    <mask id="id25">
  <linearGradient id="id26" gradientUnits="userSpaceOnUse" x1="26193" y1="2709.86" x2="31630.1" y2="2709.86">
   <stop offset="0" style="stop-opacity:1; stop-color:white"/>
   <stop offset="1" style="stop-opacity:0; stop-color:white"/>
  </linearGradient>
     <rect style="fill:url(#id26)" x="26183" y="-10" width="5457" height="5440"/>
    </mask>
    <clipPath id="id27">
     <path d="M17650 7461l899 0 0 900 -899 0 0 -900z"/>
    </clipPath>
    <clipPath id="id28">
     <path d="M17650 7461l899 0 0 900 -899 0 0 -900z"/>
    </clipPath>
    <clipPath id="id29">
     <path d="M17650 7461l899 0 0 900 -899 0 0 -900z"/>
    </clipPath>
     <clipPath id="id30">
      <path d="M17650 7461l899 0 0 900 -899 0 0 -900z"/>
     </clipPath>
    <clipPath id="id31">
     <path d="M18743 16115l1292 0 0 1292 -1292 0 0 -1292z"/>
    </clipPath>
    <clipPath id="id32">
     <path d="M18743 16115l1292 0 0 1292 -1292 0 0 -1292z"/>
    </clipPath>
    <clipPath id="id33">
     <path d="M18743 16115l1292 0 0 1292 -1292 0 0 -1292z"/>
    </clipPath>
     <clipPath id="id34">
      <path d="M18743 16115l1292 0 0 1292 -1292 0 0 -1292z"/>
     </clipPath>
    <clipPath id="id35">
     <path d="M25319 13223l1322 0 0 1321 -1322 0 0 -1321z"/>
    </clipPath>
    <clipPath id="id36">
     <path d="M25319 13223l1322 0 0 1321 -1322 0 0 -1321z"/>
    </clipPath>
    <clipPath id="id37">
     <path d="M25319 13223l1322 0 0 1321 -1322 0 0 -1321z"/>
    </clipPath>
     <clipPath id="id38">
      <path d="M25319 13223l1322 0 0 1321 -1322 0 0 -1321z"/>
     </clipPath>
    <clipPath id="id39">
     <path d="M14666 5247l649 0 0 649 -649 0 0 -649z"/>
    </clipPath>
    <clipPath id="id40">
     <path d="M14666 5247l649 0 0 649 -649 0 0 -649z"/>
    </clipPath>
    <clipPath id="id41">
     <path d="M14666 5247l649 0 0 649 -649 0 0 -649z"/>
    </clipPath>
     <clipPath id="id42">
      <path d="M14666 5247l649 0 0 649 -649 0 0 -649z"/>
     </clipPath>
     <clipPath id="id43">
      <path d="M30467 5125l2687 0 0 2688 -2687 0 0 -2688z"/>
     </clipPath>
    <clipPath id="id44">
     <path d="M34349 7359l812 0 0 812 -812 0 0 -812z"/>
    </clipPath>
    <clipPath id="id45">
     <path d="M34349 7359l812 0 0 812 -812 0 0 -812z"/>
    </clipPath>
    <clipPath id="id46">
     <path d="M34349 7359l812 0 0 812 -812 0 0 -812z"/>
    </clipPath>
     <clipPath id="id47">
      <path d="M34349 7359l812 0 0 812 -812 0 0 -812z"/>
     </clipPath>
     <clipPath id="id48">
      <path d="M2094 7978l4339 0 106 4337 -4340 0 -105 -4337z"/>
     </clipPath>
    <clipPath id="id49">
     <path d="M35418 7218l4904 0 0 7886 -4853 0 -51 -7886z"/>
    </clipPath>
    <mask id="id50">
  <linearGradient id="id51" gradientUnits="userSpaceOnUse" x1="20.9529" y1="10922.7" x2="5862.48" y2="10922.7">
   <stop offset="0" style="stop-opacity:1; stop-color:white"/>
   <stop offset="1" style="stop-opacity:0; stop-color:white"/>
  </linearGradient>
     <rect style="fill:url(#id51)" x="11" y="7408" width="5861" height="7029"/>
    </mask>
    <clipPath id="id52">
     <path d="M788 6935l842 0 0 842 -842 0 0 -842z"/>
    </clipPath>
    <clipPath id="id53">
     <path d="M788 6935l842 0 0 842 -842 0 0 -842z"/>
    </clipPath>
    <clipPath id="id54">
     <path d="M788 6935l842 0 0 842 -842 0 0 -842z"/>
    </clipPath>
     <clipPath id="id55">
      <path d="M788 6935l842 0 0 842 -842 0 0 -842z"/>
     </clipPath>
    <mask id="id56">
  <linearGradient id="id57" gradientUnits="userSpaceOnUse" x1="-0" y1="16080.8" x2="3631.55" y2="16080.8">
   <stop offset="0" style="stop-opacity:1; stop-color:white"/>
   <stop offset="1" style="stop-opacity:0; stop-color:white"/>
  </linearGradient>
     <rect style="fill:url(#id57)" x="-10" y="15120" width="3651" height="1922"/>
    </mask>
    <mask id="id58">
  <linearGradient id="id59" gradientUnits="userSpaceOnUse" x1="3920.71" y1="17473.9" x2="9196.3" y2="17473.9">
   <stop offset="0" style="stop-opacity:1; stop-color:white"/>
   <stop offset="1" style="stop-opacity:0; stop-color:white"/>
  </linearGradient>
     <rect style="fill:url(#id59)" x="3911" y="11992" width="5295" height="10964"/>
    </mask>
    <mask id="id60">
  <linearGradient id="id61" gradientUnits="userSpaceOnUse" x1="31547.1" y1="1945.2" x2="40321.5" y2="1945.2">
   <stop offset="0" style="stop-opacity:1; stop-color:white"/>
   <stop offset="1" style="stop-opacity:0; stop-color:white"/>
  </linearGradient>
     <rect style="fill:url(#id61)" x="31537" y="250" width="8794" height="3391"/>
    </mask>
    <mask id="id62">
  <linearGradient id="id63" gradientUnits="userSpaceOnUse" x1="35052.3" y1="3837.11" x2="39001.5" y2="3837.11">
   <stop offset="0" style="stop-opacity:1; stop-color:white"/>
   <stop offset="1" style="stop-opacity:0; stop-color:white"/>
  </linearGradient>
     <rect style="fill:url(#id63)" x="35042" y="-10" width="3969" height="7694"/>
    </mask>
  <radialGradient id="id64" gradientUnits="objectBoundingBox" cx="83%" cy="76%" r="50%" fx="83%" fy="76%">
   <stop offset="0" style="stop-color:#FFF164"/>
   <stop offset="1" style="stop-color:#E646B6"/>
  </radialGradient>
  <radialGradient id="id65" gradientUnits="objectBoundingBox" xlink:href="#id64" cx="100%" cy="29%" r="50%" fx="100%" fy="29%">
  </radialGradient>
  <radialGradient id="id66" gradientUnits="objectBoundingBox" xlink:href="#id64" cx="50%" cy="12.9999%" r="50%" fx="50%" fy="12.9999%">
  </radialGradient>
  <radialGradient id="id67" gradientUnits="objectBoundingBox" xlink:href="#id64" cx="53%" cy="9.99995%" r="50%" fx="53%" fy="9.99995%">
  </radialGradient>
  <radialGradient id="id68" gradientUnits="objectBoundingBox" xlink:href="#id64" cx="20%" cy="21%" r="50%" fx="20%" fy="21%">
  </radialGradient>
 </defs>
 <g id="Layer_x0020_1">
  <metadata id="CorelCorpID_0Corel-Layer"/>
  <g id="_775566928">
   <rect class="fil0" width="40322" height="22946"/>
   <g>
    <g style="clip-path:url(#id0)">
     <image x="12865" y="6751" width="2170" height="2170" xlink:href="#E646B6plex illustration 9_Images\#E646B6plex illustration 9_ImgID1.png"/>
    </g>
   </g>
   <circle class="fil1" cx="13950" cy="7836" r="943"/>
   <g style="clip-path:url(#id1)">
    <image x="17305" y="9026" width="4725" height="4725" xlink:href="#E646B6plex illustration 9_Images\#E646B6plex illustration 9_ImgID2.png"/>
   </g>
   <g style="clip-path:url(#id2)">
    <image x="17305" y="9026" width="4725" height="4725" xlink:href="#E646B6plex illustration 9_Images\#E646B6plex illustration 9_ImgID3.png"/>
   </g>
   <g style="clip-path:url(#id3)">
    <image x="17699" y="9419" width="3937" height="3937" xlink:href="#E646B6plex illustration 9_Images\#E646B6plex illustration 9_ImgID4.png"/>
   </g>
   <g style="clip-path:url(#id4)">
    <image x="17699" y="9419" width="3937" height="3937" xlink:href="#E646B6plex illustration 9_Images\#E646B6plex illustration 9_ImgID5.png"/>
   </g>
   <g style="clip-path:url(#id5)">
    <image x="18092" y="9813" width="3150" height="3150" xlink:href="#E646B6plex illustration 9_Images\#E646B6plex illustration 9_ImgID6.png"/>
   </g>
   <circle class="fil2" cx="19667" cy="11388" r="1312"/>
   <g>
    <g style="clip-path:url(#id6)">
     <image x="16282" y="19855" width="2789" height="2789" xlink:href="#E646B6plex illustration 9_Images\#E646B6plex illustration 9_ImgID7.png"/>
    </g>
   </g>
   <circle class="fil3" cx="17677" cy="21250" r="1213"/>
   <path class="fil4" style="mask:url(#id7)" d="M34922 7613l-199 -74c1095,-2650 -2115,-5508 -4756,-3451l-162 -174c3203,-2357 6226,1152 5117,3699z"/>
   <path class="fil4" style="mask:url(#id9)" d="M14875 5442l-58 157c-2107,-862 -4366,1694 -2726,3785l-138 129c-1880,-2536 898,-4945 2922,-4071z"/>
   <path class="fil4" style="mask:url(#id11)" d="M15172 5547c13,98 -57,188 -155,200 -99,12 -188,-58 -201,-156 -12,-99 58,-188 156,-200 99,-13 188,57 200,156z"/>
   <path class="fil4" style="mask:url(#id13)" d="M17868 7988l90 128c-1845,1078 -2577,2642 -1789,4869l-149 140c-836,-2327 -230,-4043 1848,-5137z"/>
   <path class="fil4" style="mask:url(#id15)" d="M18349 7885c17,136 -80,261 -217,278 -138,17 -262,-81 -279,-217 -17,-137 80,-261 217,-278 137,-17 262,80 279,217z"/>
   <path class="fil4" style="mask:url(#id17)" d="M19737 16810l-38 -221c2893,-190 4719,-1443 5217,-4849l266 34c-528,3537 -2307,4909 -5445,5036z"/>
   <ellipse class="fil2" transform="matrix(0.473621 -1.43308 1.35486 0.44908 19391.4 16761.9)" rx="236" ry="251"/>
   <path class="fil4" style="mask:url(#id19)" d="M26194 13607l-209 -81c856,-2514 413,-4839 -1841,-7087l114 -249c2309,2289 2942,4668 1936,7417z"/>
   <ellipse class="fil2" transform="matrix(-0.987267 -1.14164 1.08045 -0.932707 25975.1 13879)" rx="236" ry="251"/>
   <path class="fil4" style="mask:url(#id21)" d="M15775 17404c-2612,-1987 -4135,-5200 -2401,-8812l228 121c-1581,3223 -220,6602 2407,8486l-234 205z"/>
   <path class="fil4" style="mask:url(#id23)" d="M27321 18086c-1976,2675 -5334,3691 -8498,3460l50 -253c2784,136 6267,-750 8183,-3372l265 165z"/>
   <path class="fil4" style="mask:url(#id25)" d="M26193 0l578 0c2101,1332 3739,3086 4859,5315l-334 105c-1326,-2447 -3104,-4123 -5103,-5420z"/>
   <g style="clip-path:url(#id27)">
    <image x="17650" y="7461" width="899" height="899" xlink:href="#E646B6plex illustration 9_Images\#E646B6plex illustration 9_ImgID8.png"/>
   </g>
   <g style="clip-path:url(#id28)">
    <image x="17650" y="7461" width="899" height="899" xlink:href="#E646B6plex illustration 9_Images\#E646B6plex illustration 9_ImgID9.png"/>
   </g>
   <g style="clip-path:url(#id29)">
    <image x="17650" y="7461" width="899" height="899" xlink:href="#E646B6plex illustration 9_Images\#E646B6plex illustration 9_ImgID10.png"/>
   </g>
   <g>
    <g style="clip-path:url(#id30)">
     <image x="17650" y="7461" width="899" height="899" xlink:href="#E646B6plex illustration 9_Images\#E646B6plex illustration 9_ImgID11.png"/>
    </g>
   </g>
   <circle class="fil2" cx="18099" cy="7911" r="250"/>
   <g style="clip-path:url(#id31)">
    <image x="18743" y="16115" width="1293" height="1293" xlink:href="#E646B6plex illustration 9_Images\#E646B6plex illustration 9_ImgID12.png"/>
   </g>
   <g style="clip-path:url(#id32)">
    <image x="18743" y="16115" width="1293" height="1293" xlink:href="#E646B6plex illustration 9_Images\#E646B6plex illustration 9_ImgID13.png"/>
   </g>
   <g style="clip-path:url(#id33)">
    <image x="18743" y="16115" width="1293" height="1293" xlink:href="#E646B6plex illustration 9_Images\#E646B6plex illustration 9_ImgID14.png"/>
   </g>
   <g>
    <g style="clip-path:url(#id34)">
     <image x="18743" y="16115" width="1293" height="1293" xlink:href="#E646B6plex illustration 9_Images\#E646B6plex illustration 9_ImgID15.png"/>
    </g>
   </g>
   <circle class="fil2" cx="19389" cy="16761" r="359"/>
   <g style="clip-path:url(#id35)">
    <image x="25319" y="13223" width="1321" height="1321" xlink:href="#E646B6plex illustration 9_Images\#E646B6plex illustration 9_ImgID16.png"/>
   </g>
   <g style="clip-path:url(#id36)">
    <image x="25319" y="13223" width="1321" height="1321" xlink:href="#E646B6plex illustration 9_Images\#E646B6plex illustration 9_ImgID17.png"/>
   </g>
   <g style="clip-path:url(#id37)">
    <image x="25319" y="13223" width="1321" height="1321" xlink:href="#E646B6plex illustration 9_Images\#E646B6plex illustration 9_ImgID18.png"/>
   </g>
   <g>
    <g style="clip-path:url(#id38)">
     <image x="25319" y="13223" width="1321" height="1321" xlink:href="#E646B6plex illustration 9_Images\#E646B6plex illustration 9_ImgID19.png"/>
    </g>
   </g>
   <circle class="fil2" cx="25980" cy="13884" r="367"/>
   <g style="clip-path:url(#id39)">
    <image x="14666" y="5247" width="649" height="649" xlink:href="#E646B6plex illustration 9_Images\#E646B6plex illustration 9_ImgID20.png"/>
   </g>
   <g style="clip-path:url(#id40)">
    <image x="14666" y="5247" width="649" height="649" xlink:href="#E646B6plex illustration 9_Images\#E646B6plex illustration 9_ImgID21.png"/>
   </g>
   <g style="clip-path:url(#id41)">
    <image x="14666" y="5247" width="649" height="649" xlink:href="#E646B6plex illustration 9_Images\#E646B6plex illustration 9_ImgID22.png"/>
   </g>
   <g>
    <g style="clip-path:url(#id42)">
     <image x="14666" y="5247" width="649" height="649" xlink:href="#E646B6plex illustration 9_Images\#E646B6plex illustration 9_ImgID23.png"/>
    </g>
   </g>
   <circle class="fil2" cx="14990" cy="5571" r="180"/>
   <g>
    <g style="clip-path:url(#id43)">
     <image x="30467" y="5125" width="2688" height="2688" xlink:href="#E646B6plex illustration 9_Images\#E646B6plex illustration 9_ImgID24.png"/>
    </g>
   </g>
   <circle class="fil5" cx="31811" cy="6469" r="1169"/>
   <path class="fil2" d="M24599 4698l505 23 270 432 58 -522 386 -279 -514 -32 -293 -455 -11 551 -401 282zm-17201 5858l281 13 151 241 32 -291 215 -155 -286 -18 -163 -254 -7 308 -223 156zm8000 5049l185 9 99 158 22 -191 141 -102 -188 -12 -108 -167 -4 202 -147 103zm11823 5258l237 11 126 203 27 -245 181 -130 -241 -15 -137 -214 -5 259 -188 131zm-5349 -707l237 11 126 202 27 -244 181 -131 -240 -15 -138 -213 -5 258 -188 132zm9057 -16187l237 10 126 203 27 -245 181 -130 -240 -15 -138 -214 -5 259 -188 132zm-513 4004l237 11 126 203 28 -245 180 -131 -240 -15 -138 -213 -5 258 -188 132zm-22087 -6713l237 11 126 203 28 -245 180 -131 -240 -15 -138 -213 -5 258 -188 132zm11288 5434l237 11 126 202 27 -244 181 -131 -241 -15 -137 -214 -5 259 -188 132zm-3449 -4228l236 11 127 202 27 -244 181 -131 -241 -15 -137 -213 -5 258 -188 132zm8852 5349l237 11 127 202 27 -244 181 -131 -241 -15 -138 -213 -5 258 -188 132zm-9743 1849l237 11 126 203 28 -245 180 -131 -240 -15 -138 -213 -5 258 -188 132zm4339 3669l237 11 126 203 27 -245 181 -131 -241 -15 -137 -213 -5 258 -188 132zm-9422 -7705l237 11 126 203 27 -245 181 -131 -241 -15 -137 -213 -5 258 -188 132zm13385 9073l185 8 99 159 21 -192 142 -102 -189 -12 -107 -167 -4 202 -147 104zm-9852 6985l259 11 138 222 30 -268 198 -143 -264 -16 -150 -234 -6 283 -205 145zm-4301 -7679l-808 -38 -432 -692 -93 836 -618 446 823 51 469 730 18 -883 641 -450zm2058 -2433l-203 -10 -109 -174 -24 211 -156 112 208 13 118 184 5 -223 161 -113zm21165 4413l-135 -7 -71 -115 -16 139 -102 74 136 9 78 121 3 -147 107 -74zm-19179 -2952l-134 -6 -72 -115 -15 139 -103 74 137 9 78 121 3 -147 106 -75zm17954 5171l-134 -6 -72 -115 -15 139 -103 74 137 8 78 121 3 -146 106 -75zm-19220 -3601l-151 -7 -80 -129 -18 156 -115 83 154 10 87 136 3 -165 120 -84zm-3806 3420l-150 -7 -81 -129 -17 156 -115 83 153 9 87 136 4 -164 119 -84zm2843 2332l-151 -7 -80 -129 -17 155 -116 84 154 9 87 136 4 -165 119 -83zm20028 1049l-134 -6 -72 -115 -15 138 -103 75 137 8 78 121 3 -146 106 -75zm-19239 -3213l-151 -6 -80 -129 -18 155 -115 83 153 10 88 136 3 -165 120 -84zm21983 2332l-134 -7 -72 -115 -15 139 -103 74 137 9 78 121 3 -147 106 -74zm-18737 -2903l-188 -9 -100 -161 -22 194 -143 104 191 12 109 169 4 -205 149 -104zm3860 259l-188 -8 -100 -161 -22 194 -143 104 191 11 109 170 4 -205 149 -105zm4262 -160l-187 -9 -101 -160 -21 194 -144 103 191 12 109 170 4 -205 149 -105zm-1666 -2480l-134 -6 -72 -115 -16 139 -102 74 136 8 78 121 3 -146 107 -75zm4930 4522l-188 -9 -100 -161 -22 194 -143 104 191 12 109 169 4 -205 149 -104zm-5349 -708l-188 -8 -100 -161 -22 194 -143 104 191 11 109 170 4 -205 149 -105zm10621 -18412l-135 -6 -71 -115 -16 139 -102 74 136 8 78 122 3 -147 107 -75zm1844 1406l-134 -7 -72 -115 -16 139 -102 74 136 9 78 121 3 -147 107 -74zm-64 4943l-134 -6 -72 -115 -16 139 -102 74 136 9 78 121 3 -147 107 -75zm387 3379l-134 -7 -72 -114 -15 138 -103 74 137 9 78 121 3 -146 106 -75zm-23554 -8486l-134 -6 -72 -115 -15 139 -103 74 137 9 78 121 3 -147 106 -75zm4956 2644l-134 -7 -72 -114 -15 138 -103 75 137 8 78 121 3 -146 106 -75zm8853 5349l-134 -6 -72 -115 -16 138 -102 75 136 8 78 121 3 -146 107 -75zm-6529 -5387l-135 -6 -71 -115 -16 139 -103 74 137 8 78 122 3 -147 107 -75zm8852 5349l-134 -6 -72 -115 -15 139 -103 74 137 8 78 122 3 -147 106 -75zm-12655 27l-135 -6 -71 -115 -16 139 -102 74 136 8 78 121 3 -146 107 -75zm3031 -1884l-134 -7 -72 -115 -16 139 -102 74 136 9 78 121 3 -147 107 -74zm139 3249l-134 -7 -72 -115 -15 139 -103 74 136 9 78 121 3 -147 107 -74zm1987 -2396l-134 -6 -72 -115 -15 139 -103 74 137 9 78 121 3 -147 106 -75zm2264 2041l-134 -6 -72 -115 -15 138 -103 75 137 8 78 121 3 -146 106 -75zm-4189 2481l-134 -7 -72 -115 -15 139 -103 74 137 9 78 121 3 -147 106 -74zm-1938 -1496l-135 -6 -71 -115 -16 139 -102 74 136 8 78 122 3 -147 107 -75zm2307 -5644l-134 -6 -72 -115 -16 139 -102 74 136 9 78 121 3 -147 107 -75zm8852 5349l-134 -6 -72 -115 -15 139 -103 74 137 9 78 121 3 -147 106 -75zm-4930 -2685l-134 -6 -72 -115 -15 139 -103 74 137 9 78 121 3 -147 106 -75zm-2580 2656l-135 -6 -71 -115 -16 139 -102 74 136 8 78 121 3 -146 107 -75zm610 -6953l-134 -6 -72 -115 -16 139 -102 74 136 9 78 121 3 -147 107 -75zm-1069 -2479l-134 -6 -72 -115 -15 139 -103 74 137 9 78 121 3 -147 106 -75zm8853 5349l-135 -6 -71 -115 -16 139 -102 74 136 9 78 121 3 -147 107 -75zm-12358 -169l-135 -6 -72 -115 -15 139 -103 74 137 8 78 121 3 -146 107 -75zm8852 5349l-134 -6 -72 -115 -15 139 -103 74 137 8 77 121 4 -146 106 -75zm-11263 -6689l-151 -7 -80 -129 -18 156 -115 83 153 9 88 136 3 -164 120 -84zm2773 -5048l-134 -6 -72 -115 -15 138 -103 75 137 8 78 121 3 -146 106 -75zm-1412 1412l-134 -6 -72 -115 -15 139 -103 74 137 8 78 122 3 -147 106 -75zm8853 5349l-134 -6 -72 -115 -16 139 -102 74 136 8 78 122 3 -147 107 -75zm-13637 -4454l-135 -7 -71 -115 -16 139 -103 74 137 9 78 121 3 -147 107 -74zm21783 7825l-134 -6 -72 -115 -15 139 -103 74 137 9 78 121 3 -147 106 -75zm-7192 -3186l-135 -7 -71 -115 -16 139 -102 74 136 9 78 121 3 -147 107 -74zm4293 -1892l-134 -6 -72 -115 -16 139 -102 74 136 8 78 121 3 -146 107 -75zm-1722 11182l-134 -6 -72 -115 -15 139 -103 74 137 8 78 122 3 -147 106 -75zm1630 -1082l-134 -6 -72 -115 -15 139 -103 74 137 9 78 121 3 -147 106 -75zm-577 -2592l-134 -6 -72 -115 -15 139 -103 74 137 8 78 122 3 -147 106 -75zm-9936 8004l-188 -8 -100 -161 -22 194 -143 104 191 12 109 169 4 -205 149 -105zm7434 738l-134 -6 -72 -115 -15 139 -103 74 137 9 78 121 3 -147 106 -75zm-5348 -707l-135 -6 -71 -115 -16 139 -103 74 137 8 78 121 3 -146 107 -75zm-1611 -6965l-134 -7 -72 -114 -15 138 -103 74 136 9 78 121 3 -146 107 -75zm-10949 4260l-150 -7 -81 -128 -17 155 -115 83 153 10 88 136 3 -165 119 -84z"/>
   <g style="clip-path:url(#id44)">
    <image x="34349" y="7359" width="812" height="812" xlink:href="#E646B6plex illustration 9_Images\#E646B6plex illustration 9_ImgID25.png"/>
   </g>
   <g style="clip-path:url(#id45)">
    <image x="34349" y="7359" width="812" height="812" xlink:href="#E646B6plex illustration 9_Images\#E646B6plex illustration 9_ImgID26.png"/>
   </g>
   <g style="clip-path:url(#id46)">
    <image x="34349" y="7359" width="812" height="812" xlink:href="#E646B6plex illustration 9_Images\#E646B6plex illustration 9_ImgID27.png"/>
   </g>
   <g>
    <g style="clip-path:url(#id47)">
     <image x="34349" y="7359" width="812" height="812" xlink:href="#E646B6plex illustration 9_Images\#E646B6plex illustration 9_ImgID28.png"/>
    </g>
   </g>
   <circle class="fil2" cx="34755" cy="7765" r="226"/>
   <g>
    <g style="clip-path:url(#id48)">
     <image x="2094" y="7978" width="4445" height="4337" xlink:href="#E646B6plex illustration 9_Images\#E646B6plex illustration 9_ImgID29.png"/>
    </g>
   </g>
   <circle class="fil6" cx="4271" cy="10148" r="1887"/>
   <g style="clip-path:url(#id49)">
    <image x="35418" y="7218" width="4904" height="7886" xlink:href="#E646B6plex illustration 9_Images\#E646B6plex illustration 9_ImgID30.png"/>
   </g>
   <path class="fil7" d="M39346 7562c338,0 665,46 976,134l0 6900c-311,87 -638,134 -976,134 -1979,0 -3584,-1605 -3584,-3584 0,-1980 1605,-3584 3584,-3584z"/>
   <path class="fil4" style="mask:url(#id50)" d="M989 7418l218 173c-2455,2862 382,7747 4524,6261l131 284c-4967,1630 -7303,-3992 -4873,-6718z"/>
   <g style="clip-path:url(#id52)">
    <image x="788" y="6935" width="842" height="842" xlink:href="#E646B6plex illustration 9_Images\#E646B6plex illustration 9_ImgID31.png"/>
   </g>
   <g style="clip-path:url(#id53)">
    <image x="788" y="6935" width="842" height="842" xlink:href="#E646B6plex illustration 9_Images\#E646B6plex illustration 9_ImgID32.png"/>
   </g>
   <g style="clip-path:url(#id54)">
    <image x="788" y="6935" width="842" height="842" xlink:href="#E646B6plex illustration 9_Images\#E646B6plex illustration 9_ImgID33.png"/>
   </g>
   <g>
    <g style="clip-path:url(#id55)">
     <image x="788" y="6935" width="842" height="842" xlink:href="#E646B6plex illustration 9_Images\#E646B6plex illustration 9_ImgID34.png"/>
    </g>
   </g>
   <circle class="fil2" cx="1209" cy="7356" r="234"/>
   <ellipse class="fil2" transform="matrix(-0.948782 0.114125 -0.107553 -0.894146 34760.9 7762.48)" rx="236" ry="251"/>
   <path class="fil4" style="mask:url(#id56)" d="M0 15130c1237,957 2451,1537 3632,1597l0 305c-1280,-45 -2493,-535 -3632,-1519l0 -383z"/>
   <path class="fil4" style="mask:url(#id58)" d="M8705 22946c-3081,-2762 -4478,-6472 -4784,-10944l441 30c189,4066 1625,7755 4834,10914l-491 0z"/>
   <path class="fil4" style="mask:url(#id60)" d="M31547 3298l321 333c2358,-2173 5143,-3177 8454,-2743l0 -589c-3453,-244 -6517,630 -8775,2999z"/>
   <path class="fil4" style="mask:url(#id62)" d="M35052 0l694 0c1339,1804 2449,4261 3255,7578l-550 96c-605,-3058 -1753,-5432 -3399,-7674z"/>
  </g>
 </g>
</svg>
