<?xml version="1.0" encoding="UTF-8"?>
<!DOCTYPE svg PUBLIC "-//W3C//DTD SVG 1.1//EN" "http://www.w3.org/Graphics/SVG/1.1/DTD/svg11.dtd">
<!-- Creator: CorelDRAW X6 -->
<svg xmlns="http://www.w3.org/2000/svg" xml:space="preserve" width="316.944mm" height="228mm" version="1.1" style="shape-rendering:geometricPrecision; text-rendering:geometricPrecision; image-rendering:optimizeQuality; fill-rule:evenodd; clip-rule:evenodd"
viewBox="0 0 27808 20004"
 xmlns:xlink="http://www.w3.org/1999/xlink">
 <defs>
  <style type="text/css">
   <![CDATA[
    .str0 {stroke:#213730;stroke-width:24; stroke-opacity: 0.9}
    .fil1 {fill:none}
    .fil0 {fill:#2f202c}
    .fil2 {fill:url(#id84)}
   ]]>
  </style>
    <mask id="id0">
  <linearGradient id="id1" gradientUnits="userSpaceOnUse" x1="2463.7" y1="12139.1" x2="156.893" y2="13702.1">
   <stop offset="0" style="stop-opacity:1; stop-color:white"  stop-opacity="0.9"/>
   <stop offset="1" style="stop-opacity:0; stop-color:white"  stop-opacity="0.9"/>
  </linearGradient>
     <rect style="fill:url(#id1)" y="11920" width="2621" height="2001"/>
    </mask>
    <mask id="id2">
  <linearGradient id="id3" gradientUnits="userSpaceOnUse" x1="2729.13" y1="11688.5" x2="60.6094" y2="13496.6">
   <stop offset="0" style="stop-opacity:1; stop-color:white"  stop-opacity="0.9"/>
   <stop offset="1" style="stop-opacity:0; stop-color:white"  stop-opacity="0.9"/>
  </linearGradient>
     <rect style="fill:url(#id3)" y="11264" width="2790" height="2657"/>
    </mask>
    <mask id="id4">
  <linearGradient id="id5" gradientUnits="userSpaceOnUse" x1="2990.17" y1="11245.4" x2="-34.0599" y2="13294.6">
   <stop offset="0" style="stop-opacity:1; stop-color:white"  stop-opacity="0.9"/>
   <stop offset="1" style="stop-opacity:0; stop-color:white"  stop-opacity="0.9"/>
  </linearGradient>
     <rect style="fill:url(#id5)" y="10619" width="2956" height="3302"/>
    </mask>
    <mask id="id6">
  <linearGradient id="id7" gradientUnits="userSpaceOnUse" x1="3518.46" y1="10702.5" x2="-73.7263" y2="13136.5">
   <stop offset="0" style="stop-opacity:1; stop-color:white"  stop-opacity="0.9"/>
   <stop offset="1" style="stop-opacity:0; stop-color:white"  stop-opacity="0.9"/>
  </linearGradient>
     <rect style="fill:url(#id7)" y="9918" width="3445" height="4003"/>
    </mask>
    <mask id="id8">
  <linearGradient id="id9" gradientUnits="userSpaceOnUse" x1="4123.7" y1="10131.7" x2="-97.205" y2="12991.6">
   <stop offset="0" style="stop-opacity:1; stop-color:white"  stop-opacity="0.9"/>
   <stop offset="1" style="stop-opacity:0; stop-color:white"  stop-opacity="0.9"/>
  </linearGradient>
     <rect style="fill:url(#id9)" y="9202" width="4026" height="4719"/>
    </mask>
    <mask id="id10">
  <linearGradient id="id11" gradientUnits="userSpaceOnUse" x1="4936.27" y1="9488.98" x2="-75.5951" y2="12884.9">
   <stop offset="0" style="stop-opacity:1; stop-color:white"  stop-opacity="0.9"/>
   <stop offset="1" style="stop-opacity:0; stop-color:white"  stop-opacity="0.9"/>
  </linearGradient>
     <rect style="fill:url(#id11)" y="8453" width="4861" height="5468"/>
    </mask>
    <mask id="id12">
  <linearGradient id="id13" gradientUnits="userSpaceOnUse" x1="6802.18" y1="8569.88" x2="213.072" y2="13034.4">
   <stop offset="0" style="stop-opacity:1; stop-color:white"  stop-opacity="0.9"/>
   <stop offset="1" style="stop-opacity:0; stop-color:white"  stop-opacity="0.9"/>
  </linearGradient>
     <rect style="fill:url(#id13)" y="7683" width="7015" height="6237"/>
    </mask>
    <mask id="id14">
  <linearGradient id="id15" gradientUnits="userSpaceOnUse" x1="10094.8" y1="7335.39" x2="888.83" y2="13573.1">
   <stop offset="0" style="stop-opacity:1; stop-color:white"  stop-opacity="0.9"/>
   <stop offset="1" style="stop-opacity:0; stop-color:white"  stop-opacity="0.9"/>
  </linearGradient>
     <rect style="fill:url(#id15)" y="6988" width="10984" height="6933"/>
    </mask>
    <mask id="id16">
  <linearGradient id="id17" gradientUnits="userSpaceOnUse" x1="11752.1" y1="6564.88" x2="1298.72" y2="13647.8">
   <stop offset="0" style="stop-opacity:1; stop-color:white"  stop-opacity="0.9"/>
   <stop offset="1" style="stop-opacity:0; stop-color:white"  stop-opacity="0.9"/>
  </linearGradient>
     <rect style="fill:url(#id17)" y="6292" width="13051" height="7629"/>
    </mask>
    <mask id="id18">
  <linearGradient id="id19" gradientUnits="userSpaceOnUse" x1="11995.5" y1="6154.14" x2="1356.68" y2="13362.7">
   <stop offset="0" style="stop-opacity:1; stop-color:white"  stop-opacity="0.9"/>
   <stop offset="1" style="stop-opacity:0; stop-color:white"  stop-opacity="0.9"/>
  </linearGradient>
     <rect style="fill:url(#id19)" y="5596" width="13352" height="8325"/>
    </mask>
    <mask id="id20">
  <linearGradient id="id21" gradientUnits="userSpaceOnUse" x1="12142.4" y1="5771.2" x2="1400.17" y2="13049.8">
   <stop offset="0" style="stop-opacity:1; stop-color:white"  stop-opacity="0.9"/>
   <stop offset="1" style="stop-opacity:0; stop-color:white"  stop-opacity="0.9"/>
  </linearGradient>
     <rect style="fill:url(#id21)" y="4900" width="13543" height="9021"/>
    </mask>
    <mask id="id22">
  <linearGradient id="id23" gradientUnits="userSpaceOnUse" x1="12416" y1="5301.06" x2="1313.05" y2="12824.1">
   <stop offset="0" style="stop-opacity:1; stop-color:white"  stop-opacity="0.9"/>
   <stop offset="1" style="stop-opacity:0; stop-color:white"  stop-opacity="0.9"/>
  </linearGradient>
     <rect style="fill:url(#id23)" y="4204" width="13729" height="9717"/>
    </mask>
    <mask id="id24">
  <linearGradient id="id25" gradientUnits="userSpaceOnUse" x1="12675.2" y1="4961.96" x2="1598.23" y2="12467.4">
   <stop offset="0" style="stop-opacity:1; stop-color:white"  stop-opacity="0.9"/>
   <stop offset="1" style="stop-opacity:0; stop-color:white"  stop-opacity="0.9"/>
  </linearGradient>
     <rect style="fill:url(#id25)" y="3508" width="14273" height="10412"/>
    </mask>
    <mask id="id26">
  <linearGradient id="id27" gradientUnits="userSpaceOnUse" x1="12907.9" y1="4641.43" x2="1911.75" y2="12092.1">
   <stop offset="0" style="stop-opacity:1; stop-color:white"  stop-opacity="0.9"/>
   <stop offset="1" style="stop-opacity:0; stop-color:white"  stop-opacity="0.9"/>
  </linearGradient>
     <rect style="fill:url(#id27)" y="2813" width="14820" height="11108"/>
    </mask>
    <mask id="id28">
  <linearGradient id="id29" gradientUnits="userSpaceOnUse" x1="13272.4" y1="4231.59" x2="2093.46" y2="11806.1">
   <stop offset="0" style="stop-opacity:1; stop-color:white"  stop-opacity="0.9"/>
   <stop offset="1" style="stop-opacity:0; stop-color:white"  stop-opacity="0.9"/>
  </linearGradient>
     <rect style="fill:url(#id29)" y="2117" width="15366" height="11804"/>
    </mask>
    <mask id="id30">
  <linearGradient id="id31" gradientUnits="userSpaceOnUse" x1="13477.9" y1="3939.57" x2="2463.94" y2="11402.3">
   <stop offset="0" style="stop-opacity:1; stop-color:white"  stop-opacity="0.9"/>
   <stop offset="1" style="stop-opacity:0; stop-color:white"  stop-opacity="0.9"/>
  </linearGradient>
     <rect style="fill:url(#id31)" y="1421" width="15942" height="12500"/>
    </mask>
    <mask id="id32">
  <linearGradient id="id33" gradientUnits="userSpaceOnUse" x1="14015.5" y1="3594.09" x2="3008.79" y2="11051.9">
   <stop offset="0" style="stop-opacity:1; stop-color:white"  stop-opacity="0.9"/>
   <stop offset="1" style="stop-opacity:0; stop-color:white"  stop-opacity="0.9"/>
  </linearGradient>
     <rect style="fill:url(#id33)" y="725" width="17024" height="13196"/>
    </mask>
    <mask id="id34">
  <linearGradient id="id35" gradientUnits="userSpaceOnUse" x1="14475" y1="3270.06" x2="3596.89" y2="10640.7">
   <stop offset="0" style="stop-opacity:1; stop-color:white"  stop-opacity="0.9"/>
   <stop offset="1" style="stop-opacity:0; stop-color:white"  stop-opacity="0.9"/>
  </linearGradient>
     <rect style="fill:url(#id35)" y="51" width="18072" height="13809"/>
    </mask>
    <mask id="id36">
  <linearGradient id="id37" gradientUnits="userSpaceOnUse" x1="14950.8" y1="3365.81" x2="4547.54" y2="10414.7">
   <stop offset="0" style="stop-opacity:1; stop-color:white"  stop-opacity="0.9"/>
   <stop offset="1" style="stop-opacity:0; stop-color:white"  stop-opacity="0.9"/>
  </linearGradient>
     <rect style="fill:url(#id37)" x="297" y="51" width="18904" height="13678"/>
    </mask>
    <mask id="id38">
  <linearGradient id="id39" gradientUnits="userSpaceOnUse" x1="20184.6" y1="481.778" x2="19005.9" y2="1280.46">
   <stop offset="0" style="stop-opacity:1; stop-color:white"  stop-opacity="0.9"/>
   <stop offset="1" style="stop-opacity:0; stop-color:white"  stop-opacity="0.9"/>
  </linearGradient>
     <rect style="fill:url(#id39)" x="18407" y="51" width="2377" height="1660"/>
    </mask>
    <mask id="id40">
  <linearGradient id="id41" gradientUnits="userSpaceOnUse" x1="8323.22" y1="3781.98" x2="-653.526" y2="9864.34">
   <stop offset="0" style="stop-opacity:1; stop-color:white"  stop-opacity="0.9"/>
   <stop offset="1" style="stop-opacity:0; stop-color:white"  stop-opacity="0.9"/>
  </linearGradient>
     <rect style="fill:url(#id41)" x="596" y="51" width="6478" height="13544"/>
    </mask>
    <mask id="id42">
  <linearGradient id="id43" gradientUnits="userSpaceOnUse" x1="25344.4" y1="7865.17" x2="27651.2" y2="6302.15">
   <stop offset="0" style="stop-opacity:1; stop-color:white"  stop-opacity="0.9"/>
   <stop offset="1" style="stop-opacity:0; stop-color:white"  stop-opacity="0.9"/>
  </linearGradient>
     <rect style="fill:url(#id43)" x="25187" y="6083" width="2621" height="2001"/>
    </mask>
    <mask id="id44">
  <linearGradient id="id45" gradientUnits="userSpaceOnUse" x1="25079" y1="8315.75" x2="27747.5" y2="6507.65">
   <stop offset="0" style="stop-opacity:1; stop-color:white"  stop-opacity="0.9"/>
   <stop offset="1" style="stop-opacity:0; stop-color:white"  stop-opacity="0.9"/>
  </linearGradient>
     <rect style="fill:url(#id45)" x="25018" y="6083" width="2790" height="2657"/>
    </mask>
    <mask id="id46">
  <linearGradient id="id47" gradientUnits="userSpaceOnUse" x1="24817.9" y1="8758.86" x2="27842.2" y2="6709.72">
   <stop offset="0" style="stop-opacity:1; stop-color:white"  stop-opacity="0.9"/>
   <stop offset="1" style="stop-opacity:0; stop-color:white"  stop-opacity="0.9"/>
  </linearGradient>
     <rect style="fill:url(#id47)" x="24852" y="6083" width="2956" height="3302"/>
    </mask>
    <mask id="id48">
  <linearGradient id="id49" gradientUnits="userSpaceOnUse" x1="24289.6" y1="9301.76" x2="27881.8" y2="6867.8">
   <stop offset="0" style="stop-opacity:1; stop-color:white"  stop-opacity="0.9"/>
   <stop offset="1" style="stop-opacity:0; stop-color:white"  stop-opacity="0.9"/>
  </linearGradient>
     <rect style="fill:url(#id49)" x="24363" y="6083" width="3445" height="4003"/>
    </mask>
    <mask id="id50">
  <linearGradient id="id51" gradientUnits="userSpaceOnUse" x1="23684.4" y1="9872.61" x2="27905.3" y2="7012.67">
   <stop offset="0" style="stop-opacity:1; stop-color:white"  stop-opacity="0.9"/>
   <stop offset="1" style="stop-opacity:0; stop-color:white"  stop-opacity="0.9"/>
  </linearGradient>
     <rect style="fill:url(#id51)" x="23782" y="6083" width="4026" height="4719"/>
    </mask>
    <mask id="id52">
  <linearGradient id="id53" gradientUnits="userSpaceOnUse" x1="22871.8" y1="10515.3" x2="27883.7" y2="7119.42">
   <stop offset="0" style="stop-opacity:1; stop-color:white"  stop-opacity="0.9"/>
   <stop offset="1" style="stop-opacity:0; stop-color:white"  stop-opacity="0.9"/>
  </linearGradient>
     <rect style="fill:url(#id53)" x="22947" y="6083" width="4861" height="5468"/>
    </mask>
    <mask id="id54">
  <linearGradient id="id55" gradientUnits="userSpaceOnUse" x1="21005.9" y1="11434.4" x2="27595" y2="6969.84">
   <stop offset="0" style="stop-opacity:1; stop-color:white"  stop-opacity="0.9"/>
   <stop offset="1" style="stop-opacity:0; stop-color:white"  stop-opacity="0.9"/>
  </linearGradient>
     <rect style="fill:url(#id55)" x="20793" y="6083" width="7015" height="6237"/>
    </mask>
    <mask id="id56">
  <linearGradient id="id57" gradientUnits="userSpaceOnUse" x1="17713.3" y1="12668.9" x2="26919.3" y2="6431.19">
   <stop offset="0" style="stop-opacity:1; stop-color:white"  stop-opacity="0.9"/>
   <stop offset="1" style="stop-opacity:0; stop-color:white"  stop-opacity="0.9"/>
  </linearGradient>
     <rect style="fill:url(#id57)" x="16824" y="6083" width="10984" height="6933"/>
    </mask>
    <mask id="id58">
  <linearGradient id="id59" gradientUnits="userSpaceOnUse" x1="16056" y1="13439.4" x2="26509.4" y2="6356.5">
   <stop offset="0" style="stop-opacity:1; stop-color:white"  stop-opacity="0.9"/>
   <stop offset="1" style="stop-opacity:0; stop-color:white"  stop-opacity="0.9"/>
  </linearGradient>
     <rect style="fill:url(#id59)" x="14757" y="6083" width="13051" height="7629"/>
    </mask>
    <mask id="id60">
  <linearGradient id="id61" gradientUnits="userSpaceOnUse" x1="15812.6" y1="13850.1" x2="26451.4" y2="6641.59">
   <stop offset="0" style="stop-opacity:1; stop-color:white"  stop-opacity="0.9"/>
   <stop offset="1" style="stop-opacity:0; stop-color:white"  stop-opacity="0.9"/>
  </linearGradient>
     <rect style="fill:url(#id61)" x="14456" y="6083" width="13352" height="8325"/>
    </mask>
    <mask id="id62">
  <linearGradient id="id63" gradientUnits="userSpaceOnUse" x1="15665.7" y1="14233.1" x2="26407.9" y2="6954.49">
   <stop offset="0" style="stop-opacity:1; stop-color:white"  stop-opacity="0.9"/>
   <stop offset="1" style="stop-opacity:0; stop-color:white"  stop-opacity="0.9"/>
  </linearGradient>
     <rect style="fill:url(#id63)" x="14266" y="6083" width="13543" height="9021"/>
    </mask>
    <mask id="id64">
  <linearGradient id="id65" gradientUnits="userSpaceOnUse" x1="15392" y1="14703.2" x2="26495" y2="7180.18">
   <stop offset="0" style="stop-opacity:1; stop-color:white"  stop-opacity="0.9"/>
   <stop offset="1" style="stop-opacity:0; stop-color:white"  stop-opacity="0.9"/>
  </linearGradient>
     <rect style="fill:url(#id65)" x="14079" y="6083" width="13729" height="9717"/>
    </mask>
    <mask id="id66">
  <linearGradient id="id67" gradientUnits="userSpaceOnUse" x1="15132.9" y1="15042.3" x2="26209.9" y2="7536.92">
   <stop offset="0" style="stop-opacity:1; stop-color:white"  stop-opacity="0.9"/>
   <stop offset="1" style="stop-opacity:0; stop-color:white"  stop-opacity="0.9"/>
  </linearGradient>
     <rect style="fill:url(#id67)" x="13535" y="6083" width="14273" height="10412"/>
    </mask>
    <mask id="id68">
  <linearGradient id="id69" gradientUnits="userSpaceOnUse" x1="14900.2" y1="15362.8" x2="25896.3" y2="7912.22">
   <stop offset="0" style="stop-opacity:1; stop-color:white"  stop-opacity="0.9"/>
   <stop offset="1" style="stop-opacity:0; stop-color:white"  stop-opacity="0.9"/>
  </linearGradient>
     <rect style="fill:url(#id69)" x="12988" y="6083" width="14820" height="11108"/>
    </mask>
    <mask id="id70">
  <linearGradient id="id71" gradientUnits="userSpaceOnUse" x1="14535.7" y1="15772.7" x2="25714.6" y2="8198.21">
   <stop offset="0" style="stop-opacity:1; stop-color:white"  stop-opacity="0.9"/>
   <stop offset="1" style="stop-opacity:0; stop-color:white"  stop-opacity="0.9"/>
  </linearGradient>
     <rect style="fill:url(#id71)" x="12442" y="6083" width="15366" height="11804"/>
    </mask>
    <mask id="id72">
  <linearGradient id="id73" gradientUnits="userSpaceOnUse" x1="14330.2" y1="16064.7" x2="25344.1" y2="8602.02">
   <stop offset="0" style="stop-opacity:1; stop-color:white"  stop-opacity="0.9"/>
   <stop offset="1" style="stop-opacity:0; stop-color:white"  stop-opacity="0.9"/>
  </linearGradient>
     <rect style="fill:url(#id73)" x="11866" y="6083" width="15942" height="12500"/>
    </mask>
    <mask id="id74">
  <linearGradient id="id75" gradientUnits="userSpaceOnUse" x1="13792.6" y1="16410.2" x2="24799.3" y2="8952.38">
   <stop offset="0" style="stop-opacity:1; stop-color:white"  stop-opacity="0.9"/>
   <stop offset="1" style="stop-opacity:0; stop-color:white"  stop-opacity="0.9"/>
  </linearGradient>
     <rect style="fill:url(#id75)" x="10784" y="6083" width="17024" height="13196"/>
    </mask>
    <mask id="id76">
  <linearGradient id="id77" gradientUnits="userSpaceOnUse" x1="13333.1" y1="16734.2" x2="24211.2" y2="9363.58">
   <stop offset="0" style="stop-opacity:1; stop-color:white"  stop-opacity="0.9"/>
   <stop offset="1" style="stop-opacity:0; stop-color:white"  stop-opacity="0.9"/>
  </linearGradient>
     <rect style="fill:url(#id77)" x="9736" y="6145" width="18072" height="13809"/>
    </mask>
    <mask id="id78">
  <linearGradient id="id79" gradientUnits="userSpaceOnUse" x1="12857.3" y1="16638.5" x2="23260.5" y2="9589.58">
   <stop offset="0" style="stop-opacity:1; stop-color:white"  stop-opacity="0.9"/>
   <stop offset="1" style="stop-opacity:0; stop-color:white"  stop-opacity="0.9"/>
  </linearGradient>
     <rect style="fill:url(#id79)" x="8607" y="6275" width="18904" height="13678"/>
    </mask>
    <mask id="id80">
  <linearGradient id="id81" gradientUnits="userSpaceOnUse" x1="7623.51" y1="19522.5" x2="8802.23" y2="18723.8">
   <stop offset="0" style="stop-opacity:1; stop-color:white"  stop-opacity="0.9"/>
   <stop offset="1" style="stop-opacity:0; stop-color:white"  stop-opacity="0.9"/>
  </linearGradient>
     <rect style="fill:url(#id81)" x="7024" y="18293" width="2377" height="1660"/>
    </mask>
    <mask id="id82">
  <linearGradient id="id83" gradientUnits="userSpaceOnUse" x1="19484.9" y1="16222.3" x2="28461.6" y2="10139.9">
   <stop offset="0" style="stop-opacity:1; stop-color:white"  stop-opacity="0.9"/>
   <stop offset="1" style="stop-opacity:0; stop-color:white"  stop-opacity="0.9"/>
  </linearGradient>
     <rect style="fill:url(#id83)" x="20734" y="6409" width="6478" height="13544"/>
    </mask>
  <linearGradient id="id84" gradientUnits="userSpaceOnUse" x1="3670.56" y1="16021.2" x2="24143.4" y2="4099.79">
   <stop offset="0" style="stop-color:#9933FF"  stop-opacity="0.9"/>
   <stop offset="0.270196" style="stop-color:#271b37"  stop-opacity="0.9"/>
   <stop offset="0.721569" style="stop-color:#383622"  stop-opacity="0.9"/>
   <stop offset="1" style="stop-color:#271b37"  stop-opacity="0.9"/>
  </linearGradient>
 </defs>
 <g id="Layer_x0020_1">
  <metadata id="CorelCorpID_0Corel-Layer"/>
  <rect fill="none" x="19" width="27771" height="20004"/>
  <g id="_688853080">
   <path class="fil1 str0" style="mask:url(#id8)" d="M4008 9221c-1473,243 -2831,829 -3989,1671l0 3010 2285 -809"/>
   <path class="fil1 str0" style="mask:url(#id10)" d="M4527 8582l315 -110c-1813,224 -3469,954 -4823,2044l0 3386 2285 -809"/>
   <path class="fil1 str0" style="mask:url(#id12)" d="M6997 7714c-160,-8 -321,-12 -483,-12 -2493,0 -4768,933 -6495,2468l0 3732 2299 -823"/>
   <path class="fil1 str0" style="mask:url(#id14)" d="M10965 7830c-1217,-529 -2560,-824 -3972,-824 -2716,0 -5177,1087 -6974,2849l0 4047 2285 -809"/>
   <path class="fil1 str0" style="mask:url(#id16)" d="M12791 8115l241 -145c-1597,-1049 -3507,-1660 -5560,-1660 -2947,0 -5600,1257 -7453,3264l0 4328 2285 -809"/>
   <path class="fil1 str0" style="mask:url(#id18)" d="M13334 7127c-1568,-959 -3411,-1513 -5383,-1513 -3188,0 -6039,1446 -7932,3717l0 4571 2285 -809"/>
   <path class="fil1 str0" style="mask:url(#id20)" d="M13524 6235c-1509,-838 -3246,-1316 -5094,-1316 -3441,0 -6495,1654 -8411,4211l0 4772 2304 -785"/>
   <path class="fil1 str0" style="mask:url(#id22)" d="M13711 5361c-1444,-728 -3075,-1138 -4802,-1138 -3708,0 -6974,1889 -8890,4757l0 4922 2285 -809"/>
   <path class="fil1 str0" style="mask:url(#id24)" d="M14255 4676c-1464,-735 -3117,-1149 -4867,-1149 -3992,0 -7481,2153 -9369,5362l0 5013"/>
   <path class="fil1 str0" style="mask:url(#id26)" d="M14801 3993c-1485,-743 -3161,-1162 -4934,-1162 -4299,0 -8023,2455 -9848,6040l0 5031"/>
   <path class="fil1 str0" style="mask:url(#id28)" d="M15347 3309c-1506,-751 -3204,-1174 -5002,-1174 -4635,0 -8614,2810 -10326,6820l0 4947"/>
   <path class="fil1 str0" style="mask:url(#id30)" d="M15864 2662l59 -21c-1534,-768 -3266,-1202 -5099,-1202 -5019,0 -9281,3243 -10805,7748l0 4715"/>
   <path class="fil1 str0" style="mask:url(#id32)" d="M17006 2243c-1684,-954 -3629,-1499 -5703,-1499 -5493,0 -10093,3823 -11284,8953l0 4205"/>
   <path class="fil1 str0" style="mask:url(#id34)" d="M18053 1857c-1628,-1027 -3526,-1666 -5563,-1787l-1415 0c-6124,363 -10986,5410 -11056,11608l0 271c7,644 66,1276 173,1892"/>
   <path class="fil1 str0" style="mask:url(#id36)" d="M8175 70c-4585,1669 -7859,6066 -7859,11228 0,826 84,1633 244,2413m18360 -12172l263 21c-867,-616 -1819,-1120 -2835,-1490"/>
   <path class="fil1 str0" style="mask:url(#id38)" d="M20765 1693c-711,-628 -1496,-1174 -2340,-1623"/>
  </g>
  <g id="_688861000">
   <path class="fil1 str0" style="mask:url(#id42)" d="M25206 8065c912,-108 1781,-357 2584,-725l0 -1238 -2286 -298 1154z"/>
   <path class="fil1 str0" style="mask:url(#id44)" d="M25037 8721c979,-149 1906,-458 2753,-900l0 -1719 -2286 -467 1810z"/>
   <path class="fil1 str0" style="mask:url(#id46)" d="M24871 9367c1047,-194 2031,-568 2919,-1089l0 -2176 -2286 -633 2456z"/>
   <path class="fil1 str0" style="mask:url(#id48)" d="M24382 10068c1239,-224 2393,-695 3408,-1360l0 -2606 -2286"/>
   <path class="fil1 str0" style="mask:url(#id50)" d="M23800 10783c1473,-243 2831,-828 3990,-1671l0 -3010 -2286"/>
   <path class="fil1 str0" style="mask:url(#id52)" d="M23281 11422l-315 111c1813,-225 3469,-955 4824,-2045l0 -3386 -2286"/>
   <path class="fil1 str0" style="mask:url(#id54)" d="M20811 12290c160,8 321,12 483,12 2493,0 4768,-933 6496,-2468l0 -3732 -2300 824"/>
   <path class="fil1 str0" style="mask:url(#id56)" d="M16843 12174c1217,530 2560,824 3972,824 2716,0 5177,-1087 6975,-2849l0 -4047 -2286"/>
   <path class="fil1 str0" style="mask:url(#id58)" d="M15017 11889l-241 146c1597,1048 3507,1659 5560,1659 2947,0 5600,-1257 7454,-3264l0 -4328 -2286"/>
  </g>
  <path class="fil2" d="M10951 17879l9 0 -8 11 -1 -11zm8718 -16581l153 0c33,0 66,2 100,4l90 0c16,1 12,3 38,4 35,2 84,4 103,5 11,1 19,-1 30,0 16,1 14,3 39,5l9 0 746 103c19,2 34,9 58,14 39,7 26,1 60,10 20,5 46,8 65,17l9 0c32,15 103,21 135,36l9 0c34,16 40,11 65,17l122 38c2,0 13,4 14,4l11 2c24,6 15,3 32,11l9 0 155 51c10,2 1,-1 15,5l37 17 9 0 164 61c13,6 20,7 33,13l26 11c1,0 4,1 5,1l243 105c2,1 4,1 5,2l369 183c72,34 139,83 209,121 19,10 10,6 26,19l214 138c2,1 5,2 6,3l236 170c10,11 11,13 24,22l165 132c15,14 14,11 26,19l11 8c1,1 2,3 3,3l27 19c9,7 15,15 23,23l451 451c16,17 28,28 45,45l261 316c19,20 29,24 43,47l39 52c34,40 -15,2 26,45l75 99c8,21 -10,-2 11,23l255 395 228 448c12,20 4,2 18,28l18 45c9,23 17,39 28,62 3,8 11,26 13,32 1,2 4,8 4,9 1,1 1,4 2,5l126 342c1,3 3,11 5,14l56 177c11,33 10,33 11,58 2,31 7,7 17,47l36 145c8,34 -4,-8 4,26l88 458c0,17 -1,24 7,59 14,65 7,88 20,167 18,106 27,330 27,410 0,186 10,418 -2,528l-50 508c-7,38 5,47 -7,93l-31 180c-1,16 0,21 -6,53l-48 262c-2,22 2,0 -7,27l-38 167c-1,2 -2,9 -3,11 -3,17 -5,23 -6,29 -3,21 -8,32 -15,56l-58 220c-1,10 4,7 -1,22l-60 180c-1,2 -4,7 -8,18l-2 10c0,1 -1,3 -1,4 -1,1 -1,4 -1,5 -1,1 -2,3 -2,5 -1,1 -2,3 -3,5l-15 39c-9,22 -6,11 -11,23l-364 785c0,1 -1,3 -2,4l-7 12c-1,2 -3,4 -3,5l-35 56c-1,2 -6,8 -7,11 -39,68 -89,127 -126,200l-385 508c-1,1 -3,3 -4,4l-26 30c-9,15 -67,69 -95,111 -35,23 -23,21 -34,37l-14 15c-71,85 -199,213 -281,286l-68 58c-32,22 -62,61 -93,88l-35 28c-2,1 -4,2 -5,4l-244 198c-27,25 -26,32 -58,48l-27 20c-20,18 -11,10 -32,23l-11 7c-26,18 -24,26 -56,43 -26,14 -14,3 -37,26l-408 269c-15,9 -17,13 -31,22 -67,47 -146,76 -210,124 -44,33 -107,51 -153,81l-483 231c-1,1 -3,3 -4,3l-218 91c-63,17 -189,77 -269,104l-92 30c0,0 -19,8 -19,8l-236 72c-1,0 -4,1 -5,1l-221 55c-11,2 -23,3 -36,5l-208 41c-28,8 6,2 -21,7l-857 83c-139,16 -354,7 -501,7l-94 -2c-1,0 -4,0 -5,0l-19 -5c-2,-1 -10,0 -12,-1l-635 -44c-19,-2 -8,0 -24,-2 -20,-1 -7,-1 -23,-6l-374 -52c-18,-6 2,-1 -14,-5l-121 -16c-54,-16 -104,-20 -165,-28l-236 -45c-2,-1 -19,-5 -28,-7l-113 -22c-1,-1 -3,-1 -4,-1l-307 -73c-2,0 -7,-3 -8,-3l-513 -137c-3,-1 -15,-3 -15,-3l-81 -26c-3,-1 -9,-2 -11,-2 -56,-13 -81,-32 -145,-41 -3,-1 -14,-2 -16,-3l-506 -172c-15,-5 -26,-6 -30,-7l-562 -177c-5,28 -1,24 -6,41 -10,36 -7,11 -15,34 -4,15 2,16 -3,31 -1,6 -9,19 -15,35l-19 65c0,2 -3,10 -4,14l-58 183c-5,15 -10,30 -14,41l-69 217c-6,24 -13,54 -27,84 -12,29 -6,6 -8,33l-147 454c-4,18 -8,20 -9,24 -6,14 -3,5 -6,14 0,1 0,5 -4,15l-36 109c-3,11 -6,15 -7,17 -12,27 -4,14 -10,31l-34 98c-5,34 -29,73 -38,107l-25 72c-1,3 -4,9 -5,11l-109 289c0,1 -1,4 -1,5l-135 339c-8,20 -1,0 -8,17 0,1 -1,3 -2,5l-216 487c-1,1 -1,3 -1,4l-272 530c-11,19 -7,8 -14,21 0,1 -1,3 -2,4 0,1 -1,4 -1,4l-31 58c-6,12 -2,4 -10,17 -6,11 -14,24 -20,34l-161 265c0,1 -2,4 -3,5l-7 10c-1,2 -2,4 -3,6l-161 246c-10,14 -16,15 -29,33l-60 93c-18,20 -13,10 -28,36 -44,74 -129,155 -178,228 -29,21 -4,1 -17,23 -20,35 -53,59 -78,89l-170 201c-1,2 -6,7 -8,9l-345 341c-1,2 -4,3 -5,5 -1,1 -4,2 -5,3l-252 217c-2,1 -4,2 -6,3l-82 62c-13,8 1,-1 -11,7l-56 52c-21,13 -13,2 -35,19l-86 67c-23,17 -15,6 -35,19l-343 226c-12,6 -1,-2 -18,9l-452 244c-4,2 -17,8 -17,8l-24 8c-1,1 -3,2 -4,2l-141 66c-55,27 -58,22 -66,24l-276 111c-118,52 -255,90 -378,128 -25,7 2,-1 -19,6l-78 22c-12,4 -12,3 -22,6l-165 43c-23,8 7,0 -18,7 -10,3 -13,3 -23,5l-104 24c-1,0 -3,2 -4,2 -9,3 0,0 -14,4l-607 115c-17,2 -17,0 -29,2l-247 36c-9,0 -52,6 -68,9 -211,28 -510,17 -708,18l-241 -14c-97,-3 -415,-29 -463,-44l-13 -5c-2,0 -11,0 -13,0 -157,-9 -258,-41 -411,-63l-275 -62c-20,-6 7,2 -15,-3l-256 -63c-1,0 -4,0 -5,-1l-17 -6c-2,0 -8,-1 -10,-2l-504 -170c-3,0 -10,-2 -14,-4 0,0 -23,-11 -29,-14l-66 -28c-44,-10 -74,-41 -117,-53 -1,0 -7,0 -15,-2 -68,-18 -394,-197 -440,-226l-99 -53c0,-1 -3,-2 -4,-2l-257 -163c-15,-10 1,0 -15,-12l-137 -97c-2,-1 -4,-3 -5,-4 -2,0 -5,-2 -6,-3l-60 -49c-90,-59 -155,-127 -204,-156 -32,-18 -53,-55 -86,-77l-18 -18c-1,-1 -4,-2 -5,-3l-16 -11c-2,-2 -4,-3 -5,-4 -74,-60 -135,-130 -201,-196l-263 -272c-21,-29 -57,-57 -73,-89 -20,-41 -60,-64 -85,-101 -1,-1 -2,-3 -3,-4l-32 -44c-7,-7 -12,-10 -18,-18l-239 -329c-27,-29 -42,-67 -65,-98 -11,-15 -16,-17 -25,-29l-36 -58c-14,-29 9,14 -4,-14 -9,-18 -16,-17 -28,-31l-369 -691c-1,-1 -2,-3 -3,-4 0,-1 -2,-3 -3,-4 0,-2 -2,-4 -3,-5l-9 -22c-1,-1 -2,-4 -2,-5 -7,-16 0,3 -8,-17 -7,-17 -11,-30 -18,-46l-60 -148c-6,-17 -10,-20 -16,-36l-13 -33c-8,-13 -4,-2 -7,-13 -1,-2 0,-12 0,-14l-79 -231c-9,-24 -1,2 -8,-17 -1,-3 -3,-11 -4,-14l-36 -126c-12,-70 -35,-130 -52,-194 -6,-27 -17,-73 -20,-95l-75 -414c-3,-24 -6,-31 -9,-46l-15 -139c-14,-81 -6,-87 -14,-165l-15 -305c-1,-34 -3,-69 -3,-106l0 -4 41 -738c-1,-53 24,-156 33,-216l42 -248c1,-2 3,-7 4,-9 0,-1 1,-3 1,-4l25 -101c6,-23 2,-16 3,-35l37 -154c5,-24 8,-25 14,-45l219 -667c0,-1 1,-3 1,-4l22 -64c1,-1 2,-3 3,-4l88 -201c10,-21 2,3 10,-23l55 -114c0,-1 1,-4 1,-5l28 -61c3,-6 5,-12 9,-18l92 -182c7,-15 12,-15 21,-30l201 -340c14,-17 7,-11 10,-18 1,-1 1,-4 1,-5l28 -46c16,-26 14,-16 28,-35 16,-22 6,-15 19,-35 5,-8 9,-12 16,-21 2,-2 7,-7 8,-9 1,-1 3,-3 4,-4l148 -214c11,-15 16,-18 29,-35l7 -12c1,-1 2,-3 2,-4l5 -7c1,-1 2,-4 3,-5l240 -292c1,-1 3,-3 4,-5 1,-1 3,-3 4,-4l301 -322c15,-15 1,-3 14,-14l27 -22c3,-3 8,-10 10,-12l63 -59c0,-1 2,-2 3,-3l147 -131c14,-11 20,-13 32,-22 25,-20 35,-38 62,-56 18,-27 5,-10 28,-26 1,-1 3,-2 4,-3l37 -27c10,-8 14,-15 23,-23l285 -211c12,-9 17,-10 28,-17 19,-11 15,-13 30,-24l44 -28c16,-11 12,-7 29,-17l85 -58c2,-1 4,-3 6,-4l205 -120c11,-7 13,-11 25,-19l132 -68c28,-17 4,-12 42,-28l442 -214c20,-7 4,5 34,-15l9 0 101 -43c1,-1 3,-2 5,-3l315 -117c1,-1 4,-2 5,-2l822 -211c163,-39 378,-53 470,-73l687 -43c214,-4 294,-3 502,9 48,3 86,-2 173,8l97 11c80,6 114,1 229,17 37,5 98,5 120,14l9 0 712 108 9 0c16,7 54,8 80,13 22,5 -3,-1 17,6l104 22c12,3 0,0 18,3l72 15c6,1 31,4 48,9l475 112c1,0 4,1 5,1l399 108 9 0c18,8 14,7 38,12 24,6 -8,-3 14,3l66 20c18,6 16,6 34,11l56 16c24,7 11,-2 35,10l9 0c36,17 35,9 52,15l632 199c1,0 3,1 4,2l11 5c15,7 24,8 30,9l22 7c9,3 32,7 53,14l125 38c2,1 5,2 6,3 2,0 5,2 7,3l118 34c27,9 26,2 50,14l93 -300c6,-19 -3,2 3,-20l90 -283c9,-25 1,5 11,-21l41 -126c0,-3 1,-8 1,-10l102 -315c12,-37 27,-74 37,-109l32 -111c0,-2 2,-4 3,-6l152 -493c5,-25 8,-27 14,-52 6,-21 -2,-1 4,-20l46 -129c5,-14 6,-21 6,-23 2,-10 2,-8 7,-20l144 -397c1,-1 2,-4 3,-5l9 -35c1,-1 1,-3 2,-4 0,-1 2,-4 2,-5 9,-16 0,5 9,-13l109 -262c9,-23 10,-28 22,-52 2,-2 12,-23 12,-23l96 -214c2,-6 2,-7 8,-17l6 -9c0,-1 2,-4 2,-5l20 -40c0,-1 1,-4 1,-5l22 -45c10,-18 0,5 11,-18l74 -149c0,-1 1,-3 1,-4l56 -100c11,-17 3,-6 13,-23l199 -338c15,-31 -13,16 6,-17l36 -54c7,-11 5,-6 15,-20 5,-8 9,-17 13,-23l28 -46c1,-1 2,-4 3,-5 33,-45 98,-128 120,-173l50 -64c1,-1 2,-3 2,-4l147 -189c27,-28 34,-53 63,-81l43 -55c11,-23 60,-63 83,-90l59 -75c46,-54 98,-94 143,-146l52 -56c2,-1 4,-3 5,-4l59 -59c1,-1 3,-3 4,-4l20 -17c51,-44 90,-94 140,-139l81 -63c27,-24 42,-47 70,-66 21,-30 5,-6 42,-37l60 -51c15,-11 5,-3 17,-10 64,-40 29,-34 102,-77 31,-18 20,-27 60,-49 52,-28 29,-24 55,-44l245 -163c0,-1 2,-3 2,-3l294 -178c22,-12 42,-24 61,-37l137 -72c21,-12 -5,-1 19,-12 25,-12 -16,8 13,-4 13,-5 29,-16 44,-25l15 -7c1,-1 3,-1 4,-1 1,-1 4,-1 5,-2 1,0 3,-1 4,-1l50 -28c1,0 3,-2 5,-2l202 -97 909 -327 9 0 197 -51c2,-1 6,-3 8,-4l496 -111c46,-6 40,2 104,-17 0,0 3,-1 4,-1l228 -32 9 0 323 -33c28,-4 20,-6 43,-7 136,-3 268,-12 407,-14zm-8321 16365l9 0 -8 10 -1 -10zm-6304 0l0 9 -11 -8 11 -1zm-217 -145l0 9 -10 -7 10 -2zm6413 -649l9 0 -8 10 -1 -10zm586 -63l-9 0 7 -11 2 11zm-1416 -406l9 0 -8 10 -1 -10zm-5159 -172l0 -9 11 8 -11 1zm370 -81l0 9 -10 -7 10 -2zm577 -505l0 9 -10 -8 10 -1zm4140 -72l9 0 -8 10 -1 -10zm108 -72l9 0 -8 10 -1 -10zm361 -289l9 0 -8 10 -1 -10zm1226 -289l9 0 -7 11 -2 -11zm10615 -2878l-9 0 7 -10 2 10zm-81 -297l9 0 -8 10 -1 -10zm-1407 -109l9 0 -8 11 -1 -11zm397 -180l9 0 -8 10 -1 -10zm-7134 144l-9 0c-13,-7 -9,-4 -27,-9l54 -180c9,-24 1,6 11,-24l52 -175 149 43c32,9 14,6 29,12 25,10 36,3 79,22l169 56c3,0 5,1 8,1 5,2 45,-2 38,33 -6,30 -51,131 -52,160l-22 80c-7,28 -26,85 -37,108l-372 -105c-1,0 -4,-1 -5,-1l-13 -5c-1,0 -3,-1 -4,-1l-48 -15zm938 -433l0 9 -11 -7 11 -2zm-5411 3825c-2,2 -5,1 -6,4l-283 177 -9 0c-22,15 -40,21 -63,36l-9 0 -217 98c-26,8 -29,19 -91,36l-120 35c-28,4 -32,4 -51,10l-161 37 -9 0 -154 27c-36,5 -32,3 -51,5 -15,1 -35,7 -50,10l-269 18c-151,4 -279,4 -427,-12l-112 -12c-24,-6 -19,-4 -55,-9l-213 -38c-14,-3 -9,-1 -20,-4 -2,-1 -7,-3 -9,-4l-76 -19c-1,0 -4,-1 -5,-1l-58 -14c-69,-24 -187,-56 -260,-91l-9 0 -87 -40c-2,0 -5,-2 -6,-2l-323 -164c-2,-1 -4,-3 -6,-4 -1,0 -4,-2 -5,-3 -1,-1 -4,-2 -6,-3l-91 -63c-1,-1 -4,-2 -5,-3l-12 -7 -238 -186c-17,-13 -5,-3 -19,-17l-350 -403c0,-1 -1,-4 -1,-5 -1,0 -1,-3 -2,-4l-7 -12c-21,-29 -49,-59 -63,-92l-250 -661 -21 -151c-1,-22 -12,-43 -17,-79l-10 -146c-13,-93 -10,-234 0,-326 1,-7 7,-41 7,-49l38 -285c3,-15 9,-28 12,-39l45 -171c20,-75 49,-142 79,-209l161 -309c1,-1 3,-4 4,-5l27 -46c9,-15 -1,2 11,-15l118 -171c21,-24 46,-42 65,-72l6 -11c1,-2 3,-4 3,-5 2,-2 7,-7 8,-9 9,-11 8,-10 17,-20l325 -325c9,-9 18,-19 27,-26l100 -81c2,-1 4,-3 5,-4 2,-1 4,-3 5,-4l88 -66c11,-6 1,2 18,-9 9,-6 9,-8 19,-17 131,-110 284,-179 438,-256l439 -173c8,-2 15,-2 15,-3l298 -75c1,0 4,-1 5,-1l133 -24c9,-1 36,-6 42,-6 14,-2 19,1 32,-3 52,-14 146,-20 208,-26 190,-19 349,-11 546,1 11,1 19,-1 30,0l339 39c25,8 -8,1 18,6l108 19c6,0 31,3 49,7l299 70c15,5 7,1 17,3l50 12c34,5 22,5 41,11l169 50c2,1 9,4 11,5l91 28c22,9 1,1 17,8 4,1 11,3 14,4l548 184c11,3 10,1 22,5l255 74c26,9 -4,1 22,9l391 115c49,21 103,28 154,45l157 41c-24,35 -18,31 -24,62 -5,27 -10,41 -16,75 -3,21 1,5 -7,24 -8,17 -10,23 -12,35l-38 161c-10,37 -7,10 -15,34 -9,27 -14,95 -28,128l-119 462c-8,25 -5,-4 -15,34l-57 226c-10,36 -7,10 -15,33l-54 198c-5,21 3,-5 -3,15 -2,3 -8,15 -8,15l-147 439c-11,27 -14,46 -25,75 -8,22 -9,20 -15,34 -10,26 6,-12 -4,14 -2,4 -6,12 -7,15 -7,16 -8,22 -13,34 -4,10 -8,17 -8,18l-323 704c-1,1 -3,4 -3,5l-4 9c0,1 -1,3 -1,4l-57 99c-6,9 -13,15 -21,25 -16,20 -12,42 -46,79 -20,23 -11,27 -31,50 -8,10 -15,12 -21,22 -10,17 1,13 -33,50 -25,27 -19,34 -36,54l-99 126c-21,42 -68,74 -98,110l-126 136c-1,2 -3,4 -4,5l-307 252zm4266 -3870l0 -9 10 8 -10 1zm0 0c10,24 2,17 -7,47l-44 145c0,1 0,3 -1,4 -12,35 -53,149 -57,192 -18,-9 -13,-7 -37,-12l-260 -78 -9 0 -163 -45 118 -397 346 105c63,21 50,9 114,39zm8648 -162l-9 0 8 -11 1 11zm-9388 -72l0 -9 11 7 -11 2zm7720 -82l9 0 -8 11 -1 -11zm-7720 82c-2,26 -6,32 -12,55l-5 19c-6,15 -3,-3 -12,29 -7,23 2,1 -4,21 -9,25 -1,-5 -10,21l-65 218c-7,22 -5,-13 -9,34 -32,-3 -65,-17 -88,-23l-27 -8c-1,0 -3,-1 -5,-1 -14,-4 -24,-5 -42,-14l-9 0c-17,-8 -8,-5 -32,-11l-107 -30c-28,-10 -46,-17 -74,-24 -2,-1 -4,-1 -6,-1l-48 -30 105 -334c9,-22 0,-20 17,-57l269 83c2,1 5,2 7,3l157 50zm-6565 -334l9 0 -8 10 -1 -10zm5672 505l-9 0 -67 -22c-15,-5 -15,-4 -30,-7l-194 -58c-33,-11 -90,-30 -124,-30l59 -192c2,-32 6,-11 17,-53 12,-48 15,-19 20,-46 1,-11 -5,-6 1,-23 9,-30 40,-86 30,-110 71,6 21,5 87,22l127 42c3,1 11,3 14,4 39,9 87,28 133,39l117 37 -136 415c-15,-8 -29,-10 -45,-18zm-5600 -541l9 0 -8 10 -1 -10zm7747 -36c69,1 44,9 91,21 2,1 8,1 10,2l72 24c61,20 267,66 314,97l-57 155c-25,75 -64,235 -97,296 -18,-9 -42,-17 -67,-24 -14,-5 -25,-6 -30,-7l-211 -67c-7,-2 -27,-6 -27,-6l-82 -28c-67,-19 -51,-6 -29,-96l3 -10c4,-12 6,-15 7,-18l84 -278c4,-14 19,-36 19,-61zm-7603 -36l9 0 -7 10 -2 -10zm7080 360l-9 0c-12,-5 -14,-5 -26,-11 -17,-7 -5,-4 -22,-9 -11,-4 -27,-4 -52,-16l-9 0 -74 -24c-2,-1 -5,-1 -7,-2l-34 -11c-2,-1 -5,-2 -7,-3l-77 -22c-24,-6 -10,-4 -35,-10l41 -138c0,-1 0,-3 1,-5l88 -261c1,-2 1,-11 1,-13 1,-20 -6,-1 4,-25l62 20c1,0 4,2 6,2l14 4c3,1 5,1 8,2l236 70c25,7 36,13 63,19 32,7 42,12 71,18l-64 197c-8,24 -1,12 -4,28l-18 48c-1,5 -3,16 -7,31l-31 106c-9,30 -3,-2 -11,32 -14,-1 -17,-1 -29,-3 -2,0 -8,-1 -10,-2l-22 -7c0,0 -9,-1 -15,-3 -24,-6 -16,-4 -32,-12zm-947 -757l39 5c1,0 3,1 4,1 2,1 7,3 8,3l9 3c1,0 6,0 16,3l337 102c16,5 26,-17 26,31l-9 48c-22,36 -4,4 -19,52l-29 97c0,1 0,3 -1,4 0,1 -1,4 -2,5l-57 175c-5,11 -11,21 -16,30l-259 -84c-46,-15 -123,-47 -174,-51l23 -75c9,-69 31,-77 36,-122 1,-11 2,-7 7,-22l8 -23c0,0 1,-3 1,-4l16 -50c1,-1 2,-3 2,-4 1,-1 1,-4 2,-5 0,0 2,-13 2,-15 10,-41 26,-64 30,-104zm-7125 54l9 0 -7 10 -2 -10zm1867 54l-9 0c-22,10 -30,8 -58,15l-174 43c-2,0 -7,1 -10,2 -81,12 -18,3 -67,19l-276 89c-19,4 -15,3 -30,10 -10,5 -9,5 -24,13 -3,1 -10,5 -12,6 -14,6 -4,2 -14,5 -1,0 -13,1 -22,4l-78 39c-31,15 -74,25 -101,44l-144 72 -72 36 -541 401c-8,6 -4,2 -14,9 -50,34 -309,295 -346,353l-48 56c-1,1 -3,4 -4,5l-73 90c-1,2 -6,8 -7,10l-90 136c-9,13 -14,16 -20,25l-290 594c-5,12 -4,10 -6,19l-70 255c-5,23 2,21 -3,44l-53 495c0,66 0,114 0,171l247 1027c1,2 2,4 3,6l17 37c0,1 1,3 1,4l15 25c8,13 9,15 16,30l231 346c11,12 9,11 15,21 1,2 3,4 4,6l19 26c1,1 3,3 4,5 1,1 3,3 4,4l119 125c1,2 3,4 4,5 1,1 3,4 4,5l105 103c31,27 52,51 83,79l462 314c2,1 10,4 12,6 17,9 0,-1 17,10l158 81c26,10 -12,-6 13,4 3,1 22,10 28,13l187 75c0,0 25,13 30,16l108 36c23,9 -1,2 22,10 10,3 8,1 26,5l356 86c2,0 8,1 11,2l80 16c72,15 231,26 289,27l90 10c18,0 22,-1 41,0l174 2c58,-4 119,6 177,-9l140 -11c92,-7 195,-16 286,-38 21,-5 20,-7 34,-10l90 -18c8,-2 29,-4 36,-5l86 -22c1,0 4,-1 5,-1l161 -45c14,-5 26,-6 28,-6 1,-1 3,-1 5,-1l310 -137c97,-48 192,-92 278,-155l11 -7c0,0 27,-14 30,-15l189 -136c1,-1 4,-3 5,-4 2,-1 4,-3 5,-4l16 -13c0,0 2,-2 2,-3l518 -517c18,-20 -8,11 7,-10 12,-16 22,-26 36,-42l130 -185c39,-45 -16,4 22,-40l73 -109c13,-20 4,-8 16,-29 10,-20 18,-34 30,-51l14 -24c1,-1 1,-3 2,-4l16 -32c0,0 1,-3 1,-4l78 -141c3,-6 12,-23 16,-30 12,-20 1,5 12,-19l158 -351c1,-1 2,-4 2,-5l4 -9c0,-1 1,-3 1,-4l91 -239c8,-24 1,1 10,-22l334 -1067c10,-32 14,-20 15,-48 2,-38 1,-4 15,-46 7,-23 1,-10 4,-27l68 -244c7,-26 0,-16 11,-52l48 -191c1,-10 6,-24 9,-32l52 -209c11,-25 6,-5 9,-20 0,-1 1,-21 1,-23 1,-1 1,-3 1,-4 8,-29 13,-68 30,-93l88 21c2,0 5,1 7,2l374 113c-4,46 -2,11 -9,34l-91 298c-6,22 0,12 -5,26l-88 293c-16,88 -58,174 -73,262l-166 577c-7,23 -5,10 -8,18 -6,14 -3,4 -6,14l-73 249c-7,20 -9,23 -14,41l-7 31c-7,16 -4,-6 -13,29l-94 290c-1,4 -7,15 -7,16l-137 363c-2,5 -6,12 -7,16 -7,17 -9,23 -15,40l-93 204c-4,7 -4,8 -7,16 -10,26 -44,106 -76,145l-8 10c-1,1 -2,3 -3,4l-59 97c-1,1 -1,4 -2,5l-15 21c-2,2 -13,15 -13,15l-41 59c-41,41 -2,16 -30,49l-105 140c-41,56 -143,149 -173,199 -1,1 -2,3 -2,4l-48 52c-1,1 -4,3 -5,4l-23 24c-1,1 -3,3 -3,4l-68 69c-7,10 -1,3 -12,13l-15 13c0,0 -6,7 -14,13l-67 63c-1,1 -3,2 -4,3 -1,1 -3,2 -4,3 -23,16 -10,-1 -28,26 -34,22 -51,53 -85,78 -18,13 -32,19 -48,32 -17,15 -24,25 -42,40 -2,2 -8,7 -10,8 -11,9 2,0 -10,8 -63,41 -43,38 -70,56l-96 67 -97 65c-1,1 -4,3 -6,3 -1,1 -3,2 -5,4 -16,10 -2,1 -16,11 -16,12 -8,7 -22,14 -11,6 -2,-1 -18,9l-144 91c-23,11 -26,10 -46,26l-50 30c-13,8 -8,5 -24,13 -65,32 -117,58 -181,90l-176 77 -9 0c-47,31 -146,57 -199,79 -28,12 -55,17 -80,29l-9 0 -122 40c-2,1 -5,2 -7,3 -37,11 28,-7 -15,3l-693 129c-2,0 -21,1 -22,1 -187,23 -439,30 -628,11l-319 -37c-21,-3 -2,4 -25,-6l-9 0c-40,-19 -55,-5 -97,-19 -1,0 -3,-1 -4,-1 -30,-9 -39,-1 -70,-16l-9 0c-13,-6 -65,-18 -83,-21l-315 -95c-18,-6 -22,-7 -41,-13l-202 -87 -9 0c-40,-27 -22,-13 -55,-26l-83 -43c-2,-1 -4,-2 -6,-4l-260 -154c-2,-2 -9,-5 -11,-7 -2,-1 -4,-2 -6,-3 -1,-2 -3,-3 -5,-5l-70 -47 -351 -289c-2,-2 -6,-8 -8,-10l-95 -104c-9,-10 -8,-9 -17,-19 -12,-13 -19,-19 -32,-31 -10,-11 -18,-17 -27,-28l-288 -410c0,-1 -2,-3 -2,-4 -7,-13 -3,-2 -14,-20l-78 -148c0,-1 -6,-14 -9,-18 -8,-16 -6,-8 -14,-22 -8,-13 -4,-4 -7,-13l-135 -341c-1,-2 -2,-4 -3,-6l-18 -54c-18,-42 -77,-247 -79,-290l-18 -72c-2,-10 2,-20 1,-31 -3,-20 -1,-3 -4,-14 0,-1 -2,-3 -2,-4 0,-1 -1,-4 -2,-5l-47 -307c-1,-27 2,-24 -5,-69 -18,-113 -23,-328 -17,-443 3,-53 2,-104 15,-167l158 -706c12,-32 7,-41 22,-67l68 -186c8,-21 1,-1 8,-17l77 -176c0,-1 1,-3 1,-4 0,-1 1,-4 2,-5l219 -383c23,-27 8,-16 24,-40 10,-16 0,1 12,-15l15 -25c0,-1 1,-4 2,-5l62 -80c7,-11 6,-9 16,-21l26 -35c0,-1 1,-3 2,-4 0,-1 17,-22 17,-23 15,-17 25,-25 40,-41l113 -131c64,-64 130,-144 204,-193 2,-1 4,-2 6,-3 35,-25 60,-61 94,-86 2,-2 4,-3 5,-4 2,-1 4,-3 6,-4l46 -35c30,-31 21,-14 49,-32l457 -292c78,-38 154,-77 228,-114 27,-13 26,-13 56,-25 34,-13 10,-3 31,-15 13,-9 11,-9 22,-12 1,0 10,0 23,-5l388 -132c1,0 3,-1 4,-1l231 -52c1,0 19,-4 24,-5 16,-4 10,-2 27,-4l246 -36c8,0 27,-2 38,-4 180,-18 412,-30 593,-20l640 52c3,0 20,1 22,1 9,0 51,4 72,7l371 63c1,0 3,1 4,1 6,1 17,0 23,1l197 39c10,2 27,6 28,7l270 60c1,0 4,1 5,1l149 32c2,0 9,4 11,4l200 54c15,4 49,7 68,13 24,8 9,4 27,10l253 70c3,1 5,1 8,2l349 104c0,0 13,2 15,3l145 42c1,1 4,2 5,3 2,1 4,2 6,3 3,1 11,3 13,4l126 39c11,3 27,6 28,6 1,1 3,1 4,2 1,0 4,1 5,1l45 15c1,1 3,1 4,2l92 30c3,1 5,1 8,2 2,1 4,2 6,2 2,1 5,2 6,3 3,0 8,3 10,4 20,6 -7,-2 14,3l139 42c23,5 37,17 31,49 -1,6 -3,9 -5,14 -7,16 -3,-4 -12,29 -1,2 -1,5 -1,6l-56 173c-1,6 -2,13 -8,29l-25 81c-1,3 -2,9 -2,11 -8,32 -10,2 -14,47 -42,-3 -64,-20 -104,-29 -23,-5 -7,3 -33,-6l-60 -20c-23,-6 -52,-16 -71,-21l-255 -77 -9 0c-18,-9 -14,-7 -38,-12 -21,-5 6,3 -14,-3l-194 -59c-1,-1 -3,-1 -4,-2l-354 -104 -9 0 -68 -25c-40,-11 -7,-2 -36,-16 -17,-8 -28,-11 -46,-17 -34,-11 -55,-18 -88,-29 -19,-6 -24,-7 -40,-14l-127 -45c-2,-1 -4,-2 -6,-3 -2,-1 -5,-1 -7,-2l-739 -191c-42,-14 -77,-11 -97,-19l-9 0 -180 -27c-59,-3 -39,-15 -88,-14l-163 -14c-58,-13 -574,-15 -638,-2 -33,7 -16,7 -43,7l-358 50zm14790 -136l-9 0 8 -10 1 10zm-9956 352l-9 0c-21,-10 -32,-10 -47,-14l-21 -8c-13,-4 -16,-3 -29,-7l-321 -104c-22,-10 -34,7 1,-75l110 -333c57,0 93,22 137,35l221 65c4,2 12,4 14,4l88 22 -21 66c0,1 0,3 -1,4 0,2 -2,15 -6,28l-32 108c-9,25 -1,-5 -10,21 -5,14 -7,27 -7,28 -1,1 -1,4 -1,5l-48 164 -18 -9zm-6250 -541l9 0 -7 11 -2 -11zm8369 -72c14,0 21,-1 35,2l148 45c1,1 3,1 4,2l215 62c34,11 34,15 76,15 -1,16 -3,31 -4,34l-76 248c-7,17 -4,-5 -13,29 -10,40 7,-12 -3,28l-39 112 -139 -42c-18,-5 -22,-7 -34,-11 -17,-6 -15,-6 -33,-11l-272 -80c6,-13 5,-8 10,-26l39 -120c15,-72 64,-194 86,-287zm-748 252l-9 0 -68 -22c-2,0 -5,-1 -7,-2 -59,-16 -54,28 19,-193l83 -252c43,1 25,7 62,15l54 14c11,5 12,7 29,11l60 17c2,1 5,2 7,2l239 68 -75 227c-7,20 2,-6 -3,15l-43 143c0,1 -2,4 -2,6 -16,38 1,17 -22,51l-324 -100zm-1588 -469l0 9 -10 -7 10 -2zm2435 -72l0 9 -10 -7 10 -2zm-1461 361l-9 0c-24,-11 -40,-12 -51,-16 -26,-8 3,0 -23,-8l-151 -48c2,-28 2,-13 7,-29l51 -167c26,-77 42,-164 77,-237l345 102c1,0 4,1 5,1l92 23c-2,31 -10,42 -17,65l-34 110c-13,30 -2,4 -8,26l-65 197c-6,14 -3,5 -6,15 0,0 -3,21 -5,29l-155 -47c-13,-4 -28,-4 -53,-16zm-5807 -397l-10 0 -258 49c-15,3 -75,14 -93,23l-9 0 -244 72 -9 0 -577 253c-13,9 -16,10 -29,17 -24,12 -7,3 -28,17l-202 113c-16,11 -6,6 -26,19l-59 31c-12,8 -13,13 -24,21l-77 49c-1,1 -4,2 -6,4 -20,13 -16,15 -34,29l-70 48c-38,26 -70,66 -108,90l-112 95c-1,1 -3,3 -5,4 -36,33 27,-24 -9,9l-37 33c-104,91 -79,70 -166,166l-40 45c-1,1 -3,3 -4,4 -2,3 -7,9 -8,11 -21,24 -50,45 -67,68l-60 77c-31,32 -16,33 -49,67l-59 77c-29,31 -6,9 -17,31 -13,29 -55,66 -71,104l-57 99c-6,10 -5,5 -15,20l-108 206c0,1 -1,3 -2,4 0,1 -1,4 -2,5l-26 44c0,2 -1,4 -2,6l-88 201c-4,12 -6,19 -9,28l-19 46c-1,2 -4,9 -5,11 -3,7 -7,19 -8,24l-120 380c-8,27 -6,40 -9,50l-107 545c1,122 -23,147 -8,389l22 304c5,56 2,48 9,90 4,26 3,32 6,44 5,29 7,26 8,44l174 707c5,13 5,21 6,23l124 303c1,1 1,4 1,5l237 418c0,1 1,3 2,4l213 281c30,60 267,281 334,341l359 272c20,15 3,2 23,13l41 31c9,5 9,4 19,8l457 232c1,1 4,1 5,2l641 201c67,21 123,26 193,37l113 17c1,1 4,2 5,2l811 24 230 -27c2,0 7,-1 9,-1l73 -6c5,0 22,-3 22,-3l18 -7c13,-3 18,-1 32,-2 60,-7 237,-37 276,-54l35 -10c1,0 3,-1 4,-1 1,0 4,-1 5,-1l802 -280c1,0 4,-1 5,-2 1,0 3,-1 4,-1 1,0 4,-1 5,-1l162 -80c17,-8 30,-17 45,-28l434 -269c2,-1 4,-3 5,-4l11 -7c1,-1 4,-3 5,-4l43 -29 116 -83c17,-17 29,-35 51,-48 19,-11 7,2 30,-16l96 -84c28,-20 -17,13 10,-8 15,-12 16,-12 29,-25 35,-33 62,-71 101,-97 12,-18 4,-10 23,-23l83 -77c0,-1 2,-3 3,-3l44 -52c6,-9 0,-2 11,-14 41,-44 90,-83 122,-131l77 -85c36,-36 66,-90 79,-107l125 -168c9,-12 18,-17 26,-28l154 -252c12,-22 22,-40 31,-64 8,-19 -2,-2 13,-27 11,-17 1,1 11,-17 0,0 8,-18 8,-18 1,-2 4,-8 4,-10l236 -582c1,-1 1,-3 1,-4l27 -74c37,-86 61,-176 88,-265l22 -68c12,-29 3,-12 8,-31 7,-23 7,-14 12,-29l150 -507c1,-7 4,-21 9,-37l30 -107c8,-24 5,-10 8,-18 7,-15 4,-3 6,-15l17 -60c10,-37 -5,11 4,-27l59 -205c0,-1 1,-4 1,-5l12 -42c6,-26 7,-18 12,-40l113 -388c4,-19 8,-26 12,-39l36 -118c17,-50 30,-117 55,-169l94 31c2,1 5,1 7,2l341 93 -103 313c-2,5 -6,13 -9,22 -4,16 3,5 -5,28 -11,33 -3,1 -12,27l-21 82c0,1 -1,3 -1,4 0,1 -1,4 -2,5l-14 40c-2,9 -1,7 -7,19l-66 208c-5,17 -6,18 -11,29l-150 484c-13,64 -49,149 -71,212 0,1 -1,3 -1,4l-11 42c-9,27 -14,42 -22,68l-51 165c-25,57 -64,226 -91,288l-36 109c-6,14 -3,4 -6,14 0,1 -2,17 -6,28l-50 162c-1,1 -2,3 -2,4l-286 658c-24,56 -65,113 -91,167l-76 118c-10,17 -5,14 -15,30 -7,11 -11,14 -20,26l-42 66c-15,26 -10,16 -28,36l-15 22c-1,1 -1,3 -2,4l-120 156c-18,22 10,-12 -9,16l-88 108c-69,68 -36,54 -113,131l-152 155c-107,101 -149,151 -229,212 -40,31 -53,56 -91,81l-76 60c-2,1 -5,0 -5,3l-432 299c-16,9 -17,13 -32,22l-47 26c-41,21 -11,15 -65,42l-72 37c-1,1 -3,2 -5,4 -18,12 -35,22 -56,34l-439 206c-35,8 -25,12 -61,25l-149 58c-2,1 -8,3 -10,4l-108 36c-20,7 7,-2 -15,3 -17,4 -18,6 -29,11 -36,15 -26,2 -62,20l-9 0 -244 72 -9 0 -351 72 -9 0c-17,7 -24,5 -54,8 -37,4 -50,12 -70,14l-1348 -26c-90,-18 -111,-11 -208,-39 -8,-2 -28,-4 -36,-6l-79 -23 -9 0 -424 -145 -9 0 -246 -110c-1,-1 -3,-1 -4,-2l-66 -32 -9 0c-62,-42 -129,-66 -178,-101 -13,-8 -26,-16 -40,-23 -12,-7 -13,-7 -24,-13 -15,-8 -6,-4 -22,-14l-89 -54c-47,-37 -45,-21 -74,-46l-165 -121c-27,-24 -20,-8 -46,-27 -17,-13 -17,-20 -38,-34l-291 -241c-93,-93 -355,-336 -402,-414 -4,-7 -17,-19 -23,-26l-69 -76c-2,-1 -3,-3 -5,-5l-29 -43c-18,-24 -38,-34 -56,-61l-139 -178c-1,-1 -1,-3 -1,-4l-43 -86c-1,-2 -3,-4 -3,-5l-168 -369c-6,-16 2,-5 -6,-27l-15 -42c-1,-6 -5,-17 -8,-24 0,-2 -2,-5 -3,-6l-25 -78c-25,-88 -47,-123 -69,-214l-29 -117c-23,-54 -76,-347 -81,-418l-17 -157c-11,-208 -29,-401 -5,-638 5,-44 1,-51 4,-84 0,-5 5,-37 8,-53 12,-89 15,-208 40,-298 9,-34 3,-21 6,-46 1,-14 9,-32 13,-53 7,-35 2,-31 8,-54l83 -312c1,-1 2,-4 2,-5 0,-1 1,-4 1,-5l445 -961c1,-2 4,-7 5,-9l110 -171c34,-66 103,-136 129,-183l14 -18c9,-12 8,-10 17,-20l63 -81c7,-7 13,-11 19,-18l213 -242c1,0 3,-2 3,-2l43 -42c1,-1 2,-3 3,-3l36 -37c1,0 2,-2 3,-3l20 -21c1,0 3,-2 4,-3 1,-1 7,-5 9,-6l386 -327c16,-11 22,-25 37,-36l74 -52c1,-1 3,-3 5,-4 1,-1 4,-3 5,-4l395 -250c20,-12 32,-7 53,-23 25,-21 13,-13 44,-28 37,-18 64,-32 103,-51 66,-34 129,-69 196,-91 13,-4 -5,7 18,-11 32,-26 222,-90 260,-109 22,-11 24,-14 49,-23l324 -110c3,-1 9,-4 12,-4l369 -94c0,0 18,-3 23,-3 95,-14 171,-37 262,-43l26 -3c1,0 4,-2 5,-2l9 -3c44,-9 99,-4 139,-13 79,-18 226,-14 257,-15l290 -1c87,2 200,1 276,12l756 110c69,23 161,32 230,53l63 13c34,7 72,26 109,35 8,2 20,4 22,4l126 43c1,0 4,1 5,1l136 43c33,15 7,9 42,14l120 36c7,1 23,4 30,6l14 3c1,0 4,1 5,2l197 63c32,11 4,3 23,11l429 131c13,4 16,4 30,8l15 7c1,0 4,1 5,1l397 120c25,9 -6,1 27,12 9,3 21,5 22,5l20 8c79,25 179,46 265,78 26,10 -4,2 22,10l79 25c-6,11 -6,13 -11,26l-28 75c-25,74 -71,252 -106,305 -31,-21 -67,-30 -106,-39l-309 -97 -9 0c-11,-5 -13,-5 -25,-10 -17,-8 -5,-5 -22,-10 -11,-4 -27,-4 -52,-16l-9 0c-18,-8 -13,-6 -37,-12 -21,-5 5,3 -14,-3 -2,-1 -16,-7 -16,-7l-61 -20c-10,-3 -13,-3 -23,-5l-453 -133 -9 0c-53,-25 -193,-50 -248,-68l-511 -125c-17,-3 -5,1 -27,-5 -21,-5 -54,-11 -71,-19l-9 0c-27,-13 -63,-12 -82,-17 -25,-6 -19,-7 -51,-12 -23,-3 -19,1 -38,-7l-9 0 -343 -62c-91,-9 -226,-37 -334,-46l-9 0 -119 -14c-6,0 -29,-4 -48,-7l-241 -20c-21,0 -40,2 -62,0l-596 0c-21,1 -7,1 -39,8l-236 20c-42,5 -76,6 -92,13zm13157 -180l9 0 -7 10 -2 -10zm-6628 0l0 9 -11 -8 11 -1zm-1109 -9l0 -9 10 7 -10 2zm7864 -82l9 0 -8 11 -1 -11zm-14664 -18l9 0 -8 11 -1 -11zm6800 100c-4,47 -2,9 -12,38l-29 93c0,0 -6,12 -7,15l-42 145c-5,13 -7,9 -13,35l-10 30c-10,22 -7,21 -9,34 -9,57 -23,38 -66,28 -24,-5 -20,-4 -38,-12l-9 0 -67 -23c-2,0 -5,-1 -7,-2l-278 -84c-9,-23 43,-158 54,-191l14 -32c13,-62 13,-36 35,-104 4,-15 0,-12 1,-22 3,-24 -2,3 9,-25 19,-44 -3,-21 23,-59l228 69c75,18 153,33 223,67zm1848 225c-8,-20 -5,-17 6,-48l66 -215c10,-33 3,-3 11,-23l5 -36c0,-1 2,-4 2,-5l14 -22c6,-22 -6,-30 23,-48 1,0 3,-3 3,-2 1,2 3,-1 4,-1 1,-1 11,-2 13,-2 6,1 15,3 30,8l74 22c3,1 15,7 15,7l282 81c44,11 -2,9 48,14 -10,23 -1,11 -10,43l-73 235c-6,20 -12,37 -20,61 -11,34 0,78 -62,62l-431 -131zm-631 -180l-9 0c-30,-15 -69,-22 -99,-36 20,-42 4,-35 25,-83l10 -28c1,-1 1,-3 2,-4 0,-1 1,-4 1,-5 1,-1 1,-3 2,-4 0,-1 1,-4 1,-5l52 -166c38,-113 22,-115 79,-103l311 95c25,11 2,6 24,10 102,20 62,20 33,129 -2,8 -4,20 -4,22l-85 277 -224 -67c0,0 -14,-2 -21,-4l-98 -28zm-839 -244c15,-36 -9,2 17,-64l50 -167c16,-51 56,-153 60,-193 28,19 94,32 133,43l318 92 -64 196c-1,2 -2,4 -2,5l-48 155c-10,33 1,54 -33,56l-18 -5c-24,-9 10,0 -25,-9l-142 -39c-25,-8 4,1 -18,-7l-100 -27c-33,-10 -85,-32 -128,-36zm-6015 -334l-9 0c-31,15 -37,11 -58,16 -18,4 -21,7 -34,10l-909 335 -9 0c-34,23 -80,33 -139,69 -1,1 -4,2 -5,3l-136 73c-1,1 -4,0 -5,3 -4,11 -49,26 -59,31l-297 178c0,0 -2,2 -3,3 0,0 -2,2 -2,3l-54 37c-17,10 -13,6 -29,17l-31 23c-18,12 -7,3 -27,18 -15,13 1,3 -14,13 -17,11 -7,3 -18,9 -17,9 -10,3 -27,18l-57 42c-13,8 -17,16 -28,27l-208 171c-14,12 -16,11 -32,22l-399 394c-1,2 -3,3 -4,5l-12 15c-45,64 -81,89 -110,135 -34,53 -95,100 -123,154l-92 131c0,0 -1,3 -2,4l-66 96c-21,41 -57,74 -73,113 -1,1 -1,3 -2,4 0,1 -1,3 -2,4l-169 299c-6,11 -3,6 -6,13l-51 99c0,1 -1,4 -2,5l-147 333c-1,1 -1,4 -2,5l-140 395c-10,39 7,-13 -4,27 -9,37 -6,10 -14,34l-92 510c0,28 0,17 -8,57 -3,15 -1,7 -5,27l-23 353c0,160 -13,345 13,513 6,39 5,36 5,60l92 559c0,1 1,4 2,4 0,1 1,4 1,5l73 263c3,10 9,26 13,41l108 296c1,1 1,3 2,4l9 22c6,15 7,19 13,34 8,20 1,1 8,17 0,1 1,4 1,5l183 380c6,12 2,8 9,19l52 74c11,12 16,16 26,27l200 244c3,6 -1,7 17,27l66 69c2,2 3,4 5,5l67 77c1,1 3,3 4,5 77,89 208,220 297,298l98 83c23,20 32,35 56,51 31,46 15,-1 75,61 14,15 21,22 37,35 2,2 8,7 10,8l21 16c1,0 4,2 5,3 1,1 4,2 6,4 19,13 16,15 33,29 28,23 20,8 46,27 11,9 19,23 31,32 26,19 18,3 45,26l136 100c20,15 3,1 23,13 11,6 6,1 17,10l64 43c12,8 8,4 18,10l541 288c23,7 29,10 51,22 8,3 11,5 18,9l162 64c7,2 13,5 19,8 2,0 4,2 6,3l60 21c21,10 26,9 39,12l504 139c11,2 19,2 28,4 3,0 8,1 10,2 1,0 4,1 5,1 31,10 84,7 125,18l14 5c10,3 6,2 17,2l87 9c23,3 8,6 31,9 14,2 17,1 44,4 20,2 45,4 51,5l689 26 235 -17c6,-1 29,-5 48,-7l574 -92c2,-1 15,-2 26,-4l154 -35c17,-5 29,-11 48,-17l56 -15c4,-1 10,-1 22,-5l91 -26c2,-1 8,-3 10,-4l32 -8c24,-9 -2,-1 17,-8l1119 -516c9,-4 38,-17 48,-24l241 -165c54,-48 138,-86 193,-140 6,-6 12,-14 18,-19 21,-15 3,-2 23,-12 21,-11 17,-9 36,-28 13,-14 21,-23 36,-36l138 -114c1,-1 4,-2 5,-3 1,-1 3,-2 3,-3 1,0 3,-2 3,-3l53 -44c89,-82 225,-213 300,-304 9,-11 7,-11 10,-17 7,-14 -11,8 10,-17 21,-25 46,-43 68,-68l91 -108c20,-22 12,-21 28,-44 11,-17 18,-19 30,-33 15,-18 14,-27 28,-45 10,-14 20,-18 30,-32l110 -154c1,-2 3,-6 3,-8l19 -35c1,-1 2,-3 3,-4 0,-1 2,-3 3,-4l43 -66c1,-2 6,-8 8,-10l318 -594c1,-1 1,-3 2,-4l97 -230c13,-22 4,-30 14,-50 17,-32 11,0 14,-36 3,-37 26,-78 37,-117l36 -114c16,-68 47,-137 66,-201 1,-2 4,-18 4,-18 1,-3 2,-8 2,-10 0,-1 1,-4 1,-5 23,-66 50,-173 80,-242l136 -439c0,-1 0,-3 1,-4l16 -50c8,-36 32,-75 36,-117 2,-33 6,-11 16,-36 4,-8 1,-15 11,-39 10,-25 5,-4 9,-20l38 -136c1,-2 3,-7 3,-8 1,-1 2,-4 2,-5 0,-1 1,-3 1,-4l10 -32c21,-87 61,-187 87,-267 10,-30 -3,-8 8,-38l14 -43c12,-52 47,-121 53,-170 5,-35 33,-74 37,-109l36 -113c6,-25 18,-68 31,-97 25,2 14,2 29,8l54 13c2,1 7,2 10,3l14 5c2,1 4,2 6,3 2,0 5,1 7,2l203 59c2,1 5,2 7,3l139 40 -86 305c0,1 -6,20 -8,24 -1,2 -2,4 -3,6l-18 54c-5,12 -5,10 -7,19l-75 270c-11,33 -50,119 -51,154l-96 321c-10,26 -1,-4 -10,22 -6,18 1,-2 -4,20l-34 110c-2,9 -1,7 -7,20 -2,4 -4,6 -9,24l-128 403c0,2 0,7 -1,9 0,1 -1,4 -1,5 0,1 -2,3 -2,4l-42 101c-3,7 -6,19 -7,25l-170 457c-2,5 -6,13 -11,25l-17 42c0,1 -1,3 -1,4 -1,1 -1,4 -2,5 0,1 -1,3 -1,4l-33 82c-1,1 -1,3 -2,4l-109 257c-1,1 -1,3 -2,5l-156 325c-1,1 -1,3 -2,4l-47 95c-2,2 -6,8 -7,11 -1,1 -3,4 -4,6 -1,2 -2,4 -3,6l-206 360c0,1 -2,4 -2,5l-62 96c-1,1 -3,3 -4,4 0,2 -2,4 -3,5l-78 120c0,1 -1,4 -1,4l-5 9c-1,2 -3,4 -4,5l-58 77c-15,25 16,-2 -19,36l-63 81c-32,31 -15,33 -49,68l-96 113c-35,34 -51,69 -90,108l-440 431c-1,0 -2,2 -3,3l-229 184c-22,20 -20,12 -43,28 -18,12 -16,17 -35,28 -17,10 -6,0 -25,12 -10,7 -8,9 -19,17 -24,18 -19,7 -45,28l-37 25c-1,1 -4,3 -5,4 -16,10 -2,2 -16,12l-111 69c-19,10 -28,16 -45,27l-28 17c-11,5 -26,12 -36,18l-317 166c-26,10 12,-6 -13,4l-249 107c-11,2 -17,2 -34,11 -16,7 -17,9 -38,17 -19,6 -24,6 -41,13l-222 76c-1,0 -14,6 -16,7 -20,6 7,-2 -14,3l-110 30 -9 0c-30,15 -115,26 -137,32l-10 4c-23,8 9,-1 -18,7l-50 9c-2,0 -6,3 -8,3l-237 53 -9 0c-19,9 -30,11 -56,13l-36 4c-26,8 8,1 -18,6l-77 14c-50,17 -180,25 -217,37l-256 34c-69,15 -125,10 -156,16 -68,14 -210,13 -234,18l-715 7c-64,1 -52,-9 -86,-9l-237 -19c-31,-5 -43,-7 -56,-8l-595 -116c-1,0 -4,-1 -5,-1 -4,-1 -41,-9 -45,-10l-20 -8c-15,-5 -21,-5 -36,-10l-343 -116c-16,-6 -15,-3 -29,-7 -21,-7 1,1 -25,-11 -15,-7 -20,-8 -32,-14l-9 0c-2,-2 -9,-6 -10,-7l-119 -46c-101,-40 -217,-109 -317,-159l-163 -90c-17,-10 -16,-15 -30,-24 -16,-11 -49,-22 -66,-33l-167 -113c-1,-1 -13,-11 -14,-12l-85 -59c0,0 -2,-2 -2,-3l-388 -315c-21,-21 12,8 -9,-9 -8,-7 -4,-3 -14,-9 -65,-44 -254,-250 -331,-328 -19,-18 -31,-31 -50,-49l-34 -41c0,0 -1,-3 -1,-4l-4 -8c-33,-45 -85,-77 -116,-125 0,-1 -2,-3 -2,-4l-3 -8c-14,-28 -41,-41 -59,-70 -7,-11 -7,-17 -16,-28l-164 -224c-10,-16 -8,-17 -21,-34 -13,-17 -6,-6 -18,-26 -11,-18 -12,-19 -22,-33l-228 -413c-10,-17 -21,-44 -29,-65l-31 -63c-7,-13 -4,-5 -7,-13l-34 -86c-1,-1 -1,-4 -2,-5l-35 -86c0,-1 0,-3 -1,-4l-77 -230c-7,-19 2,7 -8,-17l-61 -232c-6,-32 -16,-26 -17,-57l-86 -485c-22,-121 -26,-395 -31,-531 -1,-21 2,-24 1,-57 0,-5 0,-23 0,-36 4,-139 0,-193 16,-322l78 -523c14,-38 14,-95 26,-139l30 -118c5,-16 0,-5 6,-26l34 -132c8,-24 5,3 15,-34l98 -300c3,-7 1,4 8,-19l503 -930c1,0 2,-3 2,-4l63 -95c1,-1 3,-3 4,-4 13,-18 -2,4 6,-9l84 -127c10,-17 14,-17 23,-30 0,-1 1,-3 2,-4 1,-2 3,-7 4,-8 0,-1 2,-3 2,-4 1,0 3,-2 3,-2l176 -220c10,-12 12,-13 21,-25 17,-22 14,-30 60,-75l81 -99c84,-96 409,-418 461,-450l208 -170c2,-2 4,-3 6,-4l549 -380c3,-2 26,-13 30,-15l67 -40c82,-34 168,-92 253,-132 22,-11 -14,6 13,-4l82 -40c24,-12 42,-22 66,-34 21,-10 -6,-3 31,-13l498 -192c29,-7 21,-8 36,-14l325 -99c12,-3 16,-6 34,-11 18,-5 27,-5 45,-9l144 -35c2,-1 14,-2 16,-3l21 -8c1,0 4,0 5,-1l142 -22c23,-4 14,-3 30,-4l155 -25c22,-5 27,-3 59,-6l336 -27c1,-1 3,-2 4,-2 32,-6 1,9 48,2 78,-11 495,-14 543,-2 58,14 217,12 256,14 14,1 56,9 69,10l302 28c31,9 -8,5 26,8l426 64c15,3 28,8 39,10l136 32c1,0 3,1 4,1 1,0 8,1 16,3 31,9 14,6 29,12 3,2 12,4 14,4 10,3 2,-1 17,4l100 30c15,5 7,-1 32,8l27 11c2,1 20,4 34,9 29,9 48,16 75,25l513 156c2,1 10,3 14,4l65 23c2,1 4,2 6,2 3,1 5,2 8,2l489 151c1,0 3,1 4,1 1,0 4,1 5,2l789 239c0,0 13,2 15,3 36,8 44,19 86,20l-135 442c-22,-14 -10,-9 -30,-14 -14,-3 -23,-4 -42,-13l-9 0 -675 -210c-2,-1 -4,-2 -6,-2 0,0 -14,-6 -16,-7l-163 -48c-1,0 -3,-1 -4,-1l-33 -9c-24,-6 -16,-4 -32,-12l-9 0c-12,-5 -13,-5 -26,-11 -17,-7 -5,-4 -22,-9 -10,-4 -27,-4 -51,-16l-10 0 -81 -26c-3,0 -5,-1 -8,-1l-481 -149c-1,-1 -3,-1 -4,-2l-52 -16c-31,-11 4,-3 -32,-13l-131 -39c-3,0 -9,-1 -11,-1l-227 -69c-26,-5 -38,-12 -63,-19l-138 -30c-2,-1 -21,-2 -33,-5l-63 -14c-34,-5 -41,-9 -69,-15l-214 -41c-25,-3 -52,-4 -64,-6l-56 -11c-35,-5 -42,-6 -60,-7l-216 -28c-12,-1 -52,-3 -78,-6l-644 -20c-97,-1 -432,26 -526,47l-115 16c-1,1 -3,1 -4,1l-185 38c-2,1 -7,3 -9,4l-70 15zm-3111 -144l9 0 -8 11 -1 -11zm8739 361l-9 0 -233 -70c-1,0 -3,-1 -4,-1l-48 -13c-25,-8 -31,-13 -58,-15l98 -308c52,-156 5,-111 209,-63l161 48c5,2 6,5 24,9 1,1 4,1 5,1l19 5c2,1 9,4 11,5 72,22 58,15 38,70l-96 307c-11,27 -20,27 -9,52l-76 -15c-24,-7 -16,-4 -32,-12zm-7296 -397l9 0 -8 10 -1 -10zm72 -36l9 0 -8 10 -1 -10zm-686 -505l9 0 -7 10 -2 -10zm3148 -145l-9 0 -27 0 -9 0 -27 0 -9 0 -492 39c-52,11 -167,18 -252,36l-330 70 -9 0 -237 71c-19,8 9,0 -23,11 -12,4 -18,3 -22,4l-17 6c-19,6 -1,-1 -20,4l-429 156 -9 0 -86 41c-17,6 -19,3 -36,9l-122 59 -9 0c-19,12 -11,9 -34,19l-254 125c-20,13 -11,9 -35,19 -9,3 -12,3 -20,7 -25,11 -5,1 -17,10l-86 50c-72,35 -40,30 -96,57l-62 37c-2,2 -5,1 -5,4l-358 237c-10,9 -12,15 -23,23l-64 44c-11,8 -10,6 -15,10l-12 12c-1,0 -3,2 -4,2 -6,4 -5,2 -16,10 -14,10 -16,14 -28,26 -22,21 -33,24 -58,42l-264 231c-1,0 -14,13 -14,13 -8,7 -7,5 -15,12l-319 331c-2,2 -7,8 -8,10 -25,30 -85,81 -98,105l-24 34c-1,1 -3,3 -5,5l-124 146c-6,6 -7,7 -13,15l-190 261c-7,10 -4,7 -6,13 -24,45 -60,85 -87,128l-115 174c-2,2 -7,7 -8,9l-154 275c0,1 -1,3 -2,4l-262 519c-23,44 -33,95 -52,140l-42 122c0,3 -3,20 -8,35l-47 155c-2,10 -7,24 -10,32l-25 85c0,2 0,12 0,13 -4,50 -29,109 -37,154l-36 158c-2,19 3,24 -6,63 -13,56 -28,126 -29,184 -1,21 -9,35 -15,70 -25,140 -48,639 -37,796l11 161c7,67 2,59 8,126l22 195c18,67 20,135 31,204l233 830c0,1 1,4 1,5l23 63c1,1 3,3 4,5l8 17c0,1 1,4 1,5l53 121c0,1 1,4 1,5 34,90 74,134 104,216l126 227c8,17 0,1 10,17l142 229c1,1 3,3 3,4l112 151c32,34 15,27 31,49l132 156c29,42 72,76 100,117l54 63c1,2 3,4 5,5l293 293c0,1 11,12 13,14l92 79c31,23 58,60 91,81 37,23 63,57 96,85l70 55c30,28 30,12 60,40l342 239c16,8 14,13 28,22l517 286c20,8 1,0 14,5l112 49c11,5 17,8 30,15l57 20c0,0 27,13 34,16l84 34c5,2 15,7 17,8l482 150c36,8 50,13 80,20l710 121 991 10c144,-9 344,-22 484,-45l861 -159c8,-1 17,-3 17,-3 2,0 12,-4 14,-4 17,-7 -3,-4 33,-11l43 -9c10,-3 -1,0 14,-4l59 -14c1,0 3,-1 4,-2l183 -47c0,0 14,-6 16,-7l80 -23c22,-7 12,-6 18,-8l149 -52c62,-15 142,-51 200,-79 29,-14 33,-7 58,-22l98 -46c11,-6 17,-8 30,-15l106 -49c1,0 15,-7 17,-8l123 -67c41,-21 90,-37 126,-64l308 -197c17,-11 6,-3 18,-9 18,-10 9,-3 26,-19l171 -126c2,-1 4,-3 6,-4l114 -93c36,-25 67,-65 104,-86 51,-29 125,-125 174,-168l46 -45c1,-1 3,-3 4,-4l300 -331c0,0 1,-3 2,-3l5 -9c1,-1 3,-3 4,-4 49,-63 77,-82 115,-139l452 -698c1,-1 2,-3 2,-4 1,-1 2,-4 3,-5l8 -13c1,-1 2,-3 2,-4l90 -163c1,-1 1,-4 2,-5l33 -63c0,-1 1,-3 1,-4 1,-1 1,-4 2,-5l16 -31c1,-1 1,-4 2,-5l15 -27c0,-1 1,-3 1,-4 1,-1 1,-4 2,-5 0,-1 1,-3 1,-4 1,-2 2,-4 3,-5l12 -23c1,-1 1,-3 2,-4l103 -221c33,-82 85,-165 112,-256l86 -206c9,-23 -1,0 6,-20l137 -361c0,-1 2,-4 2,-5 1,-1 2,-4 2,-5l20 -58c2,-8 2,-8 7,-19 2,-6 0,4 7,-18 3,-8 4,-21 5,-22l171 -507c3,-7 6,-19 7,-24 6,-22 -5,5 4,-15l27 -81c0,-1 1,-3 1,-4l9 -35c31,-115 76,-220 103,-329 5,-22 -3,-2 4,-20 9,-25 0,4 10,-22 0,0 5,-17 5,-18l3 -14c0,-1 1,-4 1,-5l88 -297c3,-10 -1,-1 5,-15 2,-3 6,-5 10,-23l74 -251c2,-15 -4,3 1,-17l50 -160c9,-38 -13,-16 17,-37 1,-1 3,-2 3,-1 1,1 4,0 4,0 59,8 110,32 156,45 2,1 5,1 8,2l74 24c19,8 3,5 24,8 35,6 38,5 70,15 25,9 48,17 68,23l62 19c-6,25 -3,10 -8,29l-26 93c-9,34 -5,13 -12,29l-36 118c-8,23 0,10 -6,27l-107 338c-3,10 0,0 -6,14l-230 712c0,1 -1,4 -1,5 -6,15 -4,-2 -13,29 -6,22 3,1 -3,20l-103 281c-4,9 -6,16 -10,27 -1,2 -2,5 -3,6 -1,2 -2,4 -3,6 -6,14 -2,4 -5,14l-35 104c0,1 -1,4 -1,5l-95 247c-4,10 -6,13 -13,31l-28 70c-7,16 -8,22 -13,34 -9,22 -5,11 -10,23l-18 46c-9,26 1,8 -8,26l-14 27c0,1 -1,4 -1,5 -1,1 -1,4 -2,5l-51 117c-6,20 2,0 -11,22l-58 131c0,1 -1,4 -2,5l-8 23c0,2 -2,4 -2,6l-106 220c0,0 -9,19 -10,22l-9 22c-1,1 -3,3 -3,4l-27 54c0,1 -1,4 -1,5l-124 241c-1,2 -2,5 -3,6 -1,2 -2,5 -3,7 -1,1 -2,4 -3,6 -12,19 -9,9 -20,25 -8,10 -5,9 -8,17 -1,1 -1,4 -1,5l-113 207c-13,19 -20,28 -32,50 -7,12 -7,13 -13,24l-72 117c-7,11 -6,10 -13,22l-130 193c-13,21 6,-7 -7,17 0,0 -16,21 -18,23l-176 248c-1,1 -3,3 -4,5l-105 131c-35,69 -151,171 -184,225 -3,5 -15,17 -19,21 -1,1 -3,4 -5,5l-431 435c-12,11 -6,5 -20,16l-242 201c-1,1 -2,3 -3,3l-109 82c-2,1 -4,3 -5,5l-21 13c-11,8 -97,80 -146,108l-48 33c-20,11 -2,-2 -23,13l-228 142 -342 190c-18,12 -3,3 -25,12l-30 14 -158 77c-64,33 -29,5 -90,36 -8,4 -20,10 -24,12 -17,8 -28,12 -44,20l-9 0c-29,19 -13,8 -33,15l-138 57 -9 0 -38 16c-14,6 -4,3 -14,6 -1,0 -13,1 -21,4l-222 77c-1,0 -4,1 -5,1 -1,0 -3,1 -5,1l-87 27c-24,7 -15,4 -32,12l-9 0 -530 138c-25,4 -17,-2 -38,6l-9 0c-24,12 -18,8 -50,12 -3,1 -14,2 -16,3l-105 21 -9 0 -722 99c-74,4 -590,4 -648,-9l-207 -13c-12,0 -16,1 -27,1l-216 -28c-11,-1 -17,0 -27,-1l-113 -15c-14,-4 -11,-1 -26,-2l-202 -34c-16,-4 -15,-2 -41,-6 -18,-3 -30,-4 -38,-5l-105 -23 -9 0c-25,-11 -25,-7 -56,-12l-118 -26c-1,0 -3,-1 -4,-1l-212 -53c-1,-1 -4,-1 -5,-1 -2,-1 -7,-2 -9,-2l-157 -47c-1,-1 -4,-2 -5,-3 -4,-1 -11,-3 -14,-4l-205 -67 -9 0 -103 -41c-22,-10 -42,-14 -61,-21l-702 -335c-18,-12 -18,-15 -37,-26 -4,-2 -20,-9 -24,-12l-110 -70 -217 -145 -154 -115c-23,-13 -3,4 -28,-17l-166 -142c-7,-5 -8,-6 -13,-10l-142 -132c-70,-61 -141,-125 -201,-196l-193 -213c-30,-42 -131,-141 -151,-178l-95 -127c-2,-2 -7,-7 -8,-9 -8,-10 -4,-7 -7,-13l-6 -12c-1,-1 -2,-3 -3,-5l-49 -59c-12,-23 5,-3 -17,-28 -8,-10 -20,-17 -27,-27 -17,-23 1,-14 -27,-45 -16,-17 -9,-9 -19,-26l-34 -54c-1,-1 -1,-4 -2,-5l-155 -236c-1,-2 -3,-4 -4,-6l-67 -114c-9,-14 -13,-12 -21,-28l-140 -279c-1,-2 -2,-4 -3,-5l-68 -140c-31,-55 -56,-135 -78,-190l-44 -113c-39,-92 -58,-180 -88,-256 -4,-11 -8,-17 -8,-18 -6,-15 -3,-2 -6,-14 0,-3 0,-20 0,-23l-28 -91c-32,-101 -50,-222 -79,-315 -5,-15 2,-33 -3,-49 -21,-66 -50,-216 -52,-293l-11 -60c-25,-131 -18,-242 -35,-384 -3,-25 0,-16 -1,-31l3 -574c0,-106 19,-176 26,-287l31 -251c7,-39 2,-41 5,-60 4,-25 15,-44 18,-63 10,-96 37,-196 54,-298l39 -157c8,-27 4,-5 11,-33l88 -300c16,-47 30,-97 48,-142l8 -17c1,-2 2,-4 2,-5 9,-24 18,-23 20,-49 3,-36 25,-75 38,-108l186 -425c1,-1 3,-3 3,-4l39 -77c1,-1 2,-4 3,-5l33 -67c1,-1 2,-3 2,-5l3 -9c1,-1 2,-3 2,-4l47 -84 114 -200c0,-1 1,-4 1,-5l148 -226c11,-16 3,-7 10,-18 1,-2 2,-5 3,-6l7 -11c45,-74 44,-55 65,-88l13 -23c14,-21 17,-21 33,-48 18,-31 23,-26 41,-49 33,-45 62,-97 109,-144 10,-10 12,-12 22,-24l117 -152c17,-17 29,-28 46,-45 17,-17 24,-26 39,-43l27 -31c16,-25 -10,17 5,-12l351 -347c1,0 3,-2 4,-3l174 -156c46,-33 51,-48 76,-60 5,-2 6,-1 16,-9 38,-26 36,-43 93,-78 40,-25 29,-27 49,-42l133 -92c2,-1 5,-5 5,-3l205 -135c1,0 3,-1 4,-2l176 -106c1,0 3,-1 4,-1l26 -18c21,-15 12,-7 29,-16l27 -17c1,-1 3,-2 4,-2 1,-1 4,-1 5,-2l163 -88c43,-21 93,-55 137,-69 54,-18 114,-65 214,-98 0,0 25,-12 27,-13l284 -115c19,-7 -7,1 17,-8l757 -217c10,-2 26,-6 29,-7l198 -42c14,-4 22,-1 52,-6 18,-3 27,-4 34,-5l636 -72c10,-1 11,0 22,0l157 -9c197,-7 534,-13 650,6 19,4 -7,0 17,2l452 35c39,11 87,5 129,9 17,2 40,9 60,12l555 82c1,1 4,2 5,2l116 22c78,16 176,30 254,54 1,0 3,1 4,1l235 46c9,2 24,7 32,10l383 94c29,5 40,13 69,20l408 115c1,1 4,2 5,2l19 4c28,7 42,15 67,22 21,5 12,0 26,5l122 41c17,6 4,-1 26,6 33,11 2,4 28,12 17,6 4,-1 26,6l181 58c27,6 2,-1 24,8l255 78c2,1 5,1 7,2l322 97c14,5 3,13 0,26l-13 40c-1,2 -3,8 -4,10 -7,20 2,-7 -3,14l-103 326c-12,-1 -37,-4 -38,-5 -1,0 -3,-1 -5,-1 -2,-1 -7,-3 -9,-4l-486 -144c-1,0 -4,-1 -5,-1 -1,-1 -3,-1 -4,-1l-48 -15 -9 0 -158 -50c-2,-1 -4,-2 -6,-2l-462 -142c-2,-1 -5,-2 -7,-3 -22,-8 7,0 -19,-8l-15 -3c-2,-1 -5,-2 -7,-2l-363 -115 -9 0 -97 -29c-26,-9 3,0 -19,-8l-238 -73c-1,-1 -3,-1 -4,-1 0,-1 -5,0 -16,-3l-86 -30 -9 0c-21,-10 -32,-10 -47,-14 -1,-1 -4,-1 -5,-2 -1,0 -3,-1 -4,-2l-47 -14c-29,-10 0,-3 -26,-11l-958 -171c-63,-13 -74,-6 -160,-15 -15,-2 -18,-1 -38,-3 -132,-14 -244,-11 -365,-21l-9 0c-36,-3 -31,-4 -52,-4 -49,0 -276,-6 -300,4zm12635 1317l-127 91c-82,55 -125,87 -218,133l-386 191 -9 0c-51,35 -141,51 -194,68 0,0 -14,6 -16,7l-44 10c-2,0 -8,2 -10,2 -1,0 -3,1 -4,1l-63 16c-10,2 -9,0 -21,5l-9 0c-21,10 -26,8 -55,12 -15,2 -19,4 -45,9 -23,5 -87,7 -107,15l-9 0c-76,31 -586,29 -663,24 -38,-2 -87,3 -123,-5 -52,-12 -143,-6 -210,-22 -36,-7 -230,-22 -258,-33l-9 0 -290 -49c-23,-3 -8,-1 -23,-6l-252 -54c-1,-1 -4,-2 -5,-2 -1,0 -3,-1 -4,-1 -1,0 -14,-3 -16,-3 -20,-5 -23,-5 -34,-7l-134 -35c-17,-3 -7,1 -34,-7 -13,-4 -20,-7 -39,-11l-278 -78 -9 0c-31,-15 -53,-18 -89,-28 -112,-29 -411,-126 -502,-166 -2,-1 -12,-6 -15,-7 -19,-6 1,2 -20,-4l-684 -213c-4,-1 -22,-4 -43,-6 22,-44 14,-47 24,-79l23 -73c10,-26 1,4 10,-21l61 -206c12,-31 11,-17 13,-43 2,-25 26,-55 36,-99 4,-21 -2,-3 0,-18l92 -298c1,-1 2,-3 2,-4l51 -171c0,-1 1,-4 1,-5l38 -121c11,-32 3,-3 11,-23l11 -44c32,-101 77,-209 100,-308 3,-9 2,-7 7,-19 39,-91 64,-191 100,-284 0,-1 1,-3 1,-4l117 -307c0,-1 2,-3 3,-4l215 -471c7,-12 6,-9 9,-17l106 -202c1,-2 3,-4 4,-5l72 -122c1,-1 2,-3 2,-4l79 -118c14,-18 16,-27 28,-44l302 -375c27,-28 49,-49 76,-77l233 -200c37,-22 81,-73 126,-100 16,-9 6,0 24,-12l258 -165c42,-20 113,-66 150,-77 49,-14 92,-52 143,-69 11,-3 20,-1 44,-13 115,-56 240,-86 362,-128l33 -10c2,-1 5,-1 7,-2 2,-1 5,-2 7,-2l388 -61c22,-3 22,-1 44,-4 191,-20 471,-13 667,20l215 43c1,0 4,1 5,1l49 11c1,0 4,1 5,1l38 13c27,8 9,3 25,8 1,1 4,2 5,2l98 32c2,1 4,2 5,3l208 81c1,0 3,1 4,1l549 363c0,1 2,3 2,3 1,1 2,3 3,3 1,1 2,3 3,3l144 151c24,37 64,62 90,98 15,22 9,21 30,43l73 94c0,1 1,3 1,4l13 21c51,65 52,75 87,140 6,12 7,13 13,23 3,6 8,15 13,23l34 60c1,1 2,3 2,4l118 269c0,1 2,4 3,5l60 177c1,10 -1,11 0,18 4,35 53,158 54,212 1,20 2,16 10,47 17,69 26,187 34,263 2,19 1,23 2,38 16,155 10,302 -7,460l-29 215c-9,30 -10,29 -10,47l-194 595c-1,1 -2,4 -2,5l-212 369c-14,19 -15,28 -27,45 -13,16 -22,19 -35,38l-245 286c-63,44 -112,114 -177,158l-86 66zm-4419 -4204l9 0 -8 11 -1 -11zm505 -505l9 0 -8 11 -1 -11zm-1010 -144l9 0 -8 10 -1 -10zm3255 0l-9 0c-35,3 -32,5 -56,7l-230 26c-1,0 -3,2 -4,2l-93 17c-18,3 -21,5 -29,6 -13,2 -9,2 -28,6l-295 93c-74,27 -79,22 -158,59l-9 0c-11,6 -18,7 -31,14 -79,37 -244,105 -312,148l-153 91 -518 393c-1,1 -3,3 -5,4l-137 134c-44,54 -105,101 -141,160l-137 164c-23,38 18,-13 -11,27 -8,11 -17,16 -26,27l-86 131c-13,23 -13,18 -26,37l-341 635c-16,40 -33,58 -53,116l-110 263c0,1 0,3 -1,4l-32 87c-11,35 5,-14 -3,17l-198 559c-2,8 -2,16 -10,34 0,1 -6,13 -7,16l-90 282c-5,22 1,8 -7,31l-68 220c-2,12 -4,17 -11,34l-10 36c-4,16 -7,23 -13,41 0,1 -7,19 -8,20l-176 577c-1,3 -7,15 -7,15 -15,37 -3,37 -22,77 -31,-3 -42,-10 -65,-17l-27 -6c-2,-1 -4,-1 -5,-2l-80 -24c-25,-8 -48,-16 -68,-22 -13,-4 -20,-5 -24,-6l-200 -58c-18,-19 -2,-34 5,-50 16,-37 1,-21 16,-56l22 -67c6,-15 3,-3 6,-15l45 -153c0,-2 2,-7 3,-9 0,-2 4,-12 4,-13 22,-75 51,-189 81,-259l47 -161c4,-24 -3,3 11,-22l26 -82c2,-26 32,-69 36,-99l14 -51c5,-11 6,-18 13,-33 12,-28 6,0 9,-25 2,-10 -3,-7 1,-22l35 -86c6,-49 39,-99 54,-157 15,-63 49,-130 71,-194l53 -145c1,-1 1,-3 2,-4l51 -136c0,-1 1,-3 2,-4l2 -9c1,-1 1,-3 2,-4l72 -181c13,-27 2,3 14,-22l63 -158c9,-19 20,-41 27,-59l88 -194c1,-1 2,-4 2,-5 0,-1 1,-3 1,-4 1,-2 3,-10 5,-13 7,-12 9,-11 17,-27l160 -307c1,-1 1,-4 2,-5l127 -220c13,-17 9,-11 18,-27l60 -93c9,-12 4,-5 8,-13 0,0 1,-3 1,-3l79 -122c11,-14 9,-7 20,-25l288 -370 314 -318c11,-10 15,-13 24,-21l122 -103c20,-11 7,2 30,-16l194 -149c1,-1 4,-2 6,-3l165 -105c31,-24 71,-39 105,-58l258 -129c104,-53 154,-71 217,-88 1,-1 4,-1 5,-1l486 -142c5,-1 29,-4 30,-4l137 -25c78,-15 164,-17 239,-24l217 -17c121,-10 310,5 430,3l277 29c26,3 58,5 71,8 1,0 3,1 4,1 1,1 4,2 5,2l40 6c92,10 139,24 216,42l343 98c1,0 4,1 5,2l184 67c1,0 26,12 28,13l121 59c12,7 6,4 13,7l14 4c59,24 108,58 165,86 24,12 8,1 29,16l139 87c12,8 13,13 24,20 19,13 12,4 30,16l105 83c42,27 74,63 114,95 27,20 -17,-13 11,7l26 19c73,56 140,134 205,201l30 33c1,2 3,4 4,5l15 21c1,2 3,4 4,5l109 134c28,29 17,23 38,53l181 281c22,42 57,88 73,131l162 433c1,1 1,4 2,5l18 60c5,22 6,18 10,33l28 125c9,38 13,25 14,56 0,24 6,28 14,60l22 126c2,17 -3,30 0,45 5,25 16,44 18,63 2,17 -1,31 -1,49 2,46 19,122 19,181l6 387c-6,62 -6,123 -6,141 0,30 3,53 -8,116l-32 247c-5,30 -13,45 -15,65l-17 108c-2,18 -13,38 -17,63l-32 126c-10,34 1,22 -14,58 -1,1 -2,4 -3,5l-133 362c-11,41 -104,250 -143,310l-40 68c-1,2 -2,4 -3,6 -1,2 -2,5 -3,6l-28 43c-3,7 1,1 -6,13l-132 192c-1,1 -2,3 -2,4l-124 168c-8,10 -3,4 -13,15l-48 51c-2,2 -7,8 -8,10 -2,1 -3,3 -4,5l-9 9c-67,80 -137,165 -222,229l-148 127c-1,1 -3,3 -3,3 -1,1 -2,3 -3,3l-355 251 -136 80c-1,0 -17,8 -19,9l-168 84c-32,16 -85,48 -120,56 -46,11 -37,19 -69,28l-286 93c-21,5 -32,6 -38,9 -2,0 -16,6 -16,6l-264 64c-14,3 -4,1 -14,3 -20,7 5,2 -17,6 -58,12 -141,18 -185,32l-136 22c-14,2 -16,0 -33,2l-84 7c-27,2 -19,10 -67,9 -25,0 -161,9 -176,9 -135,-1 -334,15 -484,-2 -85,-9 -152,-1 -177,-11l-9 0 -116 -11c-21,-2 -31,-1 -45,-4l-117 -15c-19,-2 -12,-1 -27,-2 -2,0 -7,0 -9,0 -8,-1 -62,-16 -117,-18l-428 -79c-1,-1 -3,-1 -4,-2 -9,-2 -39,-5 -58,-8l-847 -222c-20,-10 -56,-14 -84,-24 -33,-11 -60,-20 -88,-29l-349 -114c-7,-2 -15,-2 -33,-9 -1,0 -13,-6 -16,-7 -19,-7 2,2 -20,-4l-525 -178c-1,0 -4,-1 -5,-1 -23,-5 -57,-20 -88,-22l118 -368c5,-20 6,-10 8,-38 65,5 27,7 88,22l151 47c32,5 26,1 50,12l9 0 530 173c25,9 -1,1 17,8 2,1 4,2 5,2l158 52c3,2 11,4 14,4l378 116c20,5 -6,-3 14,3l265 74c29,8 62,17 93,24l566 120c1,1 4,2 5,2l324 49c78,5 192,29 273,31 44,2 73,5 88,5l454 14c20,-1 30,-2 46,-4 13,-1 19,-1 32,-1l103 -8c56,-7 117,-3 159,-16l519 -103c22,-7 25,-10 47,-15l390 -171c3,-1 12,-6 18,-9l489 -296c2,-1 4,-2 6,-3 1,-1 3,-3 5,-4l60 -48c20,-14 12,-2 35,-19 40,-31 72,-73 114,-103 27,-20 170,-152 223,-219l115 -136c1,-1 2,-3 3,-4l3 -8c13,-26 40,-45 54,-72l45 -55c1,-2 3,-4 3,-5l333 -648c0,-1 1,-3 2,-4l21 -59c13,-22 7,-4 10,-18 3,-11 -2,-14 2,-27l109 -447c3,-20 6,-36 7,-45 1,-6 6,-22 8,-35 2,-14 0,-19 2,-33l22 -317c0,-38 0,-80 0,-118 -2,-86 2,-150 -15,-238l-62 -391c-5,-38 -34,-79 -36,-126 -1,-13 0,-14 -9,-34l-11 -36c-31,-129 -92,-238 -139,-354l-33 -68c-7,-12 -3,-6 -6,-13l-3 -9c0,-1 -1,-4 -2,-5 0,0 -10,-23 -10,-23l-169 -283c-10,-14 -21,-19 -29,-32 -68,-107 -91,-113 -124,-158l-43 -54c-48,-78 -237,-240 -274,-273 -1,-1 -3,-3 -3,-3 -1,-1 -4,-3 -5,-4l-11 -7 -296 -208c-31,-17 -10,-15 -96,-58l-477 -199c-16,-6 -23,-9 -34,-12l-98 -28 -9 0c-26,-13 -97,-23 -110,-25l-314 -47 -9 0c-30,-13 -180,-10 -230,-12l-105 -2c-11,0 -52,5 -88,5l-145 9zm-3039 -217l9 0 -7 11 -2 -11zm5132 -72l0 9 -11 -7 11 -2zm568 -135l0 -9 10 7 -10 2zm-5303 -117l9 0 -8 10 -1 -10zm2642 -181l-9 0 -604 72 -9 0 -140 31c-32,8 -50,18 -82,26l-242 76c-40,11 -7,3 -36,16 -14,7 -26,10 -40,15 -7,2 -22,7 -33,12l-536 257 -167 104c-18,11 -16,15 -30,24l-120 79c-1,0 -4,2 -5,3 0,0 -2,2 -3,2l-171 131c-2,2 -4,3 -5,4 -1,2 -3,4 -5,5l-8 9c-27,18 -42,38 -65,61l-62 47c-1,2 -3,3 -5,5l-264 267c-2,1 -3,3 -5,5l-104 120c-27,20 -32,40 -34,43 -11,22 -30,31 -45,50l-132 184c-11,15 -15,15 -26,28l-20 34c-6,8 -10,12 -12,15 -44,52 -79,115 -117,172 -16,25 3,-2 -10,21l-103 169c0,0 -1,3 -2,4 0,1 -1,3 -1,4 -1,0 -2,3 -2,3l-142 250c0,1 -1,3 -1,4 -1,1 -2,4 -2,5l-102 198c-1,1 -1,4 -2,5 0,1 -1,4 -1,5l-22 45c-9,16 0,-3 -9,13 -2,4 -5,12 -5,13l-74 168c0,1 -2,3 -2,4l-85 193c-3,10 -9,25 -13,32 0,2 -1,4 -2,5l-21 45c-1,3 -3,19 -10,34l-80 201c-1,1 -1,3 -2,4l-43 113c-1,2 -2,4 -3,6 -1,1 -2,4 -2,5 -7,17 -2,7 -5,16l-169 479c-1,2 -2,5 -3,7 0,1 -2,4 -2,5l-67 205c-1,2 -2,4 -3,6l-28 89c-10,30 -15,44 -25,74l-19 62c-6,15 -7,24 -9,29l-30 85c-12,32 -1,24 -18,63l-173 540c-39,-18 -82,-23 -125,-37 -14,-4 -19,-7 -39,-11l-133 -42 -9 0 -127 -36c1,-41 45,-159 60,-210l55 -173c22,-93 68,-223 107,-314l18 -40c4,-50 32,-72 35,-113l112 -315c9,-27 15,-46 25,-74l439 -1198c6,-22 -4,-2 9,-24l46 -108c0,-1 3,-10 5,-13l194 -417c5,-9 13,-27 18,-37l126 -236c0,-1 1,-3 2,-4l26 -39c21,-32 -7,14 5,-9 3,-4 14,-40 37,-66l36 -58c1,-1 2,-4 2,-5l216 -307c27,-54 66,-91 130,-157 27,-28 20,-42 47,-61l325 -325 101 -88c13,-12 4,-5 20,-17l152 -118c2,-1 8,-6 10,-8l28 -17c19,-13 5,-5 20,-16l95 -68c17,-11 3,1 22,-14l97 -65c73,-42 136,-94 214,-126l123 -69c15,-8 8,-6 22,-14 10,-6 11,-5 17,-8 8,-3 2,1 15,-6l150 -74c36,-17 55,-34 91,-44 46,-12 91,-43 141,-56l68 -29c1,0 4,-1 5,-1 1,-1 3,-2 4,-2l361 -120c2,-1 8,-2 10,-2l112 -33c1,-1 3,-1 4,-2l77 -13c26,-9 -13,0 25,-9 26,-6 31,-4 43,-7l403 -73c93,-20 321,-22 376,-37 86,-23 577,-8 591,-4l23 8c1,0 15,0 17,0 7,1 32,3 52,5 27,3 19,3 39,3 22,1 7,1 39,8 55,11 87,4 132,18 1,0 3,1 4,1l164 30c2,0 7,3 8,3 1,1 4,2 5,2l175 37c24,8 36,9 46,12l149 43c2,1 12,3 23,5 8,2 16,3 17,3l43 19c23,11 9,5 20,8 8,3 24,5 42,11l238 95c1,0 3,1 4,1l237 111c20,11 32,7 39,10l57 38c10,5 12,5 24,12 15,7 31,15 48,24l168 102c1,0 17,8 19,9 1,1 22,10 24,12l194 131 147 105c2,1 4,2 6,3l137 116c29,27 47,27 86,67l338 320c19,19 33,31 50,49l42 58c31,36 139,167 155,204l111 172c8,12 -2,-2 12,13 39,43 33,61 60,94l408 999c6,22 2,31 14,67l61 374c0,48 19,128 18,185 0,86 20,229 12,329 -10,135 -3,257 -22,395l-47 357c-7,28 -11,53 -15,74l-93 342c-6,15 -8,16 -9,18l-182 456c-1,1 -2,4 -2,5l-47 101c-12,25 -6,13 -17,29l-116 212c-1,1 -1,4 -2,5 0,1 -1,3 -1,4l-17 32c-1,1 -1,3 -2,4l-142 212c-1,1 -1,4 -2,5 0,1 0,3 -1,4l-104 145c-28,29 -20,30 -41,58 -18,25 -50,44 -66,74 -15,27 9,-5 -10,21 -12,17 -32,32 -49,51l-8 10c-4,4 -9,9 -13,14l-70 83c-93,93 -274,287 -341,335l-27 19c-15,12 -16,12 -29,25l-255 204c-14,10 -2,2 -15,12l-106 75c-16,11 -18,15 -30,24l-55 36c-16,11 -12,4 -29,15 -14,9 -12,11 -32,23 -9,5 -21,12 -29,16l-327 187c-9,4 -7,4 -17,10l-9 0 -100 52c-9,4 -11,4 -20,8l-19 9c-1,0 -3,2 -5,3l-244 109 -9 0 -56 23c-1,1 -4,1 -5,1l-793 221c-18,2 -16,1 -28,5l-252 42c-1,1 -11,1 -13,1 -12,1 -34,5 -63,8l-344 28c-138,8 -325,0 -455,0 -20,0 -28,0 -49,0l-61 -5 -9 0 -174 -13c-23,-2 -38,3 -65,-2 -31,-7 -17,-6 -38,-7 -19,-1 -16,-1 -48,-4 -23,-3 -37,-5 -47,-5 -19,-1 -11,2 -35,-4 -25,-5 -20,-5 -39,-7 -44,-5 -59,0 -106,-11 -29,-7 -12,-4 -36,-5 -17,-1 -75,-8 -88,-14l-9 0c-25,-11 -162,-23 -197,-33l-191 -39 -9 0c-24,-11 -18,-7 -50,-12l-216 -49c-8,-2 -19,-4 -24,-5l-99 -23c-19,-5 -38,-11 -51,-15 -1,0 -4,0 -5,-1l-76 -19c-27,-9 4,-1 -22,-9l-170 -47 -9 0 -109 -35c-2,0 -4,-2 -6,-2l-239 -74c-1,-1 -3,-1 -5,-2l-161 -53c-62,-16 -28,-15 -81,-28l-230 -85c-25,-10 -18,-3 -32,-7l-257 -101c-11,-5 -15,-5 -25,-10l-9 0 -194 -77c-34,-11 -46,-8 -77,-23 4,-46 28,-109 43,-151 9,-26 2,6 12,-27 8,-23 1,-12 5,-28 5,-19 7,-15 12,-28 11,-26 -1,-15 14,-50l29 -101c10,-27 23,-28 12,-57 18,2 9,1 23,5l15 7c1,0 4,1 5,1 1,1 14,3 21,4l109 35c3,0 5,1 8,2l177 57c23,8 -1,0 25,12 25,10 27,6 38,10l821 267c27,8 -4,0 23,9l236 63c36,5 10,1 42,14l741 172c51,17 138,21 200,35l610 74c179,28 587,21 813,5l311 -36c11,-1 36,-8 45,-9l138 -22c11,-2 19,-3 29,-4l104 -21c1,-1 3,-2 4,-2l95 -25c7,-1 21,-2 28,-3l75 -22c2,0 8,-1 10,-2l77 -19c1,0 3,-1 4,-1l225 -69c1,-1 4,-1 5,-2l130 -54c2,0 4,-2 5,-3l54 -18c1,-1 4,-2 5,-2l374 -189c10,-4 39,-17 49,-24l82 -51c37,-16 125,-89 165,-116l228 -178c65,-43 62,-51 116,-100 9,-8 13,-11 20,-17 1,-1 3,-3 5,-4l99 -99c48,-48 160,-151 188,-200 18,-31 44,-47 63,-78l29 -38c12,-16 3,-5 16,-20 19,-21 19,-16 32,-40l87 -122c2,-7 0,-8 7,-18 1,-2 13,-16 17,-20l12 -21c1,-1 2,-4 2,-5 1,-1 4,-6 5,-8l262 -483c0,-1 1,-4 1,-5l123 -315c1,-1 2,-4 2,-5l19 -66c12,-35 28,-75 36,-108l13 -60c6,-14 5,-18 6,-23l20 -88c18,-77 49,-175 52,-260 1,-20 -3,-11 6,-41l38 -355c2,-12 3,-16 6,-43 3,-35 3,-36 3,-56 0,-159 15,-245 -6,-415 -10,-74 -5,-144 -22,-219 -18,-82 -19,-176 -39,-265l-43 -219c-6,-21 -9,-22 -14,-45 -3,-15 -2,-19 -11,-48l-164 -485c-7,-15 -16,-30 -22,-46 -1,-2 -2,-7 -3,-9 0,-1 -1,-3 -2,-4l-20 -41c-10,-18 0,6 -11,-18l-51 -97c-8,-14 -5,-9 -13,-24l-43 -73c-11,-17 -17,-28 -29,-45 -1,-1 -3,-3 -4,-5 0,-1 -2,-3 -3,-4 -38,-70 -61,-89 -72,-108 -15,-26 16,2 -19,-36l-61 -84 -26 -36c-14,-19 -27,-26 -39,-43 -36,-48 5,-13 -73,-90l-73 -82c-1,-1 -3,-5 -4,-7l-161 -160c-1,-1 -4,-3 -5,-4 -1,-1 -3,-2 -4,-3l-131 -114c-59,-38 -39,-39 -86,-68 -2,0 -5,-2 -6,-3 -1,-1 -4,-2 -6,-3 -35,-24 -11,-19 -61,-47 -12,-6 -6,-2 -17,-10l-48 -33 -158 -104c-9,-5 -29,-14 -36,-18l-67 -41c-2,-1 -5,-5 -6,-3l-248 -122c-12,-4 -8,-2 -21,-7l-23 -12c-12,-6 -18,-7 -32,-14l-186 -71c-1,0 -4,0 -5,-1l-309 -95 -9 0c-75,-35 -427,-74 -491,-87l-222 -21 -9 0c-38,-3 -30,-4 -56,-4 -16,0 -23,-1 -53,-2l-325 1c-26,1 -74,-5 -98,5zm-2137 -144l9 0 -8 10 -1 -10zm-388 -352l-9 0 8 -11 1 11zm-370 -117l9 0 -7 10 -2 -10zm-640 -100l-9 0 8 -10 1 10zm6674 -45l0 9 -11 -7 11 -2zm-4329 217l-9 0c-24,11 -41,12 -52,15l-106 35c0,0 -18,8 -18,8l-142 53c-1,0 -4,1 -5,1l-124 46c-2,1 -4,2 -6,2l-480 233c-1,1 -3,3 -5,4l-97 56c-16,11 -12,10 -32,22 -2,1 -17,10 -17,10l-101 62c-2,1 -4,3 -5,4 -2,1 -4,3 -5,4l-8 6c-1,0 -3,1 -4,1l-236 160 -309 250c-10,10 -13,14 -24,22l-49 42c-1,1 -3,3 -4,3l-11 7 -216 217 -71 77c-1,1 -2,3 -3,4 0,1 -2,4 -3,5l-64 71c-2,1 -3,3 -5,4 -1,2 -3,4 -4,5 -1,2 -3,4 -4,5l-74 89c-19,22 -12,27 -36,53l-167 235c-6,14 -11,15 -20,29l-46 61c-9,16 -4,12 -5,14l-60 103c-1,1 -9,12 -11,15l-34 53c-1,1 -1,4 -2,5l-8 18c-7,12 2,-7 -8,13 -13,29 9,-14 -4,14l-89 160c-2,4 -10,16 -10,16l-12 27c-9,16 0,-3 -9,13l-5 14c-35,78 -102,194 -142,298l-26 59c-5,11 -12,28 -16,37l-34 79c0,1 -1,4 -2,5l-173 428c0,2 -1,4 -1,5 -1,1 -1,4 -2,5l-274 761c-5,11 -8,18 -9,18l-132 393c0,2 -3,11 -4,14 -5,14 -7,9 -13,35l-109 294c0,1 0,4 -1,5l-21 71c-7,21 -6,12 -8,18l-100 317c-8,19 1,-7 -9,17l-29 98c-6,15 -9,18 -12,33 -4,15 -13,71 -39,71 -40,1 -89,-30 -126,-36 -19,-4 -26,-4 -48,-14l-9 0 -82 -27c-34,-8 -15,-4 -33,-11l-13 -5c-36,-11 26,7 -15,-3l-91 -28c-30,-15 8,-82 24,-141l20 -66c6,-22 13,-39 20,-61l156 -495c3,-10 1,-6 8,-18l155 -492c1,-4 -1,-13 0,-18l18 -40c3,-35 27,-77 35,-112 1,-2 1,-8 2,-10l34 -104c18,-69 39,-109 55,-162 2,-8 2,-8 7,-19l174 -473c0,-1 1,-4 1,-5l52 -130c0,-2 1,-8 1,-10l4 -9c10,-18 0,7 12,-17l4 -14c1,-1 1,-3 2,-4l39 -95c1,-1 3,-4 4,-5l8 -17c0,-1 1,-4 1,-5l46 -103c1,-2 2,-4 2,-6l20 -40c0,-1 1,-4 1,-5l54 -121c1,-2 2,-7 3,-9 0,-1 1,-3 1,-4l175 -331c3,-8 4,-22 16,-42l355 -575c38,-45 -13,5 17,-36l59 -77c11,-13 4,-3 16,-20l101 -135c1,-2 6,-7 7,-9l150 -189c1,-1 1,-3 2,-4 16,-33 58,-65 83,-96 104,-126 223,-239 340,-354 15,-16 21,-20 38,-35l163 -134c65,-49 90,-85 170,-137l402 -274 38 -17c21,-13 10,-14 41,-30 3,-1 10,-4 13,-6l111 -60c2,-1 4,-2 6,-3l310 -150c13,-7 12,-7 24,-12 3,-2 22,-11 23,-12l169 -67c26,-12 5,-4 25,-9 2,0 11,0 23,-5l112 -40c1,0 4,-1 5,-1l360 -109c2,0 8,-3 10,-4l224 -56c24,-6 88,-18 101,-20l144 -26c5,0 14,1 18,0l815 -92c91,-11 563,-26 691,1 99,21 218,7 331,30l499 90c1,1 6,3 8,4l133 31c31,10 -2,3 25,9l329 98c9,2 7,2 19,7 12,5 13,6 30,10l42 16c17,7 35,10 54,18 15,7 30,17 48,25l205 84c12,6 18,9 30,15l246 123c37,18 17,9 43,29l221 132c11,8 9,9 19,16 18,12 8,3 24,12l147 105c1,0 3,2 4,2l8 3c1,1 3,1 4,2 1,0 4,2 4,2l69 57c57,38 130,105 183,150l28 27c1,1 3,2 5,3l39 33c40,26 75,71 111,106 75,75 157,144 223,228 1,1 3,3 4,5 1,1 3,3 4,5l249 303c16,40 -17,-23 4,14 25,43 62,69 87,110 14,24 0,8 20,34l448 781c0,1 3,10 5,13l57 131c23,40 -6,-20 8,13l66 184c1,3 5,11 7,15 8,20 -3,-8 4,14l9 26c0,1 1,4 1,5l65 222c4,13 7,20 12,39l55 240c2,20 0,2 3,13 1,1 2,3 2,4 0,1 2,4 2,5 30,101 55,385 73,474 12,54 18,254 21,316l6 193c0,27 0,12 -1,36 -10,124 -7,233 -19,351 -7,64 -16,91 -15,150l-38 280c0,0 -5,12 -5,13l-53 259c-4,13 -7,19 -11,38l-18 72c-3,17 1,7 -7,34 -4,13 -7,20 -11,39l-34 104c-1,4 -3,11 -4,14 -2,10 1,1 -3,17l-181 468c-4,9 -5,11 -12,24 -39,77 -71,162 -121,231l-96 183c-5,7 -6,8 -10,17l-229 362c-24,43 -68,82 -88,122l-164 208c-25,27 -21,38 -44,64 -19,20 -44,38 -57,59 -1,1 -2,3 -2,4 -2,2 -3,7 -4,8l-17 18c-1,1 -2,3 -3,4 -40,55 -94,95 -138,147l-48 51c-2,2 -7,7 -9,9 -3,3 -13,13 -13,13l-95 95c-1,1 -3,3 -5,5l-50 48c-52,44 -90,94 -145,136l-147 123c-2,1 -4,2 -5,3l-164 125c-13,10 -17,17 -34,30l-16 11c-10,6 -3,0 -17,10l-792 470 -397 180 -57 24c-1,0 -3,1 -4,1l-13 5c-1,0 -4,1 -5,1 -1,0 -3,1 -4,1l-140 54c-3,0 -11,2 -14,4l-43 19 -9 0 -651 185c-164,32 -319,63 -487,80l-72 10c-14,2 -86,8 -100,9 -76,4 -8,11 -88,4l-9 0 -473 -33c-84,-17 -84,-8 -151,-16l-160 -23 -9 0c-27,-13 -18,-7 -54,-10l-277 -39c-18,-1 -33,-9 -50,-12l-267 -45c-1,0 -3,-1 -4,-1l-613 -127c-21,-6 5,-1 -18,-5l-120 -25c-14,-3 -78,-13 -103,-25l-9 0 -431 -105c-2,-1 -15,-7 -15,-7 -38,-12 -92,-17 -122,-32l-10 0c-23,-11 -28,-7 -57,-15l-330 -93 -9 0 -179 -52c0,0 -12,-5 -13,-5l-135 -40c-2,0 -5,-1 -7,-1 -3,-1 -6,-1 -8,-2l-419 -131c-24,-8 -42,-13 -60,-22 -14,-34 16,-84 26,-109l107 -352c12,-9 10,-1 22,3l248 89c4,2 12,4 14,4l252 93c55,27 102,38 156,60 1,0 13,6 16,7l519 172c24,7 -3,0 18,7l293 86c1,0 4,1 5,1l67 17c1,0 4,1 5,1l412 105c20,2 9,-1 27,3 18,4 20,7 33,11l511 95c123,10 252,39 381,49 35,3 68,5 79,7l136 12c31,0 75,3 89,4l81 3c56,9 119,3 185,7 76,5 277,9 342,-4 56,-11 198,-13 249,-14l529 -75c21,-4 21,-5 34,-7l153 -34c1,0 4,-1 5,-1l117 -28c1,0 4,0 5,-1l252 -72c10,-2 0,1 15,-5l342 -127c13,-6 -9,1 19,-8l59 -21c17,-8 13,-7 31,-16l48 -18c1,0 4,-1 5,-1 66,-22 295,-142 368,-182l34 -24c1,0 4,-1 4,-2l148 -85c13,-7 9,-4 18,-9l86 -58c26,-20 11,-6 34,-20 19,-12 9,-8 25,-20l230 -158c8,-7 14,-17 22,-23 23,-17 10,-4 30,-16l348 -292c26,-18 180,-174 197,-200 8,-5 12,-5 21,-15l22 -32c1,-1 4,-2 5,-3 1,-2 3,-3 5,-5 1,-2 6,-8 8,-10 1,-2 2,-4 3,-6 1,-1 3,-3 4,-5l27 -28c34,-38 78,-74 109,-116l19 -34c14,-16 28,-25 41,-41l64 -81c37,-45 -13,5 17,-36 16,-21 19,-14 37,-45 17,-29 9,-17 31,-41l167 -257c8,-13 7,-8 18,-26l48 -86c1,-1 2,-3 2,-4l10 -13c1,-2 3,-4 4,-5l72 -137c3,-6 2,-8 8,-17l54 -101c1,-2 8,-18 9,-22 1,-2 2,-7 3,-9 0,-1 1,-3 1,-4l52 -99c1,-2 0,-8 1,-9l42 -100c8,-20 17,-39 25,-56 8,-18 12,-32 19,-53l40 -111c1,-2 1,-4 2,-5 0,-1 1,-4 1,-5 8,-19 -1,7 9,-17l64 -199c18,-47 61,-196 68,-257 2,-21 -3,-15 3,-40l19 -98c21,-125 43,-244 50,-373l18 -369c0,-51 0,-98 0,-149l-30 -419c-10,-73 -12,-130 -30,-195 -4,-17 -8,-32 -11,-57 -13,-104 -45,-234 -74,-335 0,-1 -1,-3 -1,-4l-5 -10c-23,-56 -26,-95 -46,-152l-68 -192c-8,-21 -1,-4 -6,-20l-178 -389c0,-2 -1,-7 -2,-9 -1,0 -1,-3 -2,-4l-87 -153c-3,-6 -2,-8 -8,-18l-216 -325c-38,-45 11,5 -18,-36 -10,-14 -31,-27 -41,-41 -29,-41 20,9 -17,-36 -12,-14 -25,-22 -37,-36 -15,-18 -14,-27 -27,-45 -15,-19 -24,-21 -38,-43 -32,-23 -5,-6 -21,-25 -1,-1 -3,-3 -3,-3 -1,-1 -3,-3 -3,-3 -52,-68 -156,-175 -220,-227l-78 -67c-42,-28 -48,-55 -124,-110l-20 -16c-2,-1 -4,-3 -5,-4l-42 -39c-11,-11 -13,-12 -24,-21 -2,-1 -4,-3 -5,-4 -2,-1 -4,-3 -6,-4l-168 -128c0,-1 -2,-2 -2,-3l-286 -197c-12,-7 -17,-10 -29,-17l-54 -35c-12,-8 -17,-9 -30,-16l-35 -19c-89,-60 -339,-191 -434,-233 -20,-9 0,-1 -15,-6l-119 -50 -9 0 -282 -111c-19,-7 7,2 -14,-3l-94 -26c-10,-3 0,0 -14,-6l-188 -56c-2,-1 -14,-2 -16,-3l-212 -47 -9 0c-25,-12 -149,-24 -185,-33 -65,-17 -87,-10 -133,-21 -36,-8 -152,-8 -178,-19l-9 0c-134,-11 -481,-16 -558,1l-274 22c-9,1 -44,5 -66,7 -26,3 -24,0 -51,5l-515 91c-1,0 -3,1 -4,2 -1,0 -3,1 -4,1l-127 30c-1,0 -4,1 -5,1l-191 57zm-2715 -253l9 0 -7 11 -2 -11zm938 -649l9 0 -7 10 -2 -10zm3075 -72l-9 0 -1305 175c-27,5 6,-1 -22,7l-77 20c-1,0 -4,1 -5,1 -4,1 -15,3 -29,6l-88 28c-1,0 -3,1 -4,1 -22,6 -21,-2 -58,13l-423 146 -9 0 -191 80c-13,5 -1,2 -24,11l-439 220c-9,5 -15,8 -22,13 -40,28 -72,31 -115,66l-65 43 -29 16c-12,9 -12,11 -26,19l-57 33c-1,1 -4,2 -6,4 -19,12 -20,19 -39,32l-242 173c-17,14 -17,20 -39,34l-79 65c-15,12 -14,8 -21,13l-35 29c-53,41 -93,94 -146,135 -9,7 -17,13 -25,20 -1,0 -18,17 -18,17l-33 31c-1,2 -3,3 -5,4 -71,61 -134,134 -193,204l-135 150c0,0 -2,2 -2,3l-298 376c-8,10 -11,12 -17,20l-57 80c-30,61 -74,103 -108,161l-90 146c0,1 -1,3 -2,4l-80 130c-8,15 -4,10 -12,24 -10,16 -1,-2 -13,19 0,0 -1,3 -1,4l-4 8c0,0 -2,3 -2,4l-174 313c-1,1 -1,3 -2,4l-15 27c0,1 -1,4 -1,5l-18 36c-1,1 -1,3 -2,4l-15 27c0,1 -1,4 -1,5 -1,1 -1,3 -2,4l-91 186c-3,12 -3,12 -8,23l-36 74c0,1 -2,4 -2,6 -1,1 -2,3 -3,5l-71 162c-1,1 -2,3 -2,4 -1,1 -2,4 -2,5l-89 212c0,1 -1,4 -1,5l-21 63c-24,69 -52,113 -70,176l-216 627c-2,9 -2,7 -7,19l-28 84c0,1 0,4 -1,5l-40 130c-7,20 -11,37 -14,50l-71 212c0,1 -1,4 -1,5 -1,1 -2,14 -4,21l-45 136c-4,12 -5,21 -5,23 -1,1 -1,4 -1,5l-163 505c-3,13 -7,31 -14,51l-40 129c0,1 -1,4 -1,5l-21 47 -171 -54 -9 0c-68,-32 -164,-47 -237,-71l-21 -8c-1,-1 -3,-1 -4,-2l31 -88c1,-1 2,-13 5,-22l13 -32c1,-2 2,-8 2,-10l26 -79c9,-20 6,-7 9,-20l16 -60c7,-25 -5,0 4,-21l18 -54c0,-2 3,-7 3,-9 0,-1 1,-3 2,-4 0,-1 1,-4 1,-5l194 -608c11,-33 3,-3 11,-23l23 -73c1,-6 4,-17 7,-24l121 -385c7,-21 12,-36 14,-50l382 -1092c11,-25 0,3 11,-18 1,-1 2,-3 2,-5l5 -13c2,-6 7,-16 10,-22 4,-9 10,-20 11,-23 0,-1 1,-4 2,-5l25 -58c0,-2 1,-4 2,-5l36 -72c0,-1 1,-3 1,-4l33 -82c0,-1 1,-4 2,-5 0,-1 1,-3 1,-4 0,-1 1,-4 1,-4l89 -176c1,-1 1,-4 2,-5l13 -22c0,-1 1,-4 2,-5l36 -72c0,-1 1,-4 1,-5l71 -121c1,-1 1,-4 2,-5l11 -22c1,-1 2,-4 3,-5l25 -49c6,-10 6,-12 13,-24 3,-5 9,-16 13,-23l87 -147c6,-10 8,-10 15,-21 4,-6 8,-15 13,-23l91 -144c11,-20 4,-6 15,-21 12,-17 15,-26 28,-44 15,-21 14,-23 28,-44l62 -82c35,-38 56,-89 90,-126 9,-9 12,-11 19,-19 18,-22 3,-15 17,-36l47 -54c15,-29 40,-48 62,-72l127 -161c25,-30 44,-47 71,-74l56 -60c2,-2 3,-4 5,-5l103 -113c13,-14 20,-25 34,-38l76 -67c1,-1 3,-2 4,-3l7 -10c11,-15 -14,12 6,-8l54 -45c2,-1 3,-3 5,-4 7,-6 11,-9 20,-17l96 -93c1,-1 3,-3 5,-4 34,-31 -25,23 9,-9l239 -194c22,-14 27,-27 49,-40 46,-27 85,-67 133,-93l50 -40c41,-36 170,-107 223,-147l22 -15c9,-5 20,-10 30,-15 26,-13 2,3 27,-17l86 -50c15,-11 7,-10 25,-20l124 -64c7,-3 2,1 14,-6l54 -35c7,-4 24,-12 30,-15 43,-21 77,-39 120,-61 25,-12 37,-19 61,-29l294 -129c1,-1 3,-2 4,-2l9 -3c1,0 4,-1 5,-1 1,0 3,-1 4,-2 1,0 4,-1 5,-1l72 -24c51,-16 104,-50 156,-65l196 -66c12,-4 13,-6 30,-10l195 -64c0,0 23,-3 30,-4 36,-7 16,-4 33,-11l169 -46c3,-1 9,-2 11,-2 2,-1 4,-1 5,-2l219 -51c3,0 9,-1 11,-1 17,-4 3,-1 14,-4l518 -95c38,-8 106,-3 151,-12 18,-4 21,-5 29,-7 4,-1 19,-3 30,-4 30,-2 54,0 82,-4 116,-15 312,-12 388,-21l19 -5c74,-12 178,0 258,-1l44 4c1,0 4,1 5,1 87,15 262,0 354,19 47,10 232,17 301,30l125 19c60,19 259,40 322,61 15,5 21,5 37,9l249 61c25,7 -13,-4 15,3l96 27c2,0 4,2 6,2l403 139c11,4 17,5 34,11 12,4 22,8 32,13l288 126c3,1 8,3 10,4l135 63c2,0 8,2 9,2l202 109c21,13 4,6 24,16l77 44c7,3 24,11 30,15 12,8 13,13 25,21l84 50c12,8 6,4 18,10l37 26c11,8 5,4 17,10l317 224c2,0 4,2 6,3l164 133c36,22 65,67 102,88 63,37 325,304 390,377l170 200c1,2 2,4 4,5l143 177c18,33 50,49 67,83l85 112c8,12 3,6 6,14l41 56c10,16 8,17 21,34 4,6 23,27 26,33l217 359c1,1 1,4 2,5 0,1 1,3 1,4l48 90c7,14 1,1 10,17l187 406c11,21 13,22 19,37 9,24 3,20 8,33l16 26c6,23 -9,1 3,26l43 106c10,31 16,51 27,82 7,19 12,25 15,34 4,12 1,9 8,33l65 213c5,21 -2,7 5,33 5,20 6,18 13,40 36,120 37,175 65,287 11,44 6,59 10,75l25 134c8,41 8,56 9,74l18 140c0,25 0,22 7,67 20,138 26,297 28,420l0 263c-1,108 -17,209 -16,314 0,86 -26,287 -39,379 -9,64 -12,132 -28,189l-186 863c-1,27 -13,41 -21,66l-123 339c0,1 -1,4 -1,5l-51 117c-10,26 5,-12 -4,13l-325 614c0,1 -1,3 -2,4 -8,15 1,-2 -11,15 -47,69 -87,152 -150,220 -28,30 -13,32 -45,63 -23,24 -15,31 -35,54l-78 95c-1,1 -12,13 -13,14l-100 125c-32,45 -76,80 -111,124l-39 51c-1,1 -3,3 -4,5 -62,71 -272,288 -325,324 -19,28 -8,11 -33,29l-33 33c-1,0 -3,2 -3,3l-195 167c-42,43 -32,18 -64,45 -20,17 -31,38 -55,53 -14,10 -21,10 -34,20l-61 51c-1,1 -3,2 -4,3l-112 84c-20,14 -13,3 -35,20l-68 49c-5,4 -16,9 -17,10l-161 109c-14,9 -15,11 -32,22l-35 20c-1,1 -3,2 -5,4l-429 248c-41,20 -290,151 -335,162 -32,7 -94,47 -131,61l-9 3c-1,0 -4,1 -5,1 -2,1 -7,4 -9,5l-373 150c-44,15 -84,26 -129,43l-128 43c-23,7 -36,12 -59,18 -3,0 -8,1 -10,2 -1,0 -4,1 -5,1 -2,0 -6,3 -8,3 -1,1 -4,1 -5,2 -1,0 -3,1 -4,1 -1,0 -14,3 -16,3l-34 8c-1,0 -3,1 -4,1l-80 23c-17,4 -5,0 -21,3l-107 26c-55,10 -210,49 -271,54 -3,0 -19,0 -22,1 -1,0 -4,1 -5,1 -67,19 -196,26 -253,35l-180 23c-50,11 -337,18 -418,24 -107,8 -233,2 -341,2 -29,0 -49,-1 -74,-4 -17,-2 -26,-1 -46,-1 -23,0 -64,6 -88,-4l-9 0 -485 -37c-25,-6 -18,-2 -40,-4l-153 -18c-20,-1 -91,-7 -106,-13l-9 0c-21,-9 -69,-8 -102,-14l-342 -57c-45,-12 -62,-7 -104,-20 -1,-1 -3,-2 -4,-2l-185 -37c0,-1 -22,-4 -30,-5 -11,-2 -19,-2 -29,-4l-14 -3c-1,0 -3,-1 -4,-2 -21,-6 5,-1 -18,-6l-212 -46c-1,-1 -4,-2 -5,-2l-370 -94c-18,-5 2,2 -19,-4 -22,-5 -30,-10 -52,-15 -16,-3 -25,-1 -52,-14l-9 0 -53 -16c-2,0 -6,-2 -8,-3 -1,0 -4,-1 -4,-2 -1,0 -4,0 -5,-1l-181 -54c-2,-1 -7,-1 -9,-2 -21,-5 -27,-7 -46,-14l-123 -39c-2,0 -5,-1 -7,-2l-61 -20c-108,-28 -217,-79 -323,-105l-59 -19c-19,-5 -20,-8 -24,-10l-209 -77c-20,-7 8,3 -14,-4l-13 -4c-1,-1 -3,-1 -4,-1l-44 -18c-10,-3 -15,-2 -15,-3l-259 -75 74 -255c0,-1 1,-3 1,-4 42,-163 53,-94 182,-64l74 22c26,9 -4,1 22,10l132 40c2,0 5,2 6,2l151 46c16,4 33,9 58,17l118 36c5,1 14,2 28,6l94 29c11,4 7,2 26,6l95 28c1,1 4,2 5,2l555 148c69,11 111,31 173,40l183 43c2,1 7,3 8,4l141 28c23,5 -3,0 18,6 57,19 92,15 153,33 28,8 -5,2 22,7l168 33c23,9 43,10 58,12 18,3 32,10 61,13l155 30c1,0 3,1 4,1l502 83c1,0 4,1 5,1l270 43c4,1 13,0 17,0l763 63c162,0 196,-16 329,-26l689 -134c1,0 4,-1 5,-1l563 -175c79,-33 150,-47 229,-88l250 -109c1,0 3,0 4,-1l257 -127c24,-12 35,-18 58,-32l177 -101c1,0 3,-1 4,-1l21 -12c31,-21 31,-12 83,-52l174 -106c18,-11 8,-7 20,-14 1,0 4,-1 5,-2l108 -72c33,-15 -15,14 18,-6 11,-7 22,-21 38,-33l142 -101c17,-10 3,2 23,-13 17,-14 18,-20 38,-34 86,-60 48,-44 103,-86l46 -36c1,-1 3,-3 4,-4 32,-21 60,-60 92,-80l35 -28c126,-117 287,-270 397,-397l40 -51c1,-1 6,-7 7,-9l101 -117c23,-31 55,-52 76,-84l65 -92c1,-1 2,-3 3,-4l93 -115c17,-20 17,-31 36,-55l60 -85c3,-6 0,-7 8,-18l103 -153c1,-1 2,-3 2,-4 8,-15 -1,2 11,-15 8,-12 10,-17 17,-28l130 -215c0,-1 1,-3 1,-4l20 -41c18,-39 57,-88 73,-131 1,-1 2,-4 3,-5 0,-2 2,-4 2,-6l131 -266c5,-12 2,-9 5,-16l25 -46c1,-2 4,-10 5,-12 0,-1 2,-4 2,-5 1,-1 2,-4 2,-5l36 -90c6,-18 -2,-1 7,-25l132 -391c15,-36 2,-26 9,-48l34 -113c2,-10 -1,-14 0,-23 3,-23 -2,3 10,-24 26,-61 18,-102 37,-162 12,-39 5,-27 8,-53 2,-18 13,-38 17,-62l13 -108c18,-79 15,-163 32,-231 12,-47 7,-108 11,-151 22,-197 30,-541 9,-732l-62 -525c-4,-25 -2,-25 -2,-45l-103 -436c-12,-33 -1,-31 -7,-51l-52 -153c0,-2 -2,-15 -7,-28l-5 -12c-6,-14 -3,-4 -6,-14l-35 -104c0,-1 -1,-4 -1,-5 -1,-1 -1,-3 -2,-4l-5 -14c-5,-12 -7,-13 -11,-30l-282 -606c-17,-26 2,3 -9,-22 -9,-19 -4,-4 -17,-24 -7,-11 -10,-18 -17,-29 -13,-20 -8,-5 -17,-24l-26 -50c-6,-13 -7,-15 -16,-29 -26,-19 -6,-7 -18,-29l-57 -95c-8,-13 -7,-7 -18,-26l-86 -131c-9,-13 -13,-14 -25,-29l-91 -133c0,-1 -2,-2 -3,-3l-41 -53c-55,-81 -45,-49 -75,-102 0,0 -17,-22 -17,-23 -9,-10 -13,-14 -22,-23l-193 -220c0,-1 -1,-3 -2,-4l-15 -17c-73,-80 -147,-160 -231,-226l-20 -21c-1,-1 -2,-2 -3,-3l-95 -86c-17,-17 -28,-31 -47,-44l-276 -211c-21,-14 -24,-23 -45,-36l-162 -109c-2,-1 -5,-5 -6,-3l-152 -91c-6,-4 -15,-10 -16,-11l-137 -80c-9,-5 -8,-4 -18,-9l-260 -124c-1,0 -3,-1 -4,-1l-90 -42c-2,-1 -4,-2 -5,-2l-9 -3c-1,0 -3,-1 -4,-1l-16 -7c-16,-7 -24,-9 -39,-15l-73 -27c-3,-1 -38,-19 -39,-19 -14,-5 -8,2 -32,-8l-111 -43c-32,-10 -57,-18 -88,-29 -10,-3 -26,-10 -41,-13 -31,-8 -26,-1 -51,-13l-9 0 -119 -38c-2,-1 -4,-1 -5,-2l-220 -55c-6,-1 -32,-4 -49,-8l-418 -69c-17,-1 -29,-4 -35,-6 -68,-21 -357,-31 -443,-38l-9 0 -100 -9c-57,-4 -130,0 -189,-1l-244 10z"/>
 </g>
</svg>
