<?xml version="1.0" encoding="UTF-8"?>
<!DOCTYPE svg PUBLIC "-//W3C//DTD SVG 1.1//EN" "http://www.w3.org/Graphics/SVG/1.1/DTD/svg11.dtd">
<!-- Creator: CorelDRAW X6 -->
<svg xmlns="http://www.w3.org/2000/svg" xml:space="preserve" width="415.572mm" height="228.247mm" version="1.1" style="shape-rendering:geometricPrecision; text-rendering:geometricPrecision; image-rendering:optimizeQuality; fill-rule:evenodd; clip-rule:evenodd"
viewBox="0 0 41557 22825"
 xmlns:xlink="http://www.w3.org/1999/xlink">
 <defs>
  <style type="text/css">
   <![CDATA[
    .fil4 {fill:#FFF164}
    .fil5 {fill:#FFF164;fill-opacity:0.501961}
    .fil1 {fill:url(#id9)}
    .fil6 {fill:url(#id10)}
    .fil3 {fill:url(#id11)}
    .fil0 {fill:url(#id12)}
    .fil2 {fill:url(#id13)}
   ]]>
  </style>
    <clipPath id="id0">
     <rect width="41557" height="22825"/>
    </clipPath>
     <clipPath id="id1">
      <path d="M8438 17957l2294 0 0 2294 -2294 0 0 -2294z"/>
     </clipPath>
     <clipPath id="id2">
      <path d="M25193 8931l8367 0 0 8367 -8367 0 0 -8367z"/>
     </clipPath>
    <clipPath id="id3">
     <path d="M10198 4569l6295 0 0 6294 -6295 0 0 -6294z"/>
    </clipPath>
    <clipPath id="id4">
     <path d="M10198 4569l6295 0 0 6294 -6295 0 0 -6294z"/>
    </clipPath>
    <clipPath id="id5">
     <path d="M10723 5093l5246 0 0 5246 -5246 0 0 -5246z"/>
    </clipPath>
    <clipPath id="id6">
     <path d="M10723 5093l5246 0 0 5246 -5246 0 0 -5246z"/>
    </clipPath>
    <clipPath id="id7">
     <path d="M11247 5618l4197 0 0 4196 -4197 0 0 -4196z"/>
    </clipPath>
     <clipPath id="id8">
      <path d="M4297 4196l4041 0 0 4041 -4041 0 0 -4041z"/>
     </clipPath>
  <radialGradient id="id9" gradientUnits="objectBoundingBox" cx="15%" cy="41%" r="50%" fx="15%" fy="41%">
   <stop offset="0" style="stop-color:#FFF164"/>
   <stop offset="1" style="stop-color:#9933FF "/>
  </radialGradient>
  <radialGradient id="id10" gradientUnits="objectBoundingBox" cx="97%" cy="65%" r="40%" fx="97%" fy="65%">
   <stop offset="0" style="stop-color:#FFF164"/>
   <stop offset="0.529412" style="stop-color:#1FFED6"/>
   <stop offset="1" style="stop-color:#E646B6"/>
  </radialGradient>
  <radialGradient id="id11" gradientUnits="objectBoundingBox" cx="-10%" cy="45%" r="38%" fx="-10%" fy="45%">
   <stop offset="0" style="stop-color:#FFF164"/>
   <stop offset="1" style="stop-color:#E646B6"/>
  </radialGradient>
  <radialGradient id="id12" gradientUnits="objectBoundingBox" cx="68%" cy="47%" r="36%" fx="68%" fy="47%">
   <stop offset="0" style="stop-color:#FFF164"/>
   <stop offset="1" style="stop-color:#9933FF "/>
  </radialGradient>
  <radialGradient id="id13" gradientUnits="objectBoundingBox" xlink:href="#id11" cx="62%" cy="12%" r="35%" fx="62%" fy="12%">
  </radialGradient>
 </defs>
 <g id="Layer_x0020_1">
  <metadata id="CorelCorpID_0Corel-Layer"/>
  <g id="_690857472">
   <g style="clip-path:url(#id0)">
    <image x="0" y="0" width="41557" height="22825" xlink:href="#E646B6plex illustration 10_Images\#E646B6plex illustration 10_ImgID1.png"/>
   </g>
   <rect class="fil0" width="41557" height="22825"/>
   <path class="fil1" d="M16974 22825c-2375,-3007 -3794,-6805 -3794,-10935 0,-4580 1745,-8753 4606,-11890l23771 0 0 22825 -24583 0z"/>
   <g>
    <g style="clip-path:url(#id1)">
     <image x="8438" y="17957" width="2294" height="2294" xlink:href="#E646B6plex illustration 10_Images\#E646B6plex illustration 10_ImgID2.png"/>
    </g>
   </g>
   <circle class="fil2" cx="9585" cy="19104" r="997"/>
   <g>
    <g style="clip-path:url(#id2)">
     <image x="25193" y="8931" width="8367" height="8367" xlink:href="#E646B6plex illustration 10_Images\#E646B6plex illustration 10_ImgID3.png"/>
    </g>
   </g>
   <circle class="fil3" cx="29376" cy="13114" r="3638"/>
   <g style="clip-path:url(#id3)">
    <image x="10198" y="4569" width="6295" height="6295" xlink:href="#E646B6plex illustration 10_Images\#E646B6plex illustration 10_ImgID4.png"/>
   </g>
   <g style="clip-path:url(#id4)">
    <image x="10198" y="4569" width="6295" height="6295" xlink:href="#E646B6plex illustration 10_Images\#E646B6plex illustration 10_ImgID5.png"/>
   </g>
   <g style="clip-path:url(#id5)">
    <image x="10723" y="5093" width="5246" height="5246" xlink:href="#E646B6plex illustration 10_Images\#E646B6plex illustration 10_ImgID6.png"/>
   </g>
   <g style="clip-path:url(#id6)">
    <image x="10723" y="5093" width="5246" height="5246" xlink:href="#E646B6plex illustration 10_Images\#E646B6plex illustration 10_ImgID7.png"/>
   </g>
   <g style="clip-path:url(#id7)">
    <image x="11247" y="5618" width="4197" height="4197" xlink:href="#E646B6plex illustration 10_Images\#E646B6plex illustration 10_ImgID8.png"/>
   </g>
   <circle class="fil4" cx="13346" cy="7716" r="1749"/>
   <path class="fil5" d="M11926 8737c-4053,272 -8102,548 -11926,1162l0 297c3956,-623 7941,-1038 11926,-1459z"/>
   <path class="fil5" d="M0 13085l0 370c8004,579 16614,757 25944,461l-16 -561c-9111,453 -17710,312 -25928,-270z"/>
   <path class="fil5" d="M10529 19049l-37 325c9810,823 20239,639 31065,-119l0 -402c-10211,879 -20534,1066 -31028,196z"/>
   <g>
    <g style="clip-path:url(#id8)">
     <image x="4297" y="4196" width="4041" height="4041" xlink:href="#E646B6plex illustration 10_Images\#E646B6plex illustration 10_ImgID9.png"/>
    </g>
   </g>
   <circle class="fil6" cx="6317" cy="6216" r="1757"/>
  </g>
 </g>
</svg>
