<?xml version="1.0" encoding="UTF-8"?>
<!DOCTYPE svg PUBLIC "-//W3C//DTD SVG 1.1//EN" "http://www.w3.org/Graphics/SVG/1.1/DTD/svg11.dtd">
<!-- Creator: CorelDRAW X6 -->
<svg xmlns="http://www.w3.org/2000/svg" xml:space="preserve" width="80.01mm" height="60.5006mm" version="1.1" style="shape-rendering:geometricPrecision; text-rendering:geometricPrecision; image-rendering:optimizeQuality; fill-rule:evenodd; clip-rule:evenodd"
viewBox="0 0 3203 2422"
 xmlns:xlink="http://www.w3.org/1999/xlink">
 <defs>
  <style type="text/css">
   <![CDATA[
    .fil0 {fill:none}
    .fil3 {fill:#1FFED6}
    .fil1 {fill:#9933FF}
    .fil2 {fill:#E646B6}
    .fil4 {fill:#FFF164}
   ]]>
  </style>
    <clipPath id="id0">
     <path d="M0 1l3203 0 0 2418 -3203 0 0 -2418z"/>
    </clipPath>
 </defs>
 <g id="Layer_x0020_1">
  <metadata id="CorelCorpID_0Corel-Layer"/>
  <g id="_385466104">
   <rect class="fil0" y="1" width="3203" height="2417"/>
   <g style="clip-path:url(#id0)">
    <image x="-727" y="-5946" width="4435" height="8573" xlink:href="diamond pattern_Images\diamond pattern_ImgID1.png"/>
   </g>
   <polygon class="fil1" points="374,502 768,565 1048,934 "/>
   <polygon class="fil0" points="357,1082 374,502 1048,934 "/>
   <polygon class="fil4" points="374,502 683,900 357,1082 "/>
   <polygon class="fil3" points="683,900 1048,934 374,502 "/>
   <polygon class="fil1" points="357,1082 1048,934 683,900 "/>
   <polygon class="fil0" points="357,1082 980,1406 707,1101 1048,934 "/>
   <polygon class="fil3" points="707,1101 357,1082 1048,934 "/>
   <polygon class="fil1" points="707,1101 969,1394 357,1082 "/>
   <polygon class="fil3" points="357,1082 969,1394 639,1389 "/>
   <polygon class="fil4" points="357,1082 355,1561 639,1389 "/>
   <polygon class="fil1" points="355,1561 969,1394 639,1389 "/>
   <polygon class="fil3" points="355,1561 921,1792 620,1820 "/>
   <polygon class="fil4" points="355,1561 351,1966 620,1820 "/>
   <polygon class="fil1" points="351,1966 620,1820 921,1792 "/>
   <polygon class="fil3" points="351,1966 921,1792 645,1957 "/>
   <polygon class="fil1" points="351,1966 645,1957 878,2129 "/>
   <polygon class="fil3" points="351,1966 622,2185 878,2129 "/>
   <polygon class="fil4" points="351,1966 344,2305 622,2185 "/>
   <polygon class="fil1" points="344,2305 622,2185 878,2129 "/>
   <polygon class="fil3" points="344,2305 878,2129 614,2296 "/>
   <polygon class="fil1" points="344,2305 614,2296 835,2419 746,2419 "/>
   <polygon class="fil3" points="344,2305 500,2419 746,2419 "/>
   <polygon class="fil4" points="344,2305 341,2419 500,2419 "/>
   <polygon class="fil3" points="355,1561 969,1394 674,1561 "/>
   <polygon class="fil1" points="355,1561 674,1561 921,1792 "/>
   <polygon class="fil4" points="674,1561 969,1394 921,1792 "/>
   <polygon class="fil3" points="374,502 768,565 1128,379 "/>
   <polygon class="fil4" points="374,502 772,300 534,1 372,1 "/>
   <polygon class="fil3" points="534,1 670,1 1128,379 772,300 "/>
   <polygon class="fil1" points="772,300 374,502 1128,379 "/>
   <polygon class="fil1" points="670,1 1128,379 900,1 "/>
   <polygon class="fil4" points="900,1 1128,379 1171,0 "/>
   <polygon class="fil4" points="1128,379 1048,934 768,565 "/>
   <polygon class="fil4" points="1048,934 969,1394 707,1101 "/>
   <polygon class="fil4" points="921,1792 878,2129 645,1957 "/>
   <polygon class="fil4" points="878,2129 835,2419 614,2296 "/>
   <polygon class="fil1" points="1171,0 1368,1 1472,179 1128,379 "/>
   <polygon class="fil1" points="1128,379 1048,934 1371,746 "/>
   <polygon class="fil1" points="1048,934 969,1394 1248,1238 "/>
   <polygon class="fil1" points="969,1394 921,1792 1195,1640 "/>
   <polygon class="fil1" points="921,1792 878,2129 1135,2005 "/>
   <polygon class="fil1" points="835,2419 1082,2306 878,2129 "/>
   <polygon class="fil3" points="1472,179 1790,259 1539,1 1368,1 "/>
   <polygon class="fil2" points="1790,259 1128,379 1472,179 "/>
   <polygon class="fil3" points="1790,259 1128,379 1447,450 "/>
   <polygon class="fil1" points="1790,259 1652,795 1447,450 "/>
   <polygon class="fil2" points="1447,450 1652,795 1128,379 "/>
   <polygon class="fil3" points="1128,379 1371,746 1652,795 "/>
   <polygon class="fil2" points="1652,795 1371,746 1048,934 "/>
   <polygon class="fil3" points="1652,795 1048,934 1339,973 "/>
   <polygon class="fil1" points="1652,795 1538,1253 1339,973 "/>
   <polygon class="fil2" points="1339,973 1048,934 1538,1253 "/>
   <polygon class="fil3" points="1248,1238 1538,1253 1048,934 "/>
   <polygon class="fil2" points="1248,1238 969,1394 1538,1253 "/>
   <polygon class="fil3" points="969,1394 1538,1253 1248,1407 "/>
   <polygon class="fil2" points="969,1394 1248,1407 1455,1642 "/>
   <polygon class="fil3" points="1455,1642 1195,1640 969,1394 "/>
   <polygon class="fil2" points="1455,1642 1195,1640 921,1792 "/>
   <polygon class="fil3" points="921,1792 1455,1642 1184,1796 "/>
   <polygon class="fil1" points="1455,1642 1368,1970 1184,1796 "/>
   <polygon class="fil2" points="1184,1796 921,1792 1368,1970 "/>
   <polygon class="fil3" points="1368,1970 1135,2005 921,1792 "/>
   <polygon class="fil0" points="1368,1970 1135,2005 878,2129 1126,2126 "/>
   <polygon class="fil1" points="1368,1970 1287,2278 1126,2126 "/>
   <polygon class="fil1" points="1287,2278 1248,2422 1051,2420 "/>
   <polygon class="fil3" points="1082,2306 1287,2278 878,2129 "/>
   <polygon class="fil2" points="1082,2306 835,2419 1287,2278 "/>
   <polygon class="fil3" points="1287,2278 835,2419 1062,2420 "/>
   <polygon class="fil2" points="1126,2126 1287,2278 878,2129 "/>
   <polygon class="fil2" points="878,2129 1135,2005 1368,1970 "/>
   <polygon class="fil3" points="878,2129 1368,1970 1129,2127 "/>
   <polygon class="fil1" points="1846,1 1790,259 1539,1 "/>
   <polygon class="fil1" points="1248,1407 1538,1253 1455,1642 "/>
   <polygon class="fil2" points="1846,1 2076,1 2131,89 1790,259 "/>
   <polygon class="fil2" points="1790,259 1940,619 1652,795 "/>
   <polygon class="fil2" points="1652,795 1830,1098 1538,1253 "/>
   <polygon class="fil2" points="1538,1253 1701,1477 1455,1642 "/>
   <polygon class="fil2" points="1455,1642 1618,1859 1368,1970 "/>
   <polygon class="fil2" points="1368,1970 1519,2158 1287,2278 "/>
   <polygon class="fil2" points="1287,2278 1445,2419 1248,2422 "/>
   <polygon class="fil1" points="2076,1 2262,1 2381,165 2131,89 "/>
   <polygon class="fil3" points="2131,89 1790,259 2381,165 "/>
   <polygon class="fil1" points="1790,259 2381,165 2067,319 "/>
   <polygon class="fil3" points="1790,259 2067,319 2192,675 "/>
   <polygon class="fil1" points="1790,259 2192,675 1940,619 "/>
   <polygon class="fil3" points="1940,619 2192,675 1642,798 "/>
   <polygon class="fil1" points="1647,794 1903,827 2192,675 "/>
   <polygon class="fil3" points="1647,794 2056,1114 1905,826 "/>
   <polygon class="fil1" points="2056,1114 1830,1098 1647,794 "/>
   <polygon class="fil3" points="2056,1114 1830,1098 1538,1253 "/>
   <polygon class="fil1" points="2056,1114 1784,1262 1538,1253 "/>
   <polygon class="fil4" points="2056,1114 1930,1491 1784,1262 "/>
   <polygon class="fil3" points="1784,1262 1538,1253 1930,1491 "/>
   <polygon class="fil1" points="1538,1253 1930,1491 1701,1477 "/>
   <polygon class="fil3" points="1701,1477 1930,1491 1455,1642 "/>
   <polygon class="fil1" points="1455,1642 1930,1491 1684,1641 "/>
   <polygon class="fil3" points="1455,1642 1684,1641 1826,1830 "/>
   <polygon class="fil1" points="1455,1642 1826,1830 1618,1859 "/>
   <polygon class="fil3" points="1618,1859 1368,1970 1582,1971 1826,1830 "/>
   <polygon class="fil1" points="1582,1971 1727,2125 1368,1970 "/>
   <polygon class="fil4" points="1582,1971 1826,1830 1727,2125 "/>
   <polygon class="fil3" points="1368,1970 1727,2125 1519,2158 "/>
   <polygon class="fil1" points="1519,2158 1287,2278 1505,2253 1727,2125 "/>
   <polygon class="fil3" points="1287,2278 1505,2253 1638,2385 "/>
   <polygon class="fil1" points="1287,2278 1638,2385 1575,2419 1445,2419 "/>
   <polygon class="fil4" points="2262,1 2430,1 2381,165 "/>
   <polygon class="fil4" points="2381,165 2192,675 2067,319 "/>
   <polygon class="fil4" points="2192,675 2056,1114 1903,827 "/>
   <polygon class="fil4" points="1930,1491 1826,1830 1684,1641 "/>
   <polygon class="fil4" points="1727,2125 1638,2385 1505,2253 "/>
   <polygon class="fil4" points="1638,2385 1638,2419 1575,2419 "/>
   <polygon class="fil3" points="2430,1 2863,1 2903,72 2381,165 "/>
   <polygon class="fil2" points="2381,165 2903,72 2617,225 "/>
   <polygon class="fil3" points="2381,165 2617,225 2691,562 "/>
   <polygon class="fil0" points="2381,165 2691,562 2192,675 "/>
   <polygon class="fil2" points="2692,562 2454,719 2192,675 "/>
   <polygon class="fil1" points="2691,562 2522,983 2454,719 "/>
   <polygon class="fil3" points="2454,719 2192,675 2522,983 "/>
   <polygon class="fil0" points="2192,675 2056,1114 2519,973 "/>
   <polygon class="fil2" points="2056,1114 2519,973 2272,1134 "/>
   <polygon class="fil3" points="2056,1114 2272,1134 2369,1360 "/>
   <polygon class="fil2" points="2056,1114 2174,1363 2369,1360 "/>
   <polygon class="fil1" points="2056,1114 2174,1363 1930,1491 "/>
   <polygon class="fil2" points="1930,1491 2132,1496 2369,1360 "/>
   <polygon class="fil3" points="1930,1491 2174,1363 2369,1360 "/>
   <polygon class="fil3" points="1930,1491 2132,1496 2234,1689 "/>
   <polygon class="fil2" points="1930,1491 2234,1689 2035,1682 "/>
   <polygon class="fil1" points="1930,1491 1826,1830 2035,1682 "/>
   <polygon class="fil3" points="2035,1682 1826,1830 2005,1824 2234,1689 "/>
   <polygon class="fil1" points="1826,1830 1956,1996 1727,2125 "/>
   <polygon class="fil3" points="1956,1996 2121,1973 1826,1830 "/>
   <polygon class="fil2" points="1727,2125 1956,1996 2121,1973 "/>
   <polygon class="fil3" points="1727,2125 1901,2123 2121,1973 "/>
   <polygon class="fil3" points="1727,2125 2013,2240 1840,2265 "/>
   <polygon class="fil1" points="1727,2125 1638,2385 1840,2265 "/>
   <polygon class="fil2" points="1840,2265 1638,2385 2013,2240 "/>
   <polygon class="fil3" points="2013,2240 1638,2385 1827,2365 "/>
   <polygon class="fil2" points="1827,2365 1884,2419 1638,2385 "/>
   <polygon class="fil1" points="1638,2419 1884,2419 1635,2381 "/>
   <polygon class="fil2" points="1727,2125 1901,2123 2013,2240 "/>
   <polygon class="fil1" points="1901,2123 2121,1973 2013,2240 "/>
   <polygon class="fil1" points="1957,2419 1884,2419 1827,2365 2013,2240 "/>
   <polygon class="fil2" points="2005,1824 2121,1973 1826,1830 "/>
   <polygon class="fil1" points="2005,1824 2121,1973 2234,1689 "/>
   <polygon class="fil1" points="2132,1496 2369,1360 2234,1689 "/>
   <polygon class="fil1" points="2272,1134 2369,1360 2519,973 "/>
   <polygon class="fil1" points="2617,225 2691,562 2903,72 "/>
   <polygon class="fil2" points="2013,2240 2106,2355 2030,2419 1957,2419 "/>
   <polygon class="fil3" points="2013,2240 2272,2350 2106,2355 "/>
   <polygon class="fil1" points="2106,2355 2272,2350 2136,2419 2030,2419 "/>
   <polygon class="fil1" points="2013,2240 2272,2350 2172,2214 "/>
   <polygon class="fil0" points="2172,2214 2379,2106 2272,2350 "/>
   <polygon class="fil3" points="2013,2240 2172,2214 2379,2106 2195,2125 "/>
   <polygon class="fil2" points="2013,2240 2121,1973 2195,2125 "/>
   <polygon class="fil1" points="2121,1973 2379,2106 2195,2125 "/>
   <polygon class="fil3" points="2121,1973 2379,2106 2301,1973 "/>
   <polygon class="fil0" points="2379,2106 2301,1973 2502,1846 "/>
   <polygon class="fil1" points="2502,1846 2301,1973 2121,1973 2335,1863 "/>
   <polygon class="fil3" points="2234,1689 2502,1846 2335,1863 "/>
   <polygon class="fil2" points="2234,1689 2121,1973 2335,1863 "/>
   <polygon class="fil1" points="2234,1689 2502,1846 2428,1689 "/>
   <polygon class="fil0" points="2633,1557 2502,1846 2428,1689 "/>
   <polygon class="fil3" points="2622,1576 2428,1689 2234,1689 "/>
   <polygon class="fil2" points="2369,1360 2451,1560 2234,1689 "/>
   <polygon class="fil3" points="2369,1360 2622,1576 2451,1560 "/>
   <polygon class="fil1" points="2451,1560 2622,1576 2234,1689 "/>
   <polygon class="fil1" points="2369,1360 2557,1379 2622,1576 "/>
   <polygon class="fil3" points="2519,973 2784,1240 2609,1242 "/>
   <polygon class="fil3" points="2780,1236 2557,1379 2369,1360 "/>
   <polygon class="fil2" points="2519,973 2609,1242 2369,1360 "/>
   <polygon class="fil1" points="2609,1242 2780,1236 2369,1360 "/>
   <polygon class="fil3" points="2519,973 2955,881 2726,1016 "/>
   <polygon class="fil1" points="2519,973 2726,1016 2784,1240 "/>
   <polygon class="fil2" points="2726,1016 2955,881 2784,1240 "/>
   <polygon class="fil3" points="2692,561 2956,879 2746,840 "/>
   <polygon class="fil1" points="2955,881 2746,840 2527,971 "/>
   <polygon class="fil2" points="2746,840 2692,562 2519,973 "/>
   <polygon class="fil0" points="2903,72 3133,470 2688,569 "/>
   <polygon class="fil3" points="3133,470 2896,601 2692,562 "/>
   <polygon class="fil2" points="3133,470 2955,881 2896,601 "/>
   <polygon class="fil1" points="2896,601 2955,881 2692,562 "/>
   <polygon class="fil1" points="3133,470 2955,881 3121,753 "/>
   <polygon class="fil0" points="3133,470 3203,535 3203,753 3121,750 "/>
   <polygon class="fil0" points="3121,750 2955,881 3203,798 3203,753 "/>
   <polygon class="fil0" points="3203,798 3203,881 2955,881 "/>
   <polygon class="fil0" points="3203,881 3203,1048 3172,1143 2955,881 "/>
   <polygon class="fil1" points="2192,675 2322,972 2056,1114 "/>
   <polygon class="fil2" points="2192,675 2322,972 2525,974 "/>
   <polygon class="fil3" points="2524,978 2322,972 2045,1117 "/>
   <polygon class="fil1" points="2381,165 2462,501 2192,675 "/>
   <polygon class="fil2" points="2381,165 2462,501 2691,561 "/>
   <polygon class="fil3" points="2692,561 2462,501 2192,675 "/>
   <polygon class="fil1" points="2381,165 2646,1 2430,1 "/>
   <polygon class="fil2" points="2863,1 3203,1 2903,72 "/>
   <polygon class="fil3" points="2903,72 3203,1 3203,77 3115,142 "/>
   <polygon class="fil1" points="2903,72 3133,470 3115,142 "/>
   <polygon class="fil2" points="3115,142 3203,77 3203,367 3133,470 "/>
   <polygon class="fil0" points="2903,72 3133,470 2692,561 "/>
   <polygon class="fil2" points="2903,72 2954,377 2691,562 "/>
   <polygon class="fil3" points="2903,72 3133,470 2954,377 "/>
   <polygon class="fil1" points="2954,377 2692,562 3133,470 "/>
   <polygon class="fil0" points="2955,881 3172,1143 2948,1128 2780,1236 3172,1143 2948,1128 "/>
   <polygon class="fil0" points="2780,1236 2955,881 3172,1143 2948,1128 2955,881 "/>
   <polygon class="fil0" points="3172,1143 3004,1248 2784,1240 3004,1248 2993,1478 2784,1240 "/>
   <polygon class="fil0" points="2993,1478 3004,1248 3172,1143 "/>
   <polygon class="fil0" points="3172,1143 3203,1170 3203,1406 2993,1478 "/>
   <polygon class="fil0" points="2993,1478 3203,1406 3203,1473 "/>
   <line class="fil0" x1="3203" y1="1406" x2="2993" y2= "1478" />
   <polygon class="fil0" points="2783,1234 2622,1576 2557,1379 "/>
   <polygon class="fil1" points="2622,1576 2777,1472 2782,1232 "/>
   <polygon class="fil0" points="2783,1234 2993,1478 2777,1472 "/>
   <polygon class="fil0" points="2777,1472 2993,1478 2625,1576 "/>
   <polygon class="fil0" points="2624,1577 2993,1478 2837,1578 "/>
   <polygon class="fil0" points="2624,1578 2837,1578 2834,1779 "/>
   <polygon class="fil0" points="2837,1578 2993,1478 2834,1779 "/>
   <polygon class="fil0" points="2621,1577 2834,1779 2636,1785 "/>
   <polygon class="fil1" points="2622,1576 2636,1785 2502,1846 "/>
   <polygon class="fil0" points="2502,1846 2689,2047 2495,2038 "/>
   <polygon class="fil2" points="2379,2106 2495,2038 2502,1846 2495,2038 2689,2047 "/>
   <polygon class="fil0" points="2379,2106 2689,2047 2562,2127 "/>
   <polygon class="fil0" points="2495,2038 2502,1846 2379,2106 "/>
   <polygon class="fil1" points="3133,470 3203,367 3203,464 "/>
   <polygon class="fil3" points="3133,470 3203,464 3203,544 "/>
   <polygon class="fil2" points="3133,470 3121,753 3203,753 3203,544 "/>
   <polygon class="fil3" points="3121,753 2955,881 3203,798 3203,753 "/>
   <polygon class="fil2" points="2955,881 3203,881 3203,798 "/>
   <polygon class="fil3" points="2955,881 3203,881 3133,972 3172,1143 "/>
   <polygon class="fil1" points="2955,881 2782,1240 2948,1128 "/>
   <polygon class="fil3" points="2948,1128 3172,1143 2955,881 "/>
   <polygon class="fil2" points="2948,1128 2784,1240 3172,1143 "/>
   <polygon class="fil3" points="2784,1240 3172,1143 3004,1248 "/>
   <polygon class="fil2" points="2782,1240 3004,1248 2994,1469 "/>
   <polygon class="fil0" points="3004,1248 3172,1143 2993,1478 "/>
   <polygon class="fil0" points="2993,1478 3157,1375 3172,1143 "/>
   <polygon class="fil0" points="3157,1375 3203,1375 3203,1170 3172,1143 "/>
   <polygon class="fil0" points="3203,1077 3203,1173 3173,1140 "/>
   <polygon class="fil0" points="3203,1375 3203,1413 2996,1473 3157,1375 "/>
   <polygon class="fil0" points="3203,1413 3203,1473 2996,1473 "/>
   <polygon class="fil2" points="2557,1379 2780,1236 2622,1576 "/>
   <polygon class="fil2" points="2622,1576 2502,1846 2428,1689 "/>
   <polygon class="fil2" points="2502,1846 2379,2106 2301,1973 "/>
   <polygon class="fil2" points="2379,2106 2272,2350 2172,2214 "/>
   <polygon class="fil2" points="2272,2350 2230,2419 2136,2419 "/>
   <polygon class="fil1" points="2502,1846 2495,2038 2379,2106 "/>
   <polygon class="fil0" points="2379,2106 2391,2279 2272,2350 "/>
   <polygon class="fil1" points="2272,2350 2286,2419 2230,2419 "/>
   <polygon class="fil3" points="2272,2350 2358,2419 2286,2419 "/>
   <polygon class="fil3" points="2783,1237 2994,1469 2777,1472 "/>
   <polygon class="fil2" points="2622,1576 2777,1472 2994,1469 "/>
   <polygon class="fil3" points="2622,1576 2844,1574 2994,1469 "/>
   <polygon class="fil2" points="2622,1576 2844,1574 2834,1779 "/>
   <polygon class="fil3" points="2622,1576 2834,1779 2636,1785 "/>
   <polygon class="fil2" points="2636,1785 2502,1846 2834,1779 "/>
   <polygon class="fil3" points="2502,1846 2834,1779 2701,1862 "/>
   <polygon class="fil2" points="2502,1846 2701,1862 2689,2047 "/>
   <polyline class="fil0" points="2502,1846 2379,2106 2495,2038 2502,1846 2689,2047 2495,2038 2379,2106 2689,2047 2379,2106 2562,2127 2689,2047 2379,2106 2562,2127 2566,2282 2379,2106 2566,2282 2391,2279 2379,2106 2391,2279 2272,2350 2566,2282 2391,2279 2272,2350 2566,2282 2456,2360 2272,2350 2566,2282 2498,2419 2358,2419 2272,2350 2391,2279 2566,2282 2272,2350 "/>
   <polygon class="fil1" points="2379,2106 2391,2279 2272,2350 "/>
   <polygon class="fil2" points="2379,2106 2562,2127 2566,2282 "/>
   <polygon class="fil2" points="2272,2350 2391,2279 2566,2282 "/>
   <polygon class="fil2" points="2449,2419 2456,2360 2272,2350 2358,2419 "/>
   <polygon class="fil3" points="2502,1846 2689,2047 2495,2038 "/>
   <polygon class="fil3" points="2379,2106 2689,2047 2562,2127 "/>
   <polygon class="fil3" points="2379,2106 2566,2282 2391,2279 "/>
   <polygon class="fil3" points="2272,2350 2566,2282 2456,2360 "/>
   <polygon class="fil0" points="3203,881 3133,972 2955,881 "/>
   <polygon class="fil2" points="2955,881 3133,972 3172,1143 "/>
   <polygon class="fil1" points="3203,881 3133,972 3172,1143 3203,1077 "/>
   <polygon class="fil1" points="3172,1143 2994,1469 3004,1248 "/>
   <polygon class="fil1" points="2994,1469 2834,1779 2844,1574 "/>
   <polygon class="fil1" points="2834,1779 2689,2047 2701,1862 "/>
   <polygon class="fil1" points="2689,2047 2566,2282 2562,2127 "/>
   <polygon class="fil1" points="2566,2282 2498,2419 2449,2419 2456,2360 "/>
   <polygon class="fil3" points="3203,1077 3203,1180 3172,1143 "/>
   <polygon class="fil2" points="3172,1143 3157,1375 2994,1469 "/>
   <polygon class="fil2" points="2994,1469 2997,1682 2834,1779 "/>
   <polygon class="fil2" points="2834,1779 2847,1966 2689,2047 "/>
   <polygon class="fil2" points="2689,2047 2686,2233 2566,2282 "/>
   <polygon class="fil2" points="2566,2282 2566,2419 2498,2419 "/>
   <polygon class="fil1" points="3172,1143 3203,1180 3203,1375 3157,1375 "/>
   <polygon class="fil3" points="3203,1375 3203,1422 2994,1469 3157,1375 "/>
   <polygon class="fil1" points="3203,1422 3203,1473 2994,1469 "/>
   <polygon class="fil3" points="3203,1473 3203,1702 2994,1469 "/>
   <polygon class="fil1" points="3203,1702 2997,1682 2994,1469 "/>
   <polygon class="fil3" points="2834,1779 2997,1682 3203,1702 "/>
   <polygon class="fil1" points="2834,1779 3203,1702 3047,1790 "/>
   <polygon class="fil2" points="3203,1702 3025,1977 3047,1790 "/>
   <polygon class="fil3" points="3025,1977 2834,1779 3047,1790 "/>
   <polygon class="fil1" points="2834,1779 3025,1977 2847,1966 "/>
   <polygon class="fil3" points="2689,2047 2847,1966 3025,1977 "/>
   <polygon class="fil1" points="2689,2047 2904,2059 3025,1977 "/>
   <polygon class="fil3" points="2689,2047 2904,2059 2883,2216 "/>
   <polygon class="fil2" points="2904,2059 2883,2216 3025,1977 "/>
   <polygon class="fil1" points="2689,2047 2883,2216 2686,2233 "/>
   <polygon class="fil3" points="2566,2282 2686,2233 2883,2216 "/>
   <polygon class="fil1" points="2566,2282 2754,2306 2883,2216 "/>
   <polygon class="fil3" points="2566,2282 2754,2306 2736,2419 2706,2419 "/>
   <polygon class="fil2" points="2754,2306 2883,2216 2772,2419 2736,2419 "/>
   <polygon class="fil1" points="2566,2419 2706,2419 2566,2282 "/>
   <polygon class="fil1" points="2883,2216 2874,2419 2772,2419 "/>
   <polygon class="fil1" points="3203,1702 3203,1902 3025,1977 "/>
   <polygon class="fil3" points="3203,1902 3203,1977 3025,1977 "/>
   <polygon class="fil2" points="3203,1978 3203,2155 3025,1977 "/>
   <polygon class="fil3" points="3203,2155 3016,2170 3025,1977 "/>
   <polygon class="fil1" points="3025,1977 2883,2216 3016,2170 "/>
   <polygon class="fil2" points="2883,2216 3016,2170 3203,2155 "/>
   <polygon class="fil3" points="2883,2216 3061,2231 3203,2155 "/>
   <polygon class="fil2" points="2883,2216 3057,2387 3061,2231 "/>
   <polygon class="fil3" points="2883,2216 2874,2419 3057,2386 "/>
   <polygon class="fil2" points="3057,2386 3084,2419 2874,2419 "/>
   <polygon class="fil1" points="3057,2386 3203,2183 3203,2155 3061,2231 "/>
   <polygon class="fil3" points="3057,2386 3203,2344 3203,2178 "/>
   <polygon class="fil1" points="3203,2387 3203,2344 3057,2386 "/>
   <polygon class="fil3" points="3203,2387 3203,2419 3084,2419 3057,2386 "/>
   <polygon class="fil1" points="372,1 374,502 0,76 0,1 "/>
   <polygon class="fil3" points="0,76 374,502 0,269 "/>
   <polygon class="fil2" points="0,269 0,557 374,502 "/>
   <polygon class="fil3" points="0,557 0,674 374,502 "/>
   <polygon class="fil1" points="0,674 374,502 357,1082 0,731 "/>
   <polygon class="fil2" points="0,731 0,900 357,1082 "/>
   <polygon class="fil3" points="0,900 0,1068 357,1082 "/>
   <polygon class="fil2" points="0,1068 0,1155 357,1082 "/>
   <polygon class="fil3" points="0,1155 0,1250 357,1082 "/>
   <polygon class="fil1" points="0,1250 357,1082 355,1561 0,1269 "/>
   <polygon class="fil2" points="0,1269 0,1414 355,1561 "/>
   <polygon class="fil3" points="0,1414 0,1572 355,1561 "/>
   <polygon class="fil2" points="0,1572 0,1640 355,1561 "/>
   <polygon class="fil3" points="0,1640 0,1735 355,1561 "/>
   <polygon class="fil1" points="0,1735 355,1561 351,1966 "/>
   <polygon class="fil2" points="0,1735 0,1861 351,1966 "/>
   <polygon class="fil3" points="0,1861 0,1997 351,1966 "/>
   <polygon class="fil2" points="0,1997 0,2061 351,1966 "/>
   <polygon class="fil3" points="0,2061 0,2148 351,1966 "/>
   <polygon class="fil2" points="0,2148 0,2227 344,2305 58,2118 "/>
   <polygon class="fil1" points="58,2118 351,1966 344,2305 "/>
   <polygon class="fil3" points="0,2227 0,2419 344,2305 "/>
   <polygon class="fil2" points="0,2419 150,2419 344,2305 "/>
   <polygon class="fil1" points="150,2419 341,2419 344,2305 "/>
  </g>
 </g>
</svg>
