<?xml version="1.0" encoding="UTF-8"?>
<!DOCTYPE svg PUBLIC "-//W3C//DTD SVG 1.1//EN" "http://www.w3.org/Graphics/SVG/1.1/DTD/svg11.dtd">
<!-- Creator: CorelDRAW X6 -->
<svg xmlns="http://www.w3.org/2000/svg" xml:space="preserve" width="64.096mm" height="64.096mm" version="1.1" style="shape-rendering:geometricPrecision; text-rendering:geometricPrecision; image-rendering:optimizeQuality; fill-rule:evenodd; clip-rule:evenodd"
viewBox="0 0 27825 27825"
 xmlns:xlink="http://www.w3.org/1999/xlink">
 <defs>
  <style type="text/css">
   <![CDATA[
    .fil2 {fill:#1FFED6}
    .fil1 {fill:#FFF164}
    .fil0 {fill:#E646B6}
   ]]>
  </style>
 </defs>
 <g id="Layer_x0020_1">
  <metadata id="CorelCorpID_0Corel-Layer"/>
  <g id="_1036189096">
   <rect class="fil0" width="4432" height="4432"/>
   <rect class="fil1" x="123" y="123" width="4186" height="4186"/>
   <rect class="fil2" x="246" y="246" width="3940" height="3940"/>
   <rect class="fil0" x="369" y="369" width="3694" height="3694"/>
   <rect class="fil1" x="492" y="492" width="3447" height="3447"/>
   <rect class="fil2" x="616" y="616" width="3201" height="3201"/>
   <rect class="fil0" x="739" y="739" width="2955" height="2955"/>
   <rect class="fil1" x="862" y="862" width="2709" height="2709"/>
   <rect class="fil2" x="985" y="985" width="2462" height="2462"/>
   <rect class="fil0" x="1108" y="1108" width="2216" height="2216"/>
   <rect class="fil1" x="1231" y="1231" width="1970" height="1970"/>
   <rect class="fil2" x="1354" y="1354" width="1724" height="1724"/>
   <rect class="fil0" x="1477" y="1477" width="1477" height="1477"/>
   <rect class="fil1" x="1601" y="1601" width="1231" height="1231"/>
   <rect class="fil2" x="1724" y="1724" width="985" height="985"/>
  </g>
  <g id="_1036193896">
   <rect class="fil0" x="4679" width="4432" height="4432"/>
   <rect class="fil1" x="4802" y="123" width="4186" height="4186"/>
   <rect class="fil2" x="4925" y="246" width="3940" height="3940"/>
   <rect class="fil0" x="5048" y="369" width="3694" height="3694"/>
   <rect class="fil1" x="5171" y="492" width="3447" height="3447"/>
   <rect class="fil2" x="5294" y="616" width="3201" height="3201"/>
   <rect class="fil0" x="5417" y="739" width="2955" height="2955"/>
   <rect class="fil1" x="5540" y="862" width="2709" height="2709"/>
   <rect class="fil2" x="5663" y="985" width="2462" height="2462"/>
   <rect class="fil0" x="5787" y="1108" width="2216" height="2216"/>
   <rect class="fil1" x="5910" y="1231" width="1970" height="1970"/>
   <rect class="fil2" x="6033" y="1354" width="1724" height="1724"/>
   <rect class="fil0" x="6156" y="1477" width="1477" height="1477"/>
   <rect class="fil1" x="6279" y="1601" width="1231" height="1231"/>
   <rect class="fil2" x="6402" y="1724" width="985" height="985"/>
  </g>
  <g id="_1036165408">
   <rect class="fil0" x="9357" width="4432" height="4432"/>
   <rect class="fil1" x="9480" y="123" width="4186" height="4186"/>
   <rect class="fil2" x="9603" y="246" width="3940" height="3940"/>
   <rect class="fil0" x="9726" y="369" width="3694" height="3694"/>
   <rect class="fil1" x="9850" y="492" width="3447" height="3447"/>
   <rect class="fil2" x="9973" y="616" width="3201" height="3201"/>
   <rect class="fil0" x="10096" y="739" width="2955" height="2955"/>
   <rect class="fil1" x="10219" y="862" width="2709" height="2709"/>
   <rect class="fil2" x="10342" y="985" width="2462" height="2462"/>
   <rect class="fil0" x="10465" y="1108" width="2216" height="2216"/>
   <rect class="fil1" x="10588" y="1231" width="1970" height="1970"/>
   <rect class="fil2" x="10711" y="1354" width="1724" height="1724"/>
   <rect class="fil0" x="10834" y="1477" width="1477" height="1477"/>
   <rect class="fil1" x="10958" y="1601" width="1231" height="1231"/>
   <rect class="fil2" x="11081" y="1724" width="985" height="985"/>
  </g>
  <g id="_1046451416">
   <rect class="fil0" x="14036" width="4432" height="4432"/>
   <rect class="fil1" x="14159" y="123" width="4186" height="4186"/>
   <rect class="fil2" x="14282" y="246" width="3940" height="3940"/>
   <rect class="fil0" x="14405" y="369" width="3694" height="3694"/>
   <rect class="fil1" x="14528" y="492" width="3447" height="3447"/>
   <rect class="fil2" x="14651" y="616" width="3201" height="3201"/>
   <rect class="fil0" x="14774" y="739" width="2955" height="2955"/>
   <rect class="fil1" x="14897" y="862" width="2709" height="2709"/>
   <rect class="fil2" x="15021" y="985" width="2462" height="2462"/>
   <rect class="fil0" x="15144" y="1108" width="2216" height="2216"/>
   <rect class="fil1" x="15267" y="1231" width="1970" height="1970"/>
   <rect class="fil2" x="15390" y="1354" width="1724" height="1724"/>
   <rect class="fil0" x="15513" y="1477" width="1477" height="1477"/>
   <rect class="fil1" x="15636" y="1601" width="1231" height="1231"/>
   <rect class="fil2" x="15759" y="1724" width="985" height="985"/>
  </g>
  <g id="_1046434304">
   <rect class="fil0" x="18714" width="4432" height="4432"/>
   <rect class="fil1" x="18837" y="123" width="4186" height="4186"/>
   <rect class="fil2" x="18960" y="246" width="3940" height="3940"/>
   <rect class="fil0" x="19083" y="369" width="3694" height="3694"/>
   <rect class="fil1" x="19207" y="492" width="3447" height="3447"/>
   <rect class="fil2" x="19330" y="616" width="3201" height="3201"/>
   <rect class="fil0" x="19453" y="739" width="2955" height="2955"/>
   <rect class="fil1" x="19576" y="862" width="2709" height="2709"/>
   <rect class="fil2" x="19699" y="985" width="2462" height="2462"/>
   <rect class="fil0" x="19822" y="1108" width="2216" height="2216"/>
   <rect class="fil1" x="19945" y="1231" width="1970" height="1970"/>
   <rect class="fil2" x="20068" y="1354" width="1724" height="1724"/>
   <rect class="fil0" x="20192" y="1477" width="1477" height="1477"/>
   <rect class="fil1" x="20315" y="1601" width="1231" height="1231"/>
   <rect class="fil2" x="20438" y="1724" width="985" height="985"/>
  </g>
  <g id="_380988712">
   <rect class="fil0" x="23393" width="4432" height="4432"/>
   <rect class="fil1" x="23516" y="123" width="4186" height="4186"/>
   <rect class="fil2" x="23639" y="246" width="3940" height="3940"/>
   <rect class="fil0" x="23762" y="369" width="3694" height="3694"/>
   <rect class="fil1" x="23885" y="492" width="3447" height="3447"/>
   <rect class="fil2" x="24008" y="616" width="3201" height="3201"/>
   <rect class="fil0" x="24131" y="739" width="2955" height="2955"/>
   <rect class="fil1" x="24254" y="862" width="2709" height="2709"/>
   <rect class="fil2" x="24378" y="985" width="2462" height="2462"/>
   <rect class="fil0" x="24501" y="1108" width="2216" height="2216"/>
   <rect class="fil1" x="24624" y="1231" width="1970" height="1970"/>
   <rect class="fil2" x="24747" y="1354" width="1724" height="1724"/>
   <rect class="fil0" x="24870" y="1477" width="1477" height="1477"/>
   <rect class="fil1" x="24993" y="1601" width="1231" height="1231"/>
   <rect class="fil2" x="25116" y="1724" width="985" height="985"/>
  </g>
  <g id="_202808704">
   <rect class="fil0" y="4679" width="4432" height="4432"/>
   <rect class="fil1" x="123" y="4802" width="4186" height="4186"/>
   <rect class="fil2" x="246" y="4925" width="3940" height="3940"/>
   <rect class="fil0" x="369" y="5048" width="3694" height="3694"/>
   <rect class="fil1" x="492" y="5171" width="3447" height="3447"/>
   <rect class="fil2" x="616" y="5294" width="3201" height="3201"/>
   <rect class="fil0" x="739" y="5417" width="2955" height="2955"/>
   <rect class="fil1" x="862" y="5540" width="2709" height="2709"/>
   <rect class="fil2" x="985" y="5663" width="2462" height="2462"/>
   <rect class="fil0" x="1108" y="5787" width="2216" height="2216"/>
   <rect class="fil1" x="1231" y="5910" width="1970" height="1970"/>
   <rect class="fil2" x="1354" y="6033" width="1724" height="1724"/>
   <rect class="fil0" x="1477" y="6156" width="1477" height="1477"/>
   <rect class="fil1" x="1601" y="6279" width="1231" height="1231"/>
   <rect class="fil2" x="1724" y="6402" width="985" height="985"/>
  </g>
  <g id="_199775432">
   <rect class="fil0" x="4679" y="4679" width="4432" height="4432"/>
   <rect class="fil1" x="4802" y="4802" width="4186" height="4186"/>
   <rect class="fil2" x="4925" y="4925" width="3940" height="3940"/>
   <rect class="fil0" x="5048" y="5048" width="3694" height="3694"/>
   <rect class="fil1" x="5171" y="5171" width="3447" height="3447"/>
   <rect class="fil2" x="5294" y="5294" width="3201" height="3201"/>
   <rect class="fil0" x="5417" y="5417" width="2955" height="2955"/>
   <rect class="fil1" x="5540" y="5540" width="2709" height="2709"/>
   <rect class="fil2" x="5663" y="5663" width="2462" height="2462"/>
   <rect class="fil0" x="5787" y="5787" width="2216" height="2216"/>
   <rect class="fil1" x="5910" y="5910" width="1970" height="1970"/>
   <rect class="fil2" x="6033" y="6033" width="1724" height="1724"/>
   <rect class="fil0" x="6156" y="6156" width="1477" height="1477"/>
   <rect class="fil1" x="6279" y="6279" width="1231" height="1231"/>
   <rect class="fil2" x="6402" y="6402" width="985" height="985"/>
  </g>
  <g id="_277100368">
   <rect class="fil0" x="9357" y="4679" width="4432" height="4432"/>
   <rect class="fil1" x="9480" y="4802" width="4186" height="4186"/>
   <rect class="fil2" x="9603" y="4925" width="3940" height="3940"/>
   <rect class="fil0" x="9726" y="5048" width="3694" height="3694"/>
   <rect class="fil1" x="9850" y="5171" width="3447" height="3447"/>
   <rect class="fil2" x="9973" y="5294" width="3201" height="3201"/>
   <rect class="fil0" x="10096" y="5417" width="2955" height="2955"/>
   <rect class="fil1" x="10219" y="5540" width="2709" height="2709"/>
   <rect class="fil2" x="10342" y="5663" width="2462" height="2462"/>
   <rect class="fil0" x="10465" y="5787" width="2216" height="2216"/>
   <rect class="fil1" x="10588" y="5910" width="1970" height="1970"/>
   <rect class="fil2" x="10711" y="6033" width="1724" height="1724"/>
   <rect class="fil0" x="10834" y="6156" width="1477" height="1477"/>
   <rect class="fil1" x="10958" y="6279" width="1231" height="1231"/>
   <rect class="fil2" x="11081" y="6402" width="985" height="985"/>
  </g>
  <g id="_277104136">
   <rect class="fil0" x="14036" y="4679" width="4432" height="4432"/>
   <rect class="fil1" x="14159" y="4802" width="4186" height="4186"/>
   <rect class="fil2" x="14282" y="4925" width="3940" height="3940"/>
   <rect class="fil0" x="14405" y="5048" width="3694" height="3694"/>
   <rect class="fil1" x="14528" y="5171" width="3447" height="3447"/>
   <rect class="fil2" x="14651" y="5294" width="3201" height="3201"/>
   <rect class="fil0" x="14774" y="5417" width="2955" height="2955"/>
   <rect class="fil1" x="14897" y="5540" width="2709" height="2709"/>
   <rect class="fil2" x="15021" y="5663" width="2462" height="2462"/>
   <rect class="fil0" x="15144" y="5787" width="2216" height="2216"/>
   <rect class="fil1" x="15267" y="5910" width="1970" height="1970"/>
   <rect class="fil2" x="15390" y="6033" width="1724" height="1724"/>
   <rect class="fil0" x="15513" y="6156" width="1477" height="1477"/>
   <rect class="fil1" x="15636" y="6279" width="1231" height="1231"/>
   <rect class="fil2" x="15759" y="6402" width="985" height="985"/>
  </g>
  <g id="_277109416">
   <rect class="fil0" x="18714" y="4679" width="4432" height="4432"/>
   <rect class="fil1" x="18837" y="4802" width="4186" height="4186"/>
   <rect class="fil2" x="18960" y="4925" width="3940" height="3940"/>
   <rect class="fil0" x="19083" y="5048" width="3694" height="3694"/>
   <rect class="fil1" x="19207" y="5171" width="3447" height="3447"/>
   <rect class="fil2" x="19330" y="5294" width="3201" height="3201"/>
   <rect class="fil0" x="19453" y="5417" width="2955" height="2955"/>
   <rect class="fil1" x="19576" y="5540" width="2709" height="2709"/>
   <rect class="fil2" x="19699" y="5663" width="2462" height="2462"/>
   <rect class="fil0" x="19822" y="5787" width="2216" height="2216"/>
   <rect class="fil1" x="19945" y="5910" width="1970" height="1970"/>
   <rect class="fil2" x="20068" y="6033" width="1724" height="1724"/>
   <rect class="fil0" x="20192" y="6156" width="1477" height="1477"/>
   <rect class="fil1" x="20315" y="6279" width="1231" height="1231"/>
   <rect class="fil2" x="20438" y="6402" width="985" height="985"/>
  </g>
  <g id="_277113040">
   <rect class="fil0" x="23393" y="4679" width="4432" height="4432"/>
   <rect class="fil1" x="23516" y="4802" width="4186" height="4186"/>
   <rect class="fil2" x="23639" y="4925" width="3940" height="3940"/>
   <rect class="fil0" x="23762" y="5048" width="3694" height="3694"/>
   <rect class="fil1" x="23885" y="5171" width="3447" height="3447"/>
   <rect class="fil2" x="24008" y="5294" width="3201" height="3201"/>
   <rect class="fil0" x="24131" y="5417" width="2955" height="2955"/>
   <rect class="fil1" x="24254" y="5540" width="2709" height="2709"/>
   <rect class="fil2" x="24378" y="5663" width="2462" height="2462"/>
   <rect class="fil0" x="24501" y="5787" width="2216" height="2216"/>
   <rect class="fil1" x="24624" y="5910" width="1970" height="1970"/>
   <rect class="fil2" x="24747" y="6033" width="1724" height="1724"/>
   <rect class="fil0" x="24870" y="6156" width="1477" height="1477"/>
   <rect class="fil1" x="24993" y="6279" width="1231" height="1231"/>
   <rect class="fil2" x="25116" y="6402" width="985" height="985"/>
  </g>
  <g id="_277116712">
   <rect class="fil0" y="9357" width="4432" height="4432"/>
   <rect class="fil1" x="123" y="9480" width="4186" height="4186"/>
   <rect class="fil2" x="246" y="9603" width="3940" height="3940"/>
   <rect class="fil0" x="369" y="9726" width="3694" height="3694"/>
   <rect class="fil1" x="492" y="9850" width="3447" height="3447"/>
   <rect class="fil2" x="616" y="9973" width="3201" height="3201"/>
   <rect class="fil0" x="739" y="10096" width="2955" height="2955"/>
   <rect class="fil1" x="862" y="10219" width="2709" height="2709"/>
   <rect class="fil2" x="985" y="10342" width="2462" height="2462"/>
   <rect class="fil0" x="1108" y="10465" width="2216" height="2216"/>
   <rect class="fil1" x="1231" y="10588" width="1970" height="1970"/>
   <rect class="fil2" x="1354" y="10711" width="1724" height="1724"/>
   <rect class="fil0" x="1477" y="10834" width="1477" height="1477"/>
   <rect class="fil1" x="1601" y="10958" width="1231" height="1231"/>
   <rect class="fil2" x="1724" y="11081" width="985" height="985"/>
  </g>
  <g id="_277121320">
   <rect class="fil0" x="4679" y="9357" width="4432" height="4432"/>
   <rect class="fil1" x="4802" y="9480" width="4186" height="4186"/>
   <rect class="fil2" x="4925" y="9603" width="3940" height="3940"/>
   <rect class="fil0" x="5048" y="9726" width="3694" height="3694"/>
   <rect class="fil1" x="5171" y="9850" width="3447" height="3447"/>
   <rect class="fil2" x="5294" y="9973" width="3201" height="3201"/>
   <rect class="fil0" x="5417" y="10096" width="2955" height="2955"/>
   <rect class="fil1" x="5540" y="10219" width="2709" height="2709"/>
   <rect class="fil2" x="5663" y="10342" width="2462" height="2462"/>
   <rect class="fil0" x="5787" y="10465" width="2216" height="2216"/>
   <rect class="fil1" x="5910" y="10588" width="1970" height="1970"/>
   <rect class="fil2" x="6033" y="10711" width="1724" height="1724"/>
   <rect class="fil0" x="6156" y="10834" width="1477" height="1477"/>
   <rect class="fil1" x="6279" y="10958" width="1231" height="1231"/>
   <rect class="fil2" x="6402" y="11081" width="985" height="985"/>
  </g>
  <g id="_277124848">
   <rect class="fil0" x="9357" y="9357" width="4432" height="4432"/>
   <rect class="fil1" x="9480" y="9480" width="4186" height="4186"/>
   <rect class="fil2" x="9603" y="9603" width="3940" height="3940"/>
   <rect class="fil0" x="9726" y="9726" width="3694" height="3694"/>
   <rect class="fil1" x="9850" y="9850" width="3447" height="3447"/>
   <rect class="fil2" x="9973" y="9973" width="3201" height="3201"/>
   <rect class="fil0" x="10096" y="10096" width="2955" height="2955"/>
   <rect class="fil1" x="10219" y="10219" width="2709" height="2709"/>
   <rect class="fil2" x="10342" y="10342" width="2462" height="2462"/>
   <rect class="fil0" x="10465" y="10465" width="2216" height="2216"/>
   <rect class="fil1" x="10588" y="10588" width="1970" height="1970"/>
   <rect class="fil2" x="10711" y="10711" width="1724" height="1724"/>
   <rect class="fil0" x="10834" y="10834" width="1477" height="1477"/>
   <rect class="fil1" x="10958" y="10958" width="1231" height="1231"/>
   <rect class="fil2" x="11081" y="11081" width="985" height="985"/>
  </g>
  <g id="_277129336">
   <rect class="fil0" x="14036" y="9357" width="4432" height="4432"/>
   <rect class="fil1" x="14159" y="9480" width="4186" height="4186"/>
   <rect class="fil2" x="14282" y="9603" width="3940" height="3940"/>
   <rect class="fil0" x="14405" y="9726" width="3694" height="3694"/>
   <rect class="fil1" x="14528" y="9850" width="3447" height="3447"/>
   <rect class="fil2" x="14651" y="9973" width="3201" height="3201"/>
   <rect class="fil0" x="14774" y="10096" width="2955" height="2955"/>
   <rect class="fil1" x="14897" y="10219" width="2709" height="2709"/>
   <rect class="fil2" x="15021" y="10342" width="2462" height="2462"/>
   <rect class="fil0" x="15144" y="10465" width="2216" height="2216"/>
   <rect class="fil1" x="15267" y="10588" width="1970" height="1970"/>
   <rect class="fil2" x="15390" y="10711" width="1724" height="1724"/>
   <rect class="fil0" x="15513" y="10834" width="1477" height="1477"/>
   <rect class="fil1" x="15636" y="10958" width="1231" height="1231"/>
   <rect class="fil2" x="15759" y="11081" width="985" height="985"/>
  </g>
  <g id="_288543552">
   <rect class="fil0" x="18714" y="9357" width="4432" height="4432"/>
   <rect class="fil1" x="18837" y="9480" width="4186" height="4186"/>
   <rect class="fil2" x="18960" y="9603" width="3940" height="3940"/>
   <rect class="fil0" x="19083" y="9726" width="3694" height="3694"/>
   <rect class="fil1" x="19207" y="9850" width="3447" height="3447"/>
   <rect class="fil2" x="19330" y="9973" width="3201" height="3201"/>
   <rect class="fil0" x="19453" y="10096" width="2955" height="2955"/>
   <rect class="fil1" x="19576" y="10219" width="2709" height="2709"/>
   <rect class="fil2" x="19699" y="10342" width="2462" height="2462"/>
   <rect class="fil0" x="19822" y="10465" width="2216" height="2216"/>
   <rect class="fil1" x="19945" y="10588" width="1970" height="1970"/>
   <rect class="fil2" x="20068" y="10711" width="1724" height="1724"/>
   <rect class="fil0" x="20192" y="10834" width="1477" height="1477"/>
   <rect class="fil1" x="20315" y="10958" width="1231" height="1231"/>
   <rect class="fil2" x="20438" y="11081" width="985" height="985"/>
  </g>
  <g id="_288547344">
   <rect class="fil0" x="23393" y="9357" width="4432" height="4432"/>
   <rect class="fil1" x="23516" y="9480" width="4186" height="4186"/>
   <rect class="fil2" x="23639" y="9603" width="3940" height="3940"/>
   <rect class="fil0" x="23762" y="9726" width="3694" height="3694"/>
   <rect class="fil1" x="23885" y="9850" width="3447" height="3447"/>
   <rect class="fil2" x="24008" y="9973" width="3201" height="3201"/>
   <rect class="fil0" x="24131" y="10096" width="2955" height="2955"/>
   <rect class="fil1" x="24254" y="10219" width="2709" height="2709"/>
   <rect class="fil2" x="24378" y="10342" width="2462" height="2462"/>
   <rect class="fil0" x="24501" y="10465" width="2216" height="2216"/>
   <rect class="fil1" x="24624" y="10588" width="1970" height="1970"/>
   <rect class="fil2" x="24747" y="10711" width="1724" height="1724"/>
   <rect class="fil0" x="24870" y="10834" width="1477" height="1477"/>
   <rect class="fil1" x="24993" y="10958" width="1231" height="1231"/>
   <rect class="fil2" x="25116" y="11081" width="985" height="985"/>
  </g>
  <g id="_288551424">
   <rect class="fil0" y="14036" width="4432" height="4432"/>
   <rect class="fil1" x="123" y="14159" width="4186" height="4186"/>
   <rect class="fil2" x="246" y="14282" width="3940" height="3940"/>
   <rect class="fil0" x="369" y="14405" width="3694" height="3694"/>
   <rect class="fil1" x="492" y="14528" width="3447" height="3447"/>
   <rect class="fil2" x="616" y="14651" width="3201" height="3201"/>
   <rect class="fil0" x="739" y="14774" width="2955" height="2955"/>
   <rect class="fil1" x="862" y="14897" width="2709" height="2709"/>
   <rect class="fil2" x="985" y="15021" width="2462" height="2462"/>
   <rect class="fil0" x="1108" y="15144" width="2216" height="2216"/>
   <rect class="fil1" x="1231" y="15267" width="1970" height="1970"/>
   <rect class="fil2" x="1354" y="15390" width="1724" height="1724"/>
   <rect class="fil0" x="1477" y="15513" width="1477" height="1477"/>
   <rect class="fil1" x="1601" y="15636" width="1231" height="1231"/>
   <rect class="fil2" x="1724" y="15759" width="985" height="985"/>
  </g>
  <g id="_288555456">
   <rect class="fil0" x="4679" y="14036" width="4432" height="4432"/>
   <rect class="fil1" x="4802" y="14159" width="4186" height="4186"/>
   <rect class="fil2" x="4925" y="14282" width="3940" height="3940"/>
   <rect class="fil0" x="5048" y="14405" width="3694" height="3694"/>
   <rect class="fil1" x="5171" y="14528" width="3447" height="3447"/>
   <rect class="fil2" x="5294" y="14651" width="3201" height="3201"/>
   <rect class="fil0" x="5417" y="14774" width="2955" height="2955"/>
   <rect class="fil1" x="5540" y="14897" width="2709" height="2709"/>
   <rect class="fil2" x="5663" y="15021" width="2462" height="2462"/>
   <rect class="fil0" x="5787" y="15144" width="2216" height="2216"/>
   <rect class="fil1" x="5910" y="15267" width="1970" height="1970"/>
   <rect class="fil2" x="6033" y="15390" width="1724" height="1724"/>
   <rect class="fil0" x="6156" y="15513" width="1477" height="1477"/>
   <rect class="fil1" x="6279" y="15636" width="1231" height="1231"/>
   <rect class="fil2" x="6402" y="15759" width="985" height="985"/>
  </g>
  <g id="_288559704">
   <rect class="fil0" x="9357" y="14036" width="4432" height="4432"/>
   <rect class="fil1" x="9480" y="14159" width="4186" height="4186"/>
   <rect class="fil2" x="9603" y="14282" width="3940" height="3940"/>
   <rect class="fil0" x="9726" y="14405" width="3694" height="3694"/>
   <rect class="fil1" x="9850" y="14528" width="3447" height="3447"/>
   <rect class="fil2" x="9973" y="14651" width="3201" height="3201"/>
   <rect class="fil0" x="10096" y="14774" width="2955" height="2955"/>
   <rect class="fil1" x="10219" y="14897" width="2709" height="2709"/>
   <rect class="fil2" x="10342" y="15021" width="2462" height="2462"/>
   <rect class="fil0" x="10465" y="15144" width="2216" height="2216"/>
   <rect class="fil1" x="10588" y="15267" width="1970" height="1970"/>
   <rect class="fil2" x="10711" y="15390" width="1724" height="1724"/>
   <rect class="fil0" x="10834" y="15513" width="1477" height="1477"/>
   <rect class="fil1" x="10958" y="15636" width="1231" height="1231"/>
   <rect class="fil2" x="11081" y="15759" width="985" height="985"/>
  </g>
  <g id="_288563424">
   <rect class="fil0" x="14036" y="14036" width="4432" height="4432"/>
   <rect class="fil1" x="14159" y="14159" width="4186" height="4186"/>
   <rect class="fil2" x="14282" y="14282" width="3940" height="3940"/>
   <rect class="fil0" x="14405" y="14405" width="3694" height="3694"/>
   <rect class="fil1" x="14528" y="14528" width="3447" height="3447"/>
   <rect class="fil2" x="14651" y="14651" width="3201" height="3201"/>
   <rect class="fil0" x="14774" y="14774" width="2955" height="2955"/>
   <rect class="fil1" x="14897" y="14897" width="2709" height="2709"/>
   <rect class="fil2" x="15021" y="15021" width="2462" height="2462"/>
   <rect class="fil0" x="15144" y="15144" width="2216" height="2216"/>
   <rect class="fil1" x="15267" y="15267" width="1970" height="1970"/>
   <rect class="fil2" x="15390" y="15390" width="1724" height="1724"/>
   <rect class="fil0" x="15513" y="15513" width="1477" height="1477"/>
   <rect class="fil1" x="15636" y="15636" width="1231" height="1231"/>
   <rect class="fil2" x="15759" y="15759" width="985" height="985"/>
  </g>
  <g id="_288567600">
   <rect class="fil0" x="18714" y="14036" width="4432" height="4432"/>
   <rect class="fil1" x="18837" y="14159" width="4186" height="4186"/>
   <rect class="fil2" x="18960" y="14282" width="3940" height="3940"/>
   <rect class="fil0" x="19083" y="14405" width="3694" height="3694"/>
   <rect class="fil1" x="19207" y="14528" width="3447" height="3447"/>
   <rect class="fil2" x="19330" y="14651" width="3201" height="3201"/>
   <rect class="fil0" x="19453" y="14774" width="2955" height="2955"/>
   <rect class="fil1" x="19576" y="14897" width="2709" height="2709"/>
   <rect class="fil2" x="19699" y="15021" width="2462" height="2462"/>
   <rect class="fil0" x="19822" y="15144" width="2216" height="2216"/>
   <rect class="fil1" x="19945" y="15267" width="1970" height="1970"/>
   <rect class="fil2" x="20068" y="15390" width="1724" height="1724"/>
   <rect class="fil0" x="20192" y="15513" width="1477" height="1477"/>
   <rect class="fil1" x="20315" y="15636" width="1231" height="1231"/>
   <rect class="fil2" x="20438" y="15759" width="985" height="985"/>
  </g>
  <g id="_288571632">
   <rect class="fil0" x="23393" y="14036" width="4432" height="4432"/>
   <rect class="fil1" x="23516" y="14159" width="4186" height="4186"/>
   <rect class="fil2" x="23639" y="14282" width="3940" height="3940"/>
   <rect class="fil0" x="23762" y="14405" width="3694" height="3694"/>
   <rect class="fil1" x="23885" y="14528" width="3447" height="3447"/>
   <rect class="fil2" x="24008" y="14651" width="3201" height="3201"/>
   <rect class="fil0" x="24131" y="14774" width="2955" height="2955"/>
   <rect class="fil1" x="24254" y="14897" width="2709" height="2709"/>
   <rect class="fil2" x="24378" y="15021" width="2462" height="2462"/>
   <rect class="fil0" x="24501" y="15144" width="2216" height="2216"/>
   <rect class="fil1" x="24624" y="15267" width="1970" height="1970"/>
   <rect class="fil2" x="24747" y="15390" width="1724" height="1724"/>
   <rect class="fil0" x="24870" y="15513" width="1477" height="1477"/>
   <rect class="fil1" x="24993" y="15636" width="1231" height="1231"/>
   <rect class="fil2" x="25116" y="15759" width="985" height="985"/>
  </g>
  <g id="_1067334440">
   <rect class="fil0" y="18714" width="4432" height="4432"/>
   <rect class="fil1" x="123" y="18837" width="4186" height="4186"/>
   <rect class="fil2" x="246" y="18960" width="3940" height="3940"/>
   <rect class="fil0" x="369" y="19083" width="3694" height="3694"/>
   <rect class="fil1" x="492" y="19207" width="3447" height="3447"/>
   <rect class="fil2" x="616" y="19330" width="3201" height="3201"/>
   <rect class="fil0" x="739" y="19453" width="2955" height="2955"/>
   <rect class="fil1" x="862" y="19576" width="2709" height="2709"/>
   <rect class="fil2" x="985" y="19699" width="2462" height="2462"/>
   <rect class="fil0" x="1108" y="19822" width="2216" height="2216"/>
   <rect class="fil1" x="1231" y="19945" width="1970" height="1970"/>
   <rect class="fil2" x="1354" y="20068" width="1724" height="1724"/>
   <rect class="fil0" x="1477" y="20192" width="1477" height="1477"/>
   <rect class="fil1" x="1601" y="20315" width="1231" height="1231"/>
   <rect class="fil2" x="1724" y="20438" width="985" height="985"/>
  </g>
  <g id="_1067338376">
   <rect class="fil0" x="4679" y="18714" width="4432" height="4432"/>
   <rect class="fil1" x="4802" y="18837" width="4186" height="4186"/>
   <rect class="fil2" x="4925" y="18960" width="3940" height="3940"/>
   <rect class="fil0" x="5048" y="19083" width="3694" height="3694"/>
   <rect class="fil1" x="5171" y="19207" width="3447" height="3447"/>
   <rect class="fil2" x="5294" y="19330" width="3201" height="3201"/>
   <rect class="fil0" x="5417" y="19453" width="2955" height="2955"/>
   <rect class="fil1" x="5540" y="19576" width="2709" height="2709"/>
   <rect class="fil2" x="5663" y="19699" width="2462" height="2462"/>
   <rect class="fil0" x="5787" y="19822" width="2216" height="2216"/>
   <rect class="fil1" x="5910" y="19945" width="1970" height="1970"/>
   <rect class="fil2" x="6033" y="20068" width="1724" height="1724"/>
   <rect class="fil0" x="6156" y="20192" width="1477" height="1477"/>
   <rect class="fil1" x="6279" y="20315" width="1231" height="1231"/>
   <rect class="fil2" x="6402" y="20438" width="985" height="985"/>
  </g>
  <g id="_1067342288">
   <rect class="fil0" x="9357" y="18714" width="4432" height="4432"/>
   <rect class="fil1" x="9480" y="18837" width="4186" height="4186"/>
   <rect class="fil2" x="9603" y="18960" width="3940" height="3940"/>
   <rect class="fil0" x="9726" y="19083" width="3694" height="3694"/>
   <rect class="fil1" x="9850" y="19207" width="3447" height="3447"/>
   <rect class="fil2" x="9973" y="19330" width="3201" height="3201"/>
   <rect class="fil0" x="10096" y="19453" width="2955" height="2955"/>
   <rect class="fil1" x="10219" y="19576" width="2709" height="2709"/>
   <rect class="fil2" x="10342" y="19699" width="2462" height="2462"/>
   <rect class="fil0" x="10465" y="19822" width="2216" height="2216"/>
   <rect class="fil1" x="10588" y="19945" width="1970" height="1970"/>
   <rect class="fil2" x="10711" y="20068" width="1724" height="1724"/>
   <rect class="fil0" x="10834" y="20192" width="1477" height="1477"/>
   <rect class="fil1" x="10958" y="20315" width="1231" height="1231"/>
   <rect class="fil2" x="11081" y="20438" width="985" height="985"/>
  </g>
  <g id="_1067346728">
   <rect class="fil0" x="14036" y="18714" width="4432" height="4432"/>
   <rect class="fil1" x="14159" y="18837" width="4186" height="4186"/>
   <rect class="fil2" x="14282" y="18960" width="3940" height="3940"/>
   <rect class="fil0" x="14405" y="19083" width="3694" height="3694"/>
   <rect class="fil1" x="14528" y="19207" width="3447" height="3447"/>
   <rect class="fil2" x="14651" y="19330" width="3201" height="3201"/>
   <rect class="fil0" x="14774" y="19453" width="2955" height="2955"/>
   <rect class="fil1" x="14897" y="19576" width="2709" height="2709"/>
   <rect class="fil2" x="15021" y="19699" width="2462" height="2462"/>
   <rect class="fil0" x="15144" y="19822" width="2216" height="2216"/>
   <rect class="fil1" x="15267" y="19945" width="1970" height="1970"/>
   <rect class="fil2" x="15390" y="20068" width="1724" height="1724"/>
   <rect class="fil0" x="15513" y="20192" width="1477" height="1477"/>
   <rect class="fil1" x="15636" y="20315" width="1231" height="1231"/>
   <rect class="fil2" x="15759" y="20438" width="985" height="985"/>
  </g>
  <g id="_1067350496">
   <rect class="fil0" x="18714" y="18714" width="4432" height="4432"/>
   <rect class="fil1" x="18837" y="18837" width="4186" height="4186"/>
   <rect class="fil2" x="18960" y="18960" width="3940" height="3940"/>
   <rect class="fil0" x="19083" y="19083" width="3694" height="3694"/>
   <rect class="fil1" x="19207" y="19207" width="3447" height="3447"/>
   <rect class="fil2" x="19330" y="19330" width="3201" height="3201"/>
   <rect class="fil0" x="19453" y="19453" width="2955" height="2955"/>
   <rect class="fil1" x="19576" y="19576" width="2709" height="2709"/>
   <rect class="fil2" x="19699" y="19699" width="2462" height="2462"/>
   <rect class="fil0" x="19822" y="19822" width="2216" height="2216"/>
   <rect class="fil1" x="19945" y="19945" width="1970" height="1970"/>
   <rect class="fil2" x="20068" y="20068" width="1724" height="1724"/>
   <rect class="fil0" x="20192" y="20192" width="1477" height="1477"/>
   <rect class="fil1" x="20315" y="20315" width="1231" height="1231"/>
   <rect class="fil2" x="20438" y="20438" width="985" height="985"/>
  </g>
  <g id="_1067354552">
   <rect class="fil0" x="23393" y="18714" width="4432" height="4432"/>
   <rect class="fil1" x="23516" y="18837" width="4186" height="4186"/>
   <rect class="fil2" x="23639" y="18960" width="3940" height="3940"/>
   <rect class="fil0" x="23762" y="19083" width="3694" height="3694"/>
   <rect class="fil1" x="23885" y="19207" width="3447" height="3447"/>
   <rect class="fil2" x="24008" y="19330" width="3201" height="3201"/>
   <rect class="fil0" x="24131" y="19453" width="2955" height="2955"/>
   <rect class="fil1" x="24254" y="19576" width="2709" height="2709"/>
   <rect class="fil2" x="24378" y="19699" width="2462" height="2462"/>
   <rect class="fil0" x="24501" y="19822" width="2216" height="2216"/>
   <rect class="fil1" x="24624" y="19945" width="1970" height="1970"/>
   <rect class="fil2" x="24747" y="20068" width="1724" height="1724"/>
   <rect class="fil0" x="24870" y="20192" width="1477" height="1477"/>
   <rect class="fil1" x="24993" y="20315" width="1231" height="1231"/>
   <rect class="fil2" x="25116" y="20438" width="985" height="985"/>
  </g>
  <g id="_1067358704">
   <rect class="fil0" y="23393" width="4432" height="4432"/>
   <rect class="fil1" x="123" y="23516" width="4186" height="4186"/>
   <rect class="fil2" x="246" y="23639" width="3940" height="3940"/>
   <rect class="fil0" x="369" y="23762" width="3694" height="3694"/>
   <rect class="fil1" x="492" y="23885" width="3447" height="3447"/>
   <rect class="fil2" x="616" y="24008" width="3201" height="3201"/>
   <rect class="fil0" x="739" y="24131" width="2955" height="2955"/>
   <rect class="fil1" x="862" y="24254" width="2709" height="2709"/>
   <rect class="fil2" x="985" y="24378" width="2462" height="2462"/>
   <rect class="fil0" x="1108" y="24501" width="2216" height="2216"/>
   <rect class="fil1" x="1231" y="24624" width="1970" height="1970"/>
   <rect class="fil2" x="1354" y="24747" width="1724" height="1724"/>
   <rect class="fil0" x="1477" y="24870" width="1477" height="1477"/>
   <rect class="fil1" x="1601" y="24993" width="1231" height="1231"/>
   <rect class="fil2" x="1724" y="25116" width="985" height="985"/>
  </g>
  <g id="_1067362568">
   <rect class="fil0" x="4679" y="23393" width="4432" height="4432"/>
   <rect class="fil1" x="4802" y="23516" width="4186" height="4186"/>
   <rect class="fil2" x="4925" y="23639" width="3940" height="3940"/>
   <rect class="fil0" x="5048" y="23762" width="3694" height="3694"/>
   <rect class="fil1" x="5171" y="23885" width="3447" height="3447"/>
   <rect class="fil2" x="5294" y="24008" width="3201" height="3201"/>
   <rect class="fil0" x="5417" y="24131" width="2955" height="2955"/>
   <rect class="fil1" x="5540" y="24254" width="2709" height="2709"/>
   <rect class="fil2" x="5663" y="24378" width="2462" height="2462"/>
   <rect class="fil0" x="5787" y="24501" width="2216" height="2216"/>
   <rect class="fil1" x="5910" y="24624" width="1970" height="1970"/>
   <rect class="fil2" x="6033" y="24747" width="1724" height="1724"/>
   <rect class="fil0" x="6156" y="24870" width="1477" height="1477"/>
   <rect class="fil1" x="6279" y="24993" width="1231" height="1231"/>
   <rect class="fil2" x="6402" y="25116" width="985" height="985"/>
  </g>
  <g id="_386054192">
   <rect class="fil0" x="9357" y="23393" width="4432" height="4432"/>
   <rect class="fil1" x="9480" y="23516" width="4186" height="4186"/>
   <rect class="fil2" x="9603" y="23639" width="3940" height="3940"/>
   <rect class="fil0" x="9726" y="23762" width="3694" height="3694"/>
   <rect class="fil1" x="9850" y="23885" width="3447" height="3447"/>
   <rect class="fil2" x="9973" y="24008" width="3201" height="3201"/>
   <rect class="fil0" x="10096" y="24131" width="2955" height="2955"/>
   <rect class="fil1" x="10219" y="24254" width="2709" height="2709"/>
   <rect class="fil2" x="10342" y="24378" width="2462" height="2462"/>
   <rect class="fil0" x="10465" y="24501" width="2216" height="2216"/>
   <rect class="fil1" x="10588" y="24624" width="1970" height="1970"/>
   <rect class="fil2" x="10711" y="24747" width="1724" height="1724"/>
   <rect class="fil0" x="10834" y="24870" width="1477" height="1477"/>
   <rect class="fil1" x="10958" y="24993" width="1231" height="1231"/>
   <rect class="fil2" x="11081" y="25116" width="985" height="985"/>
  </g>
  <g id="_386058080">
   <rect class="fil0" x="14036" y="23393" width="4432" height="4432"/>
   <rect class="fil1" x="14159" y="23516" width="4186" height="4186"/>
   <rect class="fil2" x="14282" y="23639" width="3940" height="3940"/>
   <rect class="fil0" x="14405" y="23762" width="3694" height="3694"/>
   <rect class="fil1" x="14528" y="23885" width="3447" height="3447"/>
   <rect class="fil2" x="14651" y="24008" width="3201" height="3201"/>
   <rect class="fil0" x="14774" y="24131" width="2955" height="2955"/>
   <rect class="fil1" x="14897" y="24254" width="2709" height="2709"/>
   <rect class="fil2" x="15021" y="24378" width="2462" height="2462"/>
   <rect class="fil0" x="15144" y="24501" width="2216" height="2216"/>
   <rect class="fil1" x="15267" y="24624" width="1970" height="1970"/>
   <rect class="fil2" x="15390" y="24747" width="1724" height="1724"/>
   <rect class="fil0" x="15513" y="24870" width="1477" height="1477"/>
   <rect class="fil1" x="15636" y="24993" width="1231" height="1231"/>
   <rect class="fil2" x="15759" y="25116" width="985" height="985"/>
  </g>
  <g id="_386062088">
   <rect class="fil0" x="18714" y="23393" width="4432" height="4432"/>
   <rect class="fil1" x="18837" y="23516" width="4186" height="4186"/>
   <rect class="fil2" x="18960" y="23639" width="3940" height="3940"/>
   <rect class="fil0" x="19083" y="23762" width="3694" height="3694"/>
   <rect class="fil1" x="19207" y="23885" width="3447" height="3447"/>
   <rect class="fil2" x="19330" y="24008" width="3201" height="3201"/>
   <rect class="fil0" x="19453" y="24131" width="2955" height="2955"/>
   <rect class="fil1" x="19576" y="24254" width="2709" height="2709"/>
   <rect class="fil2" x="19699" y="24378" width="2462" height="2462"/>
   <rect class="fil0" x="19822" y="24501" width="2216" height="2216"/>
   <rect class="fil1" x="19945" y="24624" width="1970" height="1970"/>
   <rect class="fil2" x="20068" y="24747" width="1724" height="1724"/>
   <rect class="fil0" x="20192" y="24870" width="1477" height="1477"/>
   <rect class="fil1" x="20315" y="24993" width="1231" height="1231"/>
   <rect class="fil2" x="20438" y="25116" width="985" height="985"/>
  </g>
  <g id="_386066696">
   <rect class="fil0" x="23393" y="23393" width="4432" height="4432"/>
   <rect class="fil1" x="23516" y="23516" width="4186" height="4186"/>
   <rect class="fil2" x="23639" y="23639" width="3940" height="3940"/>
   <rect class="fil0" x="23762" y="23762" width="3694" height="3694"/>
   <rect class="fil1" x="23885" y="23885" width="3447" height="3447"/>
   <rect class="fil2" x="24008" y="24008" width="3201" height="3201"/>
   <rect class="fil0" x="24131" y="24131" width="2955" height="2955"/>
   <rect class="fil1" x="24254" y="24254" width="2709" height="2709"/>
   <rect class="fil2" x="24378" y="24378" width="2462" height="2462"/>
   <rect class="fil0" x="24501" y="24501" width="2216" height="2216"/>
   <rect class="fil1" x="24624" y="24624" width="1970" height="1970"/>
   <rect class="fil2" x="24747" y="24747" width="1724" height="1724"/>
   <rect class="fil0" x="24870" y="24870" width="1477" height="1477"/>
   <rect class="fil1" x="24993" y="24993" width="1231" height="1231"/>
   <rect class="fil2" x="25116" y="25116" width="985" height="985"/>
  </g>
 </g>
</svg>
