<?xml version="1.0" encoding="UTF-8"?>
<!DOCTYPE svg PUBLIC "-//W3C//DTD SVG 1.1//EN" "http://www.w3.org/Graphics/SVG/1.1/DTD/svg11.dtd">
<!-- Creator: CorelDRAW X6 -->
<svg xmlns="http://www.w3.org/2000/svg" xml:space="preserve" width="64.096mm" height="64.096mm" version="1.1" style="shape-rendering:geometricPrecision; text-rendering:geometricPrecision; image-rendering:optimizeQuality; fill-rule:evenodd; clip-rule:evenodd"
viewBox="0 0 2126 2126"
 xmlns:xlink="http://www.w3.org/1999/xlink">
 <defs>
  <style type="text/css">
   <![CDATA[
    .fil2 {fill:#1FFED6; opacity: 0.75;}
    .fil1 {fill:#9933FF; opacity: 0.75;}
    .fil0 {fill:#E646B6; opacity: 0.75;}
   ]]>
  </style>
 </defs>
 <g id="Layer_x0020_1">
  <metadata id="CorelCorpID_0Corel-Layer"/>
  <g id="_283745640">
   <rect class="fil0" width="2126" height="2126"/>
   <rect class="fil1" x="59" y="59" width="2008" height="2008"/>
   <rect class="fil2" x="118" y="118" width="1890" height="1890"/>
   <rect class="fil0" x="177" y="177" width="1771" height="1771"/>
   <rect class="fil1" x="236" y="236" width="1653" height="1653"/>
   <rect class="fil2" x="295" y="295" width="1535" height="1535"/>
   <rect class="fil0" x="354" y="354" width="1417" height="1417"/>
   <rect class="fil1" x="413" y="413" width="1299" height="1299"/>
   <rect class="fil2" x="472" y="472" width="1181" height="1181"/>
   <rect class="fil0" x="531" y="531" width="1063" height="1063"/>
   <rect class="fil1" x="590" y="590" width="945" height="945"/>
   <rect class="fil2" x="650" y="650" width="827" height="827"/>
   <rect class="fil0" x="709" y="709" width="709" height="709"/>
   <rect class="fil1" x="768" y="768" width="590" height="590"/>
   <rect class="fil2" x="827" y="827" width="472" height="472"/>
  </g>
 </g>
</svg>
