<?xml version="1.0" encoding="UTF-8"?>
<!DOCTYPE svg PUBLIC "-//W3C//DTD SVG 1.1//EN" "http://www.w3.org/Graphics/SVG/1.1/DTD/svg11.dtd">
<!-- Creator: CorelDRAW X6 -->
<svg xmlns="http://www.w3.org/2000/svg" xml:space="preserve" width="64.172mm" height="64.172mm" version="1.1" style="shape-rendering:geometricPrecision; text-rendering:geometricPrecision; image-rendering:optimizeQuality; fill-rule:evenodd; clip-rule:evenodd"
viewBox="0 0 6725 6725"
 xmlns:xlink="http://www.w3.org/1999/xlink">
 <defs>
  <style type="text/css">
   <![CDATA[
    .str0 {stroke:#777FFC;stroke-width:7.98501}
    .fil0 {fill:#2E3CFF}
    .fil1 {fill:#FFF164}
    .fil2 {fill:#777FFC}
   ]]>
  </style>
 </defs>
 <g id="Layer_x0020_1">
  <metadata id="CorelCorpID_0Corel-Layer"/>
  <g id="_1036193440">
   <rect class="fil0" x="4" y="4" width="6717" height="6717"/>
   <g>
    <path class="fil1" d="M3049 6617c-33,1 -114,-18 -151,-25l58 -160 151 25 -58 160zm-3044 -6613l290 0c1,13 -3,7 27,18 13,5 25,9 37,13 23,7 50,20 74,24l-2 -53 79 -2 101 0 2 112c3,10 71,28 80,31 26,9 56,21 83,27l-3 -168 79 -2 101 0 0 28 10 -28 330 0c0,14 2,11 32,20l132 39 -2 -56 88 -3 92 0 2 111 151 43 -4 -152 79 -2 101 0 3 201 155 40 -1 -129 -108 -24 20 -88 413 0c32,5 43,2 83,0l100 0 1 36c18,8 123,26 146,29l-1 -63 80 -2 100 0 2 97 148 23 -1 -117 87 -3 92 0c0,30 -1,134 4,147l174 25 -4 -170 79 -2 101 0 3 192 173 18 -2 -208 80 -2 99 0 4 226 174 12 -4 -235 83 -3 0 0 870 0 4 89 -69 4 2 162 173 -4 -2 -248 89 -3 90 0 4 242 173 -10 -3 -230 79 -2 100 0 4 216 174 -16c0,-35 -2,-64 -2,-97 0,-29 -5,-75 0,-101l78 -2 100 0 3 178 156 -20 -4 -155c7,-1 27,-2 52,-3l128 0 2 129c25,3 121,-20 156,-24l-3 -103 79 -2 41 0 0 1523c-2,21 -2,36 -1,42l1 3 0 98 -17 3 -21 161 25 -1 13 79 0 100 -64 9 -25 163 76 -10 13 80 0 99 -117 17c-7,5 -29,147 -30,152l132 -20 4 11c0,3 1,8 1,11l10 59 0 98c-42,10 -150,20 -183,28l-33 157 203 -30 13 72 0 464 -30 123 17 0 13 80 0 98c-25,5 -64,5 -82,13l-39 152 106 -15c3,4 9,37 15,73l0 105 -177 27 -52 179 214 -31 6 29c3,18 2,24 9,29l0 302c-5,16 -7,33 -4,49 1,8 2,16 4,24l0 98 -55 9c-7,9 -58,164 -61,181l103 -14 13 82 0 96 -180 27c-8,12 -57,158 -63,181l149 -22 10 -27c10,0 29,10 42,14 9,2 18,2 23,3 10,3 5,5 18,11l1 0 0 271 -24 66c1,1 2,1 2,1l9 9 10 56c1,6 2,13 3,19l0 98c-5,1 -11,1 -18,2 -25,4 -51,8 -74,12 -2,2 -2,2 -4,6 -11,20 -63,173 -64,176 25,-5 127,-22 147,-20l13 81 0 96 -231 34 -66 181 165 -23c13,-20 37,-108 49,-126l83 31 0 260 -3 4 -90 239 -101 0c-37,-14 -72,-28 -76,-32 9,-28 65,-170 66,-184l-165 21 -72 195 -101 0 -80 -29 52 -143 -142 15c-6,3 -40,102 -60,157l-101 0 -80 -30 40 -111 -141 11c-8,9 -39,100 -48,124l-2 6 -103 0c-35,-13 -69,-26 -76,-32l31 -89 -141 5 -43 116 -101 0 -78 -29c3,-23 28,-64 27,-82l-137 0c-11,20 -27,74 -41,111l-103 0c-37,-15 -74,-29 -77,-32l28 -80 -146 -2 -41 114 -103 0c-38,-15 -74,-29 -77,-32l33 -91c-30,0 -65,-2 -93,-4 -16,-1 -33,-2 -49,-3 -23,-2 -17,-1 -25,21 -12,35 -27,72 -41,109l-101 0 -79 -29 42 -114 -157 -13 -59 156 -100 0 -79 -29 53 -145 -155 -17c-7,20 -49,134 -71,191l-100 0 -80 -30c8,-29 24,-65 35,-94l29 -91 -150 -21 -87 236 -584 0 -115 -22c-2,6 -5,14 -7,22l-101 0c-14,-6 -26,-10 -42,-16 -14,-5 -30,-8 -37,-17l8 -28 -148 -33 -34 94 -102 0 -79 -29 38 -107 -147 -36 -64 172 -101 0 -79 -29 69 -189 -124 -33 -51 138 97 28 -22 85 -333 0 -99 -28 -11 28 -101 0 -79 -29 18 -52 -125 -38 -46 119 -99 0 -80 -30 53 -144 -126 -40c-9,16 -21,55 -28,73 -36,96 -1,28 -16,74 -7,21 -14,44 -22,67l-285 0 -51 -18 -7 18 -100 0 -36 -14 0 -148 15 -46c25,-69 8,-4 37,-80 9,-25 22,-57 30,-83l-82 -27 0 -99c14,-39 28,-77 30,-80 34,6 80,32 115,37l48 -131 -193 -66 0 -344 3 -9 -3 -1 0 -99c13,-38 27,-74 30,-80l35 11 51 -145 -116 -42 0 -97c13,-38 27,-75 31,-81l145 50 48 -147 -133 -46 -8 11 -83 -27 0 -289 23 -71 -23 -8 0 -100c13,-37 26,-73 31,-79l48 14 44 -146 -123 -44 0 -97c13,-38 27,-75 31,-81l144 50 43 -149 -218 -74 0 -451 1 -4c6,-16 11,-31 16,-46 2,-4 7,-20 8,-23 7,-12 13,-7 16,-11l35 -147 -76 -27 0 -93 30 -85 87 29 27 -128 -144 -50 0 -97 28 -81c18,0 126,42 154,50l25 -126 -207 -71 0 -100c13,-38 26,-73 30,-80l211 71 22 -130c-6,-6 -140,-53 -154,-54l-20 111 -89 -16 0 -568c4,-13 7,-30 11,-54 7,-50 17,-110 20,-162 -4,-3 5,2 -6,-4 -2,-1 -4,-2 -7,-3 -5,-2 -11,-4 -18,-6l0 -99c13,-38 27,-74 30,-79 14,2 13,7 22,3l15 -141c-16,-10 -44,-17 -67,-24l0 -101c13,-37 27,-74 30,-79l54 17 9 -146 -93 -33 0 -100c13,-38 27,-75 30,-79l73 24 6 -150 -109 -37 0 -100c13,-37 26,-72 30,-78l84 27 0 -192 -114 -39 0 -95 1 -3zm326 6571l-121 -40 45 -125c19,3 111,33 122,41l-46 124zm998 -18c-12,-1 -112,-29 -120,-35l49 -135 121 34 -50 136zm1385 2l-147 -30 58 -159 150 29c-3,18 -33,94 -44,121 -5,14 -8,31 -17,39zm-1678 -87l-125 -39c4,-20 43,-127 51,-135 25,10 108,29 123,39l-49 135zm1352 18l-148 -32c4,-20 32,-88 42,-116 3,-7 5,-14 8,-20l9 -20 148 31c-5,19 -53,148 -59,157zm-326 -75l-145 -35 55 -155 149 36c-9,25 -48,138 -59,154zm2804 16l-141 -2 63 -173 146 1c-4,21 -23,66 -32,89 -5,14 -24,78 -36,85zm337 -2l-140 2c3,-19 44,-121 56,-155 4,-10 3,-15 12,-19l136 -3 -64 175zm-670 -6l-157 -8 63 -170 159 6c-7,24 -55,156 -65,172zm-3794 -46c-13,-1 -115,-34 -128,-40l49 -133 127 40 -48 133zm4799 41l-141 6 64 -177 142 -7 -65 178zm-1349 -15l-140 -11c-23,-2 -18,-3 -9,-24l56 -146 154 11 -61 170zm1546 3l65 -179 143 -11c-1,13 -43,122 -52,145 -21,56 -10,29 -156,45zm-1889 -33l-155 -16 61 -166 155 15 -61 167zm2376 -11l-144 15 65 -181 144 -15c-1,14 -25,74 -32,91 -11,28 -24,61 -33,90zm-4484 -29l-121 -32 54 -151 125 31c-4,21 -19,54 -27,76l-22 59c-3,8 -4,12 -9,17zm1770 0l-154 -20 60 -163 154 19 -60 164zm-3067 -52l-122 -40 48 -133c21,4 108,32 121,41l-47 132zm2732 3c-31,3 -115,-20 -153,-23l59 -162 153 24 -59 161zm-1730 -32l-121 -34 54 -150c20,3 67,18 92,25l29 10 -54 149zm1397 -24l-150 -28 57 -159 151 27 -58 160zm-1691 -62c-14,-1 -117,-33 -125,-38 3,-16 47,-138 55,-148l124 37 -54 149zm1362 -4c-19,0 -54,-10 -75,-14 -25,-6 -50,-11 -75,-17l57 -157 150 31 -57 157zm-329 -72c-18,-3 -138,-30 -146,-36l55 -153c22,3 139,29 149,36 -6,19 -51,144 -58,153zm-1331 -14l-128 -40 53 -148 127 39c-3,30 -41,112 -52,149zm3812 -3l-158 -5c7,-28 34,-96 47,-131 15,-45 7,-41 46,-40l127 4c0,11 -55,161 -62,172zm338 4l-146 0 62 -174 148 0 -64 174zm334 -5l-141 4 64 -176 141 -4 -64 176zm195 -8l64 -177 142 -8 -51 143c-17,44 -5,34 -58,37 -32,2 -64,5 -97,5zm-1219 -6l-153 -11 62 -168 158 9c-8,28 -21,57 -31,85l-27 77c-5,7 -2,4 -9,8zm-338 -27l-157 -14 61 -168 156 15 -60 167zm1896 10l64 -177 145 -14c-16,55 -41,113 -60,167 -6,17 1,12 -55,17 -28,3 -69,9 -94,7zm-4009 -30l-124 -31 54 -154 126 32 -56 153zm1773 -16l-156 -18 60 -166 155 19 -59 165zm-3081 -17l-121 -39c2,-14 47,-138 53,-146l121 39 -53 146zm5807 13l-146 18 65 -181 146 -17 -65 180zm-3063 -40l-154 -24 58 -161c20,-1 141,17 154,23l-58 162zm-1735 -20l-121 -32c2,-19 19,-55 26,-77 6,-18 20,-65 29,-75l120 33 -54 151zm-1301 -50l-134 -45 52 -145 133 44 -51 146zm2703 16l-153 -27 43 -122c3,-7 5,-13 8,-20 3,-9 5,-17 11,-18l146 31 -4 13c-3,7 -5,13 -8,21l-43 122zm-1697 -49l-126 -37c1,-12 46,-135 53,-148 13,0 118,31 126,36l-53 149zm1365 -14l-150 -30 56 -158 151 30 -57 158zm-1664 -76l-128 -39 52 -149 129 39 -53 149zm1336 6l-150 -33c9,-29 46,-138 57,-157l150 34 -57 156zm2828 -40l-148 0 62 -174 148 -1 -62 175zm-338 -2l-161 -3 61 -173 160 4 -60 172zm-352 -11l-157 -9 60 -170 159 8c-2,15 -56,163 -62,171zm1025 3l-142 6c5,-24 17,-51 25,-74 9,-24 16,-45 25,-70 16,-43 7,-33 62,-34 27,-1 66,-2 92,-5l-62 177zm-3488 -27l-126 -31c3,-14 50,-146 56,-153l123 29c-2,24 -44,121 -53,155zm3827 5c-34,13 -105,3 -143,12 0,-9 55,-162 63,-178l143 -11 -63 177zm-1709 -3l-153 -13c-2,-11 48,-149 57,-168l158 12c-5,19 -56,161 -62,169zm-3430 -27l-122 -38 51 -147 123 38c-1,12 -46,139 -52,147zm3090 -6l-153 -17c-3,-8 47,-148 56,-166l155 17 -58 166zm2391 6l-146 15 65 -180 145 -14 -64 179zm-4470 -52l-122 -32 53 -152 124 31 -55 153zm1741 4l-151 -21 3 -20c2,-7 4,-13 7,-21 5,-13 9,-26 14,-41 7,-19 21,-67 31,-81l154 20 -58 164zm3076 6l-147 20 64 -181 147 -20 -64 181zm-6121 -54l-133 -44 50 -146 134 43 -51 147zm2709 -2l-153 -26c8,-25 49,-147 58,-161l152 25 -57 162zm-1701 -36c-16,-3 -117,-32 -127,-38l52 -148 128 34 -53 152zm1369 -24l-151 -29 54 -159 154 29 -57 159zm-1671 -65l-127 -38c3,-18 44,-137 53,-149 22,5 44,12 65,19 21,6 45,12 63,20 -4,15 -48,142 -54,148zm1342 -2l-150 -32c2,-21 44,-134 53,-158l151 32 -54 158zm-329 -75c-13,-3 -116,-23 -125,-34l52 -150 129 29c-5,19 -49,145 -56,155zm2826 8l-161 -1c0,-3 46,-146 55,-164 4,-7 1,-5 8,-9l158 0 -60 174zm-351 -7l-159 -7 58 -171 160 6c-3,19 -21,66 -28,86 -11,30 -21,58 -31,86zm-3787 -17c-20,-4 -110,-32 -123,-41l49 -146 125 39 -51 148zm4329 25l60 -176 149 -3 -57 169c-7,12 -29,8 -53,8 -33,0 -65,2 -99,2zm485 -17l-143 8 60 -176 143 -9c-1,14 -22,70 -29,89 -10,29 -20,59 -31,88zm-1373 -10c-13,2 -114,-7 -140,-9l-19 -5 58 -166 158 11 -57 169zm1714 -15l-146 13c10,-29 54,-166 63,-178l144 -13 -61 178zm-2058 -12l-157 -17 57 -166 157 14 -57 169zm-2085 -30l-124 -32 53 -153 124 31 -53 154zm4485 8l-146 16c18,-49 34,-100 52,-150 14,-38 -3,-28 65,-36 31,-4 63,-8 92,-11l-63 181zm-2740 -18l-155 -20 55 -165 157 20 -57 165zm-3053 -28l-135 -43 50 -147 135 43c-1,13 -44,137 -50,147zm2715 -20l-153 -24 55 -162 153 23c0,12 -48,151 -55,163zm-1705 -22l-128 -36 51 -152 129 35 -52 153zm1373 -34l-77 -14c-25,-4 -52,-11 -76,-13l52 -158c11,-5 23,0 36,2l117 21c2,13 -45,137 -52,162zm-1674 -53l-130 -39c3,-19 43,-137 51,-151l129 39 -50 151zm1343 -13c-18,0 -88,-17 -115,-23 -11,-2 -30,-4 -38,-11 10,-24 19,-52 27,-77 4,-13 8,-25 13,-39 5,-14 8,-32 16,-39l150 31 -53 158zm-329 -73c-15,1 -114,-23 -128,-29 11,-29 40,-140 54,-155l126 29 -52 155zm-1317 -7c-11,-2 -116,-34 -124,-39l48 -148 126 38 -50 149zm3798 -13l-162 -5 57 -172 162 4 -57 173zm352 3l-163 0 57 -174 164 0 -58 174zm338 -6l-147 4 58 -175 149 -5c0,15 -21,69 -27,87 -6,18 -21,77 -33,89zm-1039 -12l-158 -10 55 -170 159 9c-1,17 -47,150 -56,171zm1380 -6l-145 9 58 -175c15,-6 122,-11 146,-11l-59 177zm-1722 -21c-19,1 -146,-10 -158,-14 -3,-11 45,-144 53,-167 29,3 59,5 90,8 16,1 30,3 46,4 26,1 25,-1 17,23 -7,19 -48,136 -48,146zm-2093 -10c-13,-1 -118,-28 -125,-33l50 -153 125 31 -50 155zm4010 16l59 -178 146 -14c-3,19 -40,123 -49,151 -11,35 -6,28 -66,33 -27,3 -64,8 -90,8zm-5322 -46c-21,-5 -124,-38 -135,-46l48 -145c30,2 102,35 138,43 -5,20 -44,139 -51,148zm3060 6l-153 -19c-4,-18 46,-143 51,-166l158 19c-5,21 -47,152 -56,166zm2606 5l58 -178 149 -20c-13,48 -32,103 -49,150 -5,14 -5,27 -18,31l-140 17zm-2943 -50l-155 -23 52 -162 156 21 -53 164zm-1710 -10l-130 -34c3,-18 43,-145 51,-153 19,4 117,28 129,36l-50 151zm-1319 -53l-135 -46 46 -146 137 45c-4,23 -15,50 -23,73 -8,24 -16,50 -25,74zm2694 9l-155 -27 52 -160 155 26c-3,21 -18,58 -25,80 -9,27 -20,55 -27,81zm-1680 -40l-130 -39 48 -152 132 38c-3,19 -43,140 -50,153zm1347 -21c-20,-3 -142,-27 -153,-34l50 -156 154 29 -51 161zm-1651 -71l-125 -38 47 -150 127 37c-2,15 -43,141 -49,151zm1321 0l-129 -28c1,-13 44,-147 50,-157l129 27 -50 158zm2841 -43l-164 0 55 -174 165 -2 -56 176zm-357 -2l-159 -3 54 -172 163 3c0,11 -21,72 -26,86 -5,16 -22,79 -32,86zm-2792 -27l-123 -30 48 -156 126 30c-3,17 -44,149 -51,156zm2446 16l-160 -8 52 -171 162 8 -54 171zm1045 1l-151 7 56 -177 151 -6 -56 176zm-4801 -38l-138 -45 46 -149 139 44 -47 150zm3409 15l-159 -13 53 -169 161 13c-9,28 -18,57 -27,84 -8,25 -18,65 -28,85zm1731 1l-146 12 55 -178 149 -11 -58 177zm-2073 -33l-158 -17c1,-14 48,-161 53,-167l157 17 -52 167zm2415 1l-147 16 55 -178 148 -16c-1,16 -48,156 -56,178zm-4601 -76c4,-19 41,-140 48,-152l131 34c-10,46 -30,95 -43,142 -6,20 -8,13 -64,-2 -14,-4 -63,-15 -72,-22zm1844 33c-27,-2 -138,-15 -155,-23l50 -163 158 21c-4,21 -46,154 -53,165zm3103 0l-149 21 56 -180 150 -21 -57 180zm-6138 -44l-136 -45c1,-15 37,-122 44,-148 20,3 51,16 70,22 21,8 52,13 68,25 -3,19 -40,135 -46,146zm2700 -7c-25,-2 -142,-20 -156,-28l49 -159 157 27 -50 160zm-1684 -29l-132 -38 45 -152 134 36c-1,15 -41,142 -47,154zm1347 -30l-153 -30 48 -160 125 23c17,3 34,0 30,16 -5,19 -45,144 -50,151zm-1652 -59l-129 -39 46 -151 129 37 -46 153zm1322 -8c-22,-5 -43,-10 -65,-14 -14,-4 -53,-11 -65,-17l46 -157 132 28 -48 160zm-307 -71l-127 -30c1,-13 41,-146 47,-157l128 30 -48 157zm-1317 -15l-138 -44 44 -150c21,5 132,39 141,45 -5,23 -37,135 -47,149zm4114 19l-160 -2c2,-19 16,-56 22,-76 8,-25 15,-50 23,-76 7,-29 -7,-21 72,-21 33,0 66,0 99,0l-39 132c-4,13 -6,35 -17,43zm359 -4c-38,0 -135,9 -166,2 8,-28 16,-57 26,-86l28 -87 164 -4 -52 175zm-707 -5l-161 -6 50 -171 163 6c-2,16 -47,162 -52,171zm-348 -19l-160 -11 50 -169 162 11c-3,20 -44,157 -52,169zm1245 17l51 -172c6,-3 -5,0 7,-3l147 -8 -44 148c-12,38 -1,27 -68,31 -26,2 -66,6 -93,4zm345 -21l52 -177 148 -12 -49 167c-6,17 -2,11 -58,16 -31,2 -62,6 -93,6zm-1932 -25l-161 -15c3,-17 45,-160 50,-168l160 16 -49 167zm-2061 -22l-133 -34 45 -155 135 33 -47 156zm4482 0l-148 17c6,-24 47,-165 54,-178l148 -18c-6,28 -17,62 -26,90 -9,27 -17,63 -28,89zm-2764 -15l-159 -22 49 -165 159 20c0,12 -41,147 -49,167zm-3044 -25l-137 -47 43 -149 140 46c-3,18 -39,141 -46,150zm2706 -24l-158 -25 47 -165 159 26 -48 164zm-1687 -19l-135 -36 44 -155 136 37 -45 154zm1353 -38l-160 -29 46 -162 156 28c2,11 -16,65 -20,80 -6,19 -23,68 -22,83zm-1661 -50l-130 -38 43 -153 131 38 -44 153zm1323 -17l-132 -27 45 -160 134 28c-4,24 -15,56 -22,80 -4,13 -8,27 -12,40 -3,10 -8,32 -13,39zm-1624 -75l-141 -43c0,-13 37,-144 42,-152l140 43 -41 152zm1317 7l-129 -28 43 -158 129 28 -43 158zm2808 -19l-166 0 41 -149 166 0 -41 149zm-352 -5l-165 -5 41 -148 165 6 -41 147zm707 -2l-168 6 42 -151 168 -5 -42 150zm-1056 -13l-162 -10 38 -145 164 9 -40 146zm1399 -4l-153 9 41 -151 154 -9 -42 151zm-1745 -22c-42,1 -112,-11 -162,-15l39 -144 163 15 -40 144zm2086 -6l-149 13 41 -151 149 -15 -41 153zm-4153 -2l-133 -33 42 -157 136 33c-6,31 -38,147 -45,157zm1565 -48c-4,-11 12,-54 17,-71 5,-18 13,-58 20,-71l157 19c1,3 2,2 2,7l-7 26c-3,14 -6,24 -10,37 -26,91 -1,76 -99,64 -21,-3 -64,-4 -80,-11zm-2889 13l-142 -45c4,-19 37,-142 42,-150l141 46 -41 149zm5820 -3l-149 19 40 -152 151 -20 -42 153zm-3113 -36l-158 -23c-2,-14 30,-117 35,-141l161 23 -38 141zm-1690 -6l-136 -38 40 -154c30,1 100,27 137,35l-41 157zm1352 -48l-160 -29 38 -139 160 28 -38 140zm-2681 -10c-18,-4 -133,-44 -142,-50l39 -148 141 48c1,28 -31,113 -38,150zm1017 -30l-129 -38 39 -154 132 37c-1,15 -35,142 -42,155zm1328 -24l-135 -27 36 -138 136 27 -37 138zm-310 -66l-130 -29c-1,-11 29,-125 34,-137l131 30 -35 136zm-1320 -1l-142 -44 37 -153 145 44 -40 153zm4126 -15l-167 0 37 -145 166 -2c2,14 -30,125 -36,147zm-358 -2l-160 -5 36 -145 165 5 -34 138c-4,7 0,3 -7,7zm714 -9l-168 7 37 -147 169 -7 -38 147zm-1058 -4c-26,0 -149,-5 -166,-11 13,-33 24,-116 39,-142l163 10 -36 143zm-511 -39l35 -140 164 14c-1,15 -34,137 -37,140 -4,3 -147,-9 -162,-14zm1913 23l-154 11 37 -148 155 -11 -38 148zm-3812 -25l-138 -34c4,-20 30,-124 36,-134l137 33 -35 135zm4003 8l37 -148 150 -15 -35 139c-5,15 -11,11 -30,13 -32,3 -97,11 -122,11zm-2290 -25l-156 -18c-2,-14 28,-119 33,-139l163 17 -31 124c-3,14 -4,14 -9,16zm-3043 -11l-141 -46 36 -152c16,3 137,42 145,48 -10,33 -30,126 -40,150zm5826 -20l-151 19 37 -149 152 -20 -38 150zm-3122 -12l-161 -23 35 -138 162 22c-1,13 -31,133 -36,139zm-1685 -20l-139 -37 32 -131c9,-1 127,29 140,36l-33 132zm1347 -33l-159 -26c-3,-13 29,-124 31,-137l163 27 -35 136zm-2679 -19l-143 -48 35 -151 145 48 -37 151zm1020 -34l-133 -38 31 -132 133 37 -31 133zm1321 -7l-135 -27 31 -136c23,3 122,21 137,28l-33 135zm-312 -66l-132 -28 30 -132c16,-3 111,21 134,26l-32 134zm-1315 -18l-145 -43 29 -131 148 44 -32 130zm3766 -13l-162 -3 27 -117c11,-49 1,-33 95,-33l81 0 -31 137c-3,11 -1,11 -10,16zm191 2l35 -153 169 -3c-2,17 -27,129 -33,144 -7,16 -53,10 -81,10 -31,0 -61,2 -90,2zm-536 -12l-167 -8 36 -151 166 8 -35 151zm1061 -3l-171 7 37 -155 170 -7 -36 155zm-3474 -27l-139 -32c1,-16 26,-123 31,-133l138 33 -30 132zm2065 9l-166 -13 35 -150 165 14 -34 149zm1596 6l37 -155 155 -12 -33 146c-5,14 -15,10 -32,11 -15,1 -28,3 -43,4 -27,2 -57,3 -84,6zm-4986 -60c-19,-4 -135,-42 -145,-48l28 -128c46,7 99,37 146,44l-29 132zm3044 22l-165 -18 34 -147 165 18 -34 147zm2439 -8l-151 17c1,-21 25,-118 32,-145 4,-16 9,-12 29,-14l126 -13 -36 155zm-2783 -33l-163 -22 32 -143c18,-4 17,-1 40,2l124 17 -33 146zm-1689 -14l-141 -37 30 -131 141 36 -30 132zm4814 1l-152 23 36 -154 152 -23c0,18 -12,59 -16,78 -4,13 -6,24 -9,37l-11 39zm-3465 -40l-162 -26 30 -142 163 26 -31 142zm-2677 -32l-146 -48 28 -130 146 49 -28 129zm1014 -15l-135 -38 28 -129 137 37 -30 130zm1323 -11l-139 -26 31 -142c17,1 132,23 139,28l-31 140zm-419 -233l136 28 -33 142 -133 -28 30 -142zm-1333 -19l150 44 -30 130 -146 -45 26 -129zm1017 -54l141 33 -30 140 -106 -24c-12,-3 -24,-5 -34,-11l29 -138zm2746 34l169 1 -34 155 -169 -3 34 -153zm-351 -12l168 6 -33 155 -168 -9 33 -152zm873 10c0,17 -28,144 -35,155l-168 1 34 -153 169 -3zm358 -17l-34 156 -171 8 33 -155 172 -9zm-1612 136c3,-25 11,-57 17,-81 2,-13 5,-25 8,-38 3,-14 1,-32 14,-32l160 12 -33 152 -166 -13zm-3375 -68c-1,-33 20,-92 24,-129l148 49c-1,16 -22,116 -28,127l-144 -47zm5330 -93c-5,19 -26,141 -37,156l-153 12 32 -156 158 -12zm-2271 -23l168 17 -33 151 -166 -18 31 -150zm-2015 -46l142 36 -28 140 -143 -39 29 -137zm4625 30c0,20 -26,145 -34,156 -13,8 -125,16 -151,20l33 -158 152 -18zm-2954 -27l163 26c2,18 1,-6 1,5 0,1 -2,8 -2,10 -1,5 -2,12 -4,18 -2,13 -5,26 -8,38 -5,26 -10,48 -16,74l-165 -21 31 -150zm-344 -52l166 26 -30 149 -165 -27 29 -148zm-2668 -22l150 48 -27 128 -148 -48 25 -128zm1002 122c1,-17 22,-126 28,-136l136 38 -28 138c-26,-7 -120,-31 -136,-40zm1349 -156l141 26 -30 146 -139 -26 28 -146zm-1672 62c1,-16 22,-126 27,-136l149 45 -27 136 -149 -45zm1359 -125l137 28c-3,20 -24,133 -30,145l-134 -30 27 -143zm-318 -72l142 32c0,16 -22,134 -28,144 -24,-3 -121,-26 -141,-34l27 -142zm2741 58c3,-17 3,-31 11,-33l166 1 -28 148 -170 1 21 -117zm532 -39l-30 151 -170 2 29 -148 171 -5zm-883 30c3,-16 2,-31 10,-34 33,1 142,2 165,9l-28 146 -169 -7 22 -114zm-3729 -88l151 46 -25 136c-50,-11 -101,-35 -151,-46l25 -136zm4969 41l-29 150 -173 9 29 -150 173 -9zm-1584 -7l168 10c0,17 -23,138 -29,148l-166 -12 27 -146zm-348 -31l168 15c-2,24 -9,55 -14,78l-10 54c-3,14 1,9 -9,15l-161 -18 26 -144zm2274 9l-28 151 -157 14c3,-23 22,-136 29,-151l156 -14zm-4292 -52l145 36 -26 143 -145 -37 26 -142zm1672 2l166 21c2,31 -21,105 -24,145l-168 -22 26 -144zm2778 180c3,-13 24,-143 30,-149 4,-4 137,-20 153,-19 -14,32 -15,117 -31,150l-152 18zm-3146 -88c-2,-21 20,-113 24,-143l167 25 -27 144 -164 -26zm-2646 -159l151 50 -24 133c-33,-3 -112,-38 -151,-47l24 -136zm1027 -20l141 38 -27 140c-14,0 -126,-32 -138,-38l24 -140zm1323 -19l142 25c-2,22 -19,128 -26,142l-140 -25 24 -142zm-1648 -74l152 44 -25 141 -151 -45 24 -140zm1311 152c0,-16 19,-131 25,-140l136 27c-2,23 -8,48 -12,73 -2,11 -4,24 -6,36 -7,41 16,39 -143,4zm-298 -211l144 34c-1,20 -18,127 -25,138l-141 -33 22 -139zm-1360 99c1,-24 8,-55 11,-79 13,-83 -8,-63 93,-35 20,6 51,19 70,21l-23 140 -151 -47zm4639 -108l-27 164 -172 5 27 -163 172 -6zm-526 10l170 0c0,10 -22,151 -25,155 -4,8 -3,6 -17,6 -8,0 -14,1 -22,1 -14,1 -29,1 -43,0 -30,0 -59,-1 -90,-1l27 -161zm-353 -9l172 6 -28 161 -170 -5 26 -162zm-374 142c-2,-15 8,-62 11,-81 4,-22 6,-62 15,-79 33,2 146,4 168,12 -4,27 -9,54 -13,82 -4,20 -8,76 -20,76l-161 -10zm1410 10c2,-18 22,-154 27,-159 4,-4 155,-14 173,-13l-27 160 -21 5c-32,2 -134,10 -152,7zm-3759 -220c12,-2 135,29 148,36l-22 137 -146 -39 20 -134zm2002 159c1,-6 2,-11 3,-18l19 -121 170 16 -27 159 -165 -16 0 -20zm2298 -141l-25 163 -159 15 26 -163 158 -15zm-2479 141c-16,-2 -163,-19 -166,-22 -5,-4 18,-135 22,-156l164 20c9,13 -18,123 -20,158zm2819 -182l-26 164 -155 20 27 -165 154 -19zm-5981 -46c18,4 146,46 152,52l-22 135c-11,-1 -145,-46 -151,-51l21 -136zm2671 0l169 26 -25 156 -167 -25 23 -157zm-1644 -17l141 38 -23 137 -139 -38 21 -137zm1323 -37l145 26 -24 155 -143 -26 22 -155zm-1655 -39c3,-21 1,-19 20,-13 29,9 117,30 137,41l-21 133c-14,-1 -141,-38 -152,-44l16 -117zm-1041 121c-1,-19 16,-115 20,-137l152 51c-2,24 -6,45 -10,69 -2,19 -3,53 -11,66 -6,2 -132,-41 -151,-49zm2380 -143l138 28c7,17 -18,121 -19,154l-141 -28 22 -154zm-323 -69c22,-1 116,26 148,31l-22 153 -146 -33 20 -151zm-1341 -26l154 47 -19 135c-16,-3 -147,-44 -153,-49l18 -133zm4623 2l-23 164 -172 5 21 -161 174 -8zm-527 12l172 -1c-2,15 -20,155 -22,158 -8,13 -66,6 -84,6 -26,0 -63,2 -88,-1l22 -162zm-353 -7l172 6 -22 161 -172 -6 22 -161zm-352 -17l172 9 -21 160c-27,4 -141,-5 -171,-9l20 -160zm1588 -8l-23 163 -173 11 22 -163 174 -11zm-3962 -34c13,0 142,32 149,37l-19 147c-16,3 -126,-28 -149,-34l19 -150zm2006 174c-3,-16 6,-61 9,-81 1,-12 5,-76 15,-78l166 14 -21 160 -169 -15zm2297 -172c-4,30 -15,144 -23,163l-157 16 23 -164 157 -15zm-2627 -18c1,-7 0,-4 2,-8l166 19c5,21 -16,128 -18,160l-169 -20 19 -151zm-3022 -35c11,-1 141,42 155,49l-17 133 -155 -50 17 -132zm2674 -21l171 24 -21 158 -169 -26 19 -156zm3314 32l-21 163 -155 20 20 -156c2,-8 1,-4 3,-7l153 -20zm-4960 -45l144 38c-8,38 -11,101 -17,137 -3,17 0,11 -10,12 -3,0 -122,-32 -135,-37l18 -150zm1324 -41l146 25 -20 157 -144 -26 18 -156zm-2676 -33c18,-2 122,41 150,48l-15 134 -151 -51 16 -131zm1021 -19l156 46 -19 145c-9,2 -136,-35 -154,-43l17 -148zm1337 -8l141 29 -17 154 -142 -28 18 -155zm-325 -69c15,1 139,28 149,33l-17 153 -148 -33 16 -153zm-1342 -23l156 47 -17 148c-20,-2 -58,-16 -79,-22 -26,-8 -54,-16 -77,-24l17 -149zm4098 2l172 -2 -17 164 -173 0 18 -162zm527 -13l-19 164 -173 7 18 -163 174 -8zm-881 9l173 4 -18 161c-31,0 -58,-2 -89,-2 -16,1 -31,-1 -46,-1 -12,0 -38,5 -37,-8l17 -154zm-351 -17l172 10 -18 159c-21,4 -141,-6 -172,-8l18 -161zm-2378 -37l151 38 -16 152 -149 -38 14 -152zm2026 10l168 15c1,1 1,2 1,2l2 5c2,16 -15,146 -17,153l-170 -16 16 -159zm1939 14l-17 162 -174 12 17 -163 174 -11zm-5313 -73l157 49c-2,28 -9,131 -16,147 -10,1 -136,-41 -154,-49l13 -147zm5653 40l-16 162 -159 16 19 -163 156 -15zm-2628 -18l171 20 -17 159 -170 -20 16 -159zm2965 -25c0,19 -11,155 -17,160 -4,4 -139,22 -154,22l17 -162 154 -20zm-4962 -31l145 38 -15 148 -19 -1c-5,-1 -11,-3 -17,-4l-108 -29 14 -152zm1647 9l172 24 -16 158 -171 -24 15 -158zm-2994 -82l145 48 -13 147c-19,-3 -137,-42 -148,-50l16 -145zm2670 29l147 24 -14 155c-17,3 -123,-18 -147,-23l14 -156zm-1656 -50l158 45 -15 151 -156 -44 13 -152zm1336 -8c12,-3 121,20 140,24 6,13 -7,131 -11,155 -12,2 -127,-21 -142,-27l13 -152zm-326 -72l150 32 -14 156 -148 -33 12 -155zm-1344 -19l158 47 -12 151 -158 -48 12 -150zm4096 17l174 0 -11 137 -173 1 10 -138zm528 -10l-11 135 -174 6 13 -135 172 -6zm-880 2l173 5 -11 141 -173 -5 11 -141zm-351 -20l172 11 -13 144 -172 -9 13 -146zm-2378 -48l152 36 -12 152c-13,5 -142,-32 -151,-35l11 -153zm2026 17l172 16 -12 148 -172 -15 12 -149zm2277 -7l-10 133 -158 16 10 -132 158 -17zm-339 34l-10 132c-21,3 -160,15 -175,12l10 -132 175 -12zm-5313 -91l156 50c6,30 -8,113 -9,150l-158 -51 11 -149zm3024 21c184,24 174,8 170,51l-9 124 -172 -20 11 -155zm-1998 -57l147 39 -12 153 -145 -39 10 -153zm1809 188c-27,-1 -55,-7 -83,-11 -102,-14 -90,-3 -87,-44l10 -128 171 27 -11 156zm3154 -139l-9 133 -156 21c1,-22 5,-120 11,-133l154 -21zm-6176 77c-37,-7 -92,-31 -131,-43 -20,-7 -12,-12 -8,-71 2,-27 3,-54 6,-82l144 49 -11 147zm2536 -177c11,-1 138,22 147,27l-11 160 -146 -26 10 -161zm-1659 -42l159 45 -9 150c-19,0 -63,-16 -81,-21 -24,-7 -54,-18 -78,-22l9 -152zm1330 143c-7,-17 6,-138 6,-168l145 30 -10 166 -141 -28zm-321 -243l151 35 -9 169c-12,1 -140,-27 -151,-32l9 -172zm-1345 -1l159 48 -10 152 -157 -48 8 -152zm4272 -15l-9 189 -175 0 9 -184 175 -5zm708 -47l-9 201 -175 13 9 -198 175 -16zm-529 42c20,-6 147,-12 175,-12l-11 195 -173 6 9 -189zm-707 9l174 3 -9 179 -174 -6 9 -176zm-352 -11c10,-4 146,4 171,5 6,32 -6,135 -7,174l-173 -12 9 -167zm-3578 117c-23,-5 -48,-15 -70,-22 -25,-8 -45,-15 -70,-22 -18,-6 -19,-3 -18,-24l6 -133 160 50 -8 151zm1199 -176l154 38 -8 176 -152 -37 0 -13 0 -9 6 -155zm2026 33l173 14 -8 165 -173 -17 8 -162zm-352 -37l173 19 -8 160 -172 -22 7 -157zm-1999 -85l147 40c1,46 -4,129 -6,179 -24,-4 -56,-13 -79,-20 -26,-7 -69,-13 -68,-26l6 -173zm1647 38l173 25 -7 153 -172 -28 6 -150zm2983 30l-10 207 -157 18 10 -205 157 -20zm-3310 -84l148 26 -6 147 -147 -27 5 -146zm3645 33c2,25 -5,198 -10,213l-153 22 8 -211 155 -24zm-3968 -96l145 30 -5 141c-13,2 -90,-16 -112,-21 -23,-5 -26,-2 -33,-12l5 -138zm-2342 37l141 47 -5 151 -142 -47 6 -151zm667 -160c17,2 62,19 81,25 11,3 77,18 80,30l-4 180c-19,-4 -152,-44 -162,-51l5 -184zm1343 53c21,-2 123,27 153,32l-3 141 -152 -37 2 -136zm-1004 51l161 48 -7 181 -158 -44 0 -31 4 -154zm4286 -111l-4 167 -174 9 4 -165 174 -11zm-354 20l-4 165 -174 4 4 -165 174 -4zm-881 -4l174 6 0 12 0 18 -3 132 -174 -9 3 -159zm-354 -22l175 11 -1 50 -3 110 -173 -14 2 -99 0 -40 0 -18zm-2026 -18l117 29c51,13 38,-11 36,147 -23,-2 -57,-14 -80,-19l-68 -18c-7,-4 -3,0 -6,-7l1 -132zm4147 -28c35,-3 131,-22 156,-18l-1 165 -157 20 2 -167zm-2473 14l174 18 -2 154 -174 -20 2 -152zm-353 -44l173 23 -2 150 -172 -25 1 -148zm1413 108l174 2 -4 163 -174 -2 4 -163zm1234 -56l-2 166 -175 16 3 -166 174 -16zm-5321 -75l163 53 0 12 -1 89 -1 89 -161 -52 0 -12 0 -22 0 -157zm5991 -19l-1 164c-13,9 -130,25 -155,28l1 -167 155 -25zm-4965 12l136 37c10,3 12,0 12,10l-1 131 -149 -43 2 -135zm1318 118c0,-25 -3,-119 2,-137l148 23 -1 145 -116 -20c-27,-5 -27,-1 -33,-11zm-2661 -216l107 35c17,6 29,5 31,15l0 186c-26,-7 -48,-16 -73,-24 -78,-27 -67,-7 -66,-70l1 -142zm1002 -2l162 49 -2 134c-13,-1 -100,-29 -124,-36 -11,-3 -32,-5 -37,-15l1 -132zm3574 -101l1 160c-50,4 -126,2 -173,-2l-2 -156 174 -2zm-527 -4c24,0 161,2 174,7l1 153 -174 -8 -1 -152zm-1713 127l146 28 -1 139 -143 -29 -2 -138zm-1679 -129l163 50 1 29 0 109 -162 -51 -2 -137zm1347 62l152 32 2 132c-24,1 -121,-27 -153,-33l-1 -131z"/>
    <path class="fil2 str0" d="M365 6647l-229 -77 85 -233c22,6 224,73 230,78l-86 232zm-360 -6643l89 0 79 27 -1 -27 66 0 0 49 252 87 -1 -136 64 0 4 156c4,3 2,1 7,4 4,2 3,2 9,3l120 40c47,15 94,34 141,46l-4 -248 23 -1 42 0 4 271c46,15 96,31 138,43l139 42 -2 -256 -220 -68 10 -32 104 0 102 32 2 -32 13 0 50 0 3 53c34,11 259,81 277,81l-2 -134 64 0 4 154c12,6 108,31 130,38 45,13 91,23 134,36l-4 -228 4 0 61 0 4 242c3,9 246,67 269,71l-1 -244 -152 -37 7 -32 207 0c0,20 2,16 22,20l105 23c23,5 126,28 142,28l-2 -71 3 0 62 0c2,100 -14,83 62,97 49,9 165,34 201,36l-2 -133 64 0 3 146 265 42 -4 -187 16 -1 49 0 3 193c4,8 12,7 25,8 10,1 19,3 29,4 38,5 212,33 235,29l-4 -234 65 0 4 243 289 30 -4 -273 65 0 4 277c27,6 260,22 287,20 9,-49 -9,-241 -3,-297l895 0 2 33 -124 5 3 277 289 -9 -4 -306 12 0 52 0 4 303 290 -19 -6 -283 16 -1 50 0 3 279c43,-5 268,-22 290,-30l-5 -249 45 0 20 0 3 244 272 -37 -4 -207 12 0 52 0 4 196c30,1 187,-29 239,-38 21,-4 28,-2 31,-10l-3 -148 19 0 43 0 0 717c-2,43 -4,86 -7,128 -3,45 -3,28 4,52 1,4 2,9 3,14l0 40 -2 1c-5,1 -5,1 -10,1l-16 251 24 -1 4 25 0 38 -34 5 -27 280 56 -7 5 25 0 38 -69 11 -35 281 100 -14 4 25 0 38c-23,7 -96,15 -114,19l-45 282 154 -23 5 27 0 37 -169 26 -49 270 214 -30 4 23 0 39c-7,3 -17,3 -23,4l-209 31 -56 277 284 -41 4 25 0 39 -300 44c-7,5 -5,3 -8,14l-59 260c36,-3 259,-31 275,-40l62 -262 30 6 0 148 -24 99 20 -1 4 28 0 36 -40 6 -68 269c24,-1 86,-16 104,-13l4 24 0 39 -127 19 -74 274 197 -28 4 24 0 39c-46,8 -209,28 -222,36 -7,16 -16,53 -22,74l-65 223c72,-7 177,-25 255,-36 44,-7 -2,-22 54,-5l0 115 -77 246 73 -10 4 25 0 39c-28,5 -87,10 -99,17 -7,6 -64,189 -77,224 -7,22 -20,55 -24,77l186 -28 14 44 0 18 -10 3c-4,1 -9,1 -13,2l-88 13c-36,5 -76,11 -113,17l-103 302 275 -39 22 -61 30 9 0 110c-4,2 -2,-3 -14,29l-97 275 107 -15 4 25 0 37c-25,7 -122,21 -137,22l-110 304 243 -36c0,3 2,12 4,23l0 41c-34,11 -233,34 -274,41 -10,34 -113,293 -108,302l291 -41c13,-16 23,-56 31,-78 8,-21 20,-60 30,-79l30 10 0 95c-5,13 -10,25 -14,37 0,0 1,0 2,1 10,6 8,4 11,27l1 1 0 38c-11,5 -29,4 -41,7l-112 298 -35 0 -29 -12 101 -275 -295 40 -90 247 -41 0c-11,-5 -21,-9 -26,-12l84 -227 -272 30 -79 209 -35 0 -29 -12 72 -193 -269 19 -68 186 -39 0 -28 -11 63 -171 -260 9c-8,2 -5,2 -13,21 -3,9 -5,15 -8,22 -11,34 -38,97 -48,130l-39 0c-11,-5 -22,-9 -26,-12l58 -158 -262 2 -62 168 -36 0 -29 -12 57 -156 -266 -6c-12,31 -24,62 -35,93l-31 81 -35 0 -29 -12 60 -164 -278 -15 -70 191 -38 0 -28 -11 68 -184 -275 -22 -82 217 -35 0 -29 -12 78 -212 -272 -30 -93 254 -37 0 -29 -12 93 -250 -271 -37 -110 299 -216 0 -130 -23 -8 23 -36 0 -29 -12 8 -24 -262 -52 -7 12c-7,19 -18,54 -27,76l-38 0 -28 -11 33 -92 -260 -57c-11,18 -25,64 -33,85l-29 75 -35 0 -29 -12 60 -165 -259 -63 -88 240 -39 0 -28 -11 91 -247 -235 -62 -90 245 156 43c0,7 -3,19 -6,32l-126 0 -47 -14 -5 14 -36 0 -29 -12 6 -20 -230 -67 -38 99 -35 0 -29 -12 39 -106 -235 -72 -70 190 -38 0 -28 -11 73 -200 -233 -75c-6,6 -84,212 -88,233l63 23c-2,11 -6,20 -9,30l-113 0 -78 -29c-31,-11 -59,-21 -90,-31 -26,-9 -63,-24 -89,-30l-35 90 -34 0 -29 -12 36 -100 -46 -17 0 -38c4,-11 8,-21 12,-26l57 20 86 -233 -155 -53 0 -40c4,-11 8,-20 12,-25l167 57 87 -240 -266 -91 0 -110c31,-84 74,-205 76,-216 -15,-9 -56,-20 -76,-28l0 -36 5 -15c3,-8 3,-7 7,-14l89 30c12,-48 84,-225 87,-253l-188 -66 0 -37c4,-11 7,-20 10,-28l202 69c12,-57 80,-217 84,-255l-243 -82 -23 65 -30 -10 0 -111 65 -189c8,-28 24,-67 29,-96l-94 -31 0 -41c4,-10 8,-19 12,-25l103 36 79 -258 -194 -68 0 -37c4,-11 9,-22 12,-26l200 68c5,-8 73,-238 75,-258l-249 -85 -8 25 -30 -8 0 -124 18 -65c14,-53 35,-118 45,-174l-63 -22 0 -33 12 -31 66 23c8,-12 62,-237 65,-263l-143 -51 0 -35c2,-5 3,-9 5,-14l7 -13 147 50 52 -241 -211 -72 0 -39c4,-10 8,-20 12,-27l212 72c5,-10 46,-216 48,-239l-272 -92 0 -40c4,-11 8,-21 12,-26l272 93c7,-17 42,-225 43,-248l-263 -88 -33 176 -31 -6 0 -182 2 -9 -2 -1 0 -39 7 -19c5,-14 4,-4 7,-17l37 -242 -51 -19 0 -33 12 -31 50 16 33 -249 -95 -32 0 -39c4,-11 8,-20 12,-25l90 31 27 -262c-18,-11 -98,-34 -129,-46l0 -36 9 -28c17,2 71,23 94,31 11,4 18,8 29,7 0,0 1,0 2,0 5,-28 14,-192 17,-234 3,-35 17,-24 -66,-52 -28,-9 -57,-22 -85,-30l0 -40c4,-10 8,-18 12,-24l144 50 11 -265c-2,-8 -30,-14 -43,-19l-124 -43 0 -34 10 -31c31,8 142,52 158,53 6,-51 2,-250 2,-312l-170 -58 0 -35 1 -2zm3081 6678l-267 -45 99 -270 267 44 -99 271zm-1724 -55l-228 -66 89 -243 231 65c-5,21 -87,237 -92,244zm1391 -4l-263 -52 98 -266 265 50 -100 268zm-1684 -82l-233 -71c3,-16 36,-100 44,-121 13,-37 34,-86 44,-122l235 71c-1,15 -80,227 -90,243zm1356 15l-261 -57 97 -265 262 57 -98 265zm-325 -74l-260 -63 96 -262 260 62 -96 263zm-1327 -33l-236 -75 88 -241c1,0 220,64 237,76l-89 240zm4137 38c-37,3 -240,1 -267,-6l105 -284 268 3 -106 287zm332 -1l-262 3c6,-24 17,-50 26,-73 9,-23 76,-214 84,-216l260 -6 -108 292zm-669 -6l-278 -13 104 -282 279 11c-1,6 -91,259 -105,284zm1006 -8l-266 12 108 -293 248 -12 6 -1 12 0 -108 294zm-1625 -31c-1,-13 88,-249 101,-279l276 19 -45 122c-15,42 -31,84 -46,126 -14,38 -4,35 -46,31 -59,-4 -199,-19 -240,-19zm1696 26l109 -295 270 -21 -105 286c-7,18 -6,12 -28,14 -72,5 -180,17 -246,16zm-2037 -63l101 -276 272 28c-1,14 -79,217 -90,247 -15,39 -4,32 -51,27l-232 -26zm-1837 -3c-18,-1 -214,-54 -235,-62l95 -260c29,7 226,58 235,64l-95 258zm4216 40l109 -297 273 -31 -107 291c-4,11 4,9 -33,13 -69,7 -182,23 -242,24zm-2448 -46c-21,0 -242,-30 -264,-36 -6,-11 13,-48 20,-67 8,-23 17,-47 25,-68l51 -137c17,-2 181,22 223,28 69,8 54,-21 -7,154 -9,26 -37,109 -48,126zm-3069 -44c-16,0 -93,-29 -114,-36 -33,-11 -84,-32 -116,-38l87 -241 231 76 -88 239zm2735 -3l-267 -43 98 -270 269 41 -100 272zm-1732 -27l-231 -65 94 -258 230 64c-1,16 -37,106 -46,129 -16,44 -32,88 -47,130zm1396 -28c-38,-14 -210,-33 -262,-52l98 -266 265 48c-2,16 -95,264 -101,270zm-1690 -56l-236 -73c10,-28 88,-246 95,-254l234 69 -93 258zm1363 -7l-263 -57 97 -265 263 54 -97 268zm-328 -73c-22,-2 -250,-57 -259,-63l95 -261 261 60c-4,19 -16,45 -23,65l-74 199zm-1333 -12c-18,-2 -228,-69 -237,-75 5,-21 89,-249 94,-254l236 74 -93 255zm4155 -10l-268 -2 104 -287 269 0 -105 289zm-342 -4c-89,-1 -185,-7 -275,-10l103 -284c82,5 196,6 281,8l-92 251c-2,7 -4,11 -6,18 -4,10 -3,12 -11,17zm412 3l105 -289 265 -9c-1,12 -84,233 -98,272 -12,31 -6,20 -105,23 -53,1 -111,3 -167,3zm-756 -17c-27,1 -259,-15 -276,-21l101 -278 279 16 -104 283zm-2459 -38l-237 -61 95 -260 236 59c-6,33 -34,97 -47,131 -14,41 -36,90 -47,131zm3550 47l107 -294 267 -17c-19,66 -75,203 -101,280 -6,17 -6,16 -25,17l-248 14zm-1435 -33l-272 -27c0,-16 87,-241 99,-278l275 25 -102 280zm-3424 -43c-19,-3 -223,-71 -231,-77 5,-20 87,-244 93,-252l230 75 -92 254zm3084 7l-272 -33 100 -275 271 32 -99 276zm2384 26l-271 23 108 -296 271 -26 -108 299zm346 -40l-273 33 108 -300 274 -35 -109 302zm-3070 -29l-266 -41 49 -137c8,-23 16,-45 25,-69 5,-14 17,-57 27,-66l267 39 -102 274zm-1735 -14l-232 -63 93 -259 234 63 -95 259zm-1302 -48l-182 -61c-17,-6 -46,-14 -60,-21l91 -252 242 81 -91 253zm2705 9l-266 -48 96 -268 264 45 -1 15c-24,76 -68,180 -93,256zm-1698 -43l-236 -69c5,-22 88,-251 93,-258l236 68 -93 259zm1367 -18l-264 -54 96 -266 265 52 -97 268zm-1666 -72c-24,-3 -200,-62 -238,-73l91 -255c10,1 229,67 238,73l-91 255zm1338 2l-262 -58 94 -264 263 58 -95 264zm2492 -50l-281 -6 51 -144c6,-17 45,-140 55,-142l277 6 -102 286zm71 1c1,-17 62,-176 76,-217 3,-9 20,-69 29,-71l266 -3 -98 275c-9,29 -16,10 -107,16 -38,2 -131,5 -166,0zm-422 -11l-277 -15 101 -282 239 11c50,2 42,-5 27,39 -11,33 -81,232 -90,247zm-2467 -15l-237 -59 93 -263 237 59 -93 263zm-1312 -21l-117 -37c-26,-9 -98,-28 -114,-40l89 -252 233 74 -91 255zm4804 35l-265 10c6,-23 17,-50 25,-73l66 -183c2,-6 4,-12 6,-18 5,-13 4,-15 11,-17l262 -12 -105 293zm-1369 -20l-271 -23c-6,-12 15,-58 19,-70l51 -141c4,-11 9,-25 12,-35 3,-7 4,-12 6,-18 1,-3 3,-7 4,-9 5,-6 0,-3 8,-6l266 21c6,12 -41,129 -45,141 -16,44 -38,98 -50,140zm1708 -1l-268 18 78 -220c4,-11 22,-65 29,-75l267 -20 -52 148c-16,45 -35,106 -54,149zm-2050 -31c-26,3 -226,-26 -272,-30 1,-26 85,-230 96,-276l273 29 -97 277zm-2082 -39l-233 -62 92 -260 233 61 -92 261zm4477 36c-18,6 -241,27 -272,27 7,-32 74,-205 92,-259 13,-40 3,-37 46,-41 65,-6 191,-24 239,-26l-105 299zm-2734 -38c-58,1 -201,-33 -270,-37l95 -271c8,-2 249,29 272,35l-97 273zm-3049 -38c-31,-9 -227,-74 -241,-84l89 -251 242 80c-3,18 -86,249 -90,255zm6129 34c-44,3 -93,13 -137,18 -26,3 -119,18 -137,15l106 -298 275 -39 -107 304zm-3416 -45l-267 -45 94 -270 269 44 -96 271zm-1703 -30c-25,-3 -227,-62 -237,-70l89 -256 239 67 -91 259zm1371 -27l-265 -52 93 -268 266 50 -94 270zm-1671 -61c-36,-6 -85,-24 -121,-35 -25,-8 -99,-27 -117,-38l88 -255 240 71 -90 257zm1341 -6l-264 -57 92 -265 265 55 -93 267zm-327 -73l-240 -58 92 -264 238 57c-1,21 -35,106 -44,132l-46 133zm-1316 -13l-233 -74 88 -256 234 73 -89 257zm4141 12l-280 -5 99 -286 283 2c-4,22 -94,277 -102,289zm-351 -7l-278 -13 93 -268c3,-10 1,-10 9,-15l277 11c-7,33 -96,277 -101,285zm693 1l-270 6 99 -289 272 -8c-2,16 -93,270 -101,291zm-1041 -19l-271 -20 70 -212c5,-13 16,-63 28,-69l273 19c-4,20 -16,50 -23,70 -12,35 -68,204 -77,212zm1379 4l-267 14 50 -146c18,-49 32,-99 50,-146l268 -16 -101 294zm-1725 -32l-269 -28 96 -278 274 28c0,1 -88,264 -94,272 -5,7 1,3 -7,6zm-2083 -21l-234 -61 89 -261 236 59 -91 263zm4148 29l-269 21 102 -297 270 -22 -103 298zm-5457 -63l-242 -80 86 -254 245 79c-6,31 -83,244 -89,255zm3057 17c-26,2 -106,-12 -136,-16 -42,-5 -96,-17 -135,-18l93 -274 273 33 -95 275zm2744 9l-272 30 103 -299 273 -32 -104 301zm-3082 -55l-265 -42c-3,-17 83,-255 88,-272l269 41c2,10 -37,118 -44,137 -9,26 -39,121 -48,136zm-1707 -16l-239 -67 88 -260 240 66 -89 261zm1373 -38l-266 -50 90 -269 268 48 -92 271zm-1675 -48l-240 -72 86 -257c16,0 94,26 119,33 31,10 95,32 123,35l-88 261zm1345 -17c-30,0 -100,-19 -132,-26 -44,-9 -90,-21 -133,-29l89 -267 266 55 -90 267zm-329 -70c-32,-6 -228,-50 -240,-58l88 -264 240 56c-3,18 -15,49 -21,67 -8,23 -15,44 -22,66 -14,41 -35,93 -45,133zm-1321 -5c-32,-11 -217,-65 -231,-74l84 -256 235 72c-3,19 -80,247 -88,258zm4157 -24c-32,5 -107,1 -142,1 -47,0 -94,-1 -142,-1l96 -288 285 -1 -97 289zm-358 -2l-275 -10 94 -284 282 7 -91 273c-4,11 -1,10 -10,14zm-345 -14l-274 -18c-2,-11 37,-122 44,-140 15,-41 31,-110 48,-142l278 17c-8,31 -87,269 -96,283zm1043 8l-270 8c5,-24 16,-51 24,-75 11,-36 66,-205 74,-216l271 -9c-7,33 -94,283 -99,292zm-3481 -35c-40,-9 -78,-20 -119,-30 -21,-6 -103,-25 -116,-32l87 -261 237 58 -89 265zm3820 16l-267 17c13,-49 32,-99 48,-147 17,-48 35,-100 49,-148l268 -17c-2,20 -16,53 -23,74 -8,25 -17,50 -25,75 -8,25 -15,48 -24,72 -9,24 -17,53 -26,74zm-1725 -14l-275 -25 92 -279 276 25 -93 279zm-3405 -28l-246 -81 84 -255 247 78 -85 258zm3063 -5l-273 -33 91 -276 272 31c1,23 -79,232 -90,278zm2138 41l99 -296 272 -25 -97 291c-5,9 4,7 -32,10 -38,3 -220,22 -242,20zm-4191 -89l-179 -48c-18,-6 -42,-13 -60,-17l85 -262 242 65c-11,42 -28,88 -43,130 -7,21 -15,45 -21,66 -7,22 -13,46 -24,66zm1714 5l-271 -41 90 -273 271 39 -90 275zm2821 52l98 -298 274 -35c-12,51 -66,199 -86,263 -15,47 6,36 -124,52l-162 18zm-5853 -107l-243 -82c1,-15 77,-247 82,-256l245 82c-3,21 -13,44 -20,63l-64 193zm2695 2c-80,-8 -196,-40 -267,-47l43 -135c12,-34 31,-109 46,-137l267 47c1,9 -81,259 -89,272zm-1679 -36c-35,-6 -83,-24 -120,-34 -29,-9 -99,-26 -121,-38l83 -258 242 69 -84 261zm1345 -25c-31,-5 -249,-48 -264,-56l86 -267 268 55c-14,46 -30,90 -44,134 -7,25 -36,118 -46,134zm-1649 -65l-236 -72c11,-57 75,-213 81,-260l237 72c-1,17 -13,48 -19,65 -7,23 -13,43 -21,65 -14,42 -29,87 -42,130zm1319 -4l-239 -54 84 -267 241 53c0,12 -79,257 -86,268zm-302 -71l-238 -58 82 -265 238 58c-5,35 -30,97 -41,134 -13,40 -34,93 -41,131zm3149 17l-286 2 92 -289 286 -4 -92 291zm-358 0l-278 -6 91 -286 283 5c-16,48 -29,96 -46,144 -6,19 -39,137 -50,143zm-346 -9l-279 -16 89 -282 280 13 -90 285zm-3762 -27l-122 -38c-36,-12 -89,-26 -123,-41l78 -249c4,-7 0,-3 6,-8l245 79c-13,40 -71,239 -84,257zm4806 23l-271 11 87 -277c4,-10 2,-10 10,-15l269 -12c-15,50 -31,98 -46,148 -8,27 -38,127 -49,145zm-1390 -17l-278 -24 83 -265c4,-13 1,-10 11,-15l272 22 -88 282zm1732 -5l-269 19 92 -295 270 -20 -93 296zm-2077 -24l-272 -33c-1,-9 79,-265 87,-278l270 30c5,10 -12,52 -17,69 -8,24 -15,47 -23,71 -14,47 -31,96 -45,141zm-2055 -34l-243 -64c2,-17 14,-45 20,-65 6,-21 13,-46 20,-67 7,-22 14,-43 21,-65 5,-16 14,-53 21,-66l242 64c-3,19 -12,44 -19,64 -7,24 -14,44 -21,67 -7,21 -13,43 -20,65 -7,19 -18,48 -21,67zm4475 24l-273 28 94 -297 269 -29c3,4 2,6 -1,15 -2,7 -4,12 -6,18 -25,81 -64,193 -83,265zm-2759 -33c-32,-2 -255,-33 -271,-40l84 -272 273 36 -86 276zm-3041 -35l-244 -81 78 -257 248 81c-4,23 -76,250 -82,257zm6146 23c-31,8 -228,31 -275,37l47 -152c8,-25 16,-49 23,-74 7,-20 17,-58 25,-75l274 -37 -94 301zm-3443 -37l-269 -46 83 -272 271 44 -85 274zm-1684 -24l-244 -70 80 -262 244 69 -80 263zm1350 -35c-28,-2 -255,-46 -268,-53l82 -269 269 51 -83 271zm-1656 -55c-32,-4 -85,-24 -119,-34 -37,-12 -83,-29 -119,-36l79 -261 236 70c1,11 -4,23 -7,34l-30 97c-13,45 -29,88 -40,130zm1321 -11l-241 -53 80 -269 245 53c-10,37 -73,253 -84,269zm-305 -69l-238 -57c1,-10 73,-257 79,-267l239 57 -80 267zm-1315 -13c-18,0 -235,-70 -250,-78l77 -259 250 79 -77 258zm4119 6l-283 -4 86 -286 283 1c-1,22 -33,117 -42,144 -13,42 -29,110 -44,145zm-352 -7l-280 -12 85 -284 281 11c-2,25 -32,112 -41,141l-45 144zm708 1l-287 7 86 -289 287 -8 -86 290zm-1055 -18l-276 -21c-1,-7 73,-259 81,-280l279 18 -84 283zm1398 3c-28,5 -250,16 -275,12l88 -290 274 -15 -87 293zm-1742 -31l-277 -28 82 -279 277 27 -82 280zm-2063 -16c-27,-2 -90,-21 -122,-30 -39,-10 -83,-25 -122,-32l77 -266 246 63 -79 265zm3874 43l88 -294 270 -24c-5,34 -62,211 -77,261 -13,46 6,34 -121,45 -53,5 -106,9 -160,12zm-5198 -79l-249 -82 75 -258c12,0 222,70 250,80 -11,48 -40,139 -57,193 -6,21 -15,46 -19,67zm3045 15l-275 -37 81 -276 274 35c0,17 -32,113 -39,138 -13,47 -30,95 -41,140zm2494 35l88 -297 271 -31c2,13 -67,234 -76,266 -3,9 -6,26 -12,31 -6,4 -105,14 -114,15 -41,4 -121,18 -157,16zm-2835 -82l-271 -44 80 -274 272 43c-2,19 -13,48 -19,68 -7,25 -13,46 -20,70l-42 137zm-1689 -14l-243 -67 75 -264 247 68c-8,39 -27,95 -38,133 -9,27 -30,112 -41,130zm1352 -43l-268 -49 77 -272 271 49c-2,21 -70,254 -80,272zm-1658 -43c-15,-2 -43,-12 -58,-17 -33,-9 -167,-48 -181,-55l73 -261 242 70 -76 263zm1326 -20l-246 -52 76 -270 245 50c4,16 -69,233 -75,272zm-309 -68c-20,-1 -231,-52 -240,-57l73 -266 243 55 -76 268zm-1319 -3l-250 -78 71 -261c12,0 246,73 253,79l-74 260zm4485 -34l-287 7 74 -265 287 -9 -74 267zm-360 8l-279 -2 72 -263 286 0 -56 200c-4,13 -12,58 -23,65zm-348 -3l-277 -11c-3,-6 -2,0 -2,-8l33 -121c10,-34 31,-99 35,-132l284 10 -73 262zm-349 -15l-280 -18 71 -258 281 17 -72 259zm-346 -25l-278 -26 71 -256 278 25 -71 257zm1748 12c-12,6 -51,7 -66,8l-210 11 75 -267 275 -18 -74 266zm-3815 -12c-21,-3 -235,-57 -246,-64l72 -265 248 62 -74 267zm4153 -15l-269 25c3,-21 72,-263 76,-270l270 -25c-9,44 -41,149 -56,203l-21 67zm-5481 -15l-249 -82 70 -261 248 81c5,8 -10,50 -13,63 -6,23 -12,43 -19,66 -12,45 -24,89 -37,133zm3050 -4l-275 -35 66 -240c4,-14 1,-9 8,-13 46,3 94,12 141,17l106 12c34,4 29,-6 7,73 -6,22 -11,40 -17,62 -9,31 -24,100 -36,124zm2777 -21l-273 33 74 -271 273 -35 -74 273zm-3116 -24l-275 -42c9,-31 65,-244 71,-251l270 40c4,9 -10,48 -14,61 -5,21 -11,42 -17,64 -11,41 -28,89 -35,128zm-1692 -1c-21,-3 -239,-64 -248,-70l71 -263 249 67 -72 266zm1353 -55c-11,3 -251,-39 -271,-47l66 -249c23,2 268,46 270,48 5,6 -26,107 -30,122 -9,37 -22,92 -35,126zm-2684 1l-250 -85 69 -260 250 84c0,25 -26,104 -33,131 -10,38 -23,95 -36,130zm1021 -32c-19,-3 -41,-12 -60,-17l-182 -54 70 -264 242 70 -70 265zm1327 -29l-247 -50c9,-41 22,-84 33,-125 6,-22 27,-113 34,-123l247 50 -67 248zm-310 -65c-17,-1 -231,-50 -243,-56l63 -245 244 54 -64 247zm-1323 3c-36,-6 -89,-27 -126,-38 -20,-6 -41,-13 -63,-20l-55 -17c-7,-4 -3,-1 -7,-6l68 -260 253 77c0,16 -62,251 -70,264zm4132 -31l-285 3 67 -261 285 -3 -67 261zm-358 1l-278 -8 66 -259 284 8c-10,43 -22,87 -33,130 -4,15 -27,121 -39,129zm-345 -12l-282 -16c4,-23 63,-250 68,-257l280 17 -66 256zm821 10l-50 -1 68 -259 288 -13c-3,30 -20,83 -28,115 -10,37 -21,79 -31,115 -8,34 -1,34 -38,35 -60,0 -145,8 -209,8zm-1170 -33c-27,1 -252,-19 -278,-25l65 -253 279 25c-1,17 -58,236 -66,253zm-2064 -8l-248 -62 63 -245 249 61 -64 246zm3817 10l-275 19 68 -266 275 -19 -68 266zm-2096 -33l-278 -32 64 -252 278 31 -64 253zm2436 -1l-271 28 68 -267 271 -27c-1,27 -25,102 -32,132 -12,46 -23,89 -36,134zm-5486 -1l-251 -81c0,-19 25,-105 31,-130 10,-38 27,-96 32,-133l255 81 -67 263zm2707 -40l-272 -40c-3,-11 1,-19 4,-31 10,-38 51,-210 57,-219l274 39 -63 251zm-1688 -15c-14,0 -237,-61 -250,-68l60 -241 250 65 -60 244zm4811 14l-273 35 68 -269 273 -36 -68 270zm-3463 -51c-21,0 -248,-41 -274,-48l61 -244c15,-5 111,16 135,20 13,2 134,22 136,23 6,4 7,-5 -2,29 -3,10 -6,21 -8,31l-48 189zm-2681 -11l-252 -84 63 -263c18,4 249,82 254,86l-65 261zm1021 -37c-20,-1 -213,-60 -244,-70l59 -242 245 70 -60 242zm1322 -11c-35,-8 -234,-43 -248,-52l59 -244 249 48c0,21 -51,210 -60,248zm-312 -64l-244 -54 58 -246 245 54 -59 246zm-1316 -14l-256 -77 58 -242 256 77 -58 242zm1009 -57c-30,-1 -95,-21 -125,-28 -41,-10 -86,-20 -126,-32l57 -243c23,4 241,56 250,61l-56 242zm2766 30c-45,0 -101,1 -146,-2 -40,-3 -101,1 -139,-6l63 -263 285 5 -63 266zm354 -4l-287 4c13,-68 39,-159 56,-233l10 -34 285 -4 -64 267zm-707 -5l-281 -14 62 -263 207 10 12 -1 25 2 38 1c1,18 -55,248 -63,265zm1064 -8l-288 13 63 -269 289 -14 -64 270zm-1412 -12l-278 -22 60 -260c7,-2 253,17 281,21 -7,42 -21,90 -30,130 -6,27 -24,114 -33,131zm1756 -12l-276 20 64 -271 276 -22 -64 273zm-5147 -30l-255 -81 55 -240c20,1 101,30 126,38 43,14 85,26 129,41 0,23 -20,93 -26,120 -9,38 -23,84 -29,122zm3046 12l-278 -30 60 -259 278 29c0,22 -23,104 -29,131 -10,43 -20,88 -31,129zm-343 -40l-277 -38 59 -258 277 38 -59 258zm2514 51c0,-17 38,-167 47,-206 4,-19 6,-53 19,-67l268 -30c-4,34 -48,213 -59,259 -5,21 0,15 -57,21l-218 23zm-4204 -59c-7,-1 -230,-54 -251,-68l54 -237c20,-6 207,57 253,61l-56 244zm1347 -41l-274 -46 57 -256 277 46c-10,39 -19,84 -29,127 -7,31 -21,108 -31,129zm-2677 -25c-46,-20 -232,-71 -254,-86 2,-19 49,-233 54,-240l254 85 -54 241zm1016 -18l-246 -69c4,-36 19,-83 27,-121 5,-23 20,-109 28,-120l245 69 -54 241zm1323 -16c-30,-3 -237,-42 -250,-49l56 -253 251 48 -57 254zm-1631 -73c-27,-2 -150,-44 -191,-56 -22,-7 -46,-16 -66,-19l51 -241c18,0 212,64 258,75l-52 241zm1317 12c-34,-6 -225,-45 -246,-55l54 -251 246 52 -54 254zm-309 -70c-25,0 -208,-49 -252,-58l52 -252 252 59c-1,49 -47,196 -52,251zm2772 6l-171 -1 -60 -1 -55 -2 58 -268 286 2 -58 270zm67 -2l58 -267 287 -7c-3,29 -44,213 -54,256 -5,21 -3,16 -59,16 -54,0 -196,8 -232,2zm-419 -3l-285 -14 58 -265 284 11 -57 268zm-355 -18l-276 -21 56 -264 282 20c-11,66 -34,163 -50,234 -7,31 -2,25 -12,31zm-3393 -22l-257 -81c3,-22 46,-230 51,-239l257 80 -51 240zm4812 23l-289 15 57 -271 290 -16 -58 272zm68 -5l57 -271 275 -25c-3,36 -43,212 -53,261 -5,20 1,12 -58,18 -56,6 -174,17 -221,17zm-1828 -24l-278 -29 52 -263 280 29 -54 263zm-2039 -30l-253 -66 50 -250 254 65c0,23 -46,211 -51,251zm1693 -9c-22,3 -231,-31 -276,-36 -2,-10 47,-250 53,-260l275 35c3,13 -43,234 -52,261zm2790 4l-272 31 57 -271c6,-6 -2,-1 6,-4 4,-2 4,-2 7,-2l260 -30 -58 276zm-3132 -52c-18,2 -114,-16 -138,-20 -45,-7 -96,-18 -140,-23l52 -259 278 44 -52 258zm-2682 -10c-21,-2 -247,-78 -257,-86l47 -237c8,0 252,81 258,86l-48 237zm1013 -17l-246 -69 49 -249 248 68c0,19 -46,240 -51,250zm1327 -28l-251 -47 50 -258 253 46 -52 259zm-1636 -59l-259 -77 48 -249 260 76 -49 250zm1320 -3l-248 -51 50 -256 248 51c0,28 -17,95 -24,127 -8,43 -18,86 -26,129zm-311 -66c-24,-3 -244,-55 -254,-61l48 -255c26,7 247,57 250,59 7,5 6,-1 0,28l-44 229zm2777 -13l-287 -2c9,-44 17,-88 25,-132 3,-15 20,-128 28,-131l283 0 -49 265zm354 -7l-288 7c4,-41 18,-91 25,-133l19 -99c4,-21 1,-30 11,-33l283 -8 -50 266zm-708 2c-18,5 -242,-10 -284,-10l50 -261 285 10c-5,32 -44,245 -51,261zm-3755 -11c-42,-12 -87,-26 -128,-39 -44,-14 -87,-30 -129,-41l45 -249 261 81c-8,41 -15,83 -23,125 -6,30 -16,102 -26,123zm3406 -4l-283 -18 48 -261 284 20 -49 259zm1415 -7l-290 17 49 -264 145 -10c45,-3 103,-3 145,-10l-49 267zm-1764 -17l-281 -29 47 -257 283 27 -49 259zm-2043 -19c-28,-4 -245,-59 -254,-67l46 -252 256 64c-2,24 -42,242 -48,255zm4150 7l-275 25 49 -268 275 -25 -49 268zm-2453 -25c-31,-1 -260,-30 -280,-38l46 -251c4,-2 0,-1 7,-2l131 16c48,7 95,14 142,17 1,40 -41,210 -46,258zm2794 -14l-273 32 49 -267 273 -35 -49 270zm-5824 -23l-260 -84 44 -249 260 85 -44 248zm2686 -9c-53,-5 -194,-29 -261,-40 -5,-1 -4,-1 -8,-2l-10 -4 45 -252 279 43 -45 255zm-1669 -20c-19,2 -213,-58 -250,-66l44 -254 251 68 -45 252zm1073 -83l43 -252 254 46c-5,41 -14,85 -21,127 -3,17 -17,120 -26,125 -5,3 -236,-39 -250,-46zm-1388 -4l-260 -75 42 -253 263 76c-2,26 -39,242 -45,252zm1076 -59c-5,-11 16,-111 18,-122 3,-20 17,-115 22,-126 4,-6 -9,-7 28,1l220 45c5,12 -16,114 -18,125 -3,19 -18,120 -24,125 -6,6 -47,-6 -59,-8 -47,-9 -152,-29 -187,-40zm-66 -15l-256 -58 41 -251 256 57 -41 252zm-1332 -22c-16,-1 -253,-76 -262,-83l40 -250c32,5 94,29 130,40l132 41c1,23 -33,216 -40,252zm4110 1l-287 0 45 -275 287 -2 -45 277zm355 -11c-35,5 -259,12 -289,9l48 -276 286 -9 -45 276zm-708 10l-285 -10 44 -274 285 8 -44 276zm-353 -14l-254 -16c-38,-3 -30,8 -17,-73l32 -203 285 18c-2,38 -15,99 -22,138 -5,34 -14,108 -24,136zm-2390 -38c-37,-8 -241,-56 -258,-66l38 -245c11,-8 115,24 127,27 22,5 44,11 66,16 19,5 49,11 65,17 1,26 -13,96 -18,126 -4,21 -7,42 -10,63 -4,19 -9,44 -10,62zm3808 22l-291 19 46 -279 289 -19 -44 279zm-1765 -8l-282 -26c-1,-17 41,-268 42,-270 7,-6 120,9 138,11 49,4 96,8 145,12l-43 273zm-347 -38c-17,8 -269,-29 -281,-31l41 -271 281 35 -41 267zm2179 41l45 -279 274 -27c0,20 -38,254 -41,268 -4,16 -5,13 -23,14 -12,1 -25,3 -36,4 -23,2 -47,5 -72,7 -48,4 -97,10 -147,13zm-5213 -67c-22,-3 -250,-79 -261,-86l38 -251 261 85c2,24 -32,212 -38,252zm5829 -2c-25,8 -237,32 -274,35l43 -271c1,-1 1,-2 1,-3l4 -7 270 -34 -44 280zm-3142 -13l-278 -42c-4,-15 36,-259 38,-269l279 41c5,15 -15,119 -17,133 -7,47 -16,92 -22,137zm-1670 -17c-27,-5 -240,-62 -251,-70l36 -247c12,-1 216,58 253,66l-38 251zm1326 -37c-21,-1 -248,-42 -256,-47l39 -265 257 44 -40 268zm-2667 -36l-263 -90 39 -252 261 89 -37 253zm1027 -15c-30,-1 -233,-71 -264,-75l35 -251 265 77 -36 249zm1319 -9c-7,3 -224,-42 -250,-50l37 -262c10,-6 47,5 62,9 22,4 43,8 63,12 42,8 86,19 128,25 -4,44 -12,89 -18,133 -4,26 -15,116 -22,133zm-1646 -86l-263 -81 32 -250 265 81 -34 250zm1076 -35l35 -265 258 56c-1,36 -24,181 -32,236 -3,22 -1,27 -9,29 -5,2 -225,-50 -252,-56zm2397 3l38 -276 286 8 -36 270c-4,10 -11,5 -26,5l-115 -2c-48,-2 -97,-5 -147,-5zm995 -4l-289 11 38 -278 288 -10c2,28 -13,107 -17,140 -6,46 -12,92 -20,137zm-354 12l-288 1 37 -276 287 -2 -36 277zm-706 -11l-285 -17 37 -274 285 16 -37 275zm-2398 -18c-28,-1 -101,-23 -131,-30 -37,-10 -92,-21 -127,-33l35 -265 260 64c-2,28 -31,251 -37,264zm2046 -6l-281 -24 35 -273 284 25c-1,30 -31,259 -38,272zm1770 -1c-40,8 -100,9 -142,12 -49,3 -100,8 -148,9l36 -279 290 -19 -36 277zm-2119 -32c-19,0 -273,-31 -277,-33 -6,-4 3,-47 5,-62 7,-55 24,-164 26,-210l284 34c-2,32 -30,256 -38,271zm-3296 -96l29 -249 265 85c2,24 -20,166 -26,208 -1,7 -3,30 -5,35 -3,10 -11,4 -24,0 -41,-12 -78,-27 -119,-39 -35,-10 -89,-26 -120,-40zm5755 96c-23,6 -244,27 -274,27l37 -278 274 -28c-5,46 -11,94 -17,141 -4,26 -12,117 -20,138zm-4477 -40l-253 -68 32 -266 255 68 -34 266zm1673 -2l-281 -41 33 -271 282 41 -34 271zm3145 0l-273 35 36 -280 272 -36 -35 281zm-6160 -78c-18,2 -226,-74 -260,-85l31 -249 259 87 -30 247zm2669 25l-257 -45 32 -268 259 44 -34 269zm-1643 -33c-27,-2 -103,-28 -133,-37 -41,-12 -92,-30 -133,-39l30 -265 267 77 -31 264zm1322 -24l-253 -51 30 -265c4,-1 1,-1 8,-1 3,0 4,0 7,0 3,0 11,3 15,3 39,8 217,40 225,47l-32 267zm-1918 -155l28 -262 267 81c1,20 -20,208 -27,251 -3,19 -6,13 -25,7 -35,-11 -226,-67 -243,-77zm1602 89c-28,0 -100,-20 -131,-27 -40,-9 -88,-23 -128,-29l28 -268 261 57 -30 267zm-324 -72l-261 -64 27 -268 262 64c1,37 -8,95 -12,133 -5,44 -12,91 -16,135zm2744 16l-279 -6 28 -276 287 6c0,41 -16,160 -22,212 -2,23 -2,64 -14,64zm713 -13c-44,2 -263,15 -288,10l31 -275c42,-2 265,-14 288,-12 0,32 -23,257 -31,277zm-352 13l-289 2 30 -277 288 -2 -29 277zm-708 -10l-283 -15 28 -275 286 16c-2,43 -9,92 -14,137 -4,38 -8,102 -17,137zm1419 -30c-19,7 -114,12 -142,13 -48,4 -101,5 -149,10l30 -278 289 -21 -28 276zm-1768 9c-25,2 -262,-19 -285,-25l28 -272c26,2 281,24 281,24 8,4 3,19 2,29l-26 244zm-350 -31l-284 -32 27 -274 284 34 -27 272zm-3305 -77l25 -264 269 88c-7,33 -18,199 -26,250 -2,10 4,17 -26,6 -45,-16 -221,-68 -242,-80zm5488 94c8,-43 23,-262 32,-277l271 -29c-2,30 -24,267 -28,275 -5,9 -45,9 -65,12 -23,2 -45,4 -68,7 -35,4 -109,15 -142,12zm-4205 -53c-34,-4 -95,-24 -129,-33 -19,-5 -116,-33 -126,-32l24 -269 257 68 -26 266zm1674 -5l-285 -41 27 -272 286 41 -28 272zm2873 23l28 -279 271 -37c0,18 -25,272 -28,276 -5,8 -115,20 -133,22 -44,6 -93,15 -138,18zm-5893 -79c-20,-4 -45,-14 -65,-21 -23,-8 -42,-15 -65,-23 -24,-8 -114,-36 -129,-45l27 -261 257 86 -25 264zm2672 3l-258 -43 24 -271 260 44 -26 270zm-1645 -29c-18,0 -236,-65 -268,-76l22 -263c12,-5 51,11 65,15l204 59 -23 265zm1318 -27l-251 -50 23 -269 255 48c3,32 -7,100 -10,135l-11 120c-2,15 -2,12 -6,16zm-314 -64c-38,-7 -245,-50 -262,-60l22 -267 262 57 -22 270zm-1335 -7c-14,4 -115,-31 -136,-37 -43,-14 -93,-31 -134,-41l21 -268 269 83 -20 263zm4469 -74c-46,5 -97,5 -145,7 -37,2 -109,9 -145,4l21 -249 289 -11 -20 249zm-710 17l-286 -6 21 -257 287 9c-5,41 -6,85 -9,127 -2,26 -6,107 -13,127zm-2749 -13c-4,1 -2,1 -8,1l-125 -29c-24,-6 -115,-25 -130,-34l19 -267 264 63 -20 266zm3815 -29l-290 22 19 -250 290 -20 -19 248zm-692 -200l-18 238c-36,6 -237,4 -288,4l19 -253 289 0 -2 11zm-724 232c-69,0 -209,-10 -286,-14 -3,-9 -1,-17 1,-30 5,-58 17,-185 17,-230l287 18 -19 256zm-352 -20c-50,0 -126,-8 -181,-13 -1,0 -1,0 -2,0l-103 -10 19 -265 286 28 -19 260zm-351 -32c-15,4 -255,-24 -285,-31l19 -268 269 33c13,2 17,-1 16,20l-19 246zm-3039 18c-20,-1 -249,-79 -269,-85l18 -266 270 86 -19 265zm5498 -33l-275 30 19 -250 273 -29 -17 249zm-4723 -349c24,-1 221,62 260,66l-20 268c-11,1 -239,-59 -257,-68l17 -266zm5078 53l-17 250 -273 38 18 -249 272 -39zm-3429 -43l285 45 -19 271 -286 -41 20 -275zm-328 -59c27,1 155,28 200,36 16,3 51,3 62,16l-18 266c-1,1 -2,1 -3,1l-128 -17c-41,-7 -90,-18 -129,-23l16 -279zm-1658 -48l273 77 -17 269c-36,-5 -100,-28 -138,-38 -40,-11 -93,-25 -133,-39l15 -269zm-1008 20l255 86 -18 267 -256 -87 19 -266zm2344 -39c39,4 89,18 131,27l98 20c34,6 27,3 29,11l-17 275c-20,0 -222,-41 -256,-49l15 -284zm-1673 -82l245 74c11,3 28,3 28,14 0,35 -11,237 -17,263l-135 -41c-24,-7 -47,-15 -70,-22 -14,-4 -57,-13 -64,-24l13 -264zm1344 6c38,4 151,35 204,47 21,4 61,9 61,20 0,66 -11,207 -15,280l-263 -59 13 -288zm2673 299c-81,0 -149,-5 -222,-6 -19,-1 -63,1 -65,-8 -1,-3 13,-255 14,-285l288 3c0,78 -10,213 -15,296zm-3003 -384l267 67 -15 292 -264 -66 12 -293zm4081 29l-15 318 -289 21 13 -312 291 -27zm-710 52c1,37 -10,269 -15,302 -40,5 -231,3 -287,3l16 -298 286 -7zm-994 -10l287 13c2,33 -9,260 -14,288 -25,-7 -236,-8 -286,-20l13 -281zm-352 -25c13,-5 119,8 143,10 41,3 106,4 145,11l-15 281 -252 -24c-6,-1 -13,-1 -20,-2 -11,-1 -3,0 -14,-3l13 -273zm1412 35c12,-6 254,-18 289,-20 0,9 -11,283 -16,306l-3 5c-1,0 -2,0 -3,0 -16,2 -259,13 -282,9l15 -300zm-1764 -75l287 32 -13 274c-48,-4 -97,-11 -145,-17l-110 -15c-30,-4 -24,-1 -30,-9l11 -265zm-3026 -35c17,3 109,35 137,43 23,7 47,16 69,22 22,7 48,18 69,21l-13 265c-5,2 -2,2 -10,2l-261 -84 9 -269zm1276 306c-27,-5 -248,-63 -255,-67 -6,-4 -2,4 -5,-7l6 -140c4,-48 -1,-108 5,-153l262 72 -13 295zm-1593 -413l254 84 -12 270 -225 -76c-24,-8 -23,-4 -28,-14l11 -264zm2990 92l288 41 -11 269c-33,-2 -272,-39 -286,-47l9 -263zm3097 30c2,21 -1,58 -2,81l-8 203c-1,8 -1,15 -2,22 -1,18 -1,15 -4,17 -10,7 -239,29 -269,31l13 -318 272 -36zm-3424 -86l263 46 -10 263c-24,1 -230,-40 -261,-48l8 -261zm3760 33c2,20 -9,308 -13,331l-270 38 12 -325 271 -44zm-5761 -229l263 82c13,4 8,0 14,8 2,8 -5,284 -9,300l-272 -83 4 -307zm1347 58l266 60 -7 258 -135 -31c-150,-36 -129,-20 -128,-73l4 -214zm-1006 48l277 82 -11 298c-33,-6 -257,-71 -273,-78l7 -302zm5089 -172l-3 283 -271 34 3 -281 271 -36zm-3753 198l260 52 -9 261 -257 -55 6 -258zm2709 -101c6,34 -4,226 -4,280 -41,4 -255,11 -288,6l5 -277 287 -9zm-994 -3l287 9c5,22 0,111 0,142 0,43 -3,90 -3,136l-288 -13 4 -274zm-707 -58l287 28c7,30 0,103 0,138 0,45 0,88 -2,133l-287 -33 2 -266zm-3026 -82l278 90 -6 308c-49,-12 -94,-30 -140,-44 -18,-6 -128,-37 -133,-48l1 -306zm2672 36l290 38 -4 266c-36,-6 -249,-33 -275,-39 -17,-5 -7,1 -12,-8l1 -257zm-1319 50l270 68 -4 254c-26,2 -222,-57 -268,-67l2 -255zm4083 3l-4 283 -289 27 0 -12 1 -33 2 -236 290 -29zm-353 33l-6 282 -289 17c-1,-48 3,-95 3,-143 0,-10 -1,-128 5,-137l287 -19zm-997 30l290 2 -7 279 -287 -4 0 -11 4 -266zm-707 -36l289 21c1,87 -5,184 -5,272 -23,1 -245,-19 -287,-23l1 -32 2 -238zm-1035 -131l265 41 -3 263 -263 -45 1 -259zm-2410 303c-33,-6 -90,-29 -123,-40 -20,-7 -40,-14 -62,-21 -80,-25 -69,-16 -68,-55 0,-51 0,-263 3,-279l252 84 -2 311zm6172 -296l-2 277c-5,9 -1,5 -14,8l-119 20c-45,8 -93,16 -137,22l2 -283 270 -44zm-5424 -98l278 83 0 255c-46,-10 -95,-28 -141,-41 -45,-13 -94,-29 -135,-40l-2 -257zm343 133l0 -9 -1 -22c18,3 259,71 265,74l-3 254 -263 -74 2 -105 0 -118zm993 -102c58,8 162,31 231,43 20,3 28,1 30,10l0 253 -260 -54 -1 -252zm1711 -118l289 7 4 271c-95,0 -196,-10 -290,-10l-1 -233 -2 -35zm-2041 295l-2 -224 -1 -23 268 57 0 251c-23,-1 -102,-23 -134,-30 -43,-9 -88,-19 -131,-31zm2684 -289l3 276 -289 -3 -3 -270 289 -3z"/>
   </g>
  </g>
 </g>
</svg>
