<?xml version="1.0" encoding="UTF-8"?>
<!DOCTYPE svg PUBLIC "-//W3C//DTD SVG 1.1//EN" "http://www.w3.org/Graphics/SVG/1.1/DTD/svg11.dtd">
<!-- Creator: CorelDRAW X6 -->
<svg xmlns="http://www.w3.org/2000/svg" xml:space="preserve" width="64.0958mm" height="64.0958mm" version="1.1" style="shape-rendering:geometricPrecision; text-rendering:geometricPrecision; image-rendering:optimizeQuality; fill-rule:evenodd; clip-rule:evenodd"
viewBox="0 0 5861 5861"
 xmlns:xlink="http://www.w3.org/1999/xlink">
 <defs>
  <style type="text/css">
   <![CDATA[
    .fil0 {fill:#04D999}
    .fil1 {fill:#1FFED6}
    .fil2 {fill:#98E3CD}
   ]]>
  </style>
 </defs>
 <g id="Layer_x0020_1">
  <metadata id="CorelCorpID_0Corel-Layer"/>
  <g id="_282132920">
   <rect class="fil0" width="5861" height="5861"/>
   <path class="fil1" d="M2657 5771c-28,1 -99,-16 -132,-21l51 -141 132 22 -51 140zm-2656 -5771l253 0c1,11 -3,6 24,16 11,4 21,7 32,11 19,6 44,17 65,21l-2 -46 69 -2 88 0 1 98c3,9 62,24 70,27 23,8 49,18 73,23l-3 -146 69 -2 88 0 0 25 9 -25 288 0c0,12 2,9 28,17l115 34 -1 -49 76 -2 80 0 2 97 131 37 -2 -132 69 -2 87 0 3 176 135 34 -1 -112 -94 -21 18 -77 360 0c28,4 37,2 72,0l88 0 1 32c15,7 107,22 127,25l-1 -55 70 -2 87 0 2 84 129 21 -1 -103 76 -2 81 0c0,26 -1,117 3,128l152 22 -3 -148 68 -2 88 0 3 168 151 15 -2 -181 70 -2 87 0 3 197 152 11 -3 -206 72 -2 0 0 759 0 3 78 -60 3 2 142 151 -4 -2 -216 78 -3 78 0 4 211 151 -9 -3 -200 69 -2 88 0 3 189 152 -15c0,-30 -2,-55 -2,-84 0,-25 -4,-65 0,-88l68 -2 87 0 3 155 136 -17 -3 -135c6,-1 24,-2 45,-3l112 0 2 113c22,2 105,-18 135,-21l-2 -90 69 -2 35 0 0 1329c-1,18 -1,31 0,36l0 3 0 86 -14 2 -18 141 22 -1 10 69 0 87 -55 8 -22 142 67 -9 10 70 0 87 -101 15c-7,4 -26,128 -26,132l115 -17 3 10c0,2 1,6 1,9l8 52 0 85c-36,9 -130,18 -159,25l-29 137 178 -26 10 62 0 405 -26 108 15 -1 11 70 0 86c-21,5 -55,5 -70,12l-35 132 93 -14c2,5 7,33 12,64l0 92 -154 23 -45 157 187 -27 5 25c3,16 2,21 7,25l0 264c-3,14 -5,29 -3,43 1,7 2,14 3,21l0 85 -47 8c-6,8 -51,143 -53,158l89 -12 11 71 0 84 -156 24c-7,10 -50,138 -55,158l130 -19 9 -24c8,0 25,9 36,12 8,2 16,2 20,3 9,2 5,4 16,9l0 0 0 237 -20 58c1,0 1,1 2,1l8 7 8 49c1,6 2,11 2,16l0 86c-4,1 -9,1 -15,2 -22,3 -44,6 -65,10 -1,2 -1,2 -3,5 -10,18 -55,152 -55,154 21,-4 110,-19 128,-18l10 71 0 84 -201 30 -57 158 143 -20c12,-18 33,-95 44,-110l71 27 0 227 -1 4 -79 207 -88 0c-33,-12 -63,-24 -67,-27 8,-24 57,-148 58,-161l-144 19 -63 169 -88 0 -70 -25 46 -124 -124 13c-6,3 -35,89 -53,136l-88 0 -70 -25 35 -97 -123 9c-7,8 -34,88 -42,108l-1 5 -90 0c-31,-11 -61,-22 -67,-27l27 -78 -122 5 -38 100 -88 0 -68 -24c2,-21 24,-56 23,-72l-119 0c-10,17 -24,65 -36,96l-90 0c-33,-12 -64,-24 -68,-28l25 -69 -127 -2 -36 99 -90 0c-33,-12 -65,-25 -67,-28l28 -78c-26,0 -56,-2 -81,-4 -14,-1 -28,-1 -42,-3 -21,-1 -15,-1 -22,18 -11,32 -24,64 -36,95l-88 0 -69 -25 37 -99 -137 -11 -52 135 -87 0 -69 -25 46 -126 -135 -15c-6,18 -43,117 -62,166l-87 0 -70 -25c7,-26 21,-57 30,-82l26 -80 -131 -18 -76 205 -510 0 -100 -19c-2,6 -4,12 -6,19l-88 0c-13,-4 -23,-8 -37,-13 -12,-5 -26,-7 -32,-15l6 -24 -128 -29 -31 81 -88 0 -69 -25 33 -93 -128 -31 -56 149 -88 0 -70 -25 61 -164 -108 -29 -45 120 85 25 -19 73 -291 0 -86 -24 -10 24 -88 0 -69 -25 16 -45 -110 -33 -39 103 -87 0 -69 -25 45 -126 -110 -35c-8,14 -18,48 -24,64 -31,84 -1,24 -14,64 -6,19 -12,39 -19,58l-249 0 -44 -14 -7 14 -87 0 -31 -11 0 -130 13 -39c22,-61 7,-4 32,-71 8,-21 20,-49 26,-72l-71 -24 0 -86c12,-34 24,-67 26,-70 30,5 70,29 101,32l41 -114 -168 -57 0 -300 3 -8 -3 -1 0 -87c11,-33 23,-64 27,-70l30 10 44 -127 -101 -36 0 -85c12,-33 24,-66 27,-70l126 43 43 -128 -117 -40 -7 9 -72 -23 0 -252 20 -63 -20 -6 0 -88c11,-32 23,-63 27,-69l42 13 39 -128 -108 -38 0 -85c12,-33 24,-66 27,-70l126 43 37 -130 -190 -65 0 -393 1 -3c5,-15 9,-28 14,-41 1,-3 6,-17 7,-20 5,-10 11,-6 14,-10l30 -127 -66 -24 0 -81 27 -74 75 25 24 -112 -126 -43 0 -85 25 -71c15,0 109,37 134,44l21 -110 -180 -62 0 -88c11,-32 23,-63 27,-69l183 62 20 -114c-6,-5 -122,-46 -135,-47l-18 97 -77 -14 0 -495c3,-12 6,-27 9,-48 6,-44 15,-96 18,-141 -4,-3 5,2 -5,-3 -2,-1 -4,-2 -6,-3 -5,-2 -10,-3 -16,-5l0 -87c12,-33 23,-65 26,-69 12,2 12,6 20,3l13 -124c-15,-8 -39,-14 -59,-21l0 -87c12,-33 23,-65 26,-69l47 15 8 -128 -81 -29 0 -87c12,-33 24,-65 26,-69l64 21 5 -131 -95 -32 0 -88c11,-32 23,-62 26,-68l73 25 0 -168 -99 -35 0 -83 1 -2zm285 5734l-106 -34 39 -110c16,3 97,29 106,36l-39 108zm870 -15c-10,-1 -97,-26 -104,-31l43 -117 105 29 -44 119zm1209 1l-128 -26 50 -138 131 25c-3,16 -29,82 -38,105 -5,13 -8,28 -15,34zm-1465 -76l-109 -33c4,-18 38,-111 45,-118 22,8 94,25 107,34l-43 117zm1180 16l-128 -28c3,-17 27,-76 36,-101 2,-6 5,-12 7,-18l8 -17 129 28c-4,16 -46,128 -52,136zm-284 -65l-127 -31 48 -135 130 31c-7,22 -41,121 -51,135zm2447 14l-123 -2 55 -151 128 1c-4,18 -21,57 -28,77 -5,13 -22,69 -32,75zm294 -2l-122 2c3,-17 38,-106 49,-136 3,-8 2,-12 10,-17l119 -2 -56 153zm-584 -6l-137 -6 54 -149 139 5c-6,22 -48,137 -56,150zm-3311 -39c-12,-1 -101,-30 -112,-35l43 -116 111 34 -42 117zm4188 35l-124 6 57 -155 123 -6 -56 155zm-1178 -13l-122 -9c-20,-2 -16,-3 -8,-22l49 -126 134 9 -53 148zm1349 3l57 -156 125 -10c-1,12 -38,107 -45,126 -19,50 -9,26 -137,40zm-1648 -29l-135 -14 53 -145 135 13 -53 146zm2073 -10l-126 13 58 -158 125 -12c-1,12 -22,64 -28,79 -9,25 -20,53 -29,78zm-3913 -24l-106 -28 48 -133 109 27c-4,19 -17,48 -24,67l-19 51c-2,8 -3,11 -8,16zm1545 0l-134 -18 51 -143 135 17 -52 144zm-2677 -46l-106 -35 42 -116c18,4 94,28 106,36l-42 115zm2384 2c-26,3 -100,-17 -133,-19l51 -142 134 21 -52 140zm-1510 -27l-104 -30 47 -131c17,2 57,16 80,22l25 9 -48 130zm1220 -21l-131 -25 50 -139 131 24 -50 140zm-1476 -54c-12,-2 -102,-29 -109,-34 2,-14 41,-120 48,-128l108 32 -47 130zm1189 -4c-17,0 -48,-9 -65,-12 -23,-5 -44,-10 -66,-15l50 -137 130 27 -49 137zm-287 -63c-16,-2 -120,-26 -128,-31l49 -134c19,3 121,25 129,31 -4,17 -44,126 -50,134zm-1162 -12l-111 -35 46 -129 111 34c-3,26 -37,98 -46,130zm3327 -3l-138 -4c6,-25 30,-84 41,-115 13,-39 6,-35 40,-35l111 4c0,10 -48,141 -54,150zm295 4l-128 0 55 -152 129 0 -56 152zm291 -4l-123 3 56 -154 123 -3 -56 154zm171 -7l55 -155 125 -7 -45 125c-15,38 -5,30 -51,32 -28,2 -56,5 -84,5zm-1064 -6l-134 -9 54 -147 138 7c-7,25 -18,50 -27,75l-24 67c-3,6 -1,4 -7,7zm-296 -23l-136 -13 53 -146 136 13 -53 146zm1655 8l57 -154 126 -12c-14,48 -36,98 -52,145 -6,15 0,11 -49,16 -24,2 -60,7 -82,5zm-3498 -26l-109 -27 48 -134 109 27 -48 134zm1547 -14l-136 -16 53 -144 135 16 -52 144zm-2689 -14l-106 -34c2,-13 42,-121 47,-128l105 34 -46 128zm5068 11l-128 15 57 -157 128 -16 -57 158zm-2673 -35l-134 -21 51 -141c16,0 123,15 134,20l-51 142zm-1514 -17l-106 -29c2,-16 17,-48 23,-67 5,-15 17,-56 25,-65l105 28 -47 133zm-1136 -44l-116 -39 45 -127 116 39 -45 127zm2359 13l-133 -23 38 -106c2,-7 4,-12 6,-18 3,-8 5,-15 10,-16l127 28 -3 11c-3,6 -4,11 -7,18l-38 106zm-1481 -42l-110 -32c1,-11 40,-118 46,-130 12,1 104,27 111,32l-47 130zm1192 -12l-132 -26 49 -138 132 25 -49 139zm-1453 -67l-112 -34 46 -130 112 35 -46 129zm1167 6l-131 -29c8,-26 40,-121 49,-137l131 30 -49 136zm2467 -35l-129 0 54 -152 130 -1 -55 153zm-295 -2l-140 -2 53 -151 140 3 -53 150zm-307 -10l-137 -7 53 -149 138 7c-2,13 -49,143 -54,149zm895 3l-124 5c4,-21 14,-44 22,-64 7,-21 14,-39 22,-61 13,-38 5,-29 54,-30 23,-1 57,-2 80,-5l-54 155zm-3044 -23l-110 -27c2,-13 44,-128 48,-134l108 26c-2,20 -38,105 -46,135zm3340 4c-30,11 -92,2 -125,11 0,-8 47,-142 55,-156l124 -9 -54 154zm-1492 -3l-134 -11c-1,-10 43,-130 50,-146l138 10c-4,16 -49,141 -54,147zm-2993 -23l-107 -34 45 -128 107 34c0,10 -40,120 -45,128zm2696 -5l-134 -15c-2,-7 42,-129 50,-146l135 16 -51 145zm2087 5l-127 13 56 -157 127 -13 -56 157zm-3901 -46l-106 -28 46 -133 108 28 -48 133zm1519 4l-132 -18 3 -18c2,-6 4,-11 6,-18 5,-12 8,-23 13,-36 6,-17 18,-59 27,-71l134 18 -51 143zm2685 5l-128 17 55 -158 128 -17 -55 158zm-5342 -47l-116 -39 43 -127 118 38 -45 128zm2365 -2l-134 -23c6,-21 42,-127 50,-140l133 21 -49 142zm-1485 -31c-14,-3 -102,-28 -111,-33l45 -130 112 30 -46 133zm1195 -21l-133 -26 48 -138 134 25 -49 139zm-1459 -57l-111 -33c3,-16 39,-120 46,-131 20,5 39,12 57,17 18,6 40,11 55,18 -3,13 -42,123 -47,129zm1171 -1l-130 -29c1,-18 38,-117 46,-137l132 28 -48 138zm-287 -66c-11,-2 -101,-20 -109,-30l46 -131 112 25c-4,17 -43,127 -49,136zm2466 7l-140 -1c0,-3 40,-128 48,-143 3,-6 1,-4 7,-8l138 0 -53 152zm-306 -6l-139 -6 51 -150 139 6c-2,16 -18,57 -24,75 -9,26 -18,50 -27,75zm-3305 -15c-17,-4 -96,-28 -107,-36l43 -127 109 33 -45 130zm3778 21l52 -153 130 -2 -50 147c-6,10 -25,7 -45,7 -29,0 -58,1 -87,1zm424 -14l-126 6 53 -153 125 -8c-1,13 -20,61 -26,78 -9,25 -17,52 -26,77zm-1199 -9c-11,2 -99,-6 -122,-8l-17 -4 51 -145 138 10 -50 147zm1496 -13l-127 11c8,-25 46,-145 55,-155l125 -11 -53 155zm-1796 -11l-137 -15 49 -144 138 12 -50 147zm-1820 -26l-108 -28 46 -133 109 27 -47 134zm3915 7l-128 14c16,-43 30,-87 45,-130 12,-33 -2,-25 57,-32 27,-3 55,-7 81,-9l-55 157zm-2391 -15l-136 -18 48 -143 137 17 -49 144zm-2665 -24l-118 -39 44 -127 118 37c-1,11 -39,120 -44,129zm2369 -18l-133 -21 47 -142 134 20c0,11 -41,133 -48,143zm-1487 -19l-113 -32 45 -133 113 31 -45 134zm1198 -30l-67 -12c-22,-4 -46,-10 -67,-12l45 -138c10,-4 21,0 32,2l102 19c2,11 -40,119 -45,141zm-1462 -47l-113 -33c3,-17 38,-120 44,-132l114 34 -45 131zm1173 -10c-16,0 -77,-16 -100,-20 -10,-2 -27,-4 -34,-10 9,-21 17,-46 23,-67 4,-11 8,-22 12,-34 4,-13 7,-29 14,-35l131 28 -46 138zm-287 -64c-13,0 -100,-20 -112,-26 9,-25 35,-122 47,-135l110 25 -45 136zm-1149 -7c-10,-1 -102,-29 -109,-34l41 -129 111 33 -43 130zm3314 -10l-141 -6 49 -149 141 3 -49 152zm307 2l-142 0 50 -152 142 0 -50 152zm295 -6l-128 4 50 -152 131 -5c-1,13 -19,60 -24,76 -6,16 -19,68 -29,77zm-907 -10l-138 -9 48 -148 139 8c-1,14 -41,131 -49,149zm1204 -5l-126 8 50 -153c14,-6 107,-10 128,-10l-52 155zm-1502 -18c-17,1 -128,-9 -138,-13 -3,-9 39,-125 46,-146 25,3 52,5 78,7 15,2 26,3 41,4 23,1 21,-1 14,20 -6,17 -41,119 -41,128zm-1827 -9c-11,-1 -102,-25 -109,-29l44 -134 109 27 -44 136zm3500 13l51 -155 127 -12c-2,17 -35,108 -42,132 -10,30 -6,24 -58,29 -24,2 -56,7 -78,6zm-4645 -39c-18,-5 -108,-33 -117,-41l41 -126c27,2 89,30 120,37 -4,18 -37,122 -44,130zm2671 5l-134 -16c-3,-16 40,-126 44,-146l139 17c-5,19 -42,133 -49,145zm2274 5l51 -156 129 -18c-11,42 -28,90 -43,131 -4,12 -4,24 -15,28l-122 15zm-2568 -44l-136 -20 46 -142 136 18 -46 144zm-1493 -9l-113 -30c2,-16 38,-126 44,-134 17,4 103,25 112,32l-43 132zm-1151 -46l-118 -40 40 -128 120 39c-4,20 -13,44 -20,64 -7,21 -14,43 -22,65zm2351 8l-135 -24 45 -140 136 23c-3,18 -16,51 -23,70 -7,23 -17,48 -23,71zm-1466 -36l-114 -33 42 -133 116 33c-3,17 -38,122 -44,133zm1176 -18c-18,-2 -125,-23 -134,-29l43 -137 135 26 -44 140zm-1442 -62l-109 -33 41 -131 111 33c-2,13 -37,123 -43,131zm1153 0l-112 -24c1,-12 38,-128 43,-137l113 24 -44 137zm2480 -37l-143 0 47 -152 145 -2 -49 154zm-311 -2l-139 -2 47 -151 142 3c0,9 -18,62 -23,75 -4,14 -19,69 -27,75zm-2437 -23l-108 -27 42 -136 110 27c-2,14 -38,129 -44,136zm2135 14l-141 -8 46 -148 141 6 -46 150zm912 0l-132 6 48 -154 132 -5 -48 153zm-4190 -33l-121 -39 40 -130 122 38 -41 131zm2974 14l-138 -12 46 -147 140 11c-8,24 -15,50 -23,73 -7,22 -16,56 -25,75zm1511 0l-127 10 48 -154 129 -10 -50 154zm-1809 -28l-137 -16c0,-12 41,-140 46,-146l137 16 -46 146zm2107 0l-128 14 48 -155 129 -15c0,15 -41,137 -49,156zm-4015 -66c4,-17 36,-123 43,-133l114 30c-10,40 -27,83 -38,124 -5,17 -7,11 -56,-2 -12,-3 -55,-13 -63,-19zm1610 29c-24,-2 -121,-14 -136,-21l44 -142 138 19c-3,18 -40,134 -46,144zm2708 0l-131 18 49 -157 131 -19 -49 158zm-5357 -39l-118 -39c0,-13 31,-107 37,-129 18,3 45,14 62,19 18,7 45,11 60,22 -3,16 -36,118 -41,127zm2356 -6c-22,-2 -124,-17 -136,-24l43 -139 136 23 -43 140zm-1470 -25l-115 -33 40 -133 117 32c-1,13 -36,123 -42,134zm1176 -27l-134 -26 43 -139 108 20c16,3 30,0 26,14 -4,16 -38,126 -43,131zm-1442 -51l-112 -34 40 -132 113 33 -41 133zm1154 -7c-19,-4 -38,-8 -57,-12 -12,-3 -46,-9 -57,-15l41 -137 115 24 -42 140zm-267 -62l-111 -26c1,-12 35,-127 41,-137l111 26 -41 137zm-1150 -13l-120 -38 38 -131c18,4 115,34 123,39 -4,20 -33,118 -41,130zm3590 16l-139 -1c2,-16 13,-49 19,-66 6,-22 13,-44 19,-67 7,-25 -5,-18 64,-18 29,0 57,0 86,0l-34 115c-3,12 -6,31 -15,37zm313 -3c-32,0 -118,8 -145,2 7,-24 15,-49 23,-75l25 -76 143 -4 -46 153zm-617 -4l-140 -6 43 -149 143 5c-2,14 -41,142 -46,150zm-303 -17l-140 -9 44 -148 141 10c-2,17 -38,137 -45,147zm1086 15l45 -150c5,-3 -4,0 6,-3l128 -6 -38 128c-10,34 -1,24 -59,28 -23,1 -58,5 -82,3zm301 -18l46 -155 129 -10 -43 146c-5,15 -1,9 -51,13 -26,3 -54,6 -81,6zm-1686 -22l-140 -13c2,-15 39,-139 44,-147l139 14 -43 146zm-1798 -20l-116 -29 39 -136 117 30 -40 135zm3911 1l-129 15c5,-22 41,-145 47,-156l129 -15c-5,24 -15,53 -23,78 -7,24 -14,55 -24,78zm-2412 -14l-139 -18 43 -145 138 18c1,10 -35,129 -42,145zm-2656 -22l-120 -40 37 -130 123 40c-3,15 -34,123 -40,130zm2361 -20l-138 -22 41 -144 139 23 -42 143zm-1472 -17l-118 -32 38 -134 119 32 -39 134zm1180 -33l-139 -25 40 -142 137 25c1,10 -15,57 -19,70 -4,16 -19,59 -19,72zm-1449 -44l-114 -33 38 -133 114 33 -38 133zm1155 -14l-115 -24 39 -139 116 24c-3,21 -13,49 -19,70 -3,11 -7,23 -10,35 -3,9 -7,27 -11,34zm-1418 -66l-123 -38c0,-11 33,-125 37,-132l122 38 -36 132zm1150 7l-113 -25 37 -138 114 25 -38 138zm2450 -17l-145 0 36 -130 145 -1 -36 131zm-307 -4l-144 -5 36 -129 144 5 -36 129zm617 -2l-147 5 37 -132 147 -4 -37 131zm-922 -11l-141 -9 33 -127 144 8 -36 128zm1222 -4l-134 8 36 -132 134 -8 -36 132zm-1524 -19c-37,1 -97,-10 -141,-13l34 -126 142 13 -35 126zm1821 -6l-130 12 36 -132 130 -13 -36 133zm-3625 -1l-116 -30 37 -137 119 30c-5,27 -34,128 -40,137zm1367 -42c-4,-10 10,-48 14,-62 4,-16 12,-51 18,-62l137 16c1,3 1,2 1,7l-6 23c-3,11 -5,20 -8,31 -23,80 -2,67 -86,56 -19,-2 -56,-3 -70,-9zm-2522 11l-124 -39c4,-17 32,-124 37,-131l123 40 -36 130zm5079 -2l-130 16 35 -132 131 -18 -36 134zm-2716 -32l-138 -20c-2,-13 26,-102 30,-123l141 20 -33 123zm-1475 -6l-119 -32 35 -135c26,1 87,24 120,31l-36 136zm1180 -41l-140 -25 33 -122 139 25 -32 122zm-2340 -9c-16,-4 -117,-38 -124,-43l34 -129 123 41c1,25 -27,99 -33,131zm888 -26l-114 -33 35 -134 115 32c0,13 -31,124 -36,135zm1159 -21l-119 -24 32 -120 118 24 -31 120zm-272 -58l-113 -25c0,-9 26,-109 30,-119l114 25 -31 119zm-1151 0l-124 -38 33 -134 126 38 -35 134zm3601 -14l-147 0 33 -126 145 -2c1,13 -26,109 -31,128zm-313 -1l-140 -4 32 -127 144 4 -30 121c-4,6 0,2 -6,6zm624 -8l-148 6 33 -128 148 -6 -33 128zm-924 -4c-23,0 -130,-4 -145,-9 11,-29 21,-102 34,-124l143 8 -32 125zm-446 -34l31 -122 143 12c-1,13 -30,120 -33,122 -3,3 -128,-8 -141,-12zm1669 20l-134 10 32 -129 135 -10 -33 129zm-3326 -22l-120 -29c3,-17 25,-108 31,-117l119 29 -30 117zm3493 7l32 -129 131 -13 -30 122c-5,13 -10,9 -26,11 -28,2 -85,10 -107,9zm-1999 -21l-136 -16c-1,-12 25,-103 30,-122l142 16 -27 108c-3,12 -4,12 -9,14zm-2655 -10l-123 -40 31 -132c15,2 120,36 127,41 -9,29 -26,110 -35,131zm5084 -17l-132 17 32 -131 133 -17 -33 131zm-2724 -10l-140 -21 30 -121 141 20c0,11 -27,116 -31,122zm-1471 -18l-121 -32 28 -115c8,-1 111,25 122,31l-29 116zm1176 -29l-139 -23c-2,-11 25,-107 27,-120l142 24 -30 119zm-2338 -17l-125 -42 31 -132 126 42 -32 132zm890 -30l-116 -32 27 -116 116 33 -27 115zm1153 -6l-118 -23 27 -118c20,2 107,17 119,24l-28 117zm-272 -57l-116 -25 27 -115c14,-2 96,19 116,23l-27 117zm-1148 -15l-126 -38 25 -114 129 37 -28 115zm3287 -12l-142 -3 24 -102c10,-42 1,-28 83,-28l71 0 -28 119c-3,10 0,9 -8,14zm166 2l31 -134 147 -2c-1,15 -24,112 -29,126 -5,13 -46,8 -70,8 -27,0 -54,2 -79,2zm-468 -11l-145 -7 31 -131 145 7 -31 131zm926 -2l-148 6 31 -135 149 -6 -32 135zm-3032 -24l-120 -28c0,-14 22,-107 27,-116l120 29 -27 115zm1802 8l-144 -12 31 -130 144 12 -31 130zm1394 5l32 -135 135 -10 -29 127c-4,12 -12,9 -28,10 -12,1 -24,2 -37,3 -24,2 -50,2 -73,5zm-4352 -53c-16,-3 -118,-36 -126,-41l24 -112c41,7 87,32 128,39l-26 114zm2657 20l-144 -15 30 -129 144 16 -30 128zm2128 -7l-131 14c0,-17 21,-102 28,-126 3,-14 7,-10 25,-12l110 -11 -32 135zm-2428 -28l-143 -20 28 -124c16,-4 15,-2 35,1l109 15 -29 128zm-1474 -13l-123 -32 26 -115 123 32 -26 115zm4201 1l-132 20 30 -135 133 -20c0,16 -10,52 -14,68 -3,12 -5,21 -8,33l-9 34zm-3024 -35l-142 -22 27 -125 142 23 -27 124zm-2336 -28l-128 -42 25 -113 128 42 -25 113zm885 -13l-118 -33 25 -113 119 33 -26 113zm1154 -10l-121 -22 27 -124c15,0 116,20 122,24l-28 122zm-365 -203l118 25 -28 124 -117 -25 27 -124zm-1163 -16l130 38 -26 114 -128 -40 24 -112zm887 -48l123 29 -26 123 -93 -22c-10,-2 -21,-4 -30,-9l26 -121zm2396 30l148 1 -30 135 -147 -3 29 -133zm-307 -11l147 6 -28 135 -147 -8 28 -133zm763 9c0,15 -25,126 -31,135l-146 2 29 -135 148 -2zm312 -15l-30 137 -149 6 29 -135 150 -8zm-1407 119c3,-22 10,-50 15,-71 2,-11 4,-21 7,-33 2,-12 1,-28 12,-28l140 10 -28 133 -146 -11zm-2945 -60c-1,-28 18,-79 21,-111l129 42c-1,14 -19,101 -24,110l-126 -41zm4651 -81c-4,17 -22,124 -32,137l-133 10 28 -136 137 -11zm-1981 -20l146 15 -28 132 -145 -16 27 -131zm-1759 -40l124 32 -25 122 -124 -34 25 -120zm4036 27c0,17 -22,126 -29,136 -11,7 -109,14 -132,17l29 -137 132 -16zm-2578 -24l143 23c1,16 1,-6 0,4 0,1 -1,7 -1,9 -1,5 -2,10 -3,15 -3,12 -5,23 -7,34 -5,22 -9,42 -14,65l-144 -19 26 -131zm-300 -45l145 23 -26 129 -144 -24 25 -128zm-2328 -20l131 43 -24 111 -129 -42 22 -112zm874 107c1,-15 19,-110 25,-119l119 33 -25 120c-22,-6 -105,-26 -119,-34zm1177 -137l124 24 -26 127 -122 -23 24 -128zm-1459 55c1,-14 20,-110 24,-119l130 39 -23 119 -131 -39zm1187 -110l119 25c-2,18 -21,117 -26,127l-117 -26 24 -126zm-278 -62l124 28c-1,14 -20,117 -25,125 -21,-2 -106,-22 -123,-29l24 -124zm2392 51c3,-15 2,-27 9,-30l146 1 -25 130 -148 0 18 -101zm464 -34l-26 131 -148 2 25 -129 149 -4zm-771 25c3,-14 2,-27 10,-29 28,1 123,2 144,8l-25 127 -147 -6 18 -100zm-3254 -76l132 40 -22 119c-43,-10 -88,-31 -131,-40l21 -119zm4336 36l-25 130 -150 9 25 -131 150 -8zm-1381 -6l146 9c0,14 -20,119 -26,129l-144 -11 24 -127zm-305 -28l147 14c-1,20 -8,48 -12,68l-8 47c-3,12 0,8 -8,13l-141 -16 22 -126zm1985 8l-24 132 -137 13c2,-21 19,-120 25,-133l136 -12zm-3746 -45l127 32 -23 124 -126 -32 22 -124zm1460 2l145 18c2,27 -18,92 -22,126l-146 -19 23 -125zm2424 156c3,-10 21,-124 26,-129 4,-3 120,-17 133,-17 -11,28 -12,102 -26,132l-133 14zm-2745 -76c-2,-18 17,-99 20,-124l146 21 -23 126 -143 -23zm-2310 -139l132 44 -21 116c-29,-2 -98,-33 -131,-41l20 -119zm897 -17l123 33 -24 122c-12,0 -109,-27 -120,-33l21 -122zm1155 -17l123 22c-1,19 -17,112 -22,124l-123 -22 22 -124zm-1439 -64l133 38 -22 123 -132 -39 21 -122zm1145 132c-1,-14 16,-114 21,-122l119 24c-2,20 -7,42 -11,63 -1,10 -3,21 -5,32 -6,36 14,34 -124,3zm-261 -184l126 30c-1,17 -16,111 -22,120l-123 -29 19 -121zm-1187 87c1,-22 7,-49 10,-69 12,-73 -7,-56 81,-31 18,5 45,16 61,18l-20 123 -132 -41zm4049 -95l-24 143 -150 5 23 -142 151 -6zm-459 9l148 0c0,9 -20,132 -21,135 -4,8 -4,6 -16,6 -7,0 -12,0 -19,0 -12,1 -25,1 -37,1 -26,0 -52,-2 -79,-2l24 -140zm-308 -8l149 6 -24 140 -148 -5 23 -141zm-327 124c-1,-13 8,-54 10,-71 3,-19 5,-54 13,-69 29,2 127,4 146,11 -3,23 -7,47 -11,72 -3,17 -7,66 -17,66l-141 -9zm1231 9c1,-16 19,-135 24,-139 3,-3 135,-12 150,-11l-24 139 -18 4c-28,3 -117,9 -132,7zm-3280 -192c10,-2 117,25 129,31l-19 119 -128 -33 18 -117zm1746 139c1,-6 2,-10 3,-16l16 -106 149 14 -23 139 -145 -14 0 -17zm2006 -123l-22 142 -138 13 22 -143 138 -12zm-2163 123c-14,-2 -143,-17 -146,-19 -4,-4 16,-119 19,-137l144 18c8,11 -16,107 -17,138zm2460 -160l-23 144 -135 17 23 -143 135 -18zm-5220 -39c15,3 127,39 132,45l-18 117c-10,0 -127,-39 -132,-44l18 -118zm2331 0l147 22 -21 137 -146 -22 20 -137zm-1435 -15l123 33 -20 119 -121 -33 18 -119zm1155 -33l126 23 -20 135 -125 -22 19 -136zm-1444 -34c2,-18 0,-16 17,-11 25,8 102,26 119,36l-18 116c-12,-1 -123,-33 -133,-39l15 -102zm-909 106c-1,-17 14,-101 18,-120l132 45c-2,21 -5,39 -8,60 -3,17 -4,46 -10,58 -5,2 -116,-36 -132,-43zm2077 -125l120 24c6,15 -15,107 -16,135l-123 -25 19 -134zm-282 -60c20,-1 102,23 129,27l-19 134 -127 -29 17 -132zm-1170 -23l134 41 -16 118c-14,-3 -128,-38 -134,-43l16 -116zm4034 2l-19 144 -151 4 19 -141 151 -7zm-459 11l149 -2c-1,14 -17,136 -19,138 -7,12 -58,5 -73,5 -23,0 -55,2 -77,0l20 -141zm-308 -6l149 5 -18 140 -150 -5 19 -140zm-308 -15l151 8 -19 139c-24,3 -123,-4 -150,-8l18 -139zm1386 -8l-20 143 -151 10 19 -142 152 -11zm-3458 -29c12,0 124,28 131,32l-17 128c-14,3 -110,-24 -130,-29l16 -131zm1751 152c-3,-15 6,-54 8,-71 1,-10 5,-66 13,-68l145 12 -19 140 -147 -13zm2004 -150c-3,26 -12,126 -20,142l-136 14 19 -143 137 -13zm-2292 -16c1,-6 0,-3 2,-7l145 17c4,18 -15,111 -16,139l-147 -17 16 -132zm-2637 -30c10,-1 123,36 135,42l-15 117 -135 -45 15 -114zm2334 -19l148 21 -18 138 -147 -22 17 -137zm2891 28l-18 142 -135 18 17 -136c2,-7 1,-4 3,-7l133 -17zm-4328 -39l125 33c-6,33 -9,88 -15,119 -2,16 1,11 -8,11 -3,0 -107,-28 -118,-32l16 -131zm1155 -36l127 22 -17 137 -125 -23 15 -136zm-2335 -28c15,-2 107,35 131,41l-13 117 -132 -44 14 -114zm891 -18l136 40 -16 128c-9,1 -119,-31 -135,-38l15 -130zm1167 -7l123 26 -15 134 -124 -24 16 -136zm-284 -60c13,1 121,25 130,29l-15 134 -129 -29 14 -134zm-1171 -19l136 41 -15 129c-17,-2 -50,-15 -68,-20 -23,-7 -47,-14 -67,-21l14 -129zm3577 1l150 -1 -16 142 -151 0 17 -141zm459 -11l-16 143 -151 6 15 -142 152 -7zm-769 7l151 4 -15 141c-28,0 -51,-2 -78,-2 -14,0 -27,-1 -40,-1 -10,0 -33,5 -32,-7l14 -135zm-306 -14l150 8 -16 139c-18,4 -123,-5 -149,-7l15 -140zm-2075 -33l132 34 -15 132 -130 -33 13 -133zm1768 10l147 12c0,1 0,2 1,2l1 5c2,13 -13,127 -15,133l-148 -14 14 -138zm1692 11l-14 142 -153 10 15 -142 152 -10zm-4636 -63l137 43c-2,24 -9,114 -15,128 -8,1 -118,-36 -134,-43l12 -128zm4933 34l-14 142 -139 14 16 -142 137 -14zm-2294 -15l150 18 -16 138 -148 -17 14 -139zm2588 -22c0,17 -10,135 -15,140 -3,3 -121,19 -134,19l14 -141 135 -18zm-4331 -27l127 33 -13 130 -17 -1c-4,-1 -9,-3 -14,-4l-95 -25 12 -133zm1438 8l150 21 -14 138 -149 -21 13 -138zm-2613 -71l127 41 -12 129c-17,-3 -120,-37 -129,-44l14 -126zm2330 24l128 22 -12 135c-15,3 -107,-16 -128,-20l12 -137zm-1445 -43l138 39 -14 132 -136 -39 12 -132zm1166 -7c10,-3 106,17 122,21 6,11 -6,114 -9,135 -11,2 -112,-18 -124,-23l11 -133zm-285 -63l131 28 -12 136 -129 -28 10 -136zm-1172 -17l137 42 -11 131 -137 -42 11 -131zm3574 15l152 0 -10 120 -151 1 9 -121zm461 -8l-10 117 -151 5 10 -117 151 -5zm-768 1l151 5 -9 122 -152 -3 10 -124zm-307 -17l150 9 -11 126 -149 -7 10 -128zm-2075 -41l133 31 -11 132c-11,5 -124,-27 -131,-30l9 -133zm1768 14l151 14 -11 129 -150 -13 10 -130zm1987 -6l-8 116 -138 14 8 -115 138 -15zm-295 30l-9 115c-19,3 -140,13 -152,10l8 -115 153 -10zm-4637 -80l136 44c5,26 -7,99 -7,131l-138 -45 9 -130zm2639 19c161,20 152,6 149,44l-8 108 -151 -17 10 -135zm-1744 -50l128 34 -9 133 -127 -33 8 -134zm1579 164c-23,-1 -48,-6 -72,-9 -90,-13 -79,-3 -76,-40l8 -111 150 24 -10 136zm2753 -122l-9 116 -136 19c1,-19 5,-104 11,-116l134 -19zm-5390 68c-32,-7 -81,-28 -114,-38 -18,-6 -11,-11 -7,-62 1,-23 2,-47 5,-71l125 42 -9 129zm2213 -155c10,-1 120,20 128,23l-10 141 -127 -23 9 -141zm-1448 -37l139 40 -8 131c-16,-1 -54,-14 -70,-18 -22,-6 -48,-16 -69,-20l8 -133zm1161 125c-6,-14 5,-120 5,-147l127 27 -9 145 -123 -25zm-281 -212l132 31 -8 148c-10,0 -121,-24 -131,-29l7 -150zm-1173 0l139 41 -9 133 -137 -42 7 -132zm3728 -14l-8 165 -152 0 7 -160 153 -5zm618 -41l-8 176 -152 11 8 -173 152 -14zm-462 37c18,-5 128,-10 153,-10l-10 169 -150 6 7 -165zm-616 8l151 3 -7 156 -152 -6 8 -153zm-308 -9c9,-4 127,3 149,4 6,28 -5,118 -6,152l-151 -11 8 -145zm-3122 101c-20,-4 -42,-12 -61,-19 -22,-7 -40,-13 -61,-19 -16,-5 -18,-3 -16,-21l5 -116 140 43 -7 132zm1046 -154l134 34 -7 153 -132 -32 -1 -11 1 -8 5 -136zm1768 29l151 13 -7 144 -151 -15 7 -142zm-308 -32l152 17 -7 139 -150 -19 5 -137zm-1744 -74l129 35c1,40 -4,113 -6,156 -21,-3 -48,-11 -69,-17 -22,-6 -60,-12 -59,-23l5 -151zm1438 33l151 22 -6 134 -150 -25 5 -131zm2603 26l-9 181 -136 16 8 -180 137 -17zm-2889 -73l130 22 -6 129 -128 -24 4 -127zm3181 29c2,22 -4,172 -9,186l-133 19 7 -184 135 -21zm-3463 -84l127 27 -4 122c-12,2 -79,-14 -98,-18 -20,-5 -23,-2 -29,-10l4 -121zm-2043 33l123 41 -5 131 -124 -41 6 -131zm581 -140c15,2 55,16 71,21 10,3 67,17 70,26l-4 158c-16,-3 -132,-39 -140,-45l3 -160zm1173 46c18,-2 107,24 133,28l-3 123 -132 -32 2 -119zm-876 45l140 41 -6 159 -138 -39 0 -27 4 -134zm3740 -97l-4 145 -152 9 4 -145 152 -9zm-309 17l-3 144 -152 4 3 -144 152 -4zm-769 -3l152 5 0 10 0 16 -3 115 -152 -8 3 -138zm-308 -19l152 9 -1 44 -2 96 -151 -13 2 -86 0 -35 0 -15zm-1769 -16l103 25c44,11 33,-9 30,128 -19,-2 -50,-12 -69,-17l-60 -15c-6,-4 -3,0 -5,-6l1 -115zm3619 -25c31,-2 115,-19 136,-16l0 144 -137 18 1 -146zm-2158 12l152 16 -2 135 -152 -18 2 -133zm-308 -38l151 20 -2 131 -150 -22 1 -129zm1233 95l152 1 -3 142 -153 -1 4 -142zm1077 -50l-2 146 -152 13 2 -145 152 -14zm-4644 -65l142 46 0 11 0 78 -1 77 -141 -46 0 -10 0 -19 0 -137zm5229 -17l-1 144c-12,7 -114,22 -135,24l0 -145 136 -23zm-4334 11l120 32c8,3 10,0 10,9l-1 114 -130 -38 1 -117zm1151 103c0,-22 -3,-104 2,-120l128 20 0 127 -101 -18c-24,-4 -24,0 -29,-9zm-2323 -189l94 31c15,5 25,5 27,13l0 162c-22,-6 -42,-13 -63,-21 -68,-23 -59,-6 -58,-60l0 -125zm875 -1l141 42 -1 117c-11,0 -87,-25 -109,-31 -9,-3 -27,-4 -32,-13l1 -115zm3119 -89l1 140c-43,3 -110,2 -151,-1l-2 -137 152 -2zm-460 -3c21,0 140,1 152,6l1 134 -152 -7 -1 -133zm-1495 111l128 25 -1 120 -125 -25 -2 -120zm-1465 -113l142 44 1 25 1 95 -142 -44 -2 -120zm1176 54l132 28 2 115c-21,2 -106,-23 -133,-28l-1 -115z"/>
   <path class="fil2" d="M315 5797l-200 -67 75 -203c19,5 195,64 200,68l-75 202zm-314 -5797l77 0 70 24 -1 -24 57 0 0 43 220 76 -1 -119 56 0 3 136c4,2 2,1 6,4 4,2 3,1 8,3l106 35c41,13 82,29 123,39l-4 -216 20 -1 37 0 3 236c40,13 84,27 121,38l121 37 -2 -223 -192 -60 8 -28 92 0 88 28 2 -28 12 0 44 0 2 46c29,10 226,71 241,71l-1 -117 56 0 3 134c11,6 94,27 114,33 39,12 79,20 116,32l-2 -199 2 0 54 0 3 211c3,8 215,59 235,62l-1 -213 -132 -32 5 -28 181 0c0,17 2,14 20,17l91 20c21,5 110,25 124,25l-1 -62 2 0 54 0c2,87 -12,72 54,84 43,8 144,30 175,32l-2 -116 57 0 3 128 230 36 -3 -163 14 -1 43 0 3 168c3,8 10,6 22,8 8,1 16,2 25,3 33,4 185,29 205,25l-4 -204 57 0 4 212 251 26 -3 -238 56 0 4 242c24,5 227,19 251,17 7,-42 -8,-210 -3,-259l781 0 2 28 -108 5 2 242 253 -8 -4 -267 10 0 46 0 3 265 253 -17 -4 -248 13 0 44 0 2 243c38,-4 235,-19 253,-26l-4 -217 39 0 18 0 3 213 237 -32 -3 -181 10 0 45 0 3 171c27,1 164,-26 210,-33 18,-3 24,-2 26,-9l-3 -129 17 0 37 0 0 626c-1,38 -3,75 -5,111 -3,40 -2,25 3,46 1,3 2,7 2,12l0 35 -1 1c-4,1 -5,1 -9,1l-14 219 21 -1 3 22 0 33 -29 4 -24 245 50 -6 3 21 0 34 -59 9 -31 245 87 -12 3 22 0 33c-19,6 -83,14 -99,16l-38 247 134 -20 3 23 0 33 -147 22 -43 236 187 -27 3 21 0 34c-6,2 -14,3 -19,3l-182 28 -50 241 248 -35 3 21 0 34 -261 38c-6,5 -4,3 -7,13l-52 227c32,-3 227,-27 240,-35l55 -229 25 6 0 129 -20 86 17 -1 3 24 0 32 -34 5 -59 235c21,-1 74,-14 90,-11l3 21 0 33 -110 17 -65 239 172 -25 3 22 0 34c-40,7 -182,24 -193,31 -6,14 -14,47 -19,65l-57 194c63,-6 155,-22 222,-31 39,-6 -1,-19 47,-4l0 100 -66 215 63 -9 3 21 0 34c-23,5 -75,9 -86,16 -6,5 -56,164 -66,195 -7,19 -18,48 -22,67l162 -24 12 39 0 15 -8 3c-3,0 -8,1 -12,1l-76 12c-31,4 -66,9 -99,14l-90 264 240 -34 20 -54 25 9 0 95c-3,2 -1,-2 -11,25l-85 240 93 -13 3 23 0 32c-21,6 -105,18 -119,19l-96 265 212 -31c1,3 2,11 3,20l0 36c-28,9 -203,29 -238,35 -9,30 -99,257 -94,264l254 -36c10,-14 19,-49 27,-68 7,-18 17,-52 26,-69l25 9 0 83c-4,11 -8,22 -11,32 0,0 1,1 1,1 9,5 7,4 10,23l0 1 0 33c-9,5 -25,5 -35,6l-98 260 -30 0 -26 -9 89 -240 -258 34 -79 215 -35 0c-10,-3 -19,-7 -22,-10l72 -197 -237 25 -69 182 -30 0 -26 -9 63 -169 -235 16 -59 162 -34 0 -24 -9 55 -149 -227 8c-7,2 -5,2 -11,18 -3,8 -5,13 -7,20 -10,29 -34,84 -43,112l-33 0c-10,-3 -20,-7 -23,-9l50 -138 -228 2 -54 145 -32 0 -25 -10 50 -136 -233 -5c-10,27 -21,54 -30,81l-28 70 -30 0 -25 -9 52 -144 -242 -13 -61 166 -34 0 -24 -9 59 -160 -240 -20 -72 189 -30 0 -25 -9 68 -185 -237 -26 -82 220 -32 0 -25 -9 81 -219 -236 -32 -97 260 -188 0 -113 -20 -7 20 -32 0 -25 -9 7 -21 -229 -46 -5 11c-7,16 -17,46 -25,65l-32 0 -25 -9 29 -80 -227 -50c-10,16 -22,56 -29,75l-25 64 -31 0 -25 -9 53 -144 -227 -56 -77 209 -33 0 -25 -9 80 -215 -205 -55 -79 215 136 37c0,6 -3,17 -5,27l-111 0 -41 -11 -4 11 -31 0 -26 -9 6 -18 -201 -58 -33 85 -30 0 -26 -10 34 -92 -205 -63 -61 165 -33 0 -25 -9 64 -174 -203 -66c-6,6 -73,186 -77,204l55 20c-2,9 -5,17 -8,25l-98 0 -69 -25c-26,-9 -51,-17 -78,-27 -23,-8 -55,-20 -78,-26l-30 78 -30 0 -25 -10 31 -87 -40 -15 0 -33c3,-10 7,-18 10,-22l51 17 74 -204 -135 -45 0 -36c3,-9 7,-17 10,-22l146 50 76 -209 -232 -79 0 -96c27,-74 65,-180 66,-189 -13,-8 -48,-17 -66,-24l0 -32 4 -13c3,-7 3,-6 6,-12l78 26c11,-42 73,-196 76,-221l-164 -57 0 -33c3,-9 6,-18 9,-24l176 60c10,-50 70,-189 74,-222l-213 -72 -20 57 -26 -9 0 -97 56 -165c8,-24 22,-59 26,-83l-82 -28 0 -36c3,-8 7,-16 10,-21l90 31 69 -225 -169 -59 0 -32c4,-11 8,-20 10,-23l175 59c5,-7 64,-208 66,-225l-218 -74 -7 22 -26 -7 0 -108 16 -57c12,-47 30,-104 39,-152l-55 -20 0 -29 10 -26 58 20c7,-11 54,-207 56,-230l-124 -44 0 -31c1,-4 2,-7 4,-12l6 -12 129 44 45 -210 -184 -63 0 -34c3,-9 7,-18 10,-23l185 62c5,-8 41,-188 42,-208l-237 -81 0 -34c3,-10 7,-19 10,-23l238 81c6,-15 37,-196 38,-216l-230 -78 -29 155 -27 -5 0 -160 1 -7 -1 -1 0 -34 6 -17c5,-12 3,-3 6,-15l32 -211 -44 -17 0 -28 10 -28 44 14 29 -217 -83 -27 0 -35c3,-9 7,-17 10,-21l79 26 23 -228c-15,-10 -85,-30 -112,-41l0 -31 8 -24c15,2 62,20 82,27 10,3 16,7 25,6 1,0 1,0 2,0 5,-24 12,-167 15,-204 2,-31 15,-21 -58,-46 -25,-8 -50,-18 -74,-25l0 -36c3,-8 7,-16 10,-21l126 44 10 -231c-2,-7 -26,-13 -37,-17l-109 -37 0 -30 9 -27c27,7 124,46 137,46 6,-44 2,-218 2,-272l-148 -51 0 -30 1 -2zm2688 5828l-232 -40 86 -235 233 38 -87 237zm-1504 -48l-199 -58 78 -212 201 57c-4,18 -75,207 -80,213zm1214 -3l-230 -46 86 -232 231 43 -87 235zm-1469 -72l-204 -62c2,-14 31,-87 38,-106 12,-32 31,-75 39,-106l205 61c-1,14 -70,199 -78,213zm1183 13l-228 -50 85 -231 229 50 -86 231zm-284 -64l-226 -55 83 -229 227 54 -84 230zm-1158 -29l-206 -66 77 -210c1,0 192,56 207,66l-78 210zm3611 33c-33,2 -210,1 -234,-5l92 -248 234 2 -92 251zm290 -2l-230 4c6,-21 16,-44 23,-64 8,-20 66,-187 74,-189l226 -5 -93 254zm-585 -4l-242 -11 91 -247 243 10c-1,5 -79,225 -92,248zm878 -7l-232 10 94 -255 217 -11 5 -1 10 0 -94 257zm-1418 -27c-1,-12 77,-218 88,-244l241 17 -39 106c-13,36 -27,73 -41,110 -12,33 -3,30 -39,27 -52,-4 -174,-16 -210,-16zm1481 23l95 -258 235 -19 -92 250c-5,15 -5,11 -24,12 -63,4 -157,15 -214,15zm-1779 -55l88 -242 238 25c-1,12 -69,189 -79,216 -13,33 -3,27 -44,23l-203 -22zm-1602 -3c-16,-2 -187,-47 -205,-55l82 -226c25,5 198,50 206,55l-83 226zm3679 35l95 -259 238 -28 -93 254c-4,10 3,8 -29,12 -60,6 -159,20 -211,21zm-2137 -41c-18,1 -211,-26 -230,-31 -5,-9 11,-42 17,-58 7,-20 15,-42 22,-60l45 -120c15,-1 158,20 194,25 60,7 48,-18 -6,135 -7,22 -32,95 -42,109zm-2678 -38c-14,0 -81,-25 -99,-31 -29,-10 -73,-28 -102,-34l77 -210 201 66 -77 209zm2387 -3l-233 -37 85 -236 235 36 -87 237zm-1512 -23l-202 -57 83 -225 201 55c-1,15 -33,93 -40,114 -14,38 -28,76 -42,113zm1219 -24c-34,-13 -183,-30 -229,-46l85 -232 231 42c-1,14 -83,230 -87,236zm-1475 -50l-206 -63c8,-25 77,-215 83,-222l204 60 -81 225zm1189 -6l-229 -49 84 -231 230 47 -85 233zm-286 -63c-19,-3 -218,-50 -226,-55l83 -228 228 52c-4,17 -14,39 -20,57l-65 174zm-1163 -11c-16,-2 -199,-60 -207,-65 5,-19 78,-217 82,-222l206 65 -81 222zm3626 -8l-234 -2 91 -251 234 0 -91 253zm-299 -4c-77,-1 -162,-6 -239,-9l89 -248c72,5 171,6 245,8l-80 218c-2,7 -3,10 -5,16 -4,9 -3,11 -10,15zm360 2l92 -252 230 -8c0,11 -73,204 -85,237 -10,28 -5,18 -91,21 -47,1 -97,3 -146,2zm-660 -14c-24,0 -226,-13 -241,-18l89 -243 243 14 -91 247zm-2146 -33l-206 -53 82 -227 206 51c-5,29 -30,84 -41,115 -12,35 -31,78 -41,114zm3098 40l93 -256 234 -15c-17,58 -66,177 -89,244 -5,15 -5,15 -22,16l-216 11zm-1252 -29l-238 -23c0,-14 76,-210 87,-242l240 21 -89 244zm-2988 -37c-17,-2 -195,-62 -202,-67 5,-17 76,-213 81,-220l201 65 -80 222zm2691 6l-237 -29 87 -239 237 28 -87 240zm2080 23l-236 21 94 -259 237 -23 -95 261zm302 -35l-238 29 95 -262 239 -30 -96 263zm-2678 -25l-233 -36 43 -119c7,-21 14,-40 22,-60 4,-13 15,-51 23,-59l233 35 -88 239zm-1515 -12l-202 -56 81 -226 204 55 -83 227zm-1136 -42l-159 -53c-15,-5 -40,-13 -52,-19l79 -220 212 71 -80 221zm2361 8l-232 -42 84 -234 230 39 -1 13c-21,66 -60,157 -81,224zm-1483 -38l-205 -60c4,-19 77,-219 81,-225l206 59 -82 226zm1194 -16l-231 -47 84 -232 231 45 -84 234zm-1454 -63c-21,-2 -175,-53 -207,-63l79 -223c9,1 200,59 208,64l-80 222zm1168 3l-229 -52 82 -230 229 50 -82 232zm2174 -44l-245 -6 44 -126c6,-14 40,-121 48,-123l242 5 -89 250zm62 0c1,-14 54,-153 66,-189 3,-8 18,-60 26,-62l232 -3 -85 240c-9,26 -15,9 -94,15 -33,2 -115,4 -145,-1zm-368 -9l-241 -13 87 -247 209 11c44,1 36,-5 23,33 -9,29 -70,203 -78,216zm-2153 -13l-207 -52 81 -229 208 51 -82 230zm-1145 -19l-102 -32c-22,-7 -86,-24 -100,-34l78 -221 203 65 -79 222zm4193 31l-232 9c5,-20 15,-44 22,-64l57 -160c2,-5 4,-10 6,-15 4,-11 4,-14 10,-15l228 -11 -91 256zm-1195 -17l-237 -20c-5,-11 14,-51 17,-61l44 -123c4,-10 8,-22 11,-31 2,-6 3,-10 6,-16 0,-2 1,-6 3,-8 4,-5 0,-2 6,-5l233 18c5,11 -36,113 -40,123 -13,39 -33,86 -43,123zm1490 -2l-233 17 68 -192c3,-10 18,-58 25,-66l233 -17 -46 129c-14,39 -30,92 -47,129zm-1789 -26c-22,2 -197,-23 -237,-27 1,-22 74,-200 83,-241l239 26 -85 242zm-1816 -34l-204 -54 80 -227 204 53 -80 228zm3906 31c-15,5 -210,24 -237,23 6,-27 65,-179 80,-225 12,-35 3,-33 40,-36 57,-6 167,-21 209,-22l-92 260zm-2385 -33c-51,1 -176,-29 -236,-32l83 -237c7,-2 217,26 237,30l-84 239zm-2662 -34c-26,-7 -198,-63 -210,-72l78 -220 212 71c-3,15 -75,216 -80,221zm5349 30c-38,3 -81,12 -119,16 -23,3 -104,16 -120,13l93 -260 240 -34 -94 265zm-2980 -39l-234 -39 83 -236 234 38 -83 237zm-1487 -26c-21,-3 -198,-54 -207,-61l78 -223 209 58 -80 226zm1196 -24l-231 -45 81 -234 232 44 -82 235zm-1458 -52c-31,-6 -74,-22 -105,-31 -22,-7 -87,-24 -103,-33l77 -223 210 62 -79 225zm1171 -6l-230 -50 80 -231 231 48 -81 233zm-286 -64l-209 -50 80 -230 208 49c-1,19 -31,92 -39,115l-40 116zm-1148 -11l-203 -65 77 -223 203 64 -77 224zm3614 10l-245 -4 86 -250 248 2c-4,19 -83,242 -89,252zm-307 -6l-242 -11 80 -234c3,-9 2,-9 9,-13l241 9c-6,29 -83,242 -88,249zm605 1l-235 5 86 -252 237 -7c-2,14 -81,236 -88,254zm-909 -16l-236 -18 61 -185c4,-11 14,-55 24,-60l239 17c-4,17 -14,43 -20,61 -11,30 -60,177 -68,185zm1204 3l-233 12 43 -127c16,-43 29,-86 44,-128l234 -13 -88 256zm-1505 -28l-235 -24 83 -243 240 24c0,1 -77,231 -82,238 -4,6 0,3 -6,5zm-1818 -18l-205 -53 78 -229 206 53 -79 229zm3619 25l-234 18 89 -259 235 -19 -90 260zm-4762 -55l-211 -70 75 -222 214 70c-5,27 -72,213 -78,222zm2669 15c-24,2 -93,-11 -119,-14 -37,-5 -84,-14 -119,-16l82 -239 238 29 -82 240zm2394 8l-237 26 89 -261 239 -28 -91 263zm-2690 -48l-231 -37c-3,-15 73,-223 77,-237l234 36c3,9 -32,102 -38,119 -8,22 -34,106 -42,119zm-1489 -14l-209 -59 77 -227 209 58 -77 228zm1198 -33l-233 -44 80 -235 233 42 -80 237zm-1462 -42l-210 -63 76 -224c14,0 82,22 103,29 28,8 83,27 108,30l-77 228zm1174 -15c-26,0 -87,-17 -116,-23 -38,-8 -78,-18 -116,-25l78 -233 232 48 -78 233zm-288 -61c-27,-5 -198,-44 -209,-51l77 -230 209 48c-2,16 -13,43 -18,59 -7,20 -13,38 -19,57 -13,36 -31,82 -40,117zm-1152 -4c-28,-10 -190,-57 -202,-65l74 -223 205 62c-3,17 -70,216 -77,226zm3628 -21c-28,4 -94,1 -125,1 -41,0 -81,-2 -123,-2l83 -251 249 -1 -84 253zm-312 -2l-240 -9 81 -248 247 7 -80 238c-3,9 -1,8 -8,12zm-302 -12l-239 -16c-2,-10 33,-107 38,-122 14,-36 28,-96 43,-124l242 15c-7,27 -76,234 -84,247zm910 7l-236 7c5,-22 15,-45 22,-66 10,-31 58,-179 64,-189l237 -7c-6,29 -82,247 -87,255zm-3037 -31c-35,-8 -69,-18 -104,-27 -19,-4 -90,-21 -102,-27l76 -228 207 51 -77 231zm3333 14l-233 14c11,-42 28,-85 42,-128 15,-41 30,-86 43,-128l234 -15c-2,17 -15,45 -20,64 -7,22 -15,44 -22,65 -7,23 -14,43 -21,64 -8,20 -15,46 -23,64zm-1505 -12l-240 -22 80 -244 241 22 -81 244zm-2972 -25l-214 -70 73 -223 215 68 -74 225zm2674 -4l-239 -29 79 -241 238 28c0,19 -69,202 -78,242zm1865 36l87 -258 237 -23 -85 254c-4,9 3,6 -28,9 -33,3 -191,20 -211,18zm-3657 -78l-157 -42c-15,-5 -36,-12 -52,-14l74 -229 211 57c-9,36 -24,76 -37,113 -6,18 -13,39 -19,58 -6,18 -11,40 -20,57zm1495 4l-236 -36 78 -238 237 34 -79 240zm2462 46l86 -260 239 -31c-10,45 -57,174 -75,230 -13,41 5,31 -108,45l-142 16zm-5108 -94l-212 -71c2,-13 68,-216 72,-224l213 72c-2,18 -11,38 -16,55l-57 168zm2352 2c-69,-7 -171,-35 -233,-41l38 -118c10,-29 27,-95 40,-119l233 41c1,8 -71,226 -78,237zm-1464 -31c-31,-5 -73,-21 -105,-30 -26,-7 -87,-23 -106,-33l72 -225 212 60 -73 228zm1173 -22c-27,-5 -217,-42 -230,-49l75 -233 233 48c-12,40 -26,78 -38,117 -6,22 -31,103 -40,117zm-1439 -57l-206 -63c10,-49 65,-186 70,-226l208 62c-2,15 -12,42 -17,57 -6,20 -12,38 -18,56 -13,38 -26,77 -37,114zm1151 -3l-209 -47 73 -233 211 46c0,10 -69,224 -75,234zm-264 -62l-208 -51 73 -231 207 50c-4,31 -26,85 -36,117 -11,35 -29,81 -36,115zm2748 15l-249 2 80 -253 250 -3 -81 254zm-312 0l-242 -6 78 -250 248 5c-14,42 -26,84 -40,126 -6,17 -34,120 -44,125zm-302 -9l-243 -13 77 -247 245 12 -79 248zm-3283 -23l-107 -33c-31,-10 -77,-22 -106,-36l67 -217c4,-6 1,-3 6,-7l213 69c-11,35 -61,209 -73,224zm4195 20l-237 10 76 -242c3,-9 1,-9 8,-13l236 -10c-14,43 -28,85 -41,128 -7,24 -33,112 -42,127zm-1214 -15l-242 -20 72 -232c4,-11 1,-9 9,-13l238 20 -77 245zm1511 -4l-235 17 82 -258 234 -17 -81 258zm-1812 -21l-237 -29c-1,-7 69,-231 76,-242l235 26c5,9 -10,46 -15,60 -6,21 -13,41 -19,62 -12,41 -28,84 -40,123zm-1793 -29l-212 -56c1,-15 12,-40 17,-57 5,-19 12,-41 18,-59 6,-19 12,-37 18,-56 4,-15 12,-46 18,-58l212 56c-3,16 -11,38 -17,56 -7,21 -12,38 -19,58 -5,18 -11,38 -17,57 -6,17 -15,41 -18,59zm3905 20l-238 25 82 -260 235 -25c2,4 2,5 -1,13 -2,6 -4,11 -6,16 -21,71 -56,169 -72,231zm-2408 -28c-27,-2 -223,-29 -237,-35l74 -238 238 32 -75 241zm-2654 -31l-212 -71 68 -224 216 71c-4,20 -66,218 -72,224zm5364 20c-27,7 -199,27 -240,32l41 -132c7,-22 14,-43 20,-64 6,-18 15,-51 22,-66l239 -33 -82 263zm-3004 -32l-236 -40 73 -238 236 39 -73 239zm-1470 -21l-213 -61 70 -229 213 60 -70 230zm1178 -31c-24,-2 -222,-40 -234,-46l71 -235 236 45 -73 236zm-1445 -47c-29,-4 -75,-22 -104,-31 -32,-9 -73,-25 -104,-31l69 -228 206 62c1,9 -3,20 -6,29l-26 85c-11,39 -26,77 -35,114zm1152 -10l-210 -47 70 -234 214 46c-9,32 -64,221 -74,235zm-266 -61l-207 -49c0,-9 64,-224 69,-233l208 49 -70 233zm-1148 -11c-15,0 -204,-61 -217,-68l67 -226 218 69 -68 225zm3595 6l-247 -4 75 -250 247 2c-1,18 -29,102 -36,125 -11,37 -25,96 -39,127zm-307 -7l-244 -10 74 -248 245 10c-2,22 -28,97 -36,123l-39 125zm618 1l-251 6 76 -252 250 -7 -75 253zm-920 -16l-242 -17c-1,-7 64,-227 71,-245l243 16 -72 246zm1219 3c-24,5 -218,14 -239,11l76 -253 239 -14 -76 256zm-1520 -27l-242 -25 72 -243 241 24 -71 244zm-1800 -14c-23,-1 -79,-18 -107,-26 -33,-9 -72,-22 -106,-28l67 -232 214 55 -68 231zm3380 37l77 -256 236 -21c-5,30 -54,184 -67,227 -12,41 5,30 -106,40 -46,4 -92,8 -140,10zm-4536 -69l-217 -71 65 -225c10,0 194,61 218,70 -9,42 -35,121 -49,168 -6,19 -13,40 -17,58zm2657 14l-239 -32 71 -242 238 31c1,15 -27,99 -33,120 -12,41 -27,84 -37,123zm2177 30l77 -259 236 -27c2,12 -58,205 -66,232 -3,8 -5,23 -10,27 -5,4 -92,12 -100,13 -36,4 -105,16 -137,14zm-2474 -71l-236 -38 69 -240 238 37c-2,18 -11,42 -16,60 -7,22 -12,40 -19,61l-36 120zm-1474 -12l-212 -59 66 -230 215 59c-7,34 -23,83 -33,116 -8,24 -26,98 -36,114zm1180 -38l-234 -43 67 -237 237 43c-2,18 -61,221 -70,237zm-1447 -38c-13,-1 -37,-10 -51,-14 -29,-8 -146,-42 -157,-49l64 -227 210 61 -66 229zm1157 -17l-215 -45 67 -236 214 44c3,13 -61,203 -66,237zm-270 -59c-17,-1 -201,-45 -209,-50l64 -232 211 47 -66 235zm-1150 -3l-219 -68 63 -228c9,0 214,64 220,69l-64 227zm3914 -30l-251 7 65 -232 250 -8 -64 233zm-315 7l-244 -1 64 -230 249 0 -48 174c-4,12 -11,51 -21,57zm-303 -3l-243 -8c-2,-6 -1,-1 -1,-8l29 -106c8,-29 27,-85 31,-114l247 8 -63 228zm-305 -13l-245 -15 63 -225 245 14 -63 226zm-302 -21l-243 -23 62 -223 243 22 -62 224zm1526 11c-11,5 -45,5 -58,6l-183 10 65 -233 240 -15 -64 232zm-3330 -11c-18,-3 -205,-50 -214,-56l63 -231 216 54 -65 233zm3624 -13l-234 22c2,-19 62,-230 66,-236l235 -22c-7,39 -35,130 -48,177l-19 59zm-4783 -14l-217 -71 61 -228 217 71c4,7 -9,44 -12,55 -5,20 -10,37 -16,58 -11,39 -22,77 -33,115zm2662 -3l-240 -30 57 -210c4,-12 1,-8 8,-11 40,3 82,10 123,15l92 11c30,3 25,-6 6,63 -5,19 -9,35 -15,54 -7,27 -21,87 -31,108zm2423 -18l-237 29 64 -237 238 -30 -65 238zm-2719 -21l-240 -36c8,-28 57,-214 62,-220l235 35c4,8 -8,42 -11,53 -5,19 -10,37 -15,56 -10,36 -24,78 -31,112zm-1477 -1c-18,-2 -208,-56 -216,-61l63 -229 217 58 -64 232zm1182 -48c-10,3 -220,-34 -237,-41l57 -217c21,2 234,40 236,42 4,4 -22,93 -26,106 -8,33 -19,80 -30,110zm-2343 1l-218 -74 60 -227 219 73c-1,22 -23,90 -29,114 -9,34 -21,83 -32,114zm891 -28c-17,-3 -36,-10 -52,-15l-159 -47 61 -230 211 61 -61 231zm1158 -25l-216 -44c8,-36 20,-73 29,-109 5,-19 24,-99 30,-107l215 43 -58 217zm-271 -57c-14,-1 -201,-43 -211,-49l55 -214 213 48 -57 215zm-1154 3c-31,-6 -78,-24 -110,-34 -17,-5 -36,-11 -55,-17l-48 -15c-6,-3 -3,-1 -6,-5l59 -227 221 68c0,13 -54,218 -61,230zm3606 -27l-249 2 58 -227 250 -3 -59 228zm-312 0l-243 -7 58 -226 248 7c-10,38 -19,76 -29,114 -4,13 -24,105 -34,112zm-302 -10l-245 -14c3,-20 55,-218 58,-224l245 14 -58 224zm717 9l-44 -1 60 -227 251 -11c-3,27 -17,73 -25,100 -9,33 -18,69 -26,101 -8,30 -1,30 -33,30 -53,1 -127,8 -183,8zm-1021 -29c-24,1 -220,-17 -242,-22l56 -221 243 22c-1,15 -50,206 -57,221zm-1801 -7l-217 -54 55 -214 217 53 -55 215zm3330 8l-240 17 60 -232 240 -16 -60 231zm-1829 -29l-242 -28 55 -219 243 27 -56 220zm2127 0l-237 25 59 -233 237 -24c-1,23 -22,89 -28,115 -11,40 -20,78 -31,117zm-4788 -1l-219 -71c-1,-16 22,-92 27,-113 8,-33 24,-84 28,-116l222 71 -58 229zm2362 -35l-237 -34c-3,-10 0,-17 3,-28 9,-33 45,-183 50,-191l239 34 -55 219zm-1473 -13c-12,0 -207,-53 -218,-59l53 -210 218 56 -53 213zm4199 13l-239 30 60 -235 238 -31 -59 236zm-3023 -46c-18,1 -216,-35 -238,-41l53 -213c13,-4 96,14 118,18 11,1 116,19 118,19 5,4 6,-4 -2,25 -2,9 -4,19 -7,28l-42 164zm-2339 -9l-220 -73 55 -230c16,4 217,72 221,75l-56 228zm891 -32c-17,-1 -186,-52 -213,-61l51 -211 214 61 -52 211zm1154 -10c-31,-7 -205,-37 -217,-45l52 -213 217 42c0,18 -45,183 -52,216zm-273 -56l-213 -47 51 -214 214 47 -52 214zm-1148 -12l-223 -67 50 -212 223 68 -50 211zm880 -49c-26,-2 -82,-19 -109,-25 -36,-8 -75,-18 -109,-28l49 -212c20,3 210,49 218,54l-49 211zm2414 25c-39,0 -88,1 -127,-1 -35,-3 -88,1 -121,-6l55 -229 248 4 -55 232zm310 -3l-251 4c11,-59 34,-140 48,-204l9 -29 249 -4 -55 233zm-617 -4l-246 -13 54 -229 181 8 11 0 21 2 33 1c1,15 -48,216 -54,231zm928 -7l-252 11 55 -235 252 -12 -55 236zm-1233 -11l-242 -19 52 -227c7,-2 221,15 245,18 -6,37 -18,79 -26,114 -5,23 -21,99 -29,114zm1533 -10l-241 18 56 -237 241 -19 -56 238zm-4492 -26l-222 -71 47 -210c18,1 89,27 111,34 37,12 74,23 112,36 0,19 -17,80 -23,104 -7,34 -19,74 -25,107zm2659 10l-244 -26 53 -226 243 25c0,20 -20,91 -25,114 -9,38 -18,78 -27,113zm-300 -35l-242 -33 52 -225 241 33 -51 225zm2194 45c0,-15 33,-146 41,-180 4,-17 6,-47 16,-58l235 -26c-4,29 -43,186 -52,225 -5,19 0,13 -50,19l-190 20zm-3669 -52c-6,-1 -200,-47 -219,-59l47 -207c18,-5 181,50 221,54l-49 212zm1175 -36l-238 -40 50 -223 241 40c-9,34 -16,74 -25,111 -6,27 -19,94 -28,112zm-2336 -21c-40,-18 -202,-63 -221,-76 1,-16 43,-202 47,-209l222 74 -48 211zm887 -16l-214 -60c3,-32 16,-73 23,-106 4,-20 17,-95 24,-105l215 60 -48 211zm1155 -14c-26,-3 -207,-37 -218,-43l48 -221 219 42 -49 222zm-1424 -64c-23,-2 -131,-38 -167,-49 -19,-5 -39,-13 -57,-17l44 -209c16,0 185,55 226,65l-46 210zm1150 10c-30,-4 -196,-38 -215,-47l47 -220 215 46 -47 221zm-270 -60c-22,0 -181,-43 -220,-51l46 -220 220 51c-2,43 -41,171 -46,220zm2419 5l-149 -1 -53 -1 -47 -2 50 -233 250 2 -51 235zm59 -1l50 -234 251 -6c-3,25 -39,186 -47,223 -5,19 -3,14 -52,15 -47,0 -171,7 -202,2zm-366 -4l-248 -11 50 -232 248 10 -50 233zm-310 -16l-241 -18 49 -230 246 17c-9,58 -30,142 -43,204 -6,28 -2,23 -11,27zm-2960 -18l-225 -71c2,-19 40,-201 45,-209l224 70 -44 210zm4198 20l-252 13 50 -237 253 -14 -51 238zm60 -4l50 -237 240 -22c-3,31 -38,185 -47,227 -4,18 1,12 -50,17 -49,4 -152,15 -193,15zm-1596 -22l-242 -25 45 -230 245 26 -48 229zm-1779 -26l-221 -57 44 -219 222 57c-1,20 -40,184 -45,219zm1477 -8c-19,3 -201,-27 -240,-31 -2,-9 41,-218 46,-227l240 31c3,11 -38,204 -46,227zm2436 4l-238 27 49 -237c6,-5 -1,-1 6,-3 3,-2 4,-2 6,-2l227 -26 -50 241zm-2734 -45c-15,2 -99,-14 -121,-18 -39,-6 -83,-16 -121,-20l45 -226 242 38 -45 226zm-2341 -9c-17,-2 -215,-68 -223,-75l40 -208c7,1 220,72 226,76l-43 207zm885 -15l-215 -60 43 -217 216 59c0,16 -40,209 -44,218zm1158 -25l-219 -41 43 -224 221 40 -45 225zm-1428 -51l-226 -68 42 -216 227 66 -43 218zm1152 -2l-216 -45 43 -224 216 45c0,24 -15,83 -20,111 -8,37 -16,75 -23,113zm-271 -59c-21,-2 -214,-47 -222,-53l42 -222c22,6 215,50 218,51 6,4 5,0 0,25l-38 199zm2423 -11l-251 -1c8,-38 15,-77 22,-116 3,-13 18,-111 25,-114l247 0 -43 231zm309 -6l-251 6c3,-35 15,-79 22,-115l16 -87c3,-18 1,-26 10,-29l247 -7 -44 232zm-618 2c-16,4 -211,-9 -248,-9l43 -228 249 9c-4,28 -38,214 -44,228zm-3276 -9c-37,-11 -77,-23 -113,-35 -38,-12 -76,-26 -112,-36l39 -217 228 71c-7,36 -13,73 -21,109 -5,26 -13,89 -21,108zm2971 -4l-246 -16 42 -227 247 17 -43 226zm1235 -6l-253 15 43 -230 126 -10c40,-2 90,-2 128,-8l-44 233zm-1539 -15l-246 -25 42 -225 246 24 -42 226zm-1783 -17c-25,-3 -214,-51 -222,-58l40 -220 224 56c-2,21 -37,211 -42,222zm3622 7l-240 21 42 -233 241 -22 -43 234zm-2141 -22c-27,-2 -227,-27 -245,-33l41 -219c3,-2 0,-1 6,-2l114 14c42,5 83,12 124,15 1,34 -36,183 -40,225zm2438 -13l-238 29 43 -234 238 -30 -43 235zm-5083 -20l-226 -73 38 -217 227 74 -39 216zm2345 -7c-47,-5 -170,-25 -228,-36 -5,0 -3,0 -7,-1l-9 -3 39 -221 244 38 -39 223zm-1457 -18c-16,2 -185,-50 -218,-58l38 -221 219 59 -39 220zm936 -72l38 -220 222 40c-4,35 -12,74 -19,110 -3,16 -15,105 -22,110 -5,3 -206,-34 -219,-40zm-1211 -3l-227 -66 37 -221 230 67c-2,22 -34,210 -40,220zm940 -52c-5,-10 14,-97 15,-107 3,-17 15,-101 19,-110 4,-5 -7,-6 24,1l193 39c4,11 -14,100 -16,110 -3,16 -16,105 -21,109 -5,5 -41,-5 -51,-7 -41,-9 -133,-26 -163,-35zm-58 -13l-223 -51 35 -219 224 50 -36 220zm-1163 -20c-13,0 -221,-66 -228,-72l35 -218c27,4 82,25 113,35l115 36c1,20 -29,188 -35,219zm3587 1l-250 0 39 -240 250 -1 -39 241zm310 -9c-31,4 -226,10 -252,7l41 -240 250 -9 -39 242zm-618 8l-248 -8 37 -239 250 6 -39 241zm-308 -11l-221 -15c-34,-2 -27,7 -16,-63l29 -178 248 16c-2,33 -13,87 -19,121 -5,29 -12,94 -21,119zm-2086 -34c-32,-7 -210,-49 -225,-58l34 -214c9,-6 100,22 110,24 19,5 39,10 58,14 16,4 42,9 57,15 1,22 -12,84 -17,110 -3,18 -5,37 -8,55 -3,17 -8,38 -9,54zm3324 19l-254 17 39 -243 253 -17 -38 243zm-1541 -7l-246 -23c-1,-14 36,-233 37,-235 6,-6 104,8 120,9 43,4 84,8 127,11l-38 238zm-303 -32c-14,6 -234,-27 -245,-28l36 -237 245 31 -36 234zm1902 35l39 -244 239 -24c1,18 -33,222 -36,235 -3,14 -4,11 -19,12 -11,1 -22,2 -32,3 -20,2 -41,4 -63,6 -41,4 -85,9 -128,12zm-4549 -58c-19,-3 -218,-69 -228,-76l33 -219 228 75c1,20 -28,184 -33,220zm5087 -3c-22,7 -207,29 -239,31l37 -237c0,0 1,-1 1,-2l3 -6 236 -30 -38 244zm-2742 -11l-243 -36c-3,-14 32,-227 33,-235l243 36c5,12 -12,103 -14,116 -7,41 -14,80 -19,119zm-1458 -15c-24,-4 -209,-54 -219,-61l32 -215c10,-1 188,50 220,58l-33 218zm1157 -32c-18,0 -216,-37 -223,-41l34 -231 224 38 -35 234zm-2327 -32l-230 -78 34 -219 228 77 -32 220zm896 -12c-26,-1 -204,-62 -230,-65l30 -220 232 68 -32 217zm1151 -8c-6,3 -195,-37 -218,-43l32 -229c9,-6 41,4 55,7 18,4 37,8 55,11 36,7 74,16 111,22 -3,38 -10,78 -16,116 -3,22 -12,101 -19,116zm-1436 -75l-230 -71 28 -218 232 71 -30 218zm938 -31l31 -231 226 49c-1,32 -22,158 -29,206 -3,19 0,24 -7,26 -5,1 -196,-45 -221,-50zm2093 3l33 -241 249 7 -31 236c-4,9 -10,4 -23,4l-100 -2c-42,-1 -85,-4 -128,-4zm868 -4l-252 10 33 -243 251 -9c2,25 -11,94 -15,122 -5,41 -10,81 -17,120zm-309 11l-251 1 32 -242 251 -1 -32 242zm-616 -10l-249 -15 32 -239 249 14 -32 240zm-2093 -15c-24,-1 -88,-20 -114,-27 -33,-8 -81,-18 -111,-29l30 -231 227 56c-1,25 -26,219 -32,231zm1786 -6l-246 -21 31 -238 248 22c-1,26 -27,226 -33,237zm1544 0c-35,6 -87,8 -124,10 -43,3 -87,6 -129,8l32 -244 253 -17 -32 243zm-1849 -28c-17,0 -238,-27 -241,-29 -6,-3 2,-41 3,-54 7,-49 21,-144 23,-183l248 29c-2,28 -26,224 -33,237zm-2876 -85l25 -217 231 75c2,21 -17,144 -22,181 -1,6 -3,27 -5,31 -3,8 -9,3 -21,0 -35,-11 -68,-24 -103,-34 -31,-9 -78,-23 -105,-36zm5022 84c-20,6 -213,24 -239,24l32 -242 240 -25c-5,40 -10,82 -16,123 -3,23 -10,103 -17,120zm-3907 -35l-220 -59 27 -232 223 60 -30 231zm1460 -1l-245 -36 28 -236 247 36 -30 236zm2744 0l-237 31 31 -245 237 -32 -31 246zm-5375 -68c-15,1 -197,-65 -227,-75l27 -216 226 76 -26 215zm2329 22l-224 -39 28 -234 225 37 -29 236zm-1434 -29c-23,-2 -90,-25 -116,-32 -36,-11 -80,-27 -116,-34l26 -232 233 68 -27 230zm1154 -21l-221 -44 27 -232c3,-1 0,-1 6,-1 3,0 4,0 6,0 3,1 10,2 14,3 34,7 189,35 196,41l-28 233zm-1674 -135l25 -229 233 71c1,17 -18,181 -24,219 -2,16 -5,11 -21,6 -31,-10 -198,-59 -213,-67zm1398 77c-24,0 -87,-17 -114,-23 -35,-8 -77,-20 -112,-26l25 -233 227 50 -26 232zm-282 -63l-228 -55 24 -234 228 56c1,31 -7,82 -11,116 -4,38 -10,79 -13,117zm2394 15l-243 -6 24 -241 250 6c0,35 -13,139 -18,185 -3,20 -3,56 -13,56zm623 -12c-39,2 -230,13 -252,9l27 -241c37,-1 231,-11 252,-9 -1,27 -21,223 -27,241zm-308 11l-252 3 26 -242 251 -3 -25 242zm-618 -8l-247 -13 24 -240 250 14c-1,37 -8,80 -12,119 -3,33 -6,89 -15,120zm1239 -26c-17,6 -100,10 -124,11 -42,3 -88,4 -130,9l26 -243 252 -18 -24 241zm-1544 7c-21,2 -228,-16 -248,-21l24 -238c23,2 246,21 246,21 6,4 2,17 1,25l-23 213zm-304 -27l-249 -28 24 -239 248 29 -23 238zm-2885 -67l22 -230 235 76c-6,29 -16,174 -23,218 -2,10 3,16 -23,6 -39,-14 -193,-59 -211,-70zm4789 82c7,-37 20,-228 28,-242l237 -25c-2,26 -21,233 -25,240 -4,8 -39,8 -56,10 -21,2 -40,4 -60,6 -31,4 -95,14 -124,11zm-3669 -46c-30,-4 -83,-21 -113,-29 -17,-4 -101,-29 -110,-28l21 -235 225 60 -23 232zm1460 -5l-248 -36 23 -237 250 36 -25 237zm2508 20l24 -243 236 -32c1,16 -22,237 -24,241 -4,6 -100,17 -116,19 -38,5 -81,13 -120,15zm-5143 -69c-17,-3 -39,-12 -57,-18 -20,-6 -36,-12 -57,-19 -20,-7 -99,-32 -112,-40l23 -228 225 75 -22 230zm2332 3l-226 -38 22 -236 226 38 -22 236zm-1436 -25c-16,0 -206,-57 -234,-66l20 -230c10,-4 44,10 56,13l179 52 -21 231zm1150 -23l-218 -44 20 -235 222 42c2,28 -6,87 -9,118l-9 105c-2,12 -2,10 -6,14zm-274 -57c-33,-6 -213,-43 -228,-52l19 -233 228 50 -19 235zm-1165 -6c-12,4 -100,-26 -118,-32 -38,-12 -81,-27 -117,-36l18 -233 235 72 -18 229zm3901 -64c-41,4 -85,5 -127,6 -33,1 -95,8 -126,4l18 -218 251 -9 -16 217zm-620 15l-250 -6 18 -224 251 8c-4,36 -5,74 -8,111 -2,23 -5,93 -11,111zm-2399 -12c-4,1 -2,1 -7,1l-110 -25c-20,-5 -99,-22 -113,-30l17 -233 230 56 -17 231zm3329 -25l-253 19 17 -218 252 -18 -16 217zm-604 -174l-16 207c-31,6 -206,4 -251,4l17 -221 252 0 -2 10zm-632 202c-60,0 -182,-9 -249,-12 -3,-9 -1,-15 0,-26 5,-51 15,-162 15,-202l251 17 -17 223zm-307 -17c-43,0 -110,-8 -158,-12 0,0 -1,0 -2,0l-90 -8 18 -232 249 25 -17 227zm-306 -28c-13,3 -223,-22 -249,-27l17 -235 235 30c11,1 14,-2 13,17l-16 215zm-2652 16c-18,-1 -217,-69 -235,-75l16 -232 236 75 -17 232zm4797 -30l-239 26 17 -218 237 -25 -15 217zm-4121 -304c21,-1 193,54 227,57l-18 235c-9,0 -208,-52 -224,-60l15 -232zm4431 46l-14 219 -238 32 15 -217 237 -34zm-2992 -37l249 38 -17 238 -249 -37 17 -239zm-286 -52c24,1 135,25 174,32 14,2 45,2 55,13l-16 233c-1,0 -2,1 -3,1l-111 -16c-36,-6 -79,-15 -113,-19l14 -244zm-1447 -41l239 67 -15 234c-32,-4 -88,-24 -121,-33 -35,-10 -81,-22 -116,-34l13 -234zm-880 17l223 75 -16 233 -223 -76 16 -232zm2046 -35c34,4 78,17 114,24l86 18c29,5 23,2 25,9l-14 240c-18,0 -194,-36 -224,-43l13 -248zm-1460 -71l214 64c10,3 24,3 24,13 0,30 -9,207 -14,229l-119 -36c-20,-6 -40,-12 -60,-18 -13,-4 -50,-12 -56,-21l11 -231zm1173 5c33,4 132,31 178,41 18,4 53,8 53,18 0,57 -9,180 -13,244l-229 -51 11 -252zm2333 261c-71,0 -130,-4 -194,-5 -17,-1 -55,1 -57,-7 -1,-2 11,-222 12,-249l251 3c1,68 -8,186 -12,258zm-2621 -335l233 59 -13 254 -231 -57 11 -256zm3561 26l-12 277 -253 18 12 -272 253 -23zm-619 45c1,32 -9,235 -13,263 -36,5 -202,3 -251,3l14 -260 250 -6zm-868 -9l251 12c1,29 -8,226 -13,251 -21,-6 -206,-7 -249,-18l11 -245zm-307 -22c12,-4 104,7 125,9 36,3 92,3 126,9l-13 246 -219 -21c-6,-1 -12,-1 -18,-2 -9,-1 -2,0 -12,-2l11 -239zm1232 31c11,-5 222,-16 253,-17 0,7 -10,247 -14,266l-3 5c-1,0 -2,0 -2,0 -15,2 -226,12 -246,8l12 -262zm-1539 -66l251 28 -12 240c-42,-4 -84,-10 -127,-16l-95 -12c-27,-4 -22,-2 -27,-9l10 -231zm-2641 -30c15,2 95,30 120,38 20,5 41,13 60,19 19,5 42,15 60,18l-11 231c-4,2 -2,2 -9,2l-228 -74 8 -234zm1113 267c-23,-5 -215,-55 -222,-59 -5,-3 -2,4 -4,-6l5 -122c3,-42 -1,-94 4,-133l229 62 -12 258zm-1390 -360l222 73 -10 235 -197 -66c-21,-7 -20,-3 -24,-12l9 -230zm2610 80l251 36 -10 234c-28,-2 -237,-34 -249,-41l8 -229zm2703 26c2,18 -2,51 -2,71l-8 177c0,6 0,13 -1,19 0,16 -1,13 -3,15 -9,6 -209,25 -235,27l11 -278 238 -31zm-2989 -75l230 40 -9 229c-21,1 -200,-34 -227,-42l6 -227zm3281 29c3,17 -7,269 -11,289l-235 33 10 -284 236 -38zm-5026 -200l229 71c11,4 7,0 12,8 1,6 -4,247 -8,261l-237 -72 4 -268zm1174 50l233 53 -6 225 -118 -27c-131,-32 -113,-18 -112,-63l3 -188zm-877 42l241 72 -9 260c-29,-5 -224,-62 -238,-68l6 -264zm4441 -150l-3 247 -236 30 2 -246 237 -31zm-3275 173l227 45 -8 228 -225 -47 6 -226zm2364 -88c5,30 -3,197 -3,244 -37,4 -223,10 -252,6l4 -242 251 -8zm-868 -3l251 8c4,20 0,97 0,124 0,38 -3,78 -3,119l-251 -12 3 -239zm-616 -50l250 24c6,27 0,90 0,121 0,39 0,76 -2,116l-251 -29 3 -232zm-2641 -72l242 79 -5 268c-43,-10 -82,-25 -122,-38 -16,-5 -112,-33 -116,-42l1 -267zm2332 32l253 32 -4 233c-31,-5 -217,-29 -240,-35 -15,-3 -6,1 -10,-6l1 -224zm-1152 43l236 60 -4 221c-22,2 -193,-50 -234,-58l2 -223zm3563 3l-3 247 -252 23 -1 -10 1 -29 2 -206 253 -25zm-308 29l-5 246 -252 14c-1,-41 2,-82 2,-124 0,-9 0,-112 5,-120l250 -16zm-870 26l253 1 -6 244 -250 -4 0 -9 3 -232zm-617 -31l253 18c1,75 -4,160 -4,237 -21,1 -214,-17 -251,-20l0 -28 2 -207zm-902 -115l230 36 -2 229 -229 -39 1 -226zm-2104 264c-29,-5 -78,-25 -108,-35 -17,-6 -34,-12 -53,-18 -70,-22 -60,-14 -60,-48 0,-44 0,-230 3,-244l220 74 -2 271zm5386 -258l-1 242c-5,8 -1,4 -12,7l-105 17c-39,7 -80,14 -120,19l3 -246 235 -39zm-4733 -85l242 72 0 222c-40,-8 -83,-24 -123,-35 -39,-12 -82,-25 -118,-35l-1 -224zm299 115l1 -8 -2 -18c16,2 226,62 231,64l-2 222 -229 -64 1 -92 0 -104zm867 -89c51,7 141,28 201,38 18,3 24,1 27,9l0 220 -228 -47 0 -220zm1493 -102l252 6 3 236c-82,0 -171,-8 -252,-8l-1 -204 -2 -30zm-1782 257l-1 -195 -1 -20 234 50 0 218c-20,0 -89,-19 -117,-25 -37,-9 -77,-17 -115,-28zm2343 -252l3 241 -252 -3 -3 -235 252 -3z"/>
  </g>
 </g>
</svg>
