<?xml version="1.0" encoding="UTF-8"?>
<!DOCTYPE svg PUBLIC "-//W3C//DTD SVG 1.1//EN" "http://www.w3.org/Graphics/SVG/1.1/DTD/svg11.dtd">
<!-- Creator: CorelDRAW X6 -->
<svg xmlns="http://www.w3.org/2000/svg" xml:space="preserve" width="64.0958mm" height="64.0958mm" version="1.1" style="shape-rendering:geometricPrecision; text-rendering:geometricPrecision; image-rendering:optimizeQuality; fill-rule:evenodd; clip-rule:evenodd"
viewBox="0 0 2023 2023"
 xmlns:xlink="http://www.w3.org/1999/xlink">
 <defs>
  <style type="text/css">
   <![CDATA[
    .fil0 {fill:#B705ED}
    .fil1 {fill:#E646B6}
    .fil2 {fill:#D271F0}
   ]]>
  </style>
 </defs>
 <g id="Layer_x0020_1">
  <metadata id="CorelCorpID_0Corel-Layer"/>
  <g id="_385486000">
   <rect class="fil0" width="2023" height="2023"/>
   <path class="fil1" d="M917 1992c-10,0 -34,-6 -46,-8l18 -48 46 7 -18 49zm-917 -1992l88 0c0,4 -1,2 8,6 4,1 7,2 11,3 7,2 15,6 22,8l0 -16 23 -1 31 0 0 34c1,3 22,8 25,9 7,3 16,6 24,8l0 -50 23 -1 31 0 0 8 3 -8 99 0c0,4 1,3 10,6l40 12 -1 -17 27 -1 27 0 1 33 45 13 -1 -45 24 -1 30 0 1 61 47 12 -1 -39 -32 -8 6 -26 124 0c10,2 13,1 25,0l31 0 0 11c5,2 37,8 44,9l-1 -19 25 -1 30 0 0 29 45 7 0 -35 26 -1 28 0c0,9 -1,40 1,44l52 8 -1 -51 24 -1 30 0 1 58 52 5 -1 -62 24 -1 30 0 2 68 52 4 -1 -71 25 -1 0 0 262 0 1 27 -21 1 1 49 52 -1 -1 -75 27 -1 27 0 1 73 52 -3 0 -69 23 -1 31 0 1 65 52 -5c0,-10 0,-19 0,-29 0,-9 -2,-22 -1,-30l24 -1 30 0 1 54 47 -6 -1 -47c2,0 8,-1 15,-1l39 0 1 39c7,1 36,-6 46,-7l0 -31 24 -1 12 0 0 459c-1,6 -1,10 0,12l0 1 0 30 -5 1 -7 48 8 0 4 24 0 30 -19 2 -8 49 23 -3 4 24 0 31 -35 5c-3,1 -9,44 -9,45l39 -6 1 4c1,0 1,2 1,3l3 18 0 29c-13,3 -45,6 -55,9l-10 47 61 -9 4 22 0 139 -9 37 5 0 4 24 0 30c-8,2 -20,2 -25,4l-12 45 32 -4c1,1 3,11 5,22l0 32 -53 8 -16 54 64 -10 2 9c1,6 1,7 3,9l0 91c-2,5 -2,10 -2,15 1,2 1,4 2,7l0 29 -17 3c-2,3 -17,49 -18,55l31 -5 4 25 0 29 -54 8c-3,4 -18,48 -19,54l44 -6 4 -8c3,0 8,3 12,4 3,1 6,0 7,1 3,1 2,2 6,3l0 0 0 82 -7 20c0,0 0,0 0,0l3 3 3 16c0,2 0,4 1,6l0 30c-2,0 -3,0 -6,1 -7,1 -15,2 -22,3 -1,1 -1,1 -1,2 -4,6 -19,52 -19,53 7,-2 38,-7 44,-6l4 24 0 29 -70 10 -20 55 50 -7c4,-6 11,-33 15,-38l25 9 0 79 -1 1 -27 72 -31 0c-11,-5 -21,-9 -23,-10 3,-8 20,-51 20,-55l-49 6 -22 59 -31 0 -23 -9 15 -43 -42 4c-2,1 -13,31 -19,48l-30 0 -24 -9 12 -34 -43 4c-2,2 -11,30 -14,37l-1 2 -31 0c-10,-4 -20,-8 -23,-10l10 -27 -43 2 -13 35 -30 0 -23 -9c0,-7 8,-19 8,-25l-42 0c-3,6 -8,23 -12,34l-31 0c-11,-5 -22,-9 -23,-10l8 -24 -44 -1 -12 35 -31 0c-12,-5 -22,-9 -23,-10l9 -27c-8,0 -19,-1 -28,-1 -4,-1 -9,-1 -14,-1 -7,-1 -5,-1 -8,6 -3,11 -8,22 -12,33l-30 0 -24 -9 12 -34 -47 -4 -18 47 -30 0 -24 -9 16 -44 -46 -5c-2,6 -15,41 -22,58l-30 0 -24 -9c3,-9 7,-20 11,-28l8 -28 -45 -6 -26 71 -176 0 -34 -7c-1,2 -2,4 -3,7l-30 0c-4,-2 -8,-3 -12,-5 -5,-2 -10,-3 -12,-5l3 -9 -45 -9 -10 28 -31 0 -24 -9 12 -32 -45 -11 -19 52 -30 0 -24 -9 21 -57 -38 -10 -15 42 29 8 -6 26 -101 0 -29 -9 -4 9 -30 0 -24 -9 5 -16 -37 -11 -14 36 -30 0 -24 -9 16 -44 -38 -12c-3,5 -6,17 -8,22 -11,29 -1,9 -5,22 -2,7 -4,14 -7,21l-86 0 -15 -5 -2 5 -30 0 -11 -4 0 -45 5 -14c7,-21 2,-1 11,-24 2,-7 6,-17 9,-25l-25 -8 0 -30c4,-12 8,-23 9,-24 10,2 24,10 35,11l14 -39 -58 -20 0 -104 1 -2 -1 -1 0 -30c4,-11 8,-22 9,-24l11 4 15 -44 -35 -13 0 -29c4,-11 8,-23 9,-24l44 15 15 -44 -41 -14 -2 3 -25 -8 0 -87 7 -22 -7 -2 0 -30c4,-11 8,-22 9,-24l15 4 13 -44 -37 -13 0 -29c4,-12 8,-23 9,-24l44 15 13 -45 -66 -23 0 -135 0 -2c2,-4 4,-9 5,-13 1,-2 2,-6 3,-7 1,-4 3,-2 4,-4l11 -44 -23 -8 0 -28 9 -26 26 9 8 -39 -43 -14 0 -30 8 -24c6,0 38,13 47,15l7 -38 -62 -21 0 -31c4,-11 8,-22 9,-23l64 21 6 -39c-2,-2 -42,-16 -46,-17l-6 34 -27 -5 0 -171c1,-4 2,-9 3,-16 2,-15 5,-33 6,-49 -1,-1 2,0 -1,-1 -1,-1 -2,-1 -2,-1 -2,-1 -4,-1 -6,-2l0 -30c4,-11 8,-22 9,-24 4,1 4,2 7,1l4 -42c-5,-3 -13,-5 -20,-8l0 -30c4,-11 8,-22 9,-24l16 6 3 -45 -28 -10 0 -29c4,-12 8,-23 9,-24l22 7 2 -45 -33 -12 0 -30c4,-11 8,-21 9,-23l25 8 0 -58 -34 -12 0 -28 0 -1zm99 1979l-37 -12 14 -38c5,1 33,10 36,13l-13 37zm300 -6c-4,0 -34,-8 -36,-10l15 -41 36 10 -15 41zm417 1l-44 -9 17 -48 45 9c-1,5 -10,28 -13,36 -1,5 -2,10 -5,12zm-505 -26l-38 -12c1,-6 13,-38 16,-41 7,3 32,9 36,12l-14 41zm407 5l-45 -9c2,-6 10,-27 13,-35 1,-3 2,-5 2,-6l3 -6 45 9c-2,6 -16,44 -18,47zm-98 -22l-44 -11 17 -46 45 10c-3,8 -15,42 -18,47zm844 4l-42 0 19 -52 44 0c-2,6 -7,20 -10,27 -2,4 -7,23 -11,25zm102 0l-42 1c1,-6 13,-37 16,-47 1,-3 1,-5 4,-6l41 -1 -19 53zm-202 -2l-47 -2 18 -52 48 2c-2,8 -16,47 -19,52zm-1143 -14c-4,0 -34,-10 -38,-12l15 -40 38 12 -15 40zm1446 12l-43 2 19 -53 43 -2 -19 53zm-407 -4l-42 -3c-7,-1 -5,-1 -3,-8l17 -43 47 3 -19 51zm466 1l20 -54 43 -3c-1,4 -13,36 -16,43 -7,17 -3,9 -47,14zm-569 -10l-47 -5 19 -50 46 5 -18 50zm716 -3l-44 4 20 -54 43 -5c0,5 -7,22 -9,28 -4,8 -8,18 -10,27zm-1351 -9l-36 -10 16 -45 38 9c-2,6 -6,17 -8,23l-7 18c-1,2 -1,4 -3,5zm533 0l-46 -6 18 -49 46 5 -18 50zm-924 -16l-36 -12 14 -40c7,1 33,10 37,13l-15 39zm823 1c-9,1 -34,-6 -46,-7l18 -49 46 8 -18 48zm-521 -9l-36 -11 16 -45c6,1 20,6 28,8l9 3 -17 45zm421 -8l-45 -8 17 -48 45 8 -17 48zm-509 -18c-4,-1 -35,-10 -38,-12 1,-5 14,-41 17,-44l37 11 -16 45zm410 -2c-6,0 -16,-3 -23,-4 -7,-1 -15,-3 -22,-5l17 -47 45 9 -17 47zm-99 -21c-6,-1 -42,-9 -44,-11l17 -46c6,1 41,9 44,11 -1,5 -15,43 -17,46zm-401 -5l-38 -12 16 -44 38 12c-1,9 -13,33 -16,44zm1148 0l-48 -2c2,-8 11,-29 15,-39 4,-14 2,-13 13,-12l39 1c0,3 -17,48 -19,52zm102 1l-44 0 19 -53 44 1 -19 52zm100 -2l-42 2 19 -53 43 -2 -20 53zm59 -2l19 -53 43 -3 -15 43c-5,14 -2,11 -18,12 -9,0 -19,1 -29,1zm-367 -2l-46 -3 19 -51 47 3c-2,8 -6,17 -9,25l-8 24c-2,2 -1,1 -3,2zm-102 -8l-47 -4 18 -51 47 5 -18 50zm571 3l20 -53 43 -4c-5,16 -12,33 -18,50 -2,5 0,3 -17,5 -8,1 -20,3 -28,2zm-1207 -9l-38 -9 17 -47 38 10 -17 46zm534 -5l-47 -5 18 -50 47 6 -18 49zm-928 -5l-37 -12c1,-4 15,-41 17,-44l36 12 -16 44zm1749 4l-44 5 19 -54 44 -5 -19 54zm-923 -12l-46 -7 18 -49c5,0 42,5 46,7l-18 49zm-522 -6l-37 -10c1,-5 6,-16 8,-23 2,-5 6,-19 9,-23l36 10 -16 46zm-392 -15l-40 -14 15 -43 41 13 -16 44zm814 5l-46 -9 13 -36c1,-2 1,-4 2,-6 1,-3 2,-5 4,-6l44 10 -2 4c0,2 -1,4 -2,6l-13 37zm-511 -15l-38 -11c0,-4 14,-41 16,-45 4,0 36,9 38,11l-16 45zm411 -4l-45 -9 17 -48 45 9 -17 48zm-501 -23l-39 -12 16 -45 39 12 -16 45zm402 2l-45 -10c3,-9 14,-42 17,-47l45 10 -17 47zm852 -13l-45 1 19 -53 45 0 -19 52zm-102 0l-48 -1 18 -52 48 1 -18 52zm-106 -3l-47 -3 18 -51 48 2c-1,5 -17,49 -19,52zm309 0l-43 2c2,-7 5,-15 8,-22 2,-7 4,-13 7,-21 5,-13 2,-10 19,-10 8,-1 20,-1 28,-2l-19 53zm-1050 -7l-39 -10c1,-4 16,-44 17,-46l38 9c-1,7 -14,36 -16,47zm1152 1c-10,4 -32,1 -43,4 0,-3 16,-49 19,-54l43 -3 -19 53zm-515 -1l-46 -4c0,-3 15,-45 17,-50l48 3c-2,6 -17,49 -19,51zm-1033 -8l-36 -12 15 -44 37 12c0,3 -14,41 -16,44zm931 -2l-46 -5c-1,-2 14,-45 17,-50l46 5 -17 50zm720 2l-44 5 19 -55 44 -4 -19 54zm-1346 -16l-37 -10 16 -45 37 9 -16 46zm524 2l-45 -7 0 -6c1,-2 2,-4 3,-6 1,-4 2,-8 4,-12 2,-6 6,-21 9,-25l46 6 -17 50zm927 1l-45 6 19 -54 45 -6 -19 54zm-1844 -16l-40 -13 15 -44 41 13 -16 44zm816 -1l-46 -7c2,-8 14,-45 17,-49l46 7 -17 49zm-512 -10c-5,-1 -36,-10 -39,-12l16 -45 39 11 -16 46zm412 -8l-46 -8 17 -48 46 8 -17 48zm-503 -19l-39 -12c1,-5 14,-41 16,-45 7,2 14,4 20,6 6,2 14,4 19,6 -1,5 -15,43 -16,45zm404 -1l-45 -10c0,-6 13,-40 16,-47l45 10 -16 47zm-99 -22c-4,-1 -35,-7 -38,-11l16 -45 39 9c-2,5 -15,44 -17,47zm851 2l-49 0c0,-1 14,-44 17,-50 1,-2 0,-1 2,-2l48 0 -18 52zm-106 -2l-48 -2 18 -52 48 2c-1,6 -6,20 -9,26 -3,9 -6,17 -9,26zm-1140 -5c-6,-1 -33,-10 -37,-13l15 -44 37 12 -15 45zm1303 7l18 -53 45 -1 -17 51c-2,4 -9,3 -16,3 -10,0 -20,0 -30,0zm146 -5l-43 2 18 -53 44 -2c-1,4 -7,21 -9,27 -3,8 -6,17 -10,26zm-413 -3c-4,1 -34,-2 -42,-3l-6 -1 17 -50 48 3 -17 51zm516 -4l-44 3c3,-8 16,-50 19,-53l44 -4 -19 54zm-620 -4l-47 -5 17 -50 48 4 -18 51zm-628 -9l-37 -10 16 -46 37 10 -16 46zm1351 2l-44 5c5,-15 10,-30 16,-45 4,-11 -1,-9 19,-11 10,-1 19,-2 28,-3l-19 54zm-825 -5l-47 -6 17 -50 47 6 -17 50zm-919 -8l-41 -14 15 -44 41 13c-1,4 -14,42 -15,45zm817 -7l-46 -7 17 -49 46 7c0,4 -15,46 -17,49zm-513 -6l-39 -11 15 -46 39 11 -15 46zm413 -10l-23 -5c-7,-1 -16,-3 -23,-4l16 -47c3,-2 7,0 11,1l35 6c0,4 -14,41 -16,49zm-504 -16l-39 -12c1,-6 13,-41 15,-45l39 11 -15 46zm404 -4c-5,0 -26,-5 -34,-7 -3,-1 -9,-1 -12,-3 4,-8 6,-16 8,-24 2,-3 3,-7 4,-11 2,-5 3,-10 5,-12l45 9 -16 48zm-98 -22c-5,0 -35,-7 -39,-9 3,-9 12,-42 16,-47l38 9 -15 47zm-397 -2c-4,-1 -35,-11 -38,-12l15 -45 38 12 -15 45zm1144 -4l-49 -2 17 -52 49 2 -17 52zm106 1l-49 0 17 -53 49 0 -17 53zm101 -2l-44 1 17 -53 46 -1c-1,4 -7,20 -9,26 -2,6 -6,23 -10,27zm-312 -4l-48 -3 16 -51 48 3c0,5 -14,45 -16,51zm415 -2l-43 3 17 -53c4,-2 37,-3 44,-3l-18 53zm-518 -6c-6,1 -44,-3 -48,-4 -1,-3 14,-44 16,-51 8,1 18,2 27,3 5,0 9,1 14,1 8,1 7,0 5,7 -2,6 -15,41 -14,44zm-631 -3c-4,0 -35,-8 -37,-10l15 -46 37 9 -15 47zm1208 5l17 -54 44 -4c0,6 -12,37 -14,46 -4,10 -2,8 -20,10 -8,0 -20,2 -27,2zm-1603 -14c-6,-1 -37,-11 -40,-14l14 -43c9,0 31,10 41,12 -1,7 -13,42 -15,45zm922 2l-46 -6c-2,-5 13,-43 15,-50l48 6c-2,6 -15,46 -17,50zm784 1l18 -53 45 -6c-4,14 -10,31 -15,45 -2,4 -2,8 -6,9l-42 5zm-886 -15l-47 -7 16 -49 47 7 -16 49zm-515 -3l-39 -10c1,-5 13,-44 15,-46 6,1 36,8 39,11l-15 45zm-397 -16l-41 -13 14 -45 41 14c-1,7 -4,15 -7,22 -2,7 -4,15 -7,22zm811 3l-46 -8 15 -48 47 7c-1,7 -6,18 -8,25 -2,8 -6,16 -8,24zm-506 -12l-39 -12 14 -45 40 11c-1,6 -13,42 -15,46zm406 -6c-6,-1 -43,-8 -46,-10l15 -48 46 9 -15 49zm-497 -22l-38 -11 14 -45 38 11c0,4 -12,42 -14,45zm398 0l-39 -8c0,-4 13,-44 15,-47l39 8 -15 47zm855 -13l-49 0 16 -52 50 -1 -17 53zm-107 0l-48 -1 16 -52 49 1c0,3 -6,22 -8,26 -1,5 -6,24 -9,26zm-841 -8l-37 -9 14 -48 38 10c-1,5 -13,44 -15,47zm736 4l-48 -2 16 -51 49 2 -17 51zm315 1l-45 2 16 -54 46 -1 -17 53zm-1446 -12l-41 -13 14 -45 41 13 -14 45zm1027 5l-48 -4 16 -51 48 4c-2,8 -5,17 -8,25 -2,8 -5,20 -8,26zm521 0l-44 4 17 -54 45 -3 -18 53zm-624 -10l-48 -5c1,-4 15,-48 16,-50l48 5 -16 50zm727 1l-44 4 16 -53 45 -5c0,5 -14,47 -17,54zm-1385 -23c1,-6 12,-43 14,-46l40 10c-4,14 -10,29 -14,43 -1,6 -2,4 -19,-1 -4,-1 -19,-4 -21,-6zm555 10c-8,-1 -42,-5 -47,-8l15 -49 48 7c-1,6 -14,46 -16,50zm934 0l-45 6 17 -54 45 -7 -17 55zm-1848 -14l-41 -13c0,-5 11,-37 13,-45 6,1 15,5 21,7 7,2 16,4 21,7 -1,6 -12,41 -14,44zm813 -2c-7,0 -43,-6 -47,-8l15 -48 47 8 -15 48zm-507 -9l-40 -11 14 -46 40 11c0,5 -12,43 -14,46zm406 -9l-47 -9 15 -48 37 7c6,1 11,0 10,5 -2,5 -14,43 -15,45zm-498 -17l-39 -12 14 -46 39 12 -14 46zm398 -3c-6,-1 -13,-3 -20,-4 -4,-1 -16,-3 -19,-5l14 -47 40 8 -15 48zm-92 -21l-38 -9c0,-4 12,-44 14,-47l38 9 -14 47zm-397 -5l-41 -13 13 -45c6,1 39,12 42,14 -1,6 -11,40 -14,44zm1239 6l-48 -1c1,-5 5,-16 6,-22 3,-8 5,-16 7,-23 3,-9 -2,-7 22,-7 10,0 20,0 30,0l-12 40c-1,4 -2,11 -5,13zm108 -1c-11,0 -41,2 -50,0 3,-8 5,-17 8,-26l8 -26 50 -1 -16 53zm-213 -2l-48 -2 15 -51 49 2c-1,5 -14,49 -16,51zm-104 -5l-49 -4 15 -51 49 4c-1,6 -13,47 -15,51zm374 5l16 -52c1,-1 -2,0 2,-1l44 -2 -13 44c-4,12 0,8 -21,10 -7,0 -20,1 -28,1zm104 -6l16 -54 44 -3 -14 50c-2,5 -1,3 -18,5 -9,0 -18,1 -28,2zm-582 -8l-48 -5c1,-5 14,-48 15,-50l48 5 -15 50zm-620 -7l-40 -10 13 -47 41 10 -14 47zm1350 0l-45 5c2,-7 14,-49 16,-53l45 -6c-2,9 -5,19 -8,27 -3,9 -5,19 -8,27zm-833 -4l-48 -7 15 -50 48 6c0,4 -13,45 -15,51zm-916 -8l-42 -14 13 -45 42 14c-1,5 -11,43 -13,45zm814 -7l-47 -8 14 -49 48 8 -15 49zm-508 -6l-40 -11 13 -46 41 11 -14 46zm408 -11l-48 -9 14 -49 47 9c0,3 -5,19 -7,24 -1,5 -6,20 -6,25zm-500 -15l-40 -12 13 -46 40 12 -13 46zm398 -5l-40 -8 14 -49 40 9c-1,7 -5,17 -7,24 -1,4 -2,8 -3,12 -1,3 -2,9 -4,12zm-489 -23l-43 -13c0,-4 12,-43 13,-46l42 13 -12 46zm397 2l-39 -8 13 -48 39 9 -13 47zm845 -6l-50 0 12 -44 51 -1 -13 45zm-106 -1l-50 -1 13 -45 50 2 -13 44zm213 -1l-51 2 13 -45 51 -2 -13 45zm-318 -3l-49 -4 12 -43 49 3 -12 44zm421 -2l-46 3 13 -45 46 -3 -13 45zm-525 -6c-13,0 -34,-4 -49,-5l12 -43 49 4 -12 44zm628 -2l-45 4 12 -46 46 -4 -13 46zm-1251 -1l-40 -10 13 -47 41 10c-2,9 -12,44 -14,47zm472 -14c-1,-4 3,-17 5,-22 1,-5 4,-17 6,-21l47 6c1,1 1,0 1,2l-2 8c-1,4 -2,7 -3,11 -8,27 -1,23 -30,19 -6,-1 -19,-1 -24,-3zm-870 4l-43 -14c1,-6 11,-43 13,-45l42 14 -12 45zm1752 -1l-45 5 12 -45 46 -6 -13 46zm-937 -11l-48 -7c0,-4 9,-35 11,-43l48 7 -11 43zm-509 -2l-41 -11 12 -47c9,1 30,8 41,11l-12 47zm407 -14l-48 -9 11 -42 48 9 -11 42zm-807 -3c-6,-2 -40,-14 -43,-15l12 -45 42 14c0,9 -9,34 -11,46zm306 -9l-39 -12 12 -46 40 11c-1,5 -11,43 -13,47zm400 -8l-41 -8 11 -41 41 8 -11 41zm-94 -20l-39 -8c0,-3 9,-38 11,-41l39 8 -11 41zm-397 0l-43 -13 12 -46 43 13 -12 46zm1243 -4l-51 0 11 -44 50 -1c1,5 -9,38 -10,45zm-108 -1l-48 -1 10 -44 50 1 -10 42c-1,2 0,1 -2,2zm215 -3l-51 2 11 -44 51 -2 -11 44zm-319 -1c-8,0 -45,-2 -50,-3 4,-10 7,-35 12,-43l49 3 -11 43zm-154 -12l11 -42 49 4c0,5 -10,42 -11,42 -1,2 -44,-2 -49,-4zm576 7l-46 4 11 -45 47 -3 -12 44zm-1148 -7l-41 -10c1,-6 9,-38 11,-41l41 10 -11 41zm1206 2l11 -44 45 -5 -10 42c-2,4 -4,3 -9,4 -10,1 -30,3 -37,3zm-690 -7l-47 -6c0,-4 9,-35 10,-42l49 6 -9 37c-1,4 -1,4 -3,5zm-916 -4l-43 -14 11 -45c5,1 42,12 44,14 -3,10 -9,38 -12,45zm1754 -6l-45 6 11 -45 46 -6 -12 45zm-940 -3l-48 -7 10 -42 49 7c0,4 -9,40 -11,42zm-507 -6l-42 -11 9 -40c3,0 39,9 43,11l-10 40zm405 -10l-47 -8c-1,-4 8,-37 9,-41l49 8 -11 41zm-806 -6l-44 -14 11 -46 44 14 -11 46zm307 -10l-40 -12 9 -39 40 11 -9 40zm398 -2l-41 -9 9 -40c7,0 37,6 41,8l-9 41zm-94 -20l-40 -9 9 -39c5,-1 33,6 40,8l-9 40zm-396 -5l-44 -14 9 -39 44 13 -9 40zm1134 -4l-49 -2 8 -35c3,-14 0,-10 29,-10l24 0 -9 42c-1,3 0,3 -3,5zm57 0l11 -46 51 -1c-1,5 -9,39 -10,44 -2,4 -16,3 -25,3 -9,0 -18,0 -27,0zm-161 -4l-50 -2 10 -45 51 2 -11 45zm319 0l-51 2 11 -47 51 -2 -11 47zm-1046 -9l-42 -9c1,-5 8,-37 10,-40l41 10 -9 39zm622 3l-50 -4 11 -45 49 4 -10 45zm481 2l11 -47 47 -3 -11 44c-1,4 -4,3 -9,3 -5,0 -9,1 -13,1 -8,1 -17,1 -25,2zm-1502 -18c-5,-1 -41,-13 -44,-15l9 -38c14,2 30,11 44,13l-9 40zm917 6l-50 -5 10 -44 50 5 -10 44zm734 -2l-45 5c0,-6 7,-35 10,-44 1,-4 2,-3 8,-4l38 -4 -11 47zm-838 -10l-49 -7 10 -42c5,-2 5,-1 12,0l37 5 -10 44zm-508 -4l-43 -11 9 -40 43 11 -9 40zm1449 0l-45 7 10 -46 46 -7c0,5 -3,17 -5,23 -1,4 -1,7 -2,12l-4 11zm-1043 -12l-49 -8 9 -42 49 7 -9 43zm-806 -9l-44 -15 8 -39 44 15 -8 39zm305 -5l-41 -11 9 -39 41 11 -9 39zm398 -3l-41 -8 9 -43c5,0 40,7 42,9l-10 42zm-126 -70l41 8 -10 43 -40 -9 9 -42zm-401 -6l45 13 -9 39 -44 -13 8 -39zm306 -16l43 10 -9 42 -32 -8c-4,0 -8,-1 -11,-3l9 -41zm827 10l51 0 -10 47 -51 -1 10 -46zm-106 -4l51 2 -10 47 -51 -3 10 -46zm263 3c0,5 -8,43 -10,47l-51 0 10 -46 51 -1zm108 -5l-10 47 -52 2 10 -46 52 -3zm-485 41c0,-7 3,-17 5,-24 0,-4 1,-8 2,-12 1,-4 1,-9 4,-9l49 3 -10 46 -50 -4zm-1017 -21c0,-9 6,-27 7,-38l45 14c0,5 -7,35 -8,39l-44 -15zm1605 -28c-1,6 -7,43 -11,48l-46 3 10 -47 47 -4zm-683 -6l50 5 -10 45 -50 -5 10 -45zm-607 -14l43 11 -9 42 -43 -12 9 -41zm1392 9c0,6 -7,43 -10,47 -4,2 -37,5 -45,6l10 -48 45 -5zm-889 -8l49 8c1,5 0,-2 0,1 0,0 0,3 0,3 -1,2 -1,4 -1,5 -1,4 -2,8 -3,12 -2,8 -3,14 -5,22l-49 -6 9 -45zm-104 -16l50 8 -9 45 -49 -9 8 -44zm-803 -7l45 15 -8 39 -45 -15 8 -39zm302 37c0,-5 6,-38 8,-41l41 12 -9 41c-7,-2 -36,-9 -40,-12zm406 -47l42 8 -9 44 -42 -8 9 -44zm-504 19c1,-5 7,-38 9,-41l44 13 -8 41 -45 -13zm410 -38l41 9c-1,6 -7,40 -9,43l-41 -9 9 -43zm-96 -22l43 10c-1,5 -7,41 -9,43 -7,-1 -36,-7 -42,-10l8 -43zm825 18c1,-5 1,-9 4,-10l50 0 -9 45 -51 0 6 -35zm160 -12l-8 46 -52 0 9 -44 51 -2zm-266 9c1,-5 1,-9 4,-10 10,0 42,1 49,3l-8 44 -51 -2 6 -35zm-1122 -26l45 14 -8 41c-14,-4 -30,-11 -45,-14l8 -41zm1496 12l-9 45 -52 3 9 -45 52 -3zm-477 -2l51 3c0,5 -7,41 -9,45l-50 -4 8 -44zm-105 -9l51 4c-1,7 -3,17 -4,24l-3 16c-1,4 0,3 -3,4l-49 -5 8 -43zm685 2l-9 46 -47 4c1,-7 7,-41 9,-45l47 -5zm-1293 -15l44 11 -8 43 -43 -12 7 -42zm504 0l50 7c1,9 -6,31 -7,43l-51 -6 8 -44zm837 54c0,-3 7,-43 8,-44 2,-1 42,-6 47,-6 -5,10 -5,35 -10,45l-45 5zm-948 -26c-1,-6 6,-34 7,-43l51 8 -8 43 -50 -8zm-797 -48l46 15 -7 40c-10,0 -34,-11 -46,-14l7 -41zm310 -6l42 12 -8 42c-4,0 -38,-10 -42,-12l8 -42zm398 -6l43 8c-1,7 -6,39 -8,43l-42 -8 7 -43zm-496 -22l46 13 -8 43 -45 -14 7 -42zm395 46c-1,-5 5,-39 7,-42l41 8c-1,7 -2,14 -4,22 0,3 -1,7 -1,11 -2,12 4,11 -43,1zm-90 -64l43 10c0,7 -5,39 -7,42l-43 -10 7 -42zm-410 30c1,-7 3,-16 4,-23 4,-26 -3,-20 28,-11 6,2 15,5 21,6l-7 42 -46 -14zm1397 -32l-8 49 -52 2 8 -49 52 -2zm-158 3l51 0c0,3 -7,45 -7,46 -2,3 -2,2 -6,2 -2,0 -4,0 -6,0 -5,1 -9,1 -13,1 -9,-1 -18,-1 -27,-1l8 -48zm-106 -3l51 2 -8 48 -51 -1 8 -49zm-113 43c-1,-5 2,-19 3,-25 1,-6 2,-18 5,-24 10,1 44,2 50,4 -1,8 -2,17 -4,25 -1,6 -2,23 -6,23l-48 -3zm425 3c0,-6 6,-47 8,-48 1,-1 46,-4 52,-4l-8 48 -7 1c-9,1 -40,4 -45,3zm-1132 -66c3,-1 40,8 44,10l-6 41 -45 -11 7 -40zm602 47c1,-2 1,-3 1,-5l6 -36 51 4 -8 48 -50 -5 0 -6zm693 -42l-8 49 -48 5 8 -50 48 -4zm-747 42c-5,0 -49,-5 -50,-6 -2,-1 5,-41 6,-47l50 6c3,4 -6,37 -6,47zm849 -55l-8 50 -47 6 8 -50 47 -6zm-1801 -13c5,1 44,13 45,15l-6 41c-3,0 -44,-14 -46,-16l7 -40zm804 0l51 8 -8 47 -50 -8 7 -47zm-495 -5l42 11 -6 41 -43 -11 7 -41zm398 -12l44 8 -7 47 -43 -8 6 -47zm-498 -11c1,-7 0,-6 6,-4 9,3 35,9 41,12l-6 40c-4,0 -43,-11 -46,-13l5 -35zm-313 36c-1,-6 4,-35 6,-41l45 15c0,8 -2,14 -3,21 0,6 -1,16 -3,20 -2,1 -40,-12 -45,-15zm716 -43l42 8c2,6 -6,37 -6,47l-42 -9 6 -46zm-97 -21c7,0 35,8 44,10l-6 46 -44 -10 6 -46zm-404 -8l46 15 -5 40c-5,-1 -44,-13 -46,-15l5 -40zm1392 1l-7 50 -52 1 7 -49 52 -2zm-158 4l51 -1c0,5 -6,47 -6,48 -3,4 -20,2 -25,2 -8,0 -19,0 -27,-1l7 -48zm-107 -2l52 1 -6 49 -52 -2 6 -48zm-106 -5l52 2 -6 48c-8,1 -43,-1 -52,-2l6 -48zm479 -3l-7 49 -52 3 6 -49 53 -3zm-1194 -10c4,0 43,9 45,11l-6 44c-4,1 -37,-8 -44,-10l5 -45zm605 52c-2,-5 1,-18 2,-24 0,-4 2,-23 5,-24l50 5 -7 48 -50 -5zm691 -52c-1,9 -4,44 -7,50l-47 4 7 -49 47 -5zm-791 -5c0,-2 0,-1 1,-2l50 5c1,7 -5,39 -6,48l-51 -6 6 -45zm-910 -11c3,0 43,13 47,15l-6 40 -46 -15 5 -40zm805 -6l52 7 -7 48 -50 -8 5 -47zm998 10l-6 49 -47 6 6 -47c1,-2 1,-1 1,-2l46 -6zm-1493 -14l43 12c-2,11 -3,30 -5,41 -1,5 0,3 -3,3 -1,1 -37,-9 -41,-11l6 -45zm398 -12l44 7 -6 48 -43 -8 5 -47zm-805 -10c5,-1 36,12 45,14l-5 41 -46 -16 6 -39zm307 -6l47 14 -6 44c-3,0 -41,-11 -46,-13l5 -45zm403 -2l42 8 -5 47 -43 -9 6 -46zm-98 -21c4,0 42,9 44,10l-5 46 -44 -10 5 -46zm-405 -7l47 14 -5 45c-6,-1 -17,-5 -23,-7 -8,-2 -17,-5 -23,-7l4 -45zm1235 1l52 -1 -6 49 -52 0 6 -48zm158 -4l-5 49 -52 2 5 -49 52 -2zm-265 2l52 2 -5 48c-10,0 -18,0 -27,0 -5,0 -9,-1 -14,-1 -3,0 -11,2 -11,-2l5 -47zm-106 -5l52 3 -5 48c-7,2 -43,-2 -52,-2l5 -49zm-716 -11l46 12 -5 45 -45 -11 4 -46zm610 3l51 5c0,0 0,0 0,0l1 2c0,5 -5,44 -5,46l-51 -5 4 -48zm584 4l-5 49 -52 4 5 -49 52 -4zm-1600 -22l48 15c-1,9 -3,40 -5,44 -3,1 -41,-12 -47,-14l4 -45zm1703 12l-5 49 -48 5 6 -49 47 -5zm-792 -5l52 6 -6 48 -51 -6 5 -48zm893 -7c0,5 -3,46 -5,48 -1,1 -42,6 -46,6l5 -48 46 -6zm-1494 -10l44 12 -5 44 -6 0c-1,0 -3,-1 -5,-1l-32 -9 4 -46zm496 3l52 7 -5 48 -52 -8 5 -47zm-902 -25l44 15 -4 44c-6,-1 -41,-13 -45,-15l5 -44zm804 9l45 7 -5 47c-5,1 -37,-6 -44,-7l4 -47zm-499 -15l48 13 -5 46 -46 -13 3 -46zm403 -2c3,-1 36,6 42,7 2,4 -2,39 -3,46 -4,1 -39,-6 -43,-8l4 -45zm-98 -22l45 10 -4 46 -45 -9 4 -47zm-405 -6l48 14 -4 46 -48 -15 4 -45zm1233 5l53 0 -3 41 -53 1 3 -42zm160 -3l-4 41 -52 2 4 -41 52 -2zm-266 1l52 1 -3 43 -52 -2 3 -42zm-105 -6l51 3 -3 43 -52 -2 4 -44zm-716 -15l45 11 -3 46c-4,1 -43,-10 -46,-10l4 -47zm610 5l52 5 -4 45 -52 -5 4 -45zm685 -2l-2 40 -48 5 3 -40 47 -5zm-102 11l-3 39c-6,1 -48,5 -52,4l3 -40 52 -3zm-1600 -28l47 15c2,9 -2,34 -2,46l-48 -16 3 -45zm911 7c55,7 52,2 51,15l-2 37 -52 -6 3 -46zm-602 -18l44 12 -3 46 -44 -11 3 -47zm545 57c-8,0 -16,-2 -25,-3 -31,-5 -27,-1 -26,-14l3 -38 51 8 -3 47zm950 -42l-3 40 -47 6c0,-6 2,-36 4,-40l46 -6zm-1860 23c-11,-2 -28,-9 -39,-13 -7,-2 -4,-3 -3,-21 1,-8 1,-16 2,-25l43 15 -3 44zm764 -53c3,0 41,7 44,8l-3 48 -44 -7 3 -49zm-500 -13l48 14 -3 45c-5,0 -18,-5 -24,-6 -7,-2 -16,-6 -24,-7l3 -46zm401 43c-2,-5 2,-41 2,-50l43 9 -3 50 -42 -9zm-97 -73l45 11 -2 51c-4,0 -42,-8 -46,-10l3 -52zm-405 0l48 14 -3 46 -48 -14 3 -46zm1286 -5l-2 57 -53 0 3 -55 52 -2zm214 -14l-3 61 -53 4 3 -60 53 -5zm-160 13c6,-2 45,-4 53,-4l-3 59 -52 2 2 -57zm-212 3l52 1 -3 53 -52 -1 3 -53zm-106 -4c3,-1 43,2 51,2 2,9 -2,41 -2,52l-52 -3 3 -51zm-1078 35c-7,-1 -14,-4 -21,-6 -8,-2 -14,-5 -21,-7 -6,-2 -6,-1 -6,-7l2 -40 48 15 -2 45zm361 -53l46 12 -2 53 -46 -11 0 -4 0 -3 2 -47zm610 10l52 5 -2 49 -52 -5 2 -49zm-106 -11l52 6 -2 48 -52 -6 2 -48zm-602 -25l45 12c0,14 -2,39 -2,54 -8,-1 -17,-4 -24,-6 -8,-2 -21,-4 -21,-8l2 -52zm496 11l52 8 -2 46 -52 -9 2 -45zm899 9l-3 63 -48 5 3 -62 48 -6zm-997 -25l44 8 -2 44 -44 -8 2 -44zm1097 10c1,7 -1,59 -3,64l-46 7 3 -64 46 -7zm-1195 -29l44 9 -1 42c-4,1 -28,-5 -34,-6 -7,-1 -8,-1 -10,-3l1 -42zm-705 11l43 14 -2 46 -43 -15 2 -45zm201 -48c5,0 19,6 24,7 4,1 23,6 24,9l-1 55c-5,-1 -46,-14 -48,-16l1 -55zm405 16c6,-1 37,8 45,9l0 43 -46 -11 1 -41zm-303 15l48 15 -1 54 -48 -13 0 -9 1 -47zm1291 -33l-1 50 -53 3 1 -50 53 -3zm-107 6l-1 50 -52 1 1 -50 52 -1zm-265 -1l52 1 0 4 0 6 -1 39 -52 -3 1 -47zm-107 -7l53 3 0 15 -1 33 -52 -4 0 -29 0 -13 0 -5zm-610 -5l36 8c15,4 11,-3 10,44 -7,0 -17,-4 -24,-5l-20 -6c-3,-1 -1,0 -2,-2l0 -39zm1249 -9c11,-1 40,-6 47,-5l0 49 -47 6 0 -50zm-745 4l53 6 -1 46 -52 -6 0 -46zm-106 -13l52 7 0 45 -52 -7 0 -45zm425 33l53 0 -1 49 -53 0 1 -49zm372 -17l-1 50 -52 4 1 -49 52 -5zm-1602 -23l49 16 0 4 -1 27 0 26 -48 -15 0 -4 0 -6 0 -48zm1804 -6l0 50c-4,2 -40,7 -47,8l0 -50 47 -8zm-1495 4l41 11c3,1 3,0 3,3l0 39 -45 -12 1 -41zm397 36c0,-8 -1,-36 0,-42l45 7 -1 44 -34 -6c-8,-2 -9,0 -10,-3zm-802 -66l32 11c6,2 9,2 10,5l0 56c-8,-2 -15,-5 -22,-8 -24,-8 -20,-2 -20,-21l0 -43zm302 0l49 15 -1 40c-4,0 -30,-9 -37,-11 -3,-1 -10,-1 -11,-4l0 -40zm1076 -31l0 49c-14,1 -37,0 -52,-1l0 -47 52 -1zm-158 -1c7,0 48,1 52,2l0 47 -52 -3 0 -46zm-516 39l44 8 -1 42 -43 -9 0 -41zm-506 -39l49 15 0 8 1 33 -49 -15 -1 -41zm406 18l46 10 0 40c-7,0 -36,-8 -46,-10l0 -40z"/>
   <path class="fil2" d="M109 2000l-69 -23 25 -70c7,2 68,22 70,24l-26 69zm-109 -2000l27 0 24 8 0 -8 19 0 0 15 76 26 0 -41 19 0 1 47c2,1 1,0 3,1 1,1 1,1 2,1l37 12c14,5 28,10 42,14l-1 -75 7 0 12 0 2 81c13,5 28,10 41,14l42 12 -1 -77 -66 -21 3 -9 31 0 31 10 1 -10 4 0 15 0 1 16c10,3 77,24 83,24l-1 -40 20 0 1 46c4,2 32,10 39,12 14,4 28,7 40,11l-1 -69 1 0 19 0 1 73c1,3 74,20 81,21l0 -73 -46 -11 2 -10 62 0c0,6 1,5 7,6l32 7c7,1 37,8 42,8l0 -21 1 0 18 0c1,30 -4,25 19,29 15,3 50,10 60,11l0 -40 19 0 1 44 80 13 -1 -57 5 0 14 0 1 58c1,3 4,2 8,3 3,0 5,0 9,1 11,1 63,10 70,8l-1 -70 20 0 1 73 87 9 -1 -82 19 0 1 83c9,2 79,7 87,6 2,-14 -3,-72 -1,-89l270 0 0 10 -37 1 0 84 88 -3 -2 -92 4 0 16 0 1 91 87 -5 -1 -86 4 0 15 0 1 84c13,-1 81,-7 87,-9l-1 -75 14 0 6 0 1 73 81 -11 -1 -62 4 0 16 0 1 59c9,0 56,-9 72,-11 6,-2 8,-1 9,-4l-1 -44 6 0 13 0 0 216c-1,13 -1,26 -2,38 -1,14 -1,9 1,16 0,1 0,3 1,4l0 12 -1 1c-1,0 -1,0 -3,0l-5 76 8 -1 1 8 0 11 -11 2 -8 84 17 -2 2 7 0 12 -21 3 -11 85 31 -4 1 7 0 12c-7,2 -29,4 -35,5l-13 85 46 -7 2 8 0 12 -51 7 -15 82 65 -9 1 7 0 11c-2,1 -5,1 -7,2l-63 9 -17 83 86 -12 1 7 0 12 -91 13c-2,2 -1,2 -2,5l-18 78c11,-1 78,-9 83,-12l19 -79 9 2 0 45 -7 29 5 0 2 8 0 11 -12 2 -21 81c8,0 26,-5 32,-4l1 7 0 12 -38 6 -23 82 59 -8 2 7 0 12c-14,2 -63,8 -67,11 -2,5 -5,16 -7,22l-19 67c22,-2 53,-7 76,-11 14,-2 0,-6 17,-1l0 34 -23 75 21 -3 2 7 0 12c-9,1 -26,3 -30,5 -2,2 -19,57 -23,68 -2,6 -6,16 -8,22l56 -8 5 14 0 5 -3 1c-1,0 -3,0 -4,0l-27 4c-10,2 -23,4 -34,5l-31 91 83 -12 7 -18 9 3 0 33c-1,1 -1,-1 -4,9l-30 82 33 -4 1 8 0 11c-8,2 -37,6 -41,6l-34 92 74 -11c0,1 0,4 1,7l0 12c-10,4 -70,11 -83,13 -3,10 -34,88 -32,91l87 -13c4,-5 7,-17 10,-23 2,-7 6,-18 9,-24l9 3 0 29c-2,3 -3,7 -4,11 0,0 0,0 0,0 3,2 3,1 4,8l0 0 0 12c-4,1 -9,1 -13,2l-33 90 -11 0 -9 -4 31 -82 -89 11 -27 75 -12 0c-4,-2 -7,-3 -8,-4l25 -68 -82 9 -24 63 -10 0 -9 -4 22 -58 -81 6 -21 56 -11 0 -9 -4 19 -51 -78 3c-3,0 -2,0 -4,6 -1,3 -2,4 -2,7 -4,10 -12,29 -15,39l-12 0c-3,-2 -6,-3 -8,-4l18 -47 -79 0 -19 51 -11 0 -8 -4 17 -47 -80 -2c-4,10 -7,19 -11,28l-9 25 -11 0 -8 -4 18 -49 -84 -5 -21 58 -12 0 -8 -3 20 -56 -82 -7 -25 66 -10 0 -9 -4 23 -64 -82 -9 -28 77 -11 0 -9 -4 28 -75 -81 -11 -33 90 -65 0 -39 -7 -3 7 -11 0 -8 -4 2 -7 -79 -16 -2 4c-2,6 -6,16 -8,23l-12 0 -8 -4 10 -27 -79 -17c-3,5 -7,19 -9,25l-9 23 -11 0 -8 -4 18 -49 -78 -20 -27 73 -12 0 -8 -3 28 -75 -71 -19 -27 74 46 13c0,2 0,6 -1,10l-38 0 -15 -4 -1 4 -11 0 -9 -4 2 -6 -69 -20 -11 30 -11 0 -9 -4 12 -32 -71 -22 -21 58 -11 0 -9 -3 22 -61 -70 -22c-2,2 -25,64 -26,70l19 7c-1,3 -2,6 -3,9l-34 0 -24 -9c-9,-3 -17,-6 -27,-9 -8,-3 -19,-7 -26,-9l-11 27 -10 0 -9 -4 11 -30 -14 -5 0 -12c1,-3 2,-6 3,-7l18 6 26 -71 -47 -15 0 -13c1,-3 2,-5 4,-7l50 17 26 -72 -80 -27 0 -33c9,-26 22,-62 23,-66 -5,-3 -17,-6 -23,-8l0 -11 2 -5c0,-2 0,-2 2,-4l26 9c4,-14 26,-67 27,-76l-57 -20 0 -11c1,-3 2,-6 3,-8l61 20c3,-17 24,-65 25,-76l-73 -25 -7 20 -9 -3 0 -34 19 -57c3,-8 8,-20 9,-29l-28 -9 0 -12c1,-3 2,-6 4,-8l31 11 23 -78 -58 -20 0 -11c1,-4 3,-7 3,-8l61 20c1,-2 22,-71 23,-77l-76 -26 -2 8 -9 -3 0 -37 5 -20c5,-16 11,-36 14,-52l-19 -7 0 -10 4 -9 19 7c3,-4 19,-71 20,-79l-43 -16 0 -10c1,-2 1,-3 2,-5l2 -4 44 16 16 -73 -64 -22 0 -11c1,-3 2,-7 3,-8l64 21c2,-3 14,-65 15,-72l-82 -28 0 -12c1,-3 2,-6 3,-7l83 28c2,-5 12,-68 13,-75l-80 -27 -10 53 -9 -1 0 -55 1 -3 -1 0 0 -12 2 -6c2,-4 1,-1 2,-5l11 -73 -15 -5 0 -10 3 -10 16 5 9 -75 -28 -9 0 -12c1,-3 2,-6 3,-8l28 10 8 -79c-6,-4 -30,-10 -39,-14l0 -11 3 -8c5,0 21,7 28,9 3,1 5,2 9,2 0,0 0,0 0,0 2,-8 5,-58 6,-71 0,-10 5,-7 -21,-15 -8,-3 -17,-7 -25,-9l0 -12c1,-3 2,-6 3,-7l44 15 3 -80c0,-2 -9,-4 -13,-6l-37 -13 0 -10 3 -9c9,2 43,15 47,15 2,-15 1,-75 1,-93l-51 -18 0 -10 0 -1zm928 2011l-80 -14 30 -81 80 13 -30 82zm-519 -17l-69 -19 27 -74 70 20c-2,6 -26,71 -28,73zm419 -1l-79 -15 29 -81 80 16 -30 80zm-507 -24l-70 -22c0,-5 10,-30 13,-36 4,-11 10,-26 13,-37l71 21c-1,5 -24,69 -27,74zm408 4l-79 -17 30 -80 79 17 -30 80zm-98 -22l-78 -19 29 -79 78 19 -29 79zm-399 -10l-71 -23 26 -72c0,0 66,19 71,23l-26 72zm1246 11c-12,1 -73,1 -81,-1l32 -86 80 1 -31 86zm100 0l-80 1c2,-7 6,-15 8,-22 3,-7 23,-64 26,-65l78 -2 -32 88zm-202 -2l-84 -4 32 -85 84 4c-1,2 -28,78 -32,85zm303 -2l-80 3 32 -88 75 -3 2 -1 3 0 -32 89zm-489 -9c-1,-5 26,-75 30,-84l83 5 -13 37c-5,12 -10,25 -14,38 -5,11 -2,10 -14,9 -18,-1 -60,-5 -72,-5zm510 7l33 -89 81 -6 -31 86c-2,6 -2,4 -9,4 -21,2 -54,6 -74,5zm-613 -19l30 -83 82 9c0,4 -24,65 -27,74 -4,12 -1,10 -15,8l-70 -8zm-553 -1c-6,0 -65,-16 -71,-18l29 -78c8,1 68,17 70,19l-28 77zm1269 13l33 -90 82 -9 -32 87c-1,4 1,3 -10,4 -21,2 -55,7 -73,8zm-737 -14c-6,0 -73,-9 -79,-11 -2,-3 3,-15 5,-20 3,-7 6,-15 8,-21l16 -41c5,-1 54,7 67,8 20,3 16,-6 -2,47 -3,7 -12,33 -15,38zm-924 -14c-5,0 -28,-8 -34,-10 -10,-4 -26,-10 -35,-12l26 -72 69 22 -26 72zm823 -1l-80 -12 30 -82 80 13 -30 81zm-521 -8l-70 -19 29 -78 69 19c0,5 -11,32 -14,39 -5,13 -10,27 -14,39zm420 -8c-11,-4 -63,-10 -79,-16l30 -80 80 15c-1,5 -29,79 -31,81zm-509 -17l-71 -22c3,-8 27,-74 29,-76l71 20 -29 78zm411 -2l-79 -17 29 -80 79 16 -29 81zm-99 -22c-7,-1 -75,-17 -78,-19l29 -79 78 18c-1,6 -4,14 -7,20l-22 60zm-401 -4c-6,0 -69,-21 -72,-22 2,-7 27,-75 29,-77l71 23 -28 76zm1251 -3l-81 0 32 -87 81 0 -32 87zm-103 -1c-27,0 -56,-2 -83,-3l31 -85c25,1 59,1 85,2l-28 76c-1,2 -1,3 -2,5 -1,3 -1,4 -3,5zm124 1l32 -87 79 -3c0,4 -25,70 -29,82 -4,10 -2,6 -32,7 -16,0 -33,1 -50,1zm-228 -5c-8,0 -78,-5 -83,-6l31 -84 84 5 -32 85zm-740 -11l-72 -19 29 -78 71 17c-2,10 -10,30 -14,40 -4,12 -11,27 -14,40zm1069 14l32 -89 81 -5c-6,20 -23,61 -31,84 -2,5 -2,5 -8,5l-74 5zm-432 -10l-82 -8c0,-5 26,-73 30,-84l83 7 -31 85zm-1031 -13c-6,-1 -68,-22 -70,-24 2,-6 26,-73 28,-75l69 22 -27 77zm928 2l-81 -10 29 -83 82 10 -30 83zm718 8l-81 7 32 -90 82 -7 -33 90zm104 -12l-82 10 33 -91 82 -10 -33 91zm-924 -9l-80 -13 14 -41c3,-7 5,-13 8,-20 2,-5 5,-18 8,-21l81 12 -31 83zm-523 -4l-70 -19 29 -78 70 19 -29 78zm-392 -15l-54 -18c-6,-2 -14,-4 -18,-6l27 -76 73 24 -28 76zm815 3l-80 -14 29 -81 79 13 0 5c-7,23 -21,54 -28,77zm-512 -13l-71 -21c2,-6 27,-75 29,-77l71 20 -29 78zm412 -5l-79 -17 29 -80 79 16 -29 81zm-501 -22c-8,-1 -61,-19 -72,-22l27 -77c3,0 69,20 72,22l-27 77zm402 1l-78 -18 28 -80 79 18 -29 80zm751 -15l-85 -2 16 -44c2,-5 13,-42 16,-43l84 2 -31 87zm21 0c1,-5 19,-53 23,-66 1,-2 6,-20 9,-21l80 -1 -29 83c-3,9 -5,3 -33,5 -11,0 -39,1 -50,0zm-127 -4l-83 -4 30 -85 72 3c15,1 13,-1 8,12 -3,10 -24,70 -27,74zm-743 -4l-71 -18 28 -79 71 18 -28 79zm-395 -6l-35 -11c-8,-3 -30,-9 -34,-12l26 -77 71 23 -28 77zm1447 10l-80 3c2,-7 5,-15 8,-22l19 -55c1,-2 2,-4 2,-5 2,-4 2,-5 4,-6l78 -3 -31 88zm-412 -6l-82 -7c-2,-4 5,-17 6,-21l15 -42c1,-4 3,-8 4,-11 1,-2 1,-3 2,-5 0,-1 0,-2 1,-3 1,-2 0,-1 2,-2l80 6c2,4 -12,39 -13,43 -5,13 -12,29 -15,42zm514 0l-81 5 24 -66c1,-3 6,-20 9,-23l80 -6 -16 45c-5,14 -10,32 -16,45zm-617 -10c-8,1 -68,-7 -82,-9 0,-7 25,-69 29,-83l82 9 -29 83zm-627 -11l-70 -19 27 -78 70 18 -27 79zm1348 10c-5,2 -73,9 -82,9 2,-10 22,-62 28,-78 4,-12 1,-11 13,-13 20,-2 58,-7 72,-7l-31 89zm-823 -11c-18,0 -61,-10 -82,-11l29 -82c2,0 75,9 82,11l-29 82zm-919 -11c-9,-3 -68,-22 -72,-26l26 -75 74 24c-1,5 -26,75 -28,77zm1846 10c-13,1 -28,4 -41,5 -8,1 -36,6 -42,5l33 -90 82 -12 -32 92zm-1029 -14l-80 -13 28 -81 81 13 -29 81zm-512 -9c-8,-1 -69,-18 -72,-21l27 -77 72 20 -27 78zm412 -8l-79 -15 27 -81 81 15 -29 81zm-503 -18c-11,-2 -25,-7 -36,-11 -8,-2 -30,-8 -36,-11l27 -77 72 21 -27 78zm404 -2l-79 -17 27 -80 80 17 -28 80zm-98 -22l-73 -17 28 -80 72 17c-1,7 -11,32 -14,40l-13 40zm-397 -4l-70 -22 27 -77 70 22 -27 77zm1247 4l-84 -2 30 -86 85 1c-1,6 -28,83 -31,87zm-105 -3l-84 -3 28 -81c1,-3 0,-3 3,-4l83 3c-2,10 -29,83 -30,85zm208 1l-81 2 30 -87 82 -3c-1,5 -28,82 -31,88zm-313 -6l-82 -6 21 -64c2,-4 5,-19 9,-20l82 5c-1,6 -5,15 -7,21 -4,11 -20,62 -23,64zm415 2l-80 4 15 -44c5,-15 9,-30 15,-44l81 -5 -31 89zm-519 -10l-82 -9 29 -83 83 8c0,0 -26,79 -28,82 -2,2 0,1 -2,2zm-628 -7l-70 -18 27 -79 71 18 -28 79zm1249 9l-81 6 31 -89 81 -7 -31 90zm-1643 -19l-73 -24 26 -77 74 24c-2,10 -25,74 -27,77zm921 5c-8,1 -32,-3 -41,-4 -13,-2 -29,-5 -41,-6l28 -82 82 10 -28 82zm826 3l-82 9 31 -90 82 -10 -31 91zm-928 -16l-80 -13c-1,-5 25,-77 27,-82l81 12c0,3 -11,36 -14,42 -2,7 -12,36 -14,41zm-514 -5l-72 -21 26 -78 73 20 -27 79zm413 -12l-80 -15 27 -81 81 14 -28 82zm-504 -14l-72 -22 26 -77c4,0 28,7 35,10 10,3 29,9 37,10l-26 79zm405 -5c-9,0 -30,-6 -40,-8 -13,-3 -27,-6 -40,-9l27 -80 80 16 -27 81zm-99 -21c-10,-2 -69,-16 -72,-18l26 -79 72 16c-1,6 -4,15 -6,21 -2,6 -4,13 -7,19 -4,13 -10,28 -13,41zm-398 -2c-10,-3 -65,-20 -70,-22l26 -77 71 21c-1,6 -25,75 -27,78zm1252 -7c-10,1 -32,0 -43,0 -14,0 -28,0 -43,0l29 -87 86 0 -29 87zm-108 -1l-83 -3 29 -85 85 2 -28 82c-1,3 0,3 -3,4zm-104 -4l-82 -5c-1,-4 11,-37 13,-43 5,-12 9,-33 15,-42l83 5c-2,9 -26,81 -29,85zm314 2l-81 3c2,-8 5,-15 7,-23 4,-11 20,-62 23,-65l81 -3c-2,10 -28,86 -30,88zm-1048 -10c-12,-3 -23,-6 -36,-9 -6,-2 -31,-8 -35,-10l26 -78 72 17 -27 80zm1150 5l-80 5c4,-15 10,-30 15,-45 4,-14 10,-29 14,-44l81 -5c-1,6 -5,16 -7,22 -2,8 -5,15 -8,23 -2,7 -4,14 -7,22 -2,7 -5,15 -8,22zm-519 -4l-83 -8 28 -84 83 7 -28 85zm-1026 -9l-74 -24 26 -77 74 23 -26 78zm923 -2l-82 -10 27 -83 82 10c0,7 -24,70 -27,83zm644 13l30 -89 81 -8 -29 88c-1,3 1,2 -9,3 -12,1 -66,7 -73,6zm-1262 -27l-54 -15c-6,-1 -13,-3 -18,-4l25 -79 73 19c-3,13 -8,27 -13,39 -2,7 -4,14 -6,20 -2,7 -4,14 -7,20zm516 2l-82 -13 27 -82 82 12 -27 83zm849 15l30 -89 82 -11c-3,15 -19,60 -26,79 -4,14 2,11 -37,16l-49 5zm-1762 -32l-73 -25c0,-4 23,-74 24,-77l74 25c-1,6 -4,13 -6,19l-19 58zm811 0c-24,-2 -59,-11 -80,-14l13 -40c3,-10 9,-33 14,-41l80 14c0,2 -24,78 -27,81zm-505 -10c-11,-2 -25,-7 -36,-11 -9,-2 -30,-7 -37,-11l25 -78 73 21 -25 79zm405 -8c-9,-1 -75,-14 -80,-17l26 -80 81 17c-4,13 -9,27 -13,40 -3,7 -11,36 -14,40zm-497 -19l-71 -22c3,-17 23,-64 24,-78l72 21c-1,5 -4,15 -6,20 -2,7 -4,13 -6,19 -4,13 -9,27 -13,40zm398 -1l-73 -17 26 -80 72 16c0,3 -23,77 -25,81zm-92 -22l-71 -17 25 -80 71 17c-1,11 -9,29 -12,41 -4,12 -10,28 -13,39zm949 5l-86 1 27 -87 86 -1 -27 87zm-108 0l-84 -2 27 -86 86 2c-5,14 -9,29 -14,43 -2,6 -12,42 -15,43zm-104 -3l-84 -4 26 -85 85 4 -27 85zm-1133 -8l-37 -11c-11,-4 -27,-8 -37,-12l23 -75c2,-2 1,-1 2,-3l74 24c-4,12 -21,72 -25,77zm1447 7l-81 4 26 -84c1,-3 0,-3 3,-4l81 -4c-5,15 -10,29 -14,45 -2,8 -11,38 -15,43zm-419 -5l-83 -7 25 -80c1,-4 0,-3 3,-4l82 6 -27 85zm522 -1l-81 5 28 -88 81 -7 -28 90zm-625 -8l-82 -9c0,-3 24,-80 26,-84l81 9c2,3 -3,16 -5,21 -2,7 -4,14 -7,21 -4,14 -9,29 -13,42zm-619 -10l-73 -19c0,-5 4,-14 6,-20 1,-6 4,-14 6,-20 2,-6 4,-13 6,-19 1,-5 4,-16 6,-20l73 19c-1,6 -4,13 -5,19 -3,8 -5,13 -7,21 -2,6 -4,12 -6,19 -2,6 -5,14 -6,20zm1347 7l-82 9 29 -90 81 -8c0,1 0,1 -1,4 0,2 -1,4 -2,6 -7,24 -19,58 -25,79zm-830 -9c-10,-1 -77,-10 -82,-13l25 -82 82 11 -25 84zm-916 -11l-74 -25 24 -77 75 25c-2,7 -23,75 -25,77zm1851 7c-10,2 -69,9 -83,11l14 -46c2,-7 5,-14 7,-22 2,-6 5,-17 8,-23l82 -11 -28 91zm-1037 -11l-81 -14 25 -82 81 13 -25 83zm-507 -8l-74 -20 24 -79 74 20 -24 79zm406 -10c-8,-1 -77,-14 -80,-16l24 -81 81 15 -25 82zm-498 -16c-10,-2 -26,-8 -36,-11 -11,-3 -25,-9 -36,-11l24 -78 71 21c0,3 -1,7 -2,10l-9 29c-4,14 -9,27 -12,40zm397 -4l-72 -16 24 -81 74 16c-3,11 -22,76 -26,81zm-91 -21l-72 -17c0,-3 22,-77 24,-80l72 17 -24 80zm-397 -4c-5,0 -70,-21 -75,-23l23 -78 76 24 -24 77zm1241 2l-85 -1 25 -86 86 0c-1,7 -10,36 -13,44 -4,12 -8,33 -13,43zm-106 -2l-85 -4 26 -85 85 3c-1,8 -10,34 -13,43l-13 43zm213 0l-86 2 26 -87 86 -2 -26 87zm-318 -5l-83 -6c0,-3 22,-78 25,-85l84 6 -26 85zm421 1c-8,1 -75,5 -82,3l26 -87 83 -4 -27 88zm-524 -10l-84 -8 25 -84 83 8 -24 84zm-621 -4c-8,-1 -28,-7 -37,-9 -12,-3 -25,-8 -37,-10l23 -80 74 19 -23 80zm1166 13l27 -89 81 -7c-2,10 -19,63 -23,78 -4,14 2,11 -37,14 -16,1 -32,3 -48,4zm-1565 -24l-75 -25 22 -78c4,1 67,22 76,25 -4,14 -12,41 -17,58 -2,6 -5,13 -6,20zm917 4l-83 -11 24 -83 83 11c0,5 -10,34 -12,41 -4,14 -9,29 -12,42zm751 11l26 -89 82 -10c0,4 -20,71 -23,80 -1,3 -2,8 -4,10 -1,1 -31,4 -34,4 -12,1 -36,5 -47,5zm-854 -25l-81 -13 24 -82 82 12c-1,6 -4,15 -6,21 -2,7 -4,14 -6,21l-13 41zm-508 -4l-74 -20 23 -80 74 21c-2,12 -8,29 -11,40 -3,8 -9,34 -12,39zm407 -13l-81 -15 23 -82 82 15c-1,6 -21,77 -24,82zm-500 -13c-4,-1 -13,-3 -17,-5 -10,-3 -51,-14 -55,-17l22 -78 73 21 -23 79zm400 -6l-74 -16 23 -81 73 15c2,5 -21,70 -22,82zm-93 -20c-7,-1 -70,-16 -73,-18l22 -80 73 17 -22 81zm-398 -1l-75 -24 22 -78c3,0 74,22 76,23l-23 79zm1351 -11l-86 3 22 -80 86 -3 -22 80zm-108 3l-85 -1 22 -79 86 0 -16 60c-2,4 -4,18 -7,20zm-105 -1l-84 -3c-1,-2 0,0 0,-3l10 -36c3,-10 9,-30 10,-40l86 3 -22 79zm-105 -5l-85 -5 22 -78 84 5 -21 78zm-105 -7l-83 -8 21 -77 84 8 -22 77zm527 4c-4,1 -16,2 -20,2l-63 3 22 -80 83 -5 -22 80zm-1149 -4c-6,-1 -71,-17 -74,-19l22 -80 74 19 -22 80zm1251 -4l-81 7c1,-6 21,-79 23,-81l81 -8c-3,13 -12,45 -17,61l-6 21zm-1651 -5l-75 -25 21 -78 75 24c1,3 -3,15 -4,19 -2,7 -4,13 -6,20 -3,13 -7,27 -11,40zm919 -1l-83 -11 20 -72c1,-4 0,-3 2,-4 14,1 29,4 43,5l31 4c11,1 9,-2 3,22 -2,6 -4,12 -6,18 -2,10 -7,30 -10,38zm836 -7l-82 10 22 -81 82 -11 -22 82zm-939 -7l-82 -12c2,-10 19,-74 21,-76l81 12c1,3 -3,15 -4,18 -1,7 -3,13 -5,20 -3,12 -8,26 -11,38zm-509 0c-6,-1 -72,-19 -75,-21l22 -79 75 20 -22 80zm408 -17c-4,1 -76,-11 -82,-14l20 -75c7,1 80,14 81,15 2,1 -8,32 -9,36 -3,12 -7,28 -10,38zm-809 1l-75 -26 21 -78 75 25c0,7 -8,31 -10,39 -3,12 -7,29 -11,40zm308 -10c-6,-1 -13,-4 -18,-5l-55 -16 21 -80 73 21 -21 80zm399 -9l-74 -15c2,-12 7,-25 10,-37 2,-7 8,-35 10,-38l74 16 -20 74zm-93 -19c-5,-1 -70,-15 -73,-17l19 -74 73 16 -19 75zm-399 1c-10,-2 -26,-9 -38,-12 -5,-2 -12,-4 -18,-6l-17 -5c-2,-1 -1,0 -2,-2l20 -78 76 23c0,5 -18,76 -21,80zm1245 -10l-86 1 20 -78 86 -1 -20 78zm-108 0l-84 -2 20 -78 86 2c-3,14 -7,27 -10,40 -1,4 -9,36 -12,38zm-104 -3l-85 -5c1,-7 19,-75 21,-77l84 5 -20 77zm247 3l-15 0 21 -79 87 -3c-2,9 -6,25 -9,34 -3,12 -6,24 -9,35 -3,10 -1,10 -12,10 -18,1 -43,3 -63,3zm-352 -10c-8,0 -76,-6 -84,-7l20 -77 84 8c0,5 -18,71 -20,76zm-621 -3l-75 -18 19 -74 75 18 -19 74zm1149 3l-83 6 20 -80 83 -5 -20 79zm-631 -9l-84 -10 19 -76 84 10 -19 76zm733 -1l-81 9 20 -81 82 -8c-1,8 -8,31 -10,40 -3,14 -7,27 -11,40zm-1652 0l-75 -24c0,-6 7,-32 9,-40 3,-11 8,-28 10,-40l76 25 -20 79zm815 -12l-82 -12c0,-3 1,-6 2,-9 3,-12 15,-63 17,-66l82 12 -19 75zm-508 -5c-4,0 -71,-18 -75,-20l18 -73 75 20 -18 73zm1449 5l-82 10 20 -81 82 -11 -20 82zm-1043 -16c-6,0 -75,-12 -82,-14l18 -74c5,-1 33,5 41,7 3,0 40,6 40,6 2,1 2,-1 0,9 -1,3 -2,6 -3,9l-14 57zm-807 -3l-76 -25 19 -79c5,1 75,24 76,25l-19 79zm307 -11c-6,0 -64,-18 -73,-21l17 -73 74 21 -18 73zm398 -3c-10,-3 -70,-13 -74,-16l17 -74 75 15c0,6 -15,63 -18,75zm-94 -20l-73 -16 17 -74 74 16 -18 74zm-396 -4l-77 -23 17 -73 77 23 -17 73zm304 -17c-9,0 -29,-6 -38,-9 -12,-2 -26,-6 -38,-9l17 -73c7,1 73,17 76,18l-17 73zm833 9c-14,0 -31,0 -44,-1 -12,-1 -31,1 -42,-2l19 -79 86 2 -19 80zm107 -1l-87 1c4,-20 12,-48 17,-70l3 -10 86 -2 -19 81zm-213 -2l-85 -4 19 -79 62 3 4 0 7 0 12 0c0,6 -17,75 -19,80zm320 -2l-87 4 19 -81 87 -5 -19 82zm-425 -4l-84 -7 18 -78c2,0 76,5 85,7 -2,12 -7,27 -9,39 -2,8 -8,34 -10,39zm529 -3l-84 6 20 -82 83 -7 -19 83zm-1551 -9l-76 -25 16 -72c6,0 31,9 38,11 13,5 26,8 39,13 0,7 -6,28 -8,36 -2,11 -7,25 -9,37zm918 3l-84 -9 18 -78 84 9c0,7 -7,31 -9,39 -3,13 -6,27 -9,39zm-104 -12l-83 -11 18 -78 83 12 -18 77zm757 15c1,-5 12,-50 15,-61 1,-6 2,-17 5,-21l81 -9c-1,10 -14,65 -18,78 -1,7 0,5 -17,7l-66 6zm-1266 -17c-2,-1 -69,-17 -75,-21l16 -71c6,-2 63,17 76,18l-17 74zm406 -13l-82 -13 17 -77 83 13c-3,12 -5,26 -8,39 -3,9 -7,32 -10,38zm-806 -7c-14,-6 -70,-22 -76,-26 0,-6 14,-70 16,-72l76 25 -16 73zm306 -6l-74 -20c1,-11 6,-25 8,-37 2,-7 6,-33 8,-36l74 21 -16 72zm398 -4c-9,-1 -71,-13 -75,-15l17 -76 75 14 -17 77zm-491 -22c-8,-1 -45,-14 -57,-17 -7,-2 -14,-5 -20,-6l15 -72c6,0 64,19 78,22l-16 73zm397 3c-10,-1 -68,-13 -74,-16l16 -76 74 16 -16 76zm-93 -21c-8,0 -63,-15 -76,-17l16 -76 76 18c-1,14 -15,58 -16,75zm835 2l-52 0 -18 -1 -17 0 18 -81 86 1 -17 81zm20 0l17 -81 87 -2c-1,9 -14,64 -17,77 -1,6 -1,5 -17,5 -17,0 -59,2 -70,1zm-126 -2l-86 -4 17 -80 86 4 -17 80zm-107 -5l-84 -6 17 -80 85 6c-3,20 -10,49 -15,71 -2,9 0,7 -3,9zm-1022 -7l-77 -24c0,-7 13,-69 15,-72l77 24 -15 72zm1449 7l-87 5 17 -82 87 -5 -17 82zm20 -1l18 -82 83 -7c-2,10 -13,64 -17,78 -1,6 1,4 -17,6 -17,1 -52,5 -67,5zm-550 -7l-84 -9 16 -79 84 8 -16 80zm-614 -9l-76 -20 15 -76 76 20c0,7 -13,64 -15,76zm510 -3c-7,1 -70,-10 -83,-11 -1,-3 14,-75 16,-78l82 10c1,4 -13,71 -15,79zm840 1l-82 9 17 -81c2,-2 0,-1 2,-2 1,0 1,0 2,0l78 -9 -17 83zm-943 -16c-6,1 -34,-4 -42,-6 -13,-2 -29,-5 -42,-7l16 -78 83 14 -15 77zm-808 -3c-6,0 -74,-23 -77,-25l14 -72c2,0 76,25 78,26l-15 71zm305 -5l-74 -20 15 -75 75 20c-1,6 -14,72 -16,75zm400 -8l-76 -14 15 -78 77 14 -16 78zm-493 -18l-78 -23 14 -75 79 23 -15 75zm398 -1l-75 -15 15 -77 75 15c0,9 -6,29 -7,38 -3,13 -6,26 -8,39zm-94 -20c-7,-1 -74,-16 -76,-18l14 -77c8,2 74,17 75,18 2,1 2,0 0,8l-13 69zm836 -4l-86 0c3,-13 5,-27 7,-40 1,-4 7,-38 9,-39l85 0 -15 79zm107 -2l-87 2c1,-12 5,-27 8,-40l5 -30c1,-6 1,-9 4,-9l85 -3 -15 80zm-213 1c-6,1 -73,-3 -86,-3l15 -79 86 3c-1,10 -13,74 -15,79zm-1131 -3c-13,-4 -26,-8 -39,-12 -13,-5 -26,-9 -38,-13l13 -75 79 25c-3,12 -5,25 -7,38 -2,8 -5,30 -8,37zm1026 -2l-86 -5 15 -79 85 6 -14 78zm426 -2l-88 6 15 -80 44 -3c13,-1 31,-1 44,-3l-15 80zm-531 -5l-85 -8 14 -78 85 8 -14 78zm-616 -6c-8,-1 -74,-17 -76,-20l14 -76 77 20c-1,7 -13,72 -15,76zm1250 3l-83 7 15 -81 83 -7 -15 81zm-739 -8c-9,0 -78,-9 -84,-11l14 -76c1,-1 0,0 2,-1l39 5c15,2 29,4 43,5 1,12 -12,64 -14,78zm842 -4l-83 10 15 -81 82 -11 -14 82zm-1754 -7l-78 -26 13 -74 78 25 -13 75zm809 -3c-16,-1 -59,-8 -79,-12 -2,0 -1,0 -2,0l-3 -2 13 -76 84 13 -13 77zm-503 -6c-6,1 -64,-17 -75,-20l13 -76 75 20 -13 76zm323 -25l13 -76 77 14c-2,12 -5,26 -7,38 -1,5 -5,36 -7,38 -2,1 -72,-12 -76,-14zm-418 -1l-78 -23 13 -76 79 23c-1,8 -12,73 -14,76zm324 -18c-1,-3 5,-33 6,-37 1,-6 5,-34 6,-38 1,-1 -2,-2 9,1l66 13c1,4 -5,35 -5,38 -1,6 -6,36 -8,38 -1,1 -14,-2 -17,-3 -14,-3 -46,-9 -57,-12zm-20 -4l-77 -18 13 -76 77 18 -13 76zm-401 -7c-5,0 -76,-23 -79,-25l13 -75c9,1 28,9 39,12l39 12c1,7 -10,65 -12,76zm1238 0l-86 0 13 -83 86 0 -13 83zm107 -3c-11,1 -78,4 -87,3l14 -83 86 -3 -13 83zm-213 3l-86 -3 13 -82 86 2 -13 83zm-107 -4l-76 -5c-12,-1 -9,2 -5,-22l9 -61 86 5c0,12 -4,30 -6,42 -2,10 -5,32 -8,41zm-720 -12c-11,-2 -72,-17 -77,-20l11 -73c4,-3 35,7 39,8 6,1 13,3 19,5 6,1 15,3 20,5 0,7 -4,29 -5,38 -2,6 -2,12 -4,19 0,6 -2,13 -3,18zm1147 7l-87 6 14 -84 87 -6 -14 84zm-531 -3l-85 -7c0,-5 12,-81 13,-81 2,-2 36,2 41,3 15,1 29,2 44,3l-13 82zm-105 -11c-5,2 -81,-9 -84,-9l12 -82 85 11 -13 80zm657 12l13 -84 83 -8c0,6 -12,77 -13,81 -1,5 -1,4 -7,4 -3,1 -7,1 -10,1 -8,1 -15,2 -22,3 -15,1 -29,3 -44,3zm-1570 -20c-7,-1 -76,-23 -79,-26l11 -75 79 25c1,8 -10,64 -11,76zm1755 0c-7,2 -71,9 -82,10l13 -81c0,-1 0,-1 0,-1l1 -2 81 -11 -13 85zm-946 -4l-84 -13c-1,-4 11,-78 12,-81l83 13c2,4 -4,35 -5,40 -2,14 -4,27 -6,41zm-503 -5c-8,-2 -72,-19 -76,-22l11 -74c4,0 65,18 76,20l-11 76zm399 -12c-6,0 -74,-12 -77,-14l12 -79 77 13 -12 80zm-803 -10l-79 -27 12 -76 78 26 -11 77zm309 -5c-9,0 -70,-21 -79,-22l10 -76 80 23 -11 75zm398 -2c-3,0 -68,-13 -76,-15l11 -79c3,-2 15,1 19,2 7,1 13,3 19,4 13,2 26,5 39,7 -1,14 -4,27 -6,40 -1,8 -4,35 -6,41zm-496 -26l-79 -25 9 -75 80 24 -10 76zm324 -11l10 -80 78 17c0,11 -7,55 -10,71 -1,7 0,8 -2,9 -2,0 -68,-15 -76,-17zm722 1l11 -83 86 2 -11 82c-1,3 -3,1 -7,1l-35 -1c-14,0 -29,-1 -44,-1zm299 -1l-87 3 12 -84 86 -3c1,9 -3,33 -5,42 -1,14 -3,28 -6,42zm-106 3l-87 1 11 -84 87 0 -11 83zm-213 -3l-86 -5 11 -83 86 5 -11 83zm-722 -5c-8,-1 -30,-7 -39,-10 -12,-2 -28,-6 -39,-10l11 -79 78 19c0,9 -9,76 -11,80zm616 -2l-85 -8 11 -82 86 8c-1,9 -10,78 -12,82zm533 0c-12,2 -30,2 -43,3 -14,1 -30,2 -44,3l11 -84 87 -6 -11 84zm-638 -10c-6,0 -82,-9 -83,-10 -2,-1 0,-14 1,-19 2,-16 7,-49 8,-63l85 10c0,10 -8,77 -11,82zm-993 -29l9 -75 80 26c1,7 -6,49 -8,62 0,2 -1,9 -1,11 -1,3 -4,1 -7,0 -13,-4 -24,-8 -36,-12 -11,-3 -27,-8 -37,-12zm1734 29c-7,2 -74,8 -83,8l11 -84 83 -8c-2,14 -4,28 -5,42 -2,8 -4,36 -6,42zm-1349 -12l-76 -21 10 -80 77 21 -11 80zm504 -1l-84 -12 9 -82 86 13 -11 81zm947 0l-82 11 11 -85 82 -11 -11 85zm-1855 -23c-5,0 -68,-23 -78,-26l9 -75 78 26 -9 75zm804 7l-77 -13 9 -81 78 13 -10 81zm-495 -10c-8,0 -31,-8 -40,-11 -12,-3 -28,-9 -40,-12l9 -79 81 23 -10 79zm398 -7l-76 -15 9 -80c1,-1 1,0 2,-1 1,0 2,1 3,1 0,0 3,0 4,1 12,2 66,12 68,14l-10 80zm-577 -47l8 -78 81 24c0,6 -6,62 -8,76 -1,5 -2,3 -8,2 -11,-4 -68,-21 -73,-24zm482 27c-8,0 -30,-6 -39,-8 -12,-3 -27,-7 -39,-9l9 -80 78 17 -9 80zm-97 -22l-79 -19 8 -80 79 19c0,11 -2,28 -4,40 -1,13 -3,27 -4,40zm826 5l-84 -2 8 -83 87 2c0,12 -5,48 -7,64 -1,7 -1,19 -4,19zm215 -4c-14,1 -80,5 -87,3l9 -83c13,0 80,-4 87,-3 0,10 -7,77 -9,83zm-106 4l-87 1 9 -83 86 -1 -8 83zm-213 -3l-86 -4 9 -83 86 5c-1,13 -3,28 -4,41 -2,11 -3,31 -5,41zm427 -9c-6,2 -35,4 -43,4 -14,1 -30,2 -45,3l9 -84 87 -6 -8 83zm-533 3c-7,0 -79,-6 -85,-7l8 -83c8,1 85,8 85,8 2,1 0,6 0,8l-8 74zm-105 -9l-86 -10 9 -82 85 10 -8 82zm-995 -23l7 -80 81 26c-2,10 -5,60 -8,76 0,3 2,5 -7,2 -14,-5 -67,-21 -73,-24zm1652 28c3,-13 7,-79 10,-84l82 -8c-1,9 -8,80 -9,82 -1,3 -13,3 -19,4 -7,1 -14,1 -21,2 -11,1 -33,5 -43,4zm-1266 -16c-10,-1 -28,-7 -39,-10 -6,-2 -35,-10 -38,-10l8 -81 77 21 -8 80zm504 -2l-86 -12 8 -82 86 12 -8 82zm865 7l9 -84 81 -11c1,6 -7,82 -8,83 -2,3 -35,6 -40,7 -13,2 -28,4 -42,5zm-1774 -24c-6,-1 -14,-4 -20,-6 -7,-2 -13,-4 -20,-7 -7,-2 -34,-11 -38,-13l8 -79 77 26 -7 79zm804 1l-77 -13 7 -81 78 13 -8 81zm-495 -9c-6,1 -71,-19 -81,-22l7 -79c3,-2 15,3 19,4l62 18 -7 79zm397 -7l-76 -16 7 -81 77 15c1,10 -2,30 -3,41l-3 36c-1,4 -1,3 -2,5zm-95 -20c-11,-2 -73,-15 -78,-18l6 -80 79 17 -7 81zm-402 -2c-4,1 -34,-9 -41,-11 -13,-4 -28,-9 -40,-13l6 -80 81 25 -6 79zm1346 -22c-14,1 -29,1 -43,2 -12,0 -33,3 -44,1l6 -75 87 -3 -6 75zm-214 5l-86 -2 6 -77 87 3c-1,12 -2,25 -3,38 -1,8 -2,32 -4,38zm-828 -4c-1,0 0,0 -2,0l-38 -8c-7,-2 -34,-8 -39,-11l6 -80 79 19 -6 80zm1149 -9l-87 7 6 -75 87 -6 -6 74zm-208 -60l-6 72c-10,2 -71,1 -86,1l6 -76 86 0 0 3zm-218 70c-21,0 -63,-3 -86,-4 -1,-3 0,-5 0,-9 2,-18 5,-56 5,-70l87 6 -6 77zm-106 -6c-15,0 -38,-3 -55,-4 0,0 0,0 0,0l-31 -3 6 -80 86 9 -6 78zm-106 -10c-4,2 -77,-7 -86,-9l6 -81 81 10c4,1 5,0 5,6l-6 74zm-915 6c-6,-1 -75,-24 -81,-26l5 -80 82 26 -6 80zm1656 -10l-83 9 6 -76 82 -8 -5 75zm-1423 -105c8,-1 67,18 79,20l-6 80c-4,1 -72,-18 -78,-20l5 -80zm1530 16l-6 75 -82 11 6 -75 82 -11zm-1033 -13l86 13 -6 82 -86 -13 6 -82zm-99 -18c8,0 47,8 60,11 5,1 16,1 19,4l-5 81c-1,0 -1,0 -1,0l-39 -5c-12,-2 -27,-6 -39,-7l5 -84zm-499 -14l82 23 -5 81c-11,-2 -30,-9 -41,-12 -13,-3 -28,-7 -41,-12l5 -80zm-304 6l77 25 -5 81 -77 -26 5 -80zm706 -12c12,1 27,5 40,8l29 6c10,2 8,1 9,3l-5 83c-6,0 -67,-12 -77,-15l4 -85zm-504 -25l74 22c4,1 9,1 9,5 0,10 -4,71 -5,79l-41 -13c-7,-2 -14,-4 -21,-6 -5,-1 -17,-4 -19,-7l3 -80zm405 2c12,1 46,10 62,14 6,1 18,3 18,6 0,20 -3,62 -4,84l-80 -17 4 -87zm805 90c-24,0 -45,-2 -67,-2 -5,0 -19,0 -19,-2 -1,-1 4,-77 4,-86l87 1c0,23 -3,64 -5,89zm-904 -116l80 20 -4 88 -80 -19 4 -89zm1229 9l-5 96 -87 6 4 -94 88 -8zm-214 16c0,11 -3,81 -4,91 -13,1 -70,0 -87,0l5 -89 86 -2zm-299 -3l86 4c1,10 -3,78 -4,86 -8,-2 -71,-2 -86,-6l4 -84zm-106 -8c4,-1 35,2 43,3 12,1 31,1 43,3l-4 85 -76 -7c-2,0 -4,-1 -6,-1 -3,0 -1,0 -4,-1l4 -82zm425 11c4,-2 76,-6 87,-6 0,2 -3,85 -5,92l-1 1c0,0 0,0 -1,0 -5,1 -78,4 -85,3l5 -90zm-531 -23l86 10 -4 82c-14,-1 -29,-3 -44,-5l-33 -4c-9,-2 -7,-1 -9,-3l4 -80zm-912 -10c6,0 33,10 42,12 6,2 14,5 20,7 7,2 15,5 21,6l-4 80c-1,1 0,1 -3,1l-78 -26 2 -80zm385 92c-9,-2 -75,-19 -77,-21 -2,-1 -1,2 -2,-2l2 -42c1,-14 0,-32 2,-46l78 22 -3 89zm-480 -125l76 26 -3 81 -68 -23c-7,-2 -7,-1 -8,-4l3 -80zm900 28l87 12 -3 81c-10,0 -82,-11 -86,-14l2 -79zm933 9c1,6 0,17 -1,25l-2 61c0,2 0,4 -1,6 0,6 0,5 -1,5 -3,2 -72,9 -81,10l4 -96 82 -11zm-1031 -26l79 14 -3 79c-7,0 -69,-12 -79,-14l3 -79zm1132 10c1,6 -3,93 -4,100l-81 11 4 -98 81 -13zm-1735 -69l79 25c4,1 3,0 5,2 0,3 -2,86 -3,91l-82 -25 1 -93zm406 17l80 19 -2 77 -41 -9c-45,-11 -39,-6 -38,-22l1 -65zm-303 15l83 25 -3 89c-10,-1 -77,-21 -82,-23l2 -91zm1532 -52l0 85 -82 11 1 -85 81 -11zm-1130 60l79 15 -3 79 -78 -16 2 -78zm816 -31c2,11 -1,68 -1,85 -13,1 -77,3 -87,2l2 -84 86 -3zm-299 0l86 2c2,7 0,34 0,43 0,13 -1,27 -1,41l-87 -4 2 -82zm-213 -18l86 8c2,10 0,32 0,42 0,14 0,27 0,40l-87 -10 1 -80zm-911 -25l83 28 -1 92c-15,-3 -29,-9 -43,-13 -5,-2 -38,-11 -40,-15l1 -92zm804 11l88 12 -2 80c-10,-2 -75,-10 -82,-12 -6,-1 -3,0 -4,-2l0 -78zm-397 15l81 21 -1 76c-8,1 -67,-17 -81,-20l1 -77zm1230 1l-2 85 -87 9 0 -4 1 -10 0 -71 88 -9zm-107 10l-2 85 -87 5c0,-14 1,-28 1,-43 0,-3 0,-38 2,-41l86 -6zm-300 9l87 1 -2 84 -86 -1 0 -4 1 -80zm-213 -11l87 7c1,26 -1,55 -1,82 -7,0 -74,-6 -87,-7l0 -10 1 -72zm-311 -39l79 12 -1 79 -79 -13 1 -78zm-726 91c-10,-2 -27,-9 -37,-12 -6,-2 -12,-4 -19,-6 -24,-8 -21,-5 -21,-17 0,-15 0,-79 1,-84l76 25 0 94zm1858 -89l0 83c-2,3 0,2 -4,3l-36 6c-14,2 -28,5 -42,6l1 -85 81 -13zm-1633 -29l83 24 0 77c-13,-3 -28,-8 -42,-12 -13,-4 -28,-9 -41,-12l0 -77zm103 39l0 -2 0 -7c5,1 78,22 80,22l-1 77 -79 -22 0 -32 0 -36zm299 -30c18,2 49,9 70,13 6,1 8,0 9,3l0 76 -79 -16 0 -76zm516 -36l87 2 1 82c-29,0 -59,-3 -87,-3l-1 -70 0 -11zm-615 89l-1 -67 0 -7 81 17 0 75c-7,0 -31,-6 -41,-8 -13,-3 -26,-6 -39,-10zm808 -87l1 83 -87 -1 -1 -81 87 -1z"/>
  </g>
 </g>
</svg>
